<svg id="Layer_1" data-name="Layer 1" xmlns="http://www.w3.org/2000/svg" width="137" height="121" viewBox="0 0 137 121"><defs><style>.cls-1{fill:#3d2612;}.cls-2{fill:#603813;}.cls-3{fill:#68543a;}</style></defs><title>back</title><ellipse class="cls-1" cx="63.5" cy="60.5" rx="55.5" ry="56.5"/><ellipse class="cls-2" cx="64.25" cy="58.64" rx="49.85" ry="49.56"/><ellipse class="cls-3" cx="63.64" cy="60.45" rx="48.03" ry="47.75"/><path d="M40.42,58.89a9.84,9.84,0,0,0-.08-1,1.14,1.14,0,0,0-.14-.48.68.68,0,0,0-.24-.2l-.44-.26a.3.3,0,0,1-.16-.28.27.27,0,0,1,.06-.16,1.84,1.84,0,0,1,.32-.26,9,9,0,0,1,.82-.46L42.11,55a1.07,1.07,0,0,1,.27-.09,2,2,0,0,1,.5,0,5.21,5.21,0,0,1,2.34.44,1.57,1.57,0,0,1,.86,1.54,5,5,0,0,1-.08.94,1.89,1.89,0,0,1-.36.74,4.26,4.26,0,0,1-.78.71,13.29,13.29,0,0,1-1.34.83,4.67,4.67,0,0,1,.94.46,7.12,7.12,0,0,1,1,.81,5.71,5.71,0,0,1,.85,1,2.06,2.06,0,0,1,.35,1.1,1.93,1.93,0,0,1-.38,1.14,4.5,4.5,0,0,1-1,1,7.07,7.07,0,0,1-1.26.74c-.47.21-.9.39-1.31.53a8.76,8.76,0,0,1-1.06.33,2.83,2.83,0,0,1-.58.11,5.58,5.58,0,0,1-1.26-.09c-.21-.06-.31-.16-.31-.32a.51.51,0,0,1,.22-.36.73.73,0,0,0,.25-.46,6.22,6.22,0,0,0,.13-.85c0-.38.08-.8.12-1.28s.08-1,.1-1.51,0-1.05,0-1.56C40.44,60,40.43,59.34,40.42,58.89ZM41.52,65a3.93,3.93,0,0,0,0,.5.34.34,0,0,0,.12.21.49.49,0,0,0,.19,0,4.63,4.63,0,0,0,.94-.12,4.32,4.32,0,0,0,1.1-.37,3.31,3.31,0,0,0,.91-.64,1.33,1.33,0,0,0,.38-1,1.36,1.36,0,0,0-.28-.78,4.53,4.53,0,0,0-.69-.8,5.57,5.57,0,0,0-.9-.7,4.72,4.72,0,0,0-.92-.47,2,2,0,0,0-.37.16,1.45,1.45,0,0,0-.29.21,1.48,1.48,0,0,0-.2.75c0,.39-.05,1.07-.05,2C41.51,64.5,41.52,64.8,41.52,65ZM42,59.88a.44.44,0,0,0,.28.1,1.17,1.17,0,0,0,.62-.29,4.56,4.56,0,0,0,.77-.71,5.26,5.26,0,0,0,.67-.9,1.66,1.66,0,0,0,.29-.87,1.26,1.26,0,0,0-.13-.55,1.42,1.42,0,0,0-.4-.49,2.37,2.37,0,0,0-.63-.36,2.21,2.21,0,0,0-.84-.14,1.09,1.09,0,0,0-.61.16.67.67,0,0,0-.26.62v3.22Z"/><path d="M52.28,64.12a1.67,1.67,0,0,0-.68.71l-1,1.79a1.06,1.06,0,0,0-.13.39c0,.14-.12.2-.31.2a3,3,0,0,1-.93-.12c-.23-.08-.35-.2-.35-.35a.59.59,0,0,1,.21-.39c.13-.14.29-.32.47-.55s.53-.69.83-1.13.6-.9.91-1.38.6-1,.89-1.45.54-.93.76-1.34.4-.78.54-1.08a2,2,0,0,0,.21-.65A1.92,1.92,0,0,0,53,57.66L51.27,56a2.45,2.45,0,0,0-.5-.43.33.33,0,0,1-.2-.29s0-.12.15-.19a3.76,3.76,0,0,1,.36-.23,3.3,3.3,0,0,1,.43-.19.91.91,0,0,1,.36-.08,2.83,2.83,0,0,1,.45,0,.58.58,0,0,1,.28.09.55.55,0,0,1,.19.21c.05.1.1.23.17.39a2.17,2.17,0,0,0,.26.42c.15.19.29.38.45.57,1.11,1.34,2.08,2.47,2.89,3.39s1.55,1.72,2.22,2.42,1.31,1.32,1.93,1.88,1.28,1.16,2,1.81a1.21,1.21,0,0,0,.39.24l.32.1a.57.57,0,0,1,.22.12.3.3,0,0,1,.08.25.41.41,0,0,1-.11.24,2.61,2.61,0,0,1-.28.31,2.5,2.5,0,0,1-.33.26.67.67,0,0,1-.29.1H62.1a.23.23,0,0,1-.23-.15,1,1,0,0,0-.16-.26,32.36,32.36,0,0,0-2.77-3H53.46A2.78,2.78,0,0,0,52.28,64.12Zm1-2.25c-.17.32-.29.52-.35.62a.56.56,0,0,0-.08.25.21.21,0,0,0,0,.13.51.51,0,0,0,.26.07l.62,0h2.5l.87,0a4.14,4.14,0,0,0,.5,0,1.21,1.21,0,0,0,.24-.07l-3.24-3.29Z"/><path d="M66.35,59.67a6.83,6.83,0,0,1,.9-1.9,5.2,5.2,0,0,1,1.27-1.29,6.66,6.66,0,0,1,1.48-.8,7.45,7.45,0,0,1,1.49-.42,9.49,9.49,0,0,1,1.32-.11,2.33,2.33,0,0,1,1.34.33c.32.22.48.43.48.64a.62.62,0,0,1-.13.3,1.83,1.83,0,0,1-.3.33,1.39,1.39,0,0,1-.37.28.67.67,0,0,1-.32.12.33.33,0,0,1-.24-.15c-.07-.09-.16-.2-.27-.32a2.07,2.07,0,0,0-.38-.32,1.08,1.08,0,0,0-.56-.14,4,4,0,0,0-1.72.34,4.39,4.39,0,0,0-1.26.86,4.46,4.46,0,0,0-.86,1.18,8.19,8.19,0,0,0-.52,1.3,8.77,8.77,0,0,0-.26,1.18,6.48,6.48,0,0,0-.07.85,4.26,4.26,0,0,0,.26,1.35,5.56,5.56,0,0,0,.73,1.41,4.45,4.45,0,0,0,1.15,1.1,2.67,2.67,0,0,0,1.48.44A3.46,3.46,0,0,0,72.34,66a6.06,6.06,0,0,0,1.08-.57l.79-.58a1,1,0,0,1,.52-.26.43.43,0,0,1,.32.13.45.45,0,0,1,.11.31.61.61,0,0,1-.13.27,3.2,3.2,0,0,1-.37.44,6.7,6.7,0,0,1-.54.51,3.54,3.54,0,0,1-.65.44,3.46,3.46,0,0,1-.56.24,7,7,0,0,1-.76.19c-.28.06-.57.1-.87.14s-.59,0-.87,0A4.57,4.57,0,0,1,69.07,67a4.1,4.1,0,0,1-1.45-.83,4.71,4.71,0,0,1-1.15-1.54A5.43,5.43,0,0,1,66,62.28,8.84,8.84,0,0,1,66.35,59.67Z"/><path d="M79.93,67a1,1,0,0,1-.25.17,1.39,1.39,0,0,1-.28.12l-.21,0a.78.78,0,0,1-.31-.13.42.42,0,0,1-.2-.36c0-.18,0-.44,0-.79s0-.73.06-1.17,0-.9,0-1.39,0-1,0-1.46c0-.72,0-1.43,0-2.14s0-1.42-.07-2.12a5.1,5.1,0,0,0-.09-.82,3.7,3.7,0,0,0-.15-.49l-.12-.3a.47.47,0,0,1,0-.22.55.55,0,0,1,.13-.28,3.47,3.47,0,0,1,.3-.37,2.15,2.15,0,0,1,.35-.33.61.61,0,0,1,.27-.15.92.92,0,0,1,.36.12,1.13,1.13,0,0,1,.3.17,1.78,1.78,0,0,1,.14.21l.18.36c.06.13.12.25.16.36a.81.81,0,0,1,.06.22.79.79,0,0,1-.13.36,1.16,1.16,0,0,0-.16.57c0,.53-.05,1-.07,1.38s0,.73-.06,1,0,.54,0,.74,0,.4,0,.58a1.31,1.31,0,0,0,0,.33.17.17,0,0,0,.16.1c.07,0,.26-.15.57-.44s.68-.66,1.1-1.09.89-.91,1.38-1.42L84.71,57l1.11-1.09c.31-.29.5-.44.57-.44a.78.78,0,0,1,.34.14l.42.33.36.36c.11.12.16.2.16.24s0,.13-.15.17a1.84,1.84,0,0,1-.34.14l-.41.14a1,1,0,0,0-.36.21c-.37.31-.79.69-1.24,1.14l-1.36,1.31q-.66.64-1.26,1.17a5.26,5.26,0,0,1-1,.73v0a1.89,1.89,0,0,1,.75.35c.28.21.6.46.94.76l1.07,1c.38.36.76.69,1.14,1a11.72,11.72,0,0,0,1.11.8,3.2,3.2,0,0,0,1,.42A.73.73,0,0,1,88,66a.46.46,0,0,1,.09.31c0,.07-.07.16-.22.26a4.35,4.35,0,0,1-.53.29,5.24,5.24,0,0,1-.58.22,1.56,1.56,0,0,1-.4.09A.56.56,0,0,1,86,67q-.23-.18-.51-.45L84.87,66l-.78-.75-1.63-1.52c-.41-.38-.74-.68-1-.88a2.94,2.94,0,0,0-.54-.4.62.62,0,0,0-.32-.1l-.33,0-.21,0,0,1.47c0,.5,0,1,0,1.46v1.5A.31.31,0,0,1,79.93,67Z"/></svg>
