<svg id="Layer_1" data-name="Layer 1" xmlns="http://www.w3.org/2000/svg" width="106" height="71" viewBox="0 0 106 71"><defs><style>.cls-1{fill:#e2c413;}.cls-2,.cls-4{fill:none;stroke-miterlimit:10;}.cls-2{stroke:#f3d879;stroke-width:0.25px;}.cls-3{fill:#513414;}.cls-4{stroke:#000;stroke-width:0.1px;}.cls-5{fill:#4f3419;}</style></defs><title>banan</title><path class="cls-1" d="M100.09,50.09c-.2,6.73-39.52,18.46-67.59,1C5.06,34.2,5.92,13.2,10.32,12.52c5.14-2,13.76,13.25,38.16,24.18C72.55,48.17,101.87,44,100.09,50.09Z"/><path class="cls-2" d="M100.09,50.09c-.2,6.73-39.52,18.46-67.59,1C5.06,34.2,5.92,13.2,10.32,12.52c5.14-2,13.76,13.25,38.16,24.18C72.55,48.17,101.87,44,100.09,50.09Z"/><path class="cls-3" d="M100.11,49.05l-.06,1.84a1,1,0,0,1-.73.91l-.65.13A.56.56,0,0,1,98,51.3l.06-1.83a1,1,0,0,1,.73-.91l.65-.14A.57.57,0,0,1,100.11,49.05Z"/><path class="cls-4" d="M19.64,22.91c3.26,6.5,10.56,18.6,24.65,26,16.47,8.63,32.94,5.94,40.08,4.27"/><path class="cls-4" d="M26.09,27.73A60.39,60.39,0,0,0,46.7,44.29a59.87,59.87,0,0,0,28.85,5.58"/><path class="cls-4" d="M25.77,39.31a47.06,47.06,0,0,0,4.92,5.51,48,48,0,0,0,9.61,6.92,57.92,57.92,0,0,0,20.27,6.39"/><path class="cls-5" d="M9.31,6.12l2.08-.23a.42.42,0,0,1,.46.51,5.85,5.85,0,0,0-1,2.43,4.05,4.05,0,0,0,.44,2.68.79.79,0,0,1-.2.42.68.68,0,0,1-.39.21l-2.08.22a.42.42,0,0,1-.46-.51,5.28,5.28,0,0,1-.29-2.44,7.11,7.11,0,0,1,.86-2.67S8.76,6.5,9.31,6.12Z"/></svg>
