<svg id="Layer_1" data-name="Layer 1" xmlns="http://www.w3.org/2000/svg" width="335" height="314" viewBox="0 0 335 314"><defs><style>.cls-1{fill:#3d2612;}.cls-2{fill:#603813;}.cls-3{fill:#68543a;}</style></defs><title>forside_play</title><ellipse class="cls-1" cx="168" cy="157" rx="120" ry="114"/><ellipse class="cls-2" cx="169.61" cy="153.24" rx="107.79" ry="100"/><ellipse class="cls-3" cx="168.3" cy="156.9" rx="103.85" ry="96.34"/><path d="M124.82,160.48a39.19,39.19,0,0,0-.34-4.41,1.64,1.64,0,0,0-.13-.46.65.65,0,0,0-.36-.33c-.44-.22-.67-.47-.67-.75s.26-.75.78-1.1a11,11,0,0,1,1.82-.93,12.72,12.72,0,0,1,2.12-.66,8,8,0,0,1,1.67-.25,15.65,15.65,0,0,1,2.69.27,15.38,15.38,0,0,1,2.81.76,4.06,4.06,0,0,1,1.16.79,8.36,8.36,0,0,1,1,1.18,6.14,6.14,0,0,1,.76,1.33,3.17,3.17,0,0,1,.29,1.27,7.36,7.36,0,0,1-.76,4,11.59,11.59,0,0,1-1.16,1.43,18.7,18.7,0,0,1-1.5,1.45,15.59,15.59,0,0,1-1.47,1.14,2.24,2.24,0,0,1-1.05.45,2.88,2.88,0,0,1-.87-.16c-.34-.11-.67-.24-1-.38a4,4,0,0,1-.8-.45c-.22-.17-.33-.29-.33-.37a.42.42,0,0,1,.22-.36,3.11,3.11,0,0,1,.85-.27,6,6,0,0,0,3.39-1.74,4.16,4.16,0,0,0,1.26-2.94,9.37,9.37,0,0,0-.16-1.51,6.73,6.73,0,0,0-.56-1.73,4.31,4.31,0,0,0-1.09-1.41,2.66,2.66,0,0,0-1.73-.58,6.42,6.42,0,0,0-1.8.25,9.06,9.06,0,0,0-1.73.75c-.06.47-.11,1-.17,1.68s-.12,1.33-.16,2-.08,1.4-.11,2.09,0,1.32,0,1.87v11a7.46,7.46,0,0,1-.56,3.35,2,2,0,0,1-1.94,1.08c-.51,0-.76-.21-.76-.62a1.09,1.09,0,0,1,.07-.37c0-.14.1-.33.18-.56a5.28,5.28,0,0,0,.17-1,13.56,13.56,0,0,0,.07-1.59v-6.18Q124.93,163.49,124.82,160.48Z"/><path d="M161.85,173.38A2.28,2.28,0,0,1,163,173c.51,0,.76.18.76.54a3.1,3.1,0,0,1-.11.61,7.91,7.91,0,0,1-.31,1,6,6,0,0,1-.45,1c-.16.29-.33.44-.51.44a2.88,2.88,0,0,1-.74-.1l-1-.32-.32-.06-.76,0-1.45,0-2.35,0-2.43,0-1.45,0a4.17,4.17,0,0,0-.79.08,2.89,2.89,0,0,0-.42.15,3.13,3.13,0,0,1-1.39.29.83.83,0,0,1-.55-.29,5.83,5.83,0,0,1-.56-.64,3.84,3.84,0,0,1-.43-.71,1.49,1.49,0,0,1-.15-.48,1.15,1.15,0,0,1,.44-.76,1.63,1.63,0,0,0,.45-1.23c0-.44.05-1,.07-1.61s0-1.38,0-2.24v-5.85a43.32,43.32,0,0,0-.22-4.83,28.08,28.08,0,0,0-.47-2.82,6.22,6.22,0,0,0-.47-1.41,1.38,1.38,0,0,1-.23-.64c0-.14.15-.35.43-.62a7.41,7.41,0,0,1,1-.81,11.3,11.3,0,0,1,1.12-.69,2.16,2.16,0,0,1,.78-.29,2.38,2.38,0,0,1,1,.27c.39.18.59.43.59.73a3,3,0,0,1-.18.91,3.5,3.5,0,0,0-.18,1.12c0,1.25,0,2.47-.14,3.69s-.13,2.41-.13,3.57c0,.77,0,1.5,0,2.17s0,1.48,0,2.39,0,1.73-.09,2.63-.12,1.74-.18,2.51-.12,1.45-.18,2-.09,1-.09,1.25.18.33.54.33a1.39,1.39,0,0,0,.47-.09,1.89,1.89,0,0,1,.56-.08l8.09-.29A3.07,3.07,0,0,0,161.85,173.38Z"/><path d="M173.29,170.31a3.48,3.48,0,0,0-1.48,1.43l-2.23,3.61a1.87,1.87,0,0,0-.27.78c0,.28-.25.42-.67.42a6.53,6.53,0,0,1-2-.25c-.51-.17-.76-.4-.76-.71a1.13,1.13,0,0,1,.45-.78,12.35,12.35,0,0,0,1-1.12c.54-.64,1.14-1.4,1.79-2.28s1.31-1.81,2-2.78,1.29-1.94,1.92-2.92,1.18-1.89,1.65-2.72.87-1.55,1.17-2.18a3.82,3.82,0,0,0,.44-1.3c0-.55-.5-1.3-1.52-2.24l-3.66-3.44A5.21,5.21,0,0,0,170,153c-.3-.17-.45-.36-.45-.58s.11-.25.33-.4a7.94,7.94,0,0,1,.79-.45,6.13,6.13,0,0,1,.91-.4,2.5,2.5,0,0,1,.78-.16,8.63,8.63,0,0,1,1,0,1.63,1.63,0,0,1,.6.18,1.14,1.14,0,0,1,.4.44,8.7,8.7,0,0,1,.38.79,4,4,0,0,0,.56.83l1,1.16q3.63,4.07,6.26,6.84c1.76,1.85,3.36,3.48,4.8,4.87s2.83,2.66,4.16,3.8,2.78,2.34,4.36,3.64a2.48,2.48,0,0,0,.85.5l.69.21a1.22,1.22,0,0,1,.47.23.62.62,0,0,1,.18.51.91.91,0,0,1-.25.48,3.86,3.86,0,0,1-.6.62,4.64,4.64,0,0,1-.72.52,1.23,1.23,0,0,1-.62.21h-1.34a.49.49,0,0,1-.49-.29,2.31,2.31,0,0,0-.36-.54,66.8,66.8,0,0,0-6-6.09H175.84A6.35,6.35,0,0,0,173.29,170.31Zm2.19-4.54-.76,1.24a1,1,0,0,0-.18.5.37.37,0,0,0,.11.27,1,1,0,0,0,.56.14c.3,0,.75.05,1.34.07l2.5,0,2.91,0c.77,0,1.4,0,1.88-.07a9.09,9.09,0,0,0,1.07-.1,2.55,2.55,0,0,0,.54-.14l-7-6.64Z"/><path d="M205.09,179.74a5.63,5.63,0,0,1-1.07-.6,6.93,6.93,0,0,1-.88-.68c-.23-.23-.35-.41-.35-.54a.69.69,0,0,1,.15-.44,1.59,1.59,0,0,1,.83-.31,2.68,2.68,0,0,0,1.32-.79,7.47,7.47,0,0,0,1.27-1.66,10.94,10.94,0,0,0,1-2.19,7.53,7.53,0,0,0,.41-2.41,3,3,0,0,0-.18-1,7.65,7.65,0,0,0-.76-1.45c-.39-.63-1-1.45-1.72-2.47s-1.78-2.37-3.06-4c-.87-1.11-1.63-2-2.31-2.8l-1.67-1.91a14,14,0,0,1-1-1.29,1.63,1.63,0,0,1-.36-.89,1.22,1.22,0,0,1,.41-.72,6.3,6.3,0,0,1,.93-.83,8.65,8.65,0,0,1,1.12-.69,2.32,2.32,0,0,1,.9-.29.48.48,0,0,1,.44.23,1.72,1.72,0,0,1,.2.58c.05.24.09.5.14.79a3.81,3.81,0,0,0,.24.89,16.59,16.59,0,0,0,1.72,3q1.23,1.75,2.62,3.62t2.64,3.63a17.15,17.15,0,0,1,1.78,3q1.08-2,2.28-4c.81-1.37,1.55-2.66,2.24-3.88s1.25-2.32,1.7-3.3a6.21,6.21,0,0,0,.67-2.3,1.78,1.78,0,0,1,.2-1.06.88.88,0,0,1,.69-.22,3.47,3.47,0,0,1,.87.14c.37.1.74.22,1.1.35a4.3,4.3,0,0,1,.93.5.8.8,0,0,1,.41.62.53.53,0,0,1-.14.33,5.2,5.2,0,0,1-.38.44l-.6.68a10.06,10.06,0,0,0-.81,1.12l-7.68,12.65a8.63,8.63,0,0,0-.65,1.35l-.85,2.09c-.31.78-.64,1.58-1,2.43s-.68,1.6-1,2.28a15.12,15.12,0,0,1-.94,1.68c-.3.44-.58.66-.85.66A2.32,2.32,0,0,1,205.09,179.74Z"/></svg>
