<svg id="Layer_1" data-name="Layer 1" xmlns="http://www.w3.org/2000/svg" width="332" height="316" viewBox="0 0 332 316"><defs><style>.cls-1{fill:#3d2612;}.cls-2{fill:#603813;}.cls-3{fill:#68543a;}.cls-4{fill:#020201;}</style></defs><title>forside_settings</title><ellipse class="cls-1" cx="162" cy="153" rx="123" ry="117"/><ellipse class="cls-2" cx="163.65" cy="150.07" rx="110.48" ry="101.81"/><ellipse class="cls-3" cx="162.31" cy="153.79" rx="106.44" ry="98.09"/><path class="cls-4" d="M75.53,164.63a.62.62,0,0,1,.43-.19,3.7,3.7,0,0,1,1.52.4,5.06,5.06,0,0,0,2.15.4,2.63,2.63,0,0,0,2-.78,2.39,2.39,0,0,0,.76-1.71,5.71,5.71,0,0,0-.44-2c-.29-.76-.65-1.57-1.07-2.43s-.9-1.75-1.4-2.66-1-1.8-1.4-2.66-.78-1.67-1.07-2.43a5.62,5.62,0,0,1-.44-1.94,5.46,5.46,0,0,1,.62-2.05,14.5,14.5,0,0,1,1.65-2.68,11.72,11.72,0,0,1,2.38-2.34,4.7,4.7,0,0,1,2.82-1c.21,0,.52,0,.94.06a8.28,8.28,0,0,1,1.21.21,5.13,5.13,0,0,1,1,.38c.31.16.46.35.46.57,0,.57-.11.93-.34,1.1a3.43,3.43,0,0,1-1.63.3,6.68,6.68,0,0,0-4.35,1.28,3.85,3.85,0,0,0-1.33,3,6.86,6.86,0,0,0,.78,2.76c.52,1.12,1.09,2.31,1.72,3.59s1.2,2.6,1.72,4a11,11,0,0,1,.78,3.9,8.91,8.91,0,0,1-.23,1.4,8.32,8.32,0,0,1-.85,2.17,7.15,7.15,0,0,1-1.65,2,4,4,0,0,1-2.68.88,5.9,5.9,0,0,1-1-.12,10.62,10.62,0,0,1-1.26-.34,10.05,10.05,0,0,1-1.1-.44,1.28,1.28,0,0,1-.58-.45,7.67,7.67,0,0,1-.22-.74,2.73,2.73,0,0,1-.1-.78A.83.83,0,0,1,75.53,164.63Z"/><path class="cls-4" d="M107,154c0,.09-.09.22-.25.4a5,5,0,0,1-.62.57,6.87,6.87,0,0,1-.71.51,1.18,1.18,0,0,1-.57.21c-1.38.11-2.65.18-3.83.19s-2.22,0-3.14.06q0,5.07,2.16,7.62t6.87,2.56a3.39,3.39,0,0,1,1.35.17.71.71,0,0,1,.34.71c0,.23-.23.45-.68.68a6.18,6.18,0,0,1-2.43.34,16.39,16.39,0,0,1-4.45-.53A9.81,9.81,0,0,1,98,166.08,7.06,7.06,0,0,1,96,164a9.53,9.53,0,0,1-1.08-2.45,12.89,12.89,0,0,1-.46-2.6q-.09-1.31-.09-2.49a25,25,0,0,1,.85-7.07,13.6,13.6,0,0,1,2.22-4.6,7.8,7.8,0,0,1,3.18-2.49,9.86,9.86,0,0,1,3.74-.74,7.94,7.94,0,0,1,2.61.28,1,1,0,0,1,.69,1q0,.93-.87.93h-2.71a5.62,5.62,0,0,0-2.13.42,4.57,4.57,0,0,0-1.88,1.58A10.71,10.71,0,0,0,98.64,149a23.38,23.38,0,0,0-.78,5.19,3,3,0,0,1,.87-.48,3.33,3.33,0,0,1,1.19-.2h6.19Q107,153.5,107,154Z"/><path class="cls-4" d="M114.24,145.91c-.29,0-.59,0-.89,0a.9.9,0,0,1-.83-.53,2.33,2.33,0,0,1-.27-1.08,1.27,1.27,0,0,1,.48-.8,1.35,1.35,0,0,1,.89-.46c.34,0,.73,0,1.19,0l1.67.11,2.36.12c.92,0,2,.07,3.3.07,1.68,0,3.36-.06,5-.17s3.36-.17,5-.17c.46,0,.69.2.69.59a.81.81,0,0,1-.21.44,4.25,4.25,0,0,1-.5.57,3,3,0,0,1-.67.51,1.72,1.72,0,0,1-.68.25c-.46.06-1,.1-1.58.13l-1.81.08c-.62,0-1.21,0-1.79,0H124.2c-.15.81-.28,1.71-.39,2.68s-.2,2.07-.27,3.31-.14,2.64-.18,4.2-.07,3.34-.07,5.34a5,5,0,0,0,.18,1.33,3.12,3.12,0,0,0,.62,1.18,3.23,3.23,0,0,0,1.21.87,5.08,5.08,0,0,0,2,.34,6.85,6.85,0,0,0,.8-.07,6.41,6.41,0,0,1,.71-.06.35.35,0,0,1,.39.31,2.6,2.6,0,0,1,.07.58,1.2,1.2,0,0,1-.41,1,6.23,6.23,0,0,1-1.4.63,5,5,0,0,1-1.58.29,6.15,6.15,0,0,1-2.45-.46,6.28,6.28,0,0,1-1.85-1.2,5.29,5.29,0,0,1-1.19-1.61,3.72,3.72,0,0,1-.42-1.62,6.6,6.6,0,0,1,.12-1.1c.07-.45.15-1,.23-1.77s.15-1.63.23-2.7.11-2.35.11-3.85c0-1.26,0-2.5,0-3.71s-.12-2.45-.27-3.72h-5.22A8.24,8.24,0,0,0,114.24,145.91Z"/><path class="cls-4" d="M137.14,145.91c-.29,0-.58,0-.89,0a.87.87,0,0,1-.82-.53,2.23,2.23,0,0,1-.28-1.08,1.27,1.27,0,0,1,.48-.8,1.35,1.35,0,0,1,.9-.46c.33,0,.73,0,1.19,0l1.67.11,2.36.12c.92,0,2,.07,3.3.07,1.68,0,3.36-.06,5-.17s3.36-.17,5-.17c.46,0,.69.2.69.59a.86.86,0,0,1-.2.44,4.36,4.36,0,0,1-.51.57,3.24,3.24,0,0,1-.66.51,1.82,1.82,0,0,1-.69.25c-.46.06-1,.1-1.58.13l-1.81.08c-.61,0-1.21,0-1.79,0h-1.46c-.15.81-.28,1.71-.39,2.68s-.2,2.07-.28,3.31-.13,2.64-.18,4.2-.07,3.34-.07,5.34a4.65,4.65,0,0,0,.19,1.33,3.09,3.09,0,0,0,.61,1.18,3.27,3.27,0,0,0,1.22.87,5,5,0,0,0,2,.34,7,7,0,0,0,.8-.07,6.41,6.41,0,0,1,.71-.06.36.36,0,0,1,.39.31,3.36,3.36,0,0,1,.07.58,1.2,1.2,0,0,1-.41,1,6.45,6.45,0,0,1-1.4.63,5,5,0,0,1-1.58.29,6.08,6.08,0,0,1-2.45-.46,6.33,6.33,0,0,1-1.86-1.2,5.46,5.46,0,0,1-1.19-1.61,3.84,3.84,0,0,1-.41-1.62,7.62,7.62,0,0,1,.11-1.1c.08-.45.16-1,.23-1.77s.15-1.63.23-2.7.12-2.35.12-3.85c0-1.26,0-2.5,0-3.71a37.09,37.09,0,0,0-.28-3.72H138A8.4,8.4,0,0,0,137.14,145.91Z"/><path class="cls-4" d="M163.35,150.47c0-.85-.07-1.64-.07-2.37a9,9,0,0,0-.05-1,1.16,1.16,0,0,0-.32-.7,3.19,3.19,0,0,1-.62-.82,1.82,1.82,0,0,1-.16-.7,1.3,1.3,0,0,1,.42-.71,6.36,6.36,0,0,1,1-.89,9.41,9.41,0,0,1,1.12-.74,2.08,2.08,0,0,1,.89-.32,2.41,2.41,0,0,1,1.15.36c.43.24.64.45.64.62a2.79,2.79,0,0,1-.21,1,4.39,4.39,0,0,0-.25,1.24q-.18,1.86-.3,6.23t-.11,12a10.46,10.46,0,0,1-.34,3.36,1.18,1.18,0,0,1-1.13.82,1.48,1.48,0,0,1-.57-.11.89.89,0,0,1-.43-.53,4.92,4.92,0,0,1-.3-1.28,24,24,0,0,1-.16-2.41c0-1,0-2.32-.07-3.88s0-3.46,0-5.68C163.42,152.48,163.39,151.31,163.35,150.47Z"/><path class="cls-4" d="M179.61,149.9c0-.52,0-1.05,0-1.59a2.93,2.93,0,0,0-.61-2.07,3.74,3.74,0,0,0-1.38-.9c-.5-.19-1-.35-1.37-.49a.77.77,0,0,1-.62-.76c0-.2.17-.41.5-.63l1.65-1.23a2.52,2.52,0,0,1,.62-.38,1.72,1.72,0,0,1,.48-.08,1,1,0,0,1,.53.15,3.22,3.22,0,0,1,.62.57c1.77,1.94,3.58,3.88,5.45,5.82s3.59,3.72,5.2,5.32,3,3,4.17,4.1,2,1.85,2.4,2.19c.24-1.43.42-2.81.53-4.11s.16-2.66.16-4a26.6,26.6,0,0,0-.14-2.87q-.13-1.22-.27-2.07c-.1-.56-.19-1-.28-1.35a3.27,3.27,0,0,1-.14-.8.85.85,0,0,1,.39-.61,2.9,2.9,0,0,1,.85-.36,7.19,7.19,0,0,1,1-.17c.37,0,.71,0,1,0a1,1,0,0,1,.87.36,1.43,1.43,0,0,1,.23.82,6.58,6.58,0,0,1-.23,1.4c-.15.64-.32,1.51-.5,2.61s-.35,2.47-.51,4.12-.22,3.62-.22,5.93c0,.7,0,1.46,0,2.26s0,1.65,0,2.55a1.47,1.47,0,0,1-.41.91,6.63,6.63,0,0,1-.94.89,9,9,0,0,1-1,.67,1.76,1.76,0,0,1-.68.28c-.16,0-.29-.16-.39-.47s-.24-.7-.39-1.18a11.54,11.54,0,0,0-.67-1.6,7.3,7.3,0,0,0-1.26-1.78q-1.78-1.94-3.68-3.82t-3.58-3.5c-1.11-1.08-2.12-2-3-2.89s-1.58-1.51-2-2c-.09,1.18-.17,2.4-.23,3.65s-.1,2.47-.11,3.66,0,2.28-.05,3.31,0,1.89,0,2.6,0,1.24,0,1.87,0,1.12,0,1.46a1.65,1.65,0,0,1-.16.7.9.9,0,0,1-.66.48l-1.68.38a4.66,4.66,0,0,1-1.07.13c-.58,0-.87-.2-.87-.59a1.08,1.08,0,0,1,.23-.66c.15-.21.32-.47.52-.8a6.66,6.66,0,0,0,.58-1.29,8.44,8.44,0,0,0,.36-2.06l.55-10.43C179.57,150.94,179.59,150.42,179.61,149.9Z"/><path class="cls-4" d="M227.92,158.32a3.36,3.36,0,0,1,1.33-.17,1.17,1.17,0,0,1,.45.08.66.66,0,0,1,.3.45,4.31,4.31,0,0,1,.14,1.09c0,.5,0,1.19,0,2.09a39.9,39.9,0,0,0,.21,4.58,25.67,25.67,0,0,1,.21,3,1.14,1.14,0,0,1-.26.84,1.56,1.56,0,0,1-1.07.26.74.74,0,0,1-.46-.13,1.33,1.33,0,0,1-.37-.48,4.67,4.67,0,0,1-.34-1c-.11-.45-.22-1-.35-1.77a1.23,1.23,0,0,0-1.37-1.1,5.46,5.46,0,0,0-.66.08c-.32.06-.7.12-1.13.17s-.88.12-1.37.17a11.36,11.36,0,0,1-1.37.09,10.9,10.9,0,0,1-5.2-1.1,9.72,9.72,0,0,1-3.23-2.68,9.88,9.88,0,0,1-1.68-3.31,11.63,11.63,0,0,1-.48-3,15.69,15.69,0,0,1,.87-5.15,12.43,12.43,0,0,1,2.73-4.52,14.13,14.13,0,0,1,4.69-3.23,16.85,16.85,0,0,1,6.78-1.25,11.68,11.68,0,0,1,4,.53,1.77,1.77,0,0,1,1.37,1.67,1,1,0,0,1-.27.61,2.82,2.82,0,0,1-.64.55,4.65,4.65,0,0,1-.73.38,1.73,1.73,0,0,1-.6.15,1.11,1.11,0,0,1-.66-.26c-.23-.16-.69-.53-1.36-1.09a2.15,2.15,0,0,0-.87-.49,4.11,4.11,0,0,0-1-.1,7.86,7.86,0,0,0-4.24,1.24,13.8,13.8,0,0,0-3.51,3.15,15.86,15.86,0,0,0-2.38,4.15,12,12,0,0,0-.87,4.29,10.93,10.93,0,0,0,.53,3.71,5.1,5.1,0,0,0,1.46,2.22,5.39,5.39,0,0,0,2.18,1.08,11.79,11.79,0,0,0,2.66.29,8.86,8.86,0,0,0,2.26-.27,8.05,8.05,0,0,0,1.79-.7,4.32,4.32,0,0,0,1.19-.93,2.16,2.16,0,0,0,.53-1l.37-2.53A.76.76,0,0,1,227.92,158.32Z"/><path class="cls-4" d="M239.26,164.63a.6.6,0,0,1,.43-.19,3.66,3.66,0,0,1,1.51.4,5.11,5.11,0,0,0,2.16.4,2.66,2.66,0,0,0,2-.78,2.42,2.42,0,0,0,.75-1.71,5.67,5.67,0,0,0-.43-2q-.43-1.14-1.08-2.43c-.42-.86-.89-1.75-1.39-2.66s-1-1.8-1.4-2.66-.79-1.67-1.08-2.43a5.57,5.57,0,0,1-.43-1.94,5.28,5.28,0,0,1,.62-2.05,15,15,0,0,1,1.64-2.68,11.77,11.77,0,0,1,2.39-2.34,4.7,4.7,0,0,1,2.81-1c.22,0,.53,0,.94.06a8.41,8.41,0,0,1,1.22.21,5.6,5.6,0,0,1,1.05.38c.31.16.46.35.46.57a1.36,1.36,0,0,1-.34,1.1,3.46,3.46,0,0,1-1.63.3,6.65,6.65,0,0,0-4.35,1.28,3.85,3.85,0,0,0-1.33,3,6.86,6.86,0,0,0,.78,2.76c.52,1.12,1.09,2.31,1.71,3.59s1.2,2.6,1.72,4a11,11,0,0,1,.78,3.9,8.91,8.91,0,0,1-.23,1.4,7.68,7.68,0,0,1-.85,2.17,7.28,7.28,0,0,1-1.64,2,4,4,0,0,1-2.68.88,6,6,0,0,1-1.06-.12,10.62,10.62,0,0,1-1.26-.34,10.93,10.93,0,0,1-1.1-.44,1.18,1.18,0,0,1-.57-.45c-.09-.25-.17-.5-.23-.74a3.15,3.15,0,0,1-.09-.78A.83.83,0,0,1,239.26,164.63Z"/></svg>
