<svg id="Layer_1" data-name="Layer 1" xmlns="http://www.w3.org/2000/svg" xmlns:xlink="http://www.w3.org/1999/xlink" width="1106" height="1935" viewBox="0 0 1106 1935"><defs><style>.cls-1{fill:url(#radial-gradient);}.cls-2{fill:#c19d7a;}.cls-3{fill:#8c6239;}.cls-4{fill:#009245;}.cls-5{fill:#a67c52;}.cls-6{fill:#39b54a;}.cls-7{fill:#544436;}.cls-8{fill:url(#linear-gradient);}.cls-9{fill:#fff;}.cls-10{fill:url(#linear-gradient-2);}.cls-11{fill:#c69c6d;}.cls-12{fill:#006238;}.cls-13,.cls-14{fill:none;}.cls-14{stroke:#000;stroke-miterlimit:10;stroke-width:2px;}.cls-15{fill:#352811;}.cls-16{fill:#378417;}</style><radialGradient id="radial-gradient" cx="-3749.44" cy="556.03" fx="-3762.5071158917012" fy="1719.0482287322882" r="1466.28" gradientTransform="translate(2707.58 -26.53) scale(0.57 1.78)" gradientUnits="userSpaceOnUse"><stop offset="0.53" stop-color="#66caff"/><stop offset="1"/></radialGradient><linearGradient id="linear-gradient" x1="662.38" y1="995.54" x2="642.44" y2="975.59" gradientUnits="userSpaceOnUse"><stop offset="0" stop-color="#fff"/><stop offset="0.1" stop-color="#fff4f9"/><stop offset="0.27" stop-color="#ffd8e8"/><stop offset="0.5" stop-color="#ffaace"/><stop offset="0.55" stop-color="#ff9fc7"/></linearGradient><linearGradient id="linear-gradient-2" x1="10777.87" y1="995.54" x2="10757.93" y2="975.59" gradientTransform="matrix(-1, 0, 0, 1, 11503.5, 0)" xlink:href="#linear-gradient"/></defs><title>forside</title><rect class="cls-1" y="2.03" width="1103.86" height="1924.2"/><ellipse class="cls-2" cx="693.98" cy="994.11" rx="27.04" ry="39.15" transform="translate(-21.53 15.39) rotate(-1.25)"/><path class="cls-3" d="M458.3,751.15c63.37,291.58,77.64,534.14,42.29,836.11q-31.06,5-62.26,7.62C496.7,1300.18,503.46,1053.75,458.3,751.15Z"/><path class="cls-4" d="M460,789.71c-.25.29-.58.65-.93,1a164,164,0,0,0-23.64,34c-8.53,15.46-24.34,49.53-34.46,104-.23,1.2-.44,2.4-.66,3.61s-.45,2.38-.68,3.57c-10.12,54.48-10.18,105.86-9.31,131.64.83,30.78,4,56,5.15,65.57.12.9.22,1.73.3,2.39-.23-.55-.55-1.25-1-2.2-3.46-7.78-12.66-28.45-20.41-63.16a480.86,480.86,0,0,1-11-78.48c-1.9-33.15-.25-64.06,4.91-91.86.14-.72.27-1.43.41-2.15s.26-1.45.39-2.16c5.17-27.8,13.61-51.25,25.1-69.7,11.66-18.71,23.55-27.65,31.47-31.86,15.84-8.81,28.29-5.69,33-4.52C459.23,789.54,459.65,789.65,460,789.71Z"/><path class="cls-4" d="M369.29,895.68c5.16-27.74,13.59-51.15,25.06-69.56,11.63-18.68,23.5-27.6,31.41-31.81,15.8-8.79,28.23-5.68,32.91-4.51l.63.16-.38.43a164.41,164.41,0,0,0-23.67,34c-8.53,15.48-24.37,49.59-34.5,104.14-.22,1.2-.44,2.39-.65,3.59s-.46,2.39-.68,3.59c-10.14,54.54-10.2,106-9.33,131.78.83,30.82,4,56.12,5.16,65.64q.06.51.12,1l-.46-1c-3.46-7.76-12.64-28.39-20.37-63a480.58,480.58,0,0,1-11-78.33c-1.9-33.1-.25-64,4.9-91.69.13-.72.27-1.43.41-2.16l.39-2.16h0m-.37-.41c-.14.72-.27,1.44-.4,2.16s-.27,1.43-.41,2.15c-11.34,61.09-3.79,127.47,6.07,170.66,9.92,44.39,22.14,65.74,21.91,66.93,0,0,0,0,0,0h0c.16-.85-4.55-30.79-5.6-69.62-1.31-39,1-86.84,9.3-131.48.22-1.2.45-2.39.68-3.58s.43-2.4.65-3.6c8.3-44.63,21.52-80.5,34.43-103.9,12.67-23.75,25-34.95,25.19-35.79,0,0,0,0,0,0v.06c-.22,1.19-14.89-7-35.14,4.27-19.85,10.55-45.33,40.66-56.67,101.75Z"/><path class="cls-4" d="M457.76,765.71c-.28-.42-.62-.94-1-1.52-3.93-6.05-14.37-22.12-28.34-34.49-11.61-10.76-35.5-27.91-65-21.84-.65.13-1.3.28-1.95.43l-1.94.37c-29.5,6.07-51.86,32.75-62.57,48.11-12.91,17.9-22.09,38-25.55,45.58-.33.72-.62,1.38-.87,1.9.11-.79.23-1.86.4-3.28,1.4-11.71,5.1-42.8,15.74-78,5.23-17.69,14.3-43.35,27.81-65.16,13.32-21.51,27.71-34,42.76-37.08l1.17-.22,1.17-.26c15-3.1,30.09,3.32,44.71,19.07,14.82,16,25.54,37.56,31.92,52.86,12.92,30.37,18.72,59.51,20.91,70.48C457.4,764,457.6,765,457.76,765.71Z"/><path class="cls-4" d="M359.61,620.75c15-3.09,30,3.31,44.63,19,14.8,16,25.5,37.5,31.87,52.77,12.89,30.3,18.68,59.37,20.86,70.32l.3,1.48-.41-.62c-3.93-6.06-14.39-22.15-28.37-34.54-11.63-10.77-35.55-27.94-65.08-21.86-.65.13-1.3.28-1.94.43s-1.3.24-2,.37c-29.53,6.08-51.92,32.78-62.64,48.16-12.92,17.91-22.11,38.05-25.57,45.63l-.36.79c.05-.47.12-1,.19-1.58,1.39-11.68,5.08-42.7,15.7-77.86,5.22-17.65,14.28-43.26,27.76-65,13.3-21.46,27.66-33.91,42.68-37l1.17-.22,1.16-.26h0m0-1c-.39.08-.78.16-1.17.26l-1.17.22c-33.07,6.81-57.59,58.1-70.7,102.42-13.61,45.06-15.87,83.17-16.51,83.3,0,0,0,0,0,0s0,0,0,0c.45-.1,10.76-26.12,27-48.7,16.21-23.25,38.33-43.07,62.5-48.05.65-.13,1.29-.25,1.94-.36s1.3-.3,1.95-.44c24.16-5,47.35,5.53,64.93,21.82,17.61,15.59,29.57,37,30,36.94,0,0,0,0,0,0l0,0c-.64.13-5.51-36.52-22-75.36-16-38.33-43.7-78.87-76.77-72.06Z"/><path class="cls-4" d="M458.49,776.43l-1.23-.17a66.41,66.41,0,0,0-33.51,3.32c-13,4.42-38.75,18-64.77,59.49q-.86,1.36-1.71,2.76c-.57.89-1.15,1.79-1.72,2.7-26,41.47-41.09,92.89-47.76,119.85a695.93,695.93,0,0,0-14,72.41c-.15,1.06-.29,2-.41,2.78-.07-.84-.17-2-.32-3.46a582.6,582.6,0,0,1-1.89-89.81c1.11-22.4,4.09-56.69,12-92.91,7.79-35.71,18.47-64.55,31.75-85.7.34-.55.68-1.09,1-1.62l1-1.67c13.28-21.15,28.55-33.69,45.4-37.25,17.1-3.61,31.57,2.87,40.7,8.94,18.37,11.74,29.88,31,34.22,38.31C457.79,775.29,458.19,776,458.49,776.43Z"/><path class="cls-4" d="M337.08,764.85c13.25-21.11,28.5-33.62,45.32-37.17,17.06-3.61,31.51,2.86,40.62,8.92,18.33,11.71,29.82,31,34.14,38.23l.59,1-.51-.07a66.36,66.36,0,0,0-33.53,3.32c-13,4.42-38.8,18.05-64.86,59.56-.57.91-1.14,1.83-1.7,2.75s-1.15,1.8-1.72,2.71c-26.05,41.51-41.15,93-47.82,120a699,699,0,0,0-14.05,72.5c-.06.4-.11.78-.16,1.15,0-.5-.1-1-.16-1.66a581.69,581.69,0,0,1-1.89-89.64c1.11-22.34,4.08-56.58,12-92.73C311.1,818,321.77,789.25,335,768.14c.34-.55.68-1.08,1-1.63l1-1.65h0m-.26-.9-1,1.66-1,1.63c-29.17,46.48-41.05,122.83-43.83,178.93-3.09,57.38,2.86,94.64,2.29,95.55l0,0s0,0,0,0c.4-.64,4.45-36.78,14.76-77.06C318.07,923.88,334.36,879,355.68,845c.57-.91,1.14-1.81,1.72-2.7l1.71-2.76c21.32-34,45-52.73,64.7-59.42,19.58-7.35,35.18-2.52,35.58-3.16a.09.09,0,0,0,0-.05s0,0,0,.05c-.57.91-12.81-26.34-36.3-41.36C400.2,720.37,366,717.46,336.82,764Z"/><path class="cls-4" d="M467.08,785.64l1,.75c3.9,3,14.27,10.79,25.22,26.38,9.26,12.71,26.73,41.63,39.61,92.55l.84,3.38c.29,1.1.57,2.22.86,3.33,12.88,50.93,15.61,101.87,16.1,127.71.78,30.79-1,56.83-1.7,66.63-.06.93-.12,1.78-.16,2.46.2-.61.47-1.41.84-2.48,3-8.79,11.08-32.12,17-68.94a524.6,524.6,0,0,0,6.79-81.22c.17-33.48-3.09-63.63-9.66-89.61-.17-.68-.34-1.34-.51-2l-.51-2c-6.57-26-16.17-46.64-28.53-61.39-12.53-15-24.8-20.18-32.87-21.91-16.17-3.86-28.36,3.07-33,5.68C467.81,785.24,467.4,785.48,467.08,785.64Z"/><path class="cls-4" d="M562.56,862.81h0c.17.66.33,1.34.5,2l.52,2c6.56,25.93,9.8,56,9.64,89.44a523.94,523.94,0,0,1-6.78,81.07c-5.86,36.75-13.89,60-16.91,68.8-.16.44-.29.83-.41,1.19,0-.33,0-.67.07-1,.67-9.81,2.47-35.88,1.69-66.71-.48-25.85-3.22-76.86-16.12-127.84-.28-1.12-.57-2.23-.86-3.35s-.55-2.24-.83-3.36c-12.9-51-30.39-79.94-39.66-92.66-11-15.6-21.34-23.46-25.25-26.42l-.4-.3.62-.35c4.58-2.61,16.75-9.52,32.88-5.67,8.07,1.73,20.3,6.93,32.82,21.87,12.34,14.73,21.92,35.34,28.48,61.28m.35-.53c-14.44-57.1-41.28-79.11-61.52-83.46-20.68-4.93-34.8,7.71-35.08,6.59v-.06a.07.07,0,0,0,0,0c.2.78,13,8.08,26.85,27.74,14,19.23,29,50.73,39.56,92.45.29,1.12.56,2.23.84,3.37s.58,2.22.86,3.34c10.55,41.72,15.35,88.45,16.08,127.55,1,38.84-2.13,70-1.93,70.78,0,0,0,0,0,0l0,0c-.28-1.12,10.73-26,18.25-73.15,7.53-45.88,11.56-114.05-2.88-171.15-.17-.67-.34-1.33-.52-2s-.33-1.36-.5-2Z"/><path class="cls-4" d="M467.66,771c.25-.49.56-1.12.9-1.81,3.59-7.21,13.11-26.37,26.31-42.95,11-14.25,33.77-38.63,63.35-41.69.64-.07,1.29-.13,1.95-.17s1.29-.17,1.94-.24c29.58-3.06,53.16,16.5,64.58,28.43,13.73,13.78,23.89,30.9,27.71,37.35.37.61.7,1.17,1,1.61-.14-.75-.32-1.77-.56-3.13-2-11.18-7.29-40.88-19.68-72.54-6.11-15.93-16.45-38.59-31-56.06-14.33-17.23-29.25-25.17-44.34-23.6l-1.17.14-1.17.1c-15.09,1.57-29.68,12.57-43.36,32.7-13.87,20.41-23.38,45.13-28.91,62.27-11.23,34.11-15.47,64.8-17.06,76.35C467.92,769.14,467.78,770.19,467.66,771Z"/><path class="cls-4" d="M557.46,596.94h0l1.16-.11,1.18-.14c15.06-1.56,30,6.37,44.26,23.56,14.51,17.44,24.83,40.06,30.93,56,12.36,31.6,17.65,61.23,19.64,72.39.09.55.18,1.06.27,1.51-.13-.22-.27-.44-.4-.67-3.83-6.46-14-23.6-27.75-37.39-11.43-11.94-35-31.53-64.65-28.46-.65.07-1.3.14-2,.23l-1.94.17c-29.62,3.08-52.45,27.48-63.42,41.75-13.22,16.59-22.75,35.78-26.34,43l-.37.74c.07-.46.14-1,.22-1.56,1.59-11.53,5.81-42.15,17-76.18,5.52-17.11,15-41.79,28.86-62.17,13.66-20.09,28.21-31.07,43.28-32.63m0-1.05C524.28,599.33,498.9,648.08,485,691c-14.37,43.63-17.29,81.48-17.93,81.55l0,0s0,0,0,0c.46,0,11.21-25,27.86-45.9,16.59-21.58,39-39.13,63.27-41.65.65-.07,1.3-.12,1.95-.17s1.3-.17,2-.23c24.23-2.52,47.21,10.33,64.5,28.4,17.32,17.37,28.91,40,29.37,40,0,0,0,0,0,0l0,0c-.64.07-4.87-37-20.72-77.54-15.31-39.92-42.31-83.24-75.47-79.81l-1.17.15c-.39,0-.78.06-1.17.1Z"/><path class="cls-4" d="M570.32,812.19c.62.72,1.23,1.46,1.84,2.21s1.23,1.42,1.85,2.15c28,33.11,45.6,79.47,53.63,104.16,9.77,29.16,15.52,57,17.69,67.5.2,1,.39,1.91.54,2.63,0-.85.08-2,.14-3.53a584.19,584.19,0,0,0-2.8-89.67c-2.27-21.87-7-55-16.75-88.46-9.59-33-21.69-58.33-36-75.22l-1.11-1.3-1.11-1.33c-14.27-16.89-30.08-24.61-47-23-17.14,1.68-31.16,12.57-39.9,21.41-17.61,17.3-28,40-31.94,48.55-.48,1-.84,1.81-1.11,2.38.34-.14.75-.33,1.22-.54,4.84-2.2,17.69-8,33.4-7"/><path class="cls-4" d="M503,772.61c-15.72-1-28.59,4.85-33.44,7l-.5.23c.16-.35.34-.73.53-1.16,3.92-8.52,14.31-31.17,31.87-48.44,8.73-8.82,22.72-19.69,39.84-21.37,16.87-1.66,32.64,6.05,46.89,22.91m0,0h0c.37.43.73.88,1.1,1.32l1.11,1.3c14.25,16.86,26.33,42.12,35.9,75.08C636,843,640.74,876,643,897.82a584.59,584.59,0,0,1,2.8,89.49c0,.63,0,1.19-.08,1.7-.07-.35-.14-.71-.22-1.09-2.17-10.5-7.93-38.39-17.71-67.59-8-24.71-25.69-71.12-53.69-104.27-.61-.72-1.23-1.44-1.85-2.15s-1.22-1.48-1.84-2.21m-.2,1,1.84,2.21c.61.71,1.23,1.43,1.84,2.16,22.92,27.12,41.43,66.66,53.57,104,12.32,36.78,18.23,71.38,18.66,71.89,0,0,0,0,0,0s0,0,0,0c-.61-.72,3.34-39.52-2.71-95.48-5.69-54.8-21.45-126.86-52.81-164l-1.11-1.29-1.1-1.33h0c-31.37-37.13-65.14-23.7-87.05-1.56-22.52,22.14-33.23,52.94-33.84,52.22a.08.08,0,0,1,0-.06s0,0,0,0c.43.51,15.65-9.08,35.46-7.83"/><path class="cls-4" d="M459,755.21c-.15-.62-.32-1.39-.51-2.23-2-8.88-7.35-32.48-16.16-59.33-7.25-22.59-23.07-66.5-47.62-106.72-.54-.88-1.08-1.76-1.63-2.63s-1.07-1.78-1.61-2.66C367,541.42,344.28,522.25,333,514.4a89.17,89.17,0,0,0-28.69-14.13l-1-.3c.23-.26.53-.62.93-1.1,3.26-4,11.92-14.48,26.86-16.92,7.41-1.4,19.34-1.24,34.09,7.41,14.54,8.53,28.26,23.26,40.79,43.78l1,1.6c.33.53.66,1.06,1,1.59,12.53,20.52,23.3,45.91,32,75.47a491.91,491.91,0,0,1,15.63,74c4.68,34.57,3.92,58,3.64,66.89C459.07,753.79,459.05,754.6,459,755.21Z"/><path class="cls-4" d="M407.75,536.62C420.25,557.1,431,582.45,439.7,612a491.93,491.93,0,0,1,15.6,73.91c4.67,34.49,3.91,57.92,3.63,66.73,0,.44,0,.84,0,1.2-.06-.29-.13-.6-.2-.91-2-8.89-7.36-32.51-16.18-59.4-7.26-22.62-23.1-66.57-47.68-106.84-.54-.89-1.08-1.76-1.62-2.62l-1.62-2.68C367,541.08,344.31,521.89,333,514a89.29,89.29,0,0,0-28.72-14.14l-.43-.13.44-.53c3.25-4,11.9-14.45,26.8-16.89,7.4-1.4,19.31-1.24,34,7.4,14.51,8.51,28.21,23.22,40.71,43.7.33.53.65,1.06,1,1.61l1,1.57h0m.16-.59-1-1.58-1-1.6c-27.53-45.09-56.45-54.79-75-51.3-19.1,3.14-27.91,19.38-28.45,18.5,0,0,0,0,0-.05a.08.08,0,0,0,0,0c.38.62,13.36,2.41,30.44,14.73,17.16,11.88,38.38,34.21,58.5,67.16.54.88,1.07,1.77,1.61,2.67s1.08,1.75,1.62,2.63c20.12,32.95,36.6,72.4,47.57,106.59,11.12,33.87,16.68,62.45,17.06,63.07,0,0,0,0,0,0l0,0c-.54-.88,2.34-26.84-3.64-71.06C450,642.65,435.44,581.13,407.91,536Z"/><path class="cls-4" d="M613.46,487.37l-1,.39c-4.12,1.52-15.07,5.57-28.48,16.44C572.74,513,550.33,534,526.34,576.13c-.52.93-1.05,1.86-1.57,2.8l-1.59,2.76c-24,42.18-39.2,87.34-46.13,110.5-8.45,27.55-13.46,51.56-15.34,60.6l-.48,2.27c0-.61-.06-1.41-.11-2.48-.4-8.81-1.48-32.21,2.72-67.14a511.69,511.69,0,0,1,14.62-75.26c8.3-30.25,18.72-56.49,31-78l1-1.65c.31-.57.63-1.13.94-1.69,12.24-21.52,25.76-37.35,40.17-47.05,14.62-9.84,26.55-11,34-10.17,15,1.24,23.76,11,27.08,14.75C612.93,486.8,613.23,487.13,613.46,487.37Z"/><path class="cls-4" d="M511.4,529.11c12.22-21.48,25.71-37.28,40.09-47,14.6-9.83,26.5-10.95,33.91-10.15,14.93,1.23,23.71,11,27,14.71l.45.5-.42.16c-4.13,1.52-15.09,5.58-28.51,16.45-11.23,8.77-33.66,29.79-57.68,72-.53.93-1,1.86-1.57,2.79l-1.59,2.77c-24,42.23-39.25,87.44-46.19,110.62-8.45,27.59-13.47,51.63-15.36,60.68-.07.32-.13.64-.2.94,0-.36,0-.76-.05-1.19-.4-8.79-1.48-32.15,2.72-67a510.49,510.49,0,0,1,14.58-75.12c8.29-30.19,18.69-56.39,30.9-77.87.32-.55.63-1.1,1-1.66s.63-1.13.94-1.68h0m-.17-.57c-.32.55-.63,1.11-1,1.68l-.95,1.66c-26.89,47.29-40.6,110-45.66,153.55-5.37,44.68-2.13,70.39-2.66,71.31,0,0,0,0,0,0h0c.37-.65,5.54-29.67,16.18-64.42,10.5-35.06,26.44-75.82,46.09-110.38.53-.92,1.05-1.84,1.59-2.76s1-1.87,1.57-2.79C546.08,541.86,567,517.83,584,504.57c16.91-13.7,29.86-16.54,30.23-17.19a.08.08,0,0,0,0,0l0,.05c-.52.92-9.55-14.6-28.69-16.19-18.61-2-47.38,10-74.27,57.34Z"/><path class="cls-5" d="M708.16,1089.86a20.55,20.55,0,0,0,1.62-3.92c11.05-3.11,22-21.92,12.63-42.25a35.67,35.67,0,0,1,5.65,4.87C734.1,1071.36,720.11,1088.38,708.16,1089.86Z"/><rect class="cls-5" x="691.39" y="1034.05" width="7.44" height="26.59"/><path class="cls-6" d="M220.18,854.13l-.76,1A179.26,179.26,0,0,0,199.71,889c-7.21,15.3-20.74,48.93-30.42,102.22l-.63,3.53c-.21,1.16-.43,2.32-.64,3.49-9.68,53.29-11.32,103.24-11.43,128.26-.3,29.9,1.39,54.36,2,63.57.06.88.12,1.67.16,2.31-.17-.51-.39-1.19-.7-2.1-2.49-7.45-9.1-27.24-14.14-60.73a557.21,557.21,0,0,1-6.23-75.92c-.47-32.17,1.79-62.27,6.73-89.46.13-.7.25-1.39.39-2.1s.25-1.42.38-2.12c4.93-27.19,12.32-50.26,22-68.56,9.78-18.57,19.44-27.65,25.82-32,12.77-9.08,22.5-6.45,26.16-5.47C219.6,854,219.93,854.08,220.18,854.13Z"/><path class="cls-6" d="M145.35,960.09c4.92-27.13,12.3-50.16,21.92-68.43,9.76-18.53,19.4-27.6,25.78-31.94,12.73-9.06,22.45-6.44,26.1-5.46l.5.14-.32.42a181,181,0,0,0-19.73,33.81c-7.21,15.32-20.76,49-30.45,102.35l-.63,3.51c-.22,1.17-.43,2.34-.64,3.51-9.69,53.35-11.33,103.35-11.45,128.4-.3,29.93,1.4,54.42,2,63.64q0,.49.06,1l-.33-1c-2.49-7.43-9.09-27.18-14.12-60.6a555.87,555.87,0,0,1-6.21-75.79c-.47-32.11,1.78-62.15,6.71-89.28l.39-2.11c.12-.71.25-1.42.38-2.11h0m-.29-.38c-.12.7-.25,1.41-.37,2.11s-.26,1.4-.39,2.11c-10.85,59.74-7,124-.51,165.68,6.45,42.83,15.43,63.18,15.22,64.35l0,0s0,0,0,0c.15-.82-2.64-29.77-2.27-67.48.18-37.88,3.49-84.45,11.42-128.11.21-1.17.43-2.34.65-3.5s.41-2.35.62-3.52c7.93-43.66,19.48-79,30.39-102.11,10.74-23.51,20.83-34.8,21-35.62v0a.13.13,0,0,1,0,.06c-.21,1.17-11.53-6.31-27.86,5.3-16,10.9-37,41-47.87,100.75Z"/><path class="cls-3" d="M235.41,812.74c49.45,250.85,57,456.69,22.89,710.63q-26.56,5-53.27,7.85C259.07,1283.46,269.49,1073.46,235.41,812.74Z"/><path class="cls-6" d="M220.86,807.85c-.25-.33-.55-.76-.88-1.24-3.48-5-12.73-18.17-25.24-28.22-10.41-8.75-31.9-22.61-58.89-17-.6.12-1.19.26-1.78.4s-1.19.22-1.78.34c-27,5.58-47.84,28.2-57.87,41.19-12.07,15.13-20.78,32.05-24.06,38.42-.32.61-.6,1.16-.83,1.59.11-.66.24-1.55.42-2.74a357.51,357.51,0,0,1,15.68-65.25C70.7,760.49,79.41,739,92.1,720.55c12.51-18.15,25.84-28.8,39.61-31.65l1.07-.2,1.07-.24c13.77-2.85,27.38,2.22,40.44,15.08,13.24,13,22.64,30.82,28.2,43.45,11.26,25.06,16,49.22,17.85,58.32C220.56,806.42,220.73,807.24,220.86,807.85Z"/><path class="cls-6" d="M133.86,688.89c13.75-2.84,27.32,2.22,40.36,15.05,13.22,13,22.6,30.78,28.15,43.38,11.23,25,16,49.12,17.81,58.19.09.46.18.86.25,1.23l-.36-.51c-3.48-5-12.74-18.19-25.27-28.25-10.42-8.77-31.93-22.64-59-17q-.9.18-1.77.39l-1.79.34c-27,5.6-47.9,28.24-57.93,41.23C62.27,818.06,53.54,835,50.26,841.37l-.34.66c.06-.39.12-.83.19-1.32a357.23,357.23,0,0,1,15.65-65.12c5.06-14.8,13.75-36.29,26.42-54.67,12.49-18.11,25.79-28.74,39.54-31.58.36-.08.71-.15,1.07-.21l1.07-.24h0m0-.87-1.07.24c-.36.06-.71.13-1.07.21-30.26,6.26-53.49,49.42-66.2,86.57C52.33,812.8,49.61,844.59,49,844.71l0,0s0,0,0,0c.42-.09,10.26-22,25.49-41,15.17-19.65,35.68-36.56,57.8-41.14l1.78-.34q.88-.21,1.77-.39c22.12-4.58,43.08,3.75,58.83,17C210.46,791.48,221,809.12,221.42,809c0,0,0,0,0,0l0,0c-.59.12-4.4-30.31-18.81-62.37C188.69,715,164.11,681.76,133.84,688Z"/><path class="cls-6" d="M229.57,830.56c-.35,0-.79-.09-1.28-.15a75.89,75.89,0,0,0-34.85,3.12c-13.55,4.17-40.32,17-67.39,56.05-.59.85-1.18,1.72-1.77,2.6s-1.2,1.69-1.79,2.54c-27.07,39.06-42.75,87.5-49.69,112.9a599,599,0,0,0-14.59,68.22c-.16,1-.31,1.89-.43,2.61-.07-.79-.18-1.84-.33-3.25a497.84,497.84,0,0,1-2-84.61c1.16-21.1,4.26-53.4,12.48-87.53,8.11-33.64,19.22-60.8,33-80.73l1.08-1.53c.36-.53.71-1,1.07-1.56,13.81-19.93,29.7-31.74,47.23-35.09,17.78-3.41,32.84,2.7,42.34,8.42,19.1,11,31.08,29.24,35.59,36.09C228.85,829.49,229.26,830.11,229.57,830.56Z"/><path class="cls-6" d="M103.27,819.66c13.78-19.89,29.65-31.67,47.14-35,17.75-3.4,32.78,2.69,42.27,8.4,19.06,11,31,29.19,35.51,36l.61.92-.52-.06A75.92,75.92,0,0,0,193.39,833c-13.57,4.17-40.36,17-67.47,56.11l-1.77,2.59c-.6.85-1.2,1.7-1.79,2.56-27.1,39.1-42.8,87.6-49.75,113A601.59,601.59,0,0,0,58,1075.62c-.06.37-.12.74-.17,1.08,0-.47-.11-1-.17-1.56a524.33,524.33,0,0,1,10.5-171.8c8.09-33.58,19.18-60.69,33-80.58.35-.52.71-1,1.08-1.54s.7-1,1.06-1.56h0m-.27-.85c-.35.52-.71,1-1.06,1.57s-.72,1-1.08,1.53c-30.35,43.79-42.7,115.71-45.6,168.56-3.21,54,3,89.16,2.38,90l0,0s0,0,0,0c.42-.61,4.64-34.65,15.36-72.59,10.5-38.45,27.45-80.77,49.63-112.77.59-.86,1.19-1.71,1.79-2.55s1.18-1.74,1.78-2.6c22.17-32,46.8-49.68,67.3-56,20.38-6.92,36.6-2.37,37-3,0,0,0,0,0,0a.07.07,0,0,1,0,0c-.6.86-13.32-24.82-37.76-39C168.94,777.76,133.35,775,103,818.81Z"/><path class="cls-6" d="M243.45,842l.93.61a101.39,101.39,0,0,1,24,21.69c8.83,10.44,25.48,34.21,37.76,76.07.27.92.53,1.85.8,2.78s.55,1.82.82,2.74c12.27,41.86,14.88,83.73,15.34,105a498.58,498.58,0,0,1-1.61,54.76c-.06.77-.12,1.47-.16,2,.19-.49.45-1.15.81-2,2.88-7.22,10.55-26.41,16.16-56.67a375,375,0,0,0,6.47-66.76c.15-27.52-2.95-52.3-9.21-73.66-.16-.55-.33-1.09-.49-1.64s-.32-1.12-.48-1.67c-6.27-21.36-15.42-38.34-27.2-50.46-11.95-12.31-23.64-16.59-31.34-18-15.41-3.17-27,2.52-31.41,4.67Z"/><path class="cls-6" d="M334.46,905.44h0c.16.54.32,1.1.48,1.65l.49,1.66c6.25,21.32,9.35,46,9.19,73.52a372,372,0,0,1-6.46,66.64c-5.59,30.2-13.24,49.34-16.12,56.55-.15.36-.28.68-.39,1,0-.26,0-.55.06-.83a499.17,499.17,0,0,0,1.62-54.83c-.46-21.26-3.07-63.18-15.37-105.09-.27-.92-.54-1.83-.82-2.75s-.52-1.84-.8-2.76c-12.29-41.91-29-65.71-37.8-76.17a101.33,101.33,0,0,0-24.07-21.71l-.38-.25.59-.29c4.37-2.14,16-7.82,31.35-4.66,7.68,1.42,19.35,5.7,31.28,18,11.76,12.1,20.9,29,27.15,50.36m.33-.43c-13.76-46.93-39.35-65-58.64-68.6-19.71-4-33.17,6.34-33.44,5.42a.07.07,0,0,1,0-.05s0,0,0,0c.19.64,12.43,6.64,25.6,22.8,13.36,15.81,27.65,41.7,37.71,76,.27.92.53,1.84.8,2.77s.55,1.83.82,2.74c10.06,34.3,14.63,72.71,15.33,104.85.94,31.93-2,57.53-1.84,58.18,0,0,0,0,0,0l0,0c-.27-.92,10.22-21.41,17.39-60.13,7.18-37.71,11-93.74-2.74-140.67-.17-.56-.33-1.1-.5-1.65s-.31-1.12-.48-1.67Z"/><path class="cls-6" d="M241.15,820.47c.22-.49.48-1.11.77-1.8,3.06-7.2,11.19-26.33,22.47-42.87,9.36-14.22,28.84-38.55,54.1-41.62l1.66-.17,1.67-.23c25.25-3.06,45.39,16.47,55.15,28.38,11.73,13.75,20.4,30.84,23.67,37.27.31.61.59,1.17.82,1.61-.13-.75-.28-1.77-.49-3.13-1.7-11.16-6.22-40.8-16.8-72.39-5.22-15.91-14.05-38.52-26.47-56-12.24-17.19-25-25.12-37.87-23.55l-1,.13-1,.11c-12.89,1.56-25.34,12.54-37,32.63-11.84,20.38-20,45-24.69,62.16-9.59,34-13.21,64.67-14.57,76.2C241.38,818.64,241.25,819.69,241.15,820.47Z"/><path class="cls-6" d="M317.84,646.77h0l1-.1c.34-.06.67-.1,1-.14,12.86-1.56,25.58,6.35,37.8,23.51,12.4,17.41,21.21,40,26.42,55.85,10.56,31.54,15.07,61.12,16.77,72.25.08.56.16,1.06.23,1.51-.11-.22-.23-.44-.34-.67-3.27-6.44-12-23.55-23.7-37.32-9.76-11.92-29.92-31.47-55.21-28.4-.56.06-1.11.14-1.67.23s-1.1.1-1.66.17c-25.29,3.07-44.79,27.43-54.16,41.67C253,791.89,244.89,811,241.82,818.25c-.1.25-.21.5-.31.74q.09-.71.18-1.56c1.36-11.51,5-42.07,14.54-76,4.72-17.08,12.82-41.7,24.65-62,11.66-20.05,24.1-31,37-32.57m0-1c-28.33,3.44-50,52.1-61.84,95-12.27,43.54-14.76,81.32-15.31,81.39l0,0s0,0,0,0c.39-.05,9.57-25,23.79-45.81,14.17-21.54,33.34-39.06,54-41.57.55-.07,1.1-.13,1.66-.17l1.66-.24c20.7-2.51,40.32,10.32,55.09,28.35C391.7,780,401.6,802.58,402,802.54c0,0,0,0,0,0l0,0c-.56.06-4.17-37-17.7-77.39-13.08-39.85-36.14-83.09-64.45-79.66l-1,.14-1,.1Z"/><path class="cls-6" d="M241.81,830.62l1-.5c4.1-2,15-7.28,28.29-6.38,11.14.34,33.36,5.39,57.06,35.43l1.56,2,1.56,2c23.7,30,38.64,72.11,45.43,94.52a568,568,0,0,1,15,61.26c.17.91.33,1.73.46,2.38,0-.77.06-1.81.12-3.2a569,569,0,0,0-2.38-81.37c-1.92-19.85-5.94-49.89-14.18-80.28-8.13-30-18.38-52.93-30.47-68.26-.31-.4-.62-.78-.94-1.17s-.62-.81-.94-1.21c-12.09-15.33-25.48-22.34-39.79-20.83-14.53,1.53-26.4,11.41-33.81,19.43-14.91,15.7-23.73,36.3-27.05,44.05C242.34,829.4,242,830.1,241.81,830.62Z"/><path class="cls-6" d="M343.32,786.24h0l.93,1.2.94,1.18c12.07,15.3,22.3,38.22,30.41,68.13,8.23,30.34,12.24,60.32,14.16,80.13a566.27,566.27,0,0,1,2.37,81.21c0,.57,0,1.08-.06,1.54-.06-.32-.12-.65-.19-1a570,570,0,0,0-15-61.33c-6.8-22.42-21.76-64.54-45.48-94.62-.52-.66-1-1.31-1.57-2s-1-1.34-1.55-2c-23.73-30.08-46-35.14-57.13-35.47-13.32-.9-24.22,4.39-28.33,6.39l-.42.2c.14-.31.29-.66.45-1,3.32-7.74,12.12-28.3,27-44,7.39-8,19.25-17.87,33.74-19.4,14.3-1.5,27.66,5.49,39.73,20.79m.17-.88c-26.57-33.69-55.18-21.5-73.73-1.41-19.08,20.09-28.16,48-28.68,47.38a.43.43,0,0,1,0-.05,0,0,0,0,0,0,.05c.37.46,13.26-8.24,30-7.11,16.86.51,37.58,10.78,57,35.39l1.56,2,1.56,2c19.42,24.62,35.1,60.5,45.38,94.41,10.44,33.38,15.44,64.77,15.81,65.23,0,0,0,0,0,0h0c-.52-.66,2.83-35.86-2.3-86.65-4.82-49.72-18.17-115.12-44.73-148.8l-.94-1.18-.94-1.2Z"/><path class="cls-6" d="M230.14,818.85c-.13-.54-.29-1.21-.47-1.94-1.9-7.72-6.95-28.21-14.82-51.66-6.48-19.71-20.43-58.1-41-93.68l-1.36-2.33c-.44-.79-.9-1.57-1.35-2.35-20.56-35.58-38.86-53-47.93-60.19-10.86-9-19.5-12.12-22.75-13.32l-.81-.3.67-.91c2.37-3.27,8.66-11.95,20.13-13.45,5.68-.9,14.92-.28,26.67,7.77,11.58,7.92,22.77,21.15,33.26,39.3.28.47.54.93.81,1.41l.82,1.4c10.49,18.16,19.82,40.42,27.71,66.19a492.4,492.4,0,0,1,15,64.27,374.2,374.2,0,0,1,5.41,57.65C230.12,817.63,230.13,818.32,230.14,818.85Z"/><path class="cls-6" d="M182,628.86c10.47,18.11,19.78,40.34,27.65,66a491.5,491.5,0,0,1,14.95,64.17A373.36,373.36,0,0,1,230,816.6c0,.38,0,.72,0,1-.06-.25-.13-.52-.2-.79-1.9-7.73-6.95-28.25-14.83-51.72-6.49-19.74-20.46-58.17-41-93.79L172.55,669c-.45-.79-.9-1.58-1.36-2.36-20.58-35.62-38.9-53-48-60.26-10.88-9-19.52-12.14-22.77-13.33l-.34-.12c.09-.14.2-.28.32-.45,2.36-3.26,8.65-11.93,20.09-13.42,5.67-.9,14.89-.28,26.62,7.75,11.56,7.91,22.73,21.11,33.2,39.23l.82,1.42.81,1.39h0m.1-.51-.81-1.4-.81-1.41c-23.06-39.89-45.82-49.4-60-47.16-14.66,1.91-20.85,15.52-21.3,14.74,0,0,0,0,0,0s0,0,0,0c.32.55,10.43,2.62,24.13,13.91,13.74,10.91,31,31,47.88,60.12.45.78.9,1.56,1.35,2.36s.91,1.54,1.36,2.32c16.85,29.15,31.14,63.73,41,93.57,9.92,29.57,15.33,54.37,15.64,54.92,0,0,0,0,0,0l0,0c-.45-.78.77-23-5.58-61.24-6-37.33-19.7-90.81-42.76-130.7Z"/><path class="cls-6" d="M345.23,555.13l-.82.32c-3.26,1.24-11.92,4.54-22.18,14.39-8.6,7.91-25.58,27.14-42.59,67.09l-1.11,2.65c-.38.86-.76,1.74-1.13,2.61-17,39.95-26.72,83.38-31,105.71-5.23,26.54-7.89,49.82-8.89,58.58-.09.83-.18,1.59-.25,2.2-.05-.6-.13-1.39-.23-2.45a460.58,460.58,0,0,1-1.76-65.79,567.17,567.17,0,0,1,7.44-73c5-29.2,11.88-54.34,20.56-74.72.23-.53.45-1.05.68-1.57s.45-1.07.67-1.59c8.68-20.39,18.73-35.11,29.88-43.74,11.31-8.76,20.93-9.12,27-7.88,12.23,2.14,20,12.33,22.88,16.16C344.76,554.54,345,554.89,345.23,555.13Z"/><path class="cls-6" d="M264.72,589.81c8.66-20.34,18.69-35,29.82-43.65,11.29-8.75,20.89-9.11,27-7.87,12.21,2.14,19.93,12.31,22.83,16.13l.4.52-.34.13c-3.26,1.24-11.93,4.55-22.2,14.4-8.62,7.92-25.61,27.17-42.64,67.17-.38.88-.75,1.76-1.12,2.65s-.75,1.74-1.13,2.62c-17,40-26.74,83.47-31,105.81-5.24,26.58-7.9,49.88-8.9,58.65,0,.32-.07.62-.1.92,0-.36-.08-.75-.12-1.18a459.28,459.28,0,0,1-1.75-65.65,566.19,566.19,0,0,1,7.42-72.9c5-29.14,11.87-54.24,20.53-74.58.22-.53.45-1.05.68-1.58s.44-1.06.67-1.59h0m-.18-.57-.67,1.59c-.23.52-.45,1-.67,1.57-19.08,44.79-26.52,105.51-28,148-1.74,43.57,2.41,69,2,69.9l0,0h0c.27-.62,2.75-28.8,9.36-62.28,6.46-33.8,17-72.85,31-105.58l1.12-2.61,1.12-2.65c13.94-32.73,29.52-55.05,42.54-67,12.94-12.41,23.3-14.39,23.56-15a0,0,0,0,0,0,0,.07.07,0,0,1,0,.05c-.37.87-8.63-14.94-24.28-17.68-15.24-3.11-37.92,6.92-57,51.72Z"/><path d="M478.45,1240.55a183.56,183.56,0,0,1-3.41,21.38,74.28,74.28,0,0,1-4.46,13.88,41.14,41.14,0,0,1-4.55,7.92,12.61,12.61,0,0,1-3.65,3.48,7.82,7.82,0,0,1-1.8.76c-.37,0-.8-.44-1.28-1.31a20.77,20.77,0,0,1-1.37-3.25q-.66-2-1.14-4a17.34,17.34,0,0,1-.47-3.79c0-2.17.54-3.26,1.61-3.26a7.76,7.76,0,0,1,1.8.22,14.68,14.68,0,0,0,2.94.22c1.26,0,2.53-1,3.79-2.82a31.59,31.59,0,0,0,3.51-8.25,85,85,0,0,0,2.6-13.67,159.86,159.86,0,0,0,1-18.88q0-22.14-.05-36.46t-.29-23.54q-.23-9.23-.56-14.43t-.9-9.12a6.07,6.07,0,0,0-.76-2.38,5.92,5.92,0,0,0-1-1.09,3.19,3.19,0,0,1-.85-1.19,7.64,7.64,0,0,1-.33-2.71,10,10,0,0,1,1-3.69,46.16,46.16,0,0,1,2.46-4.78,34.15,34.15,0,0,1,2.85-4.12c.94-1.16,1.67-1.74,2.18-1.74s1,.58,1.51,1.74a10.78,10.78,0,0,1,.76,4.34q0,6.94.1,19t.09,25.93v34.94A293,293,0,0,1,478.45,1240.55Z"/><path d="M505.26,1133c.29-1.45.9-2.17,1.85-2.17.44,0,1.09.43,1.94,1.3a23.37,23.37,0,0,1,2.56,3.15,30.14,30.14,0,0,1,2.28,3.9,8.88,8.88,0,0,1,1,3.8,13,13,0,0,1-.52,3.58,48.73,48.73,0,0,0-1.09,6q-.57,4.13-1.09,11.72t-.52,20.83q0,13.89.33,24.19a112.48,112.48,0,0,0,1.94,18.34,27.17,27.17,0,0,0,2.28,7,35.13,35.13,0,0,0,3.55,6,19.07,19.07,0,0,0,4,4.12,6.59,6.59,0,0,0,3.79,1.52q3.6,0,6.16-3.9a36,36,0,0,0,4.26-10.31,107,107,0,0,0,2.7-14.43c.67-5.35,1.15-10.81,1.47-16.39s.52-11,.62-16.16.14-9.77.14-13.67q0-7.82-.19-13c-.13-3.47-.25-6.3-.38-8.47s-.25-3.83-.38-5a25.92,25.92,0,0,1-.19-2.82c0-1.88.35-3.18,1-3.9a3.4,3.4,0,0,1,2.56-1.09,4.19,4.19,0,0,1,3.27,1.85,8.75,8.75,0,0,1,1.47,5.53q0,2.6-.28,8.79t-.72,14.1q-.42,7.93-1,16.82t-1.18,17q-.63,8.14-1.28,14.76t-1.24,10.09q-2.27,12.81-6.39,20.29t-8.2,11.18a4.8,4.8,0,0,1-2,1.08,8.13,8.13,0,0,1-1.89.22,9.65,9.65,0,0,1-4.36-1.3,19.74,19.74,0,0,1-4.88-3.8,31.09,31.09,0,0,1-7.63-14.43,112.53,112.53,0,0,1-1.94-14.87q-.81-9.87-1.33-23.11t-.76-29q-.24-15.72-.23-32.22A42.42,42.42,0,0,1,505.26,1133Z"/><path d="M577.66,1176.54a64.19,64.19,0,0,0-3.94-13.78q-2.37-5.87-3.79-9.44t-2.18-5.86a33.35,33.35,0,0,1-1-3.47,11.64,11.64,0,0,1-.24-2.28,9.62,9.62,0,0,1,1.23-4.34c.82-1.59,1.84-2.39,3-2.39a.91.91,0,0,1,.61.33,10.86,10.86,0,0,1,1.23,2c.6,1.08,1.44,2.75,2.52,5s2.52,5.39,4.35,9.44q7.49,16.71,13.79,29.3t12.37,22.78q6.06,10.2,12.27,18.77t13.5,17.25q.2-4.77.33-8.46t.24-6.95q.09-3.26.14-6.61c0-2.24.05-4.67.05-7.27q0-14.32-.19-26.26t-.38-24.3a45.18,45.18,0,0,0-.57-7,42,42,0,0,0-1-4.34c-.35-1.15-.67-2.17-.95-3a9.8,9.8,0,0,1-.43-3,6.15,6.15,0,0,1,2.61-5.32,9.67,9.67,0,0,1,2.27-1.19,6.11,6.11,0,0,1,2-.44,3.61,3.61,0,0,1,2.09.76c.69.51,1,1.7,1,3.58,0,1.16-.08,2.75-.24,4.78s-.35,5.6-.57,10.74-.41,12.44-.57,21.91-.23,22.32-.23,38.52q0,7.38.14,12.91t.38,9.77c.15,2.82.28,5.32.38,7.48s.14,4.27.14,6.3a15,15,0,0,1-.76,5,14.74,14.74,0,0,1-1.75,3.58,7.52,7.52,0,0,1-2,2.06,3.41,3.41,0,0,1-1.7.65c-.38,0-.72-.62-1-1.84s-.62-2.68-1-4.34-.84-3.44-1.38-5.32a15.06,15.06,0,0,0-2.23-4.77q-7.57-10-13.17-17.47t-9.66-13.24q-4.08-5.75-6.92-10.09t-5-8q-2.15-3.69-3.84-7t-3.41-7q-.29,4.77-.52,13t-.53,17.9q-.28,9.66-.71,19.42t-1.09,17.58a25.68,25.68,0,0,1-1.51,7.38c-.7,1.59-1.42,2.38-2.18,2.38a2.43,2.43,0,0,1-1.19-.43,4.76,4.76,0,0,1-1.32-1.3,8.89,8.89,0,0,1-1-2,6.34,6.34,0,0,1-.43-2.38,41.83,41.83,0,0,1,.8-6.62c.54-3,1.11-7,1.71-11.94s1.17-11.06,1.71-18.22.8-15.59.8-25.29A107.91,107.91,0,0,0,577.66,1176.54Z"/><path d="M695.58,1215.92a3.39,3.39,0,0,1,2.75-.87,1.22,1.22,0,0,1,.95.44,5.11,5.11,0,0,1,.61,2.28,52.53,52.53,0,0,1,.29,5.64q0,3.79,0,10.74,0,14.53.43,23.54t.43,15.3a13,13,0,0,1-.52,4.34,2.14,2.14,0,0,1-2.23,1.3,1.09,1.09,0,0,1-1-.65,9.64,9.64,0,0,1-.76-2.49c-.25-1.23-.49-3-.71-5.32s-.45-5.35-.71-9.11-1.2-5.64-2.84-5.64a4.22,4.22,0,0,0-1.37.43c-.67.29-1.44.58-2.32.87s-1.84.58-2.85.87a10.32,10.32,0,0,1-2.84.43,12.9,12.9,0,0,1-10.76-5.64,44.45,44.45,0,0,1-6.68-13.78,96,96,0,0,1-3.46-17,143.25,143.25,0,0,1-1-15.62,193,193,0,0,1,1.8-26.47,107.91,107.91,0,0,1,5.64-23.22,50.58,50.58,0,0,1,9.71-16.6,18.39,18.39,0,0,1,14-6.4c3.6,0,6.34.9,8.24,2.71s2.84,4.66,2.84,8.57a9.55,9.55,0,0,1-.57,3.15,14.22,14.22,0,0,1-1.32,2.82,11.82,11.82,0,0,1-1.52,2,2.08,2.08,0,0,1-1.23.76c-.44,0-.9-.43-1.38-1.3s-1.4-2.75-2.79-5.65a6.13,6.13,0,0,0-1.8-2.49,3.85,3.85,0,0,0-2.09-.54q-4.64,0-8.76,6.4a68.93,68.93,0,0,0-7.25,16.16,141.57,141.57,0,0,0-4.93,21.38,144,144,0,0,0-1.8,22,136.28,136.28,0,0,0,1.09,19.09,40.88,40.88,0,0,0,3,11.39,12.51,12.51,0,0,0,4.51,5.54,10.57,10.57,0,0,0,5.49,1.52,8.31,8.31,0,0,0,4.69-1.41,14.28,14.28,0,0,0,3.7-3.58,18.48,18.48,0,0,0,2.46-4.78,20.52,20.52,0,0,0,1.09-5.21l.76-13A5.59,5.59,0,0,1,695.58,1215.92Z"/><path d="M754.9,1244c.88-1.22,1.67-1.84,2.37-1.84,1.07,0,1.61.94,1.61,2.82,0,.43-.08,1.49-.24,3.15s-.38,3.4-.66,5.2-.6,3.48-1,5-.71,2.27-1.09,2.27a2.51,2.51,0,0,1-1.56-.54c-.48-.36-1.19-.9-2.13-1.63a1.27,1.27,0,0,0-.67-.32c-.31-.07-.85-.14-1.61-.22s-1.78-.14-3.08-.22-2.95-.1-5-.1-3.87,0-5.17.1-2.32.15-3.08.22a4,4,0,0,0-1.65.44,3.7,3.7,0,0,0-.9.76,3.69,3.69,0,0,1-2.94,1.51c-.38,0-.78-.5-1.19-1.51s-.8-2.14-1.18-3.37a31,31,0,0,1-.9-3.69,17.34,17.34,0,0,1-.33-2.49,10.7,10.7,0,0,1,.94-4,17,17,0,0,0,1-6.4q.09-3.47.14-8.46c0-3.33,0-7.23,0-11.72v-30.6q0-15.84-.47-25.28t-1-14.75a70.81,70.81,0,0,0-1-7.38,15.51,15.51,0,0,1-.48-3.37,9.6,9.6,0,0,1,.9-3.25,37.72,37.72,0,0,1,2.09-4.23,30.87,30.87,0,0,1,2.37-3.58c.79-1,1.34-1.52,1.66-1.52.56,0,1.26.47,2.08,1.41a5.58,5.58,0,0,1,1.23,3.8,35.54,35.54,0,0,1-.38,4.77,44.5,44.5,0,0,0-.38,5.86q0,9.77-.28,19.31t-.28,18.67c0,4,0,7.84.09,11.39s.1,7.7.1,12.47q0,6.73-.19,13.78t-.38,13.13q-.2,6.08-.38,10.64t-.19,6.51c0,1.16.38,1.73,1.14,1.73a1.58,1.58,0,0,0,1-.43,1.8,1.8,0,0,1,1.18-.44l17.16-1.52A4.46,4.46,0,0,0,754.9,1244Z"/><path d="M798.88,1176.71a7.38,7.38,0,0,1-.12,2.56c-.19,1.29-.49,2.69-.87,4.22s-.8,2.89-1.23,4.1a5.45,5.45,0,0,1-1.27,2.32q-5.45,5.44-10.28,9.47c-3.23,2.68-6.08,5.12-8.57,7.29q7.37,25.23,17,33.16t22.67-2.57q2.78-2.25,4-2.17c.8.05,1.46,1,2,2.81q.5,1.68-.92,4.89t-6.2,7.09q-7.21,5.8-13,7.26a18,18,0,0,1-10.52-.21,19.62,19.62,0,0,1-8.35-5.87,48.9,48.9,0,0,1-6.52-9.79,87.44,87.44,0,0,1-5-11.91q-2.15-6.31-3.87-12.2a224.81,224.81,0,0,1-7.93-37.11,130.75,130.75,0,0,1-.55-27.86q1.26-11.78,5.17-19.49a36.27,36.27,0,0,1,9.23-12q5.31-4.28,7.6-4.44t3.34,3.41q1.35,4.62-1.05,6.56l-7.46,6a20.49,20.49,0,0,0-5.26,6.84q-2.24,4.39-2.89,12.06a99.38,99.38,0,0,0,.65,19.09,213,213,0,0,0,5.39,27.59,18.9,18.9,0,0,1,1.7-4.35,11.63,11.63,0,0,1,3-3.6l17.06-13.76Q798.14,1174.19,798.88,1176.71Z"/><path d="M558.22,1392.63q-2.64,18.48-3.41,27.06c-.13,1.18-.26,2.13-.38,2.86a3.41,3.41,0,0,1-.68,1.65,2.62,2.62,0,0,1-1.29.77,9,9,0,0,1-2.16.22,2.09,2.09,0,0,1-1.44-.88,12.19,12.19,0,0,1-1.45-2.09,14.24,14.24,0,0,1-1.1-2.53,7.26,7.26,0,0,1-.43-2.2,14.46,14.46,0,0,1,.38-3.08,41.43,41.43,0,0,1,1.73-5.28,86.5,86.5,0,0,0,3.27-12q1.72-8,3.17-17.05t2.35-17.71a140.71,140.71,0,0,0,.91-14.19,106.08,106.08,0,0,0-1.58-19.58,118.08,118.08,0,0,0-3.56-14.41q-2-6-3.55-10.34a21.44,21.44,0,0,1-1.59-7.15A2.45,2.45,0,0,1,548,1295a5.39,5.39,0,0,1,1.49-1.1,8.42,8.42,0,0,1,1.77-.66,7.33,7.33,0,0,1,1.59-.22c.45,0,1,.44,1.54,1.32a31.5,31.5,0,0,1,2.35,5.39q1.49,4.08,3.94,11.77t6.2,20.24q1.62,5.28,4,12t5.09,13.64q2.75,6.93,5.72,13.42t5.91,11.66a52.41,52.41,0,0,0,5.57,8.25c1.76,2.06,3.35,3.08,4.76,3.08q3.93,0,9.27-5.72a71.17,71.17,0,0,0,10.52-15.73,145.75,145.75,0,0,0,9.46-23.87,158.93,158.93,0,0,0,6-30.14,68.27,68.27,0,0,1,1.11-7.7c.35-1.46.72-2.2,1.1-2.2a3,3,0,0,1,1.11.33,4.77,4.77,0,0,1,1.44,1.1,8.71,8.71,0,0,1,1.25,1.76,4.86,4.86,0,0,1,.53,2.31q0,1.77-.39,6.49t-.91,12q-.54,7.26-.91,17.16t-.39,22a114.88,114.88,0,0,0,.82,14.41q.81,6.49,1.82,11.55c.68,3.38,1.28,6.31,1.83,8.8a30.36,30.36,0,0,1,.81,6.16,4.42,4.42,0,0,1-.67,2.09,14.76,14.76,0,0,1-1.58,2.31,12.74,12.74,0,0,1-1.88,1.87,2.77,2.77,0,0,1-1.53.77c-.77,0-1.36-1.17-1.78-3.52a78.48,78.48,0,0,1-.91-9.68c-.19-3.52-.44-7.55-.72-12.1s-.58-9-.87-13.42-.54-8.39-.77-12-.4-6.19-.53-7.81l-5.95,12.32q-6.72,13.86-14.12,22.22T597,1403.85a10.83,10.83,0,0,1-5.1-1.32,17.39,17.39,0,0,1-5.23-4.84,63.78,63.78,0,0,1-5.91-9.57q-3.16-6-7-15.51L564,1349.07Q560.87,1374.15,558.22,1392.63Z"/><path d="M660.58,1340.05a109.73,109.73,0,0,1,4.32-20.46,47.15,47.15,0,0,1,7.64-15.07q4.66-5.82,11.29-5.83a10.35,10.35,0,0,1,7.3,3.41q3.47,3.42,6,10.56a91.18,91.18,0,0,1,4.13,18.26,193.93,193.93,0,0,1,1.54,26.29,150.42,150.42,0,0,1-2,25.74,85.75,85.75,0,0,1-5.23,18.81q-3.27,7.59-7.45,11.55t-8.69,4c-2.37,0-4.78-1.17-7.21-3.52s-4.61-5.83-6.53-10.45a83.4,83.4,0,0,1-4.71-17.27,139,139,0,0,1-1.82-24A184.13,184.13,0,0,1,660.58,1340.05Zm6.25,29.92a100.41,100.41,0,0,0,2.45,14.85,50.23,50.23,0,0,0,4.85,12.87q3.07,5.5,7.87,5.5a8.06,8.06,0,0,0,4.52-1.76c1.66-1.17,3.25-3.37,4.75-6.6a54.41,54.41,0,0,0,3.75-13.31,129.33,129.33,0,0,0,1.49-21.67,175.65,175.65,0,0,0-1.25-22.88,75,75,0,0,0-3.26-14.85q-2-5.61-4.62-8.14a7.72,7.72,0,0,0-5.38-2.53c-2.49,0-4.74,1.29-6.72,3.85a33,33,0,0,0-5,10.23,84.29,84.29,0,0,0-3.07,15,146.61,146.61,0,0,0-1.06,18Q666.15,1362.49,666.83,1370Z"/><path d="M726.15,1332.9q0-4.07,0-8.25,0-7.47-1.29-10.78a12.74,12.74,0,0,0-2.88-4.73c-1.06-1-2-1.79-2.89-2.53s-1.29-2-1.29-4a6.54,6.54,0,0,1,1-3.3l3.46-6.38a6.87,6.87,0,0,1,1.3-2,1.63,1.63,0,0,1,1-.44,1.44,1.44,0,0,1,1.1.77,14.56,14.56,0,0,1,1.3,3q5.57,15.18,11.43,30.36t10.9,27.72q5.05,12.54,8.75,21.34t5,11.44q.77-11.22,1.11-21.45t.33-21q0-8.58-.29-15t-.57-10.78q-.3-4.4-.58-7a41.38,41.38,0,0,1-.29-4.18,7,7,0,0,1,.82-3.19,5.43,5.43,0,0,1,1.78-1.87,6.44,6.44,0,0,1,2.21-.88,11.83,11.83,0,0,1,2.11-.22c.9,0,1.5.63,1.82,1.87a17.36,17.36,0,0,1,.48,4.29q0,2.2-.48,7.26t-1,13.64q-.58,8.58-1.06,21.45T769,1379q0,5.51.1,11.77t.09,13.31a14.79,14.79,0,0,1-.86,4.73,32.9,32.9,0,0,1-2,4.62,28.13,28.13,0,0,1-2.16,3.52c-.71,1-1.19,1.43-1.44,1.43s-.6-.8-.82-2.42-.5-3.66-.82-6.16-.78-5.28-1.39-8.36a59.37,59.37,0,0,0-2.64-9.24q-3.75-10.11-7.74-19.91T741.9,1354q-3.51-8.46-6.34-15.07t-4.27-10.34q-.3,9.24-.48,19t-.24,19q-.06,9.24-.1,17.27t-.05,13.53q0,4.85.1,9.79t.09,7.59a20.76,20.76,0,0,1-.33,3.63,3.54,3.54,0,0,1-1.4,2.53c-1.53.88-2.7,1.54-3.5,2a4.74,4.74,0,0,1-2.26.66c-1.22,0-1.83-1-1.83-3.08a11.82,11.82,0,0,1,.49-3.41c.31-1.1.68-2.49,1.1-4.18a65.07,65.07,0,0,0,1.2-6.71,105.49,105.49,0,0,0,.77-10.78l1.15-54.34C726.07,1338.37,726.11,1335.62,726.15,1332.9Z"/><path d="M800.21,1420.13a8.93,8.93,0,0,1-1.15,1.87,5.81,5.81,0,0,1-1.3,1.21,2.17,2.17,0,0,1-1,.44c-.32,0-.8-.48-1.44-1.43a6.79,6.79,0,0,1-1-3.85q0-2.85.15-8.36t.28-12.54q.15-7,.24-15t.1-15.62q0-11.43-.14-22.88t-.34-22.66c-.07-3.66-.21-6.6-.43-8.8s-.45-4-.68-5.28-.41-2.38-.57-3.19a11.78,11.78,0,0,1-.24-2.31,11.3,11.3,0,0,1,.62-3.08c.42-1.32.88-2.64,1.4-4a27,27,0,0,1,1.63-3.52c.58-1,1-1.54,1.25-1.54s.94.41,1.68,1.21a8.21,8.21,0,0,1,1.39,1.87,18.69,18.69,0,0,1,.63,2.2c.28,1.18.57,2.46.86,3.85s.53,2.68.72,3.85a18.64,18.64,0,0,1,.29,2.42,15.53,15.53,0,0,1-.62,3.85,26.59,26.59,0,0,0-.73,6c-.12,5.72-.24,10.67-.33,14.85s-.19,7.81-.29,10.89-.16,5.72-.19,7.92-.05,4.26-.05,6.16a31.87,31.87,0,0,0,.14,3.52c.1.74.34,1.1.72,1.1s1.21-1.57,2.65-4.73,3.15-7,5.14-11.66,4.11-9.68,6.38-15.18,4.41-10.56,6.39-15.18,3.7-8.5,5.14-11.66,2.32-4.73,2.65-4.73.91.52,1.58,1.54a32.29,32.29,0,0,1,2,3.52c.64,1.32,1.2,2.61,1.68,3.85a9,9,0,0,1,.72,2.53,2.72,2.72,0,0,1-.67,1.87,9.18,9.18,0,0,1-1.59,1.43c-.61.44-1.25,1-1.92,1.54a7.34,7.34,0,0,0-1.68,2.2q-2.6,5.07-5.76,12.21t-6.3,14.08q-3.12,6.93-5.86,12.54a47.41,47.41,0,0,1-4.46,7.81v.44c1,.3,2.11,1.54,3.46,3.74s2.8,4.92,4.37,8.14,3.23,6.75,5,10.56,3.52,7.37,5.29,10.67a84.57,84.57,0,0,0,5.18,8.58c1.7,2.42,3.29,3.93,4.76,4.51a2.68,2.68,0,0,1,1.78,1.54,9.8,9.8,0,0,1,.43,3.3,5.41,5.41,0,0,1-1.06,2.75,18.94,18.94,0,0,1-2.45,3.08,23.83,23.83,0,0,1-2.69,2.42,4,4,0,0,1-1.87,1c-.39,0-.91-.62-1.59-1.87s-1.45-2.86-2.35-4.84-1.91-4.25-3-6.82-2.32-5.24-3.6-8L812,1384.27q-2.88-6.15-4.56-9.46a28.22,28.22,0,0,0-2.5-4.29,2.16,2.16,0,0,0-1.49-1,4.61,4.61,0,0,0-1.54.22,9,9,0,0,0-1,.44q-.09,7.92-.14,15.84t0,15.62v16.06A5.4,5.4,0,0,1,800.21,1420.13Z"/><path d="M878,1354.35a7,7,0,0,1-.53,2.09,26.61,26.61,0,0,1-1.3,3,25.24,25.24,0,0,1-1.48,2.64c-.49.74-.89,1.1-1.21,1.1a46.72,46.72,0,0,1-8,1c-2.46.08-4.66.19-6.58.33q0,26.4,4.52,39.71t14.41,13.31a3.58,3.58,0,0,1,2.83.88c.48.59.72,1.84.72,3.74a5.57,5.57,0,0,1-1.44,3.52q-1.44,1.75-5.09,1.76a15.61,15.61,0,0,1-9.32-2.75,22.41,22.41,0,0,1-6.44-7.37A42.57,42.57,0,0,1,855,1406.6a103.47,103.47,0,0,1-2.26-12.76q-.76-6.71-1-13.53t-.19-13a317.25,317.25,0,0,1,1.78-36.85,135.49,135.49,0,0,1,4.66-24q2.88-9.12,6.67-13c2.53-2.56,5.14-3.85,7.83-3.85s4.52.48,5.48,1.43,1.44,2.68,1.44,5.17q0,4.85-1.83,4.84h-5.66a6.32,6.32,0,0,0-4.47,2.2q-2.16,2.2-3.94,8.25a105.06,105.06,0,0,0-3,16.61q-1.26,10.56-1.64,27.06a8.77,8.77,0,0,1,1.83-2.53,3.51,3.51,0,0,1,2.49-1h13Q878,1351.71,878,1354.35Z"/><path d="M906.27,1439.05a19.91,19.91,0,0,1-2.31-3.19,35,35,0,0,1-1.87-3.63,7.7,7.7,0,0,1-.77-2.86,7,7,0,0,1,.34-2.31,3,3,0,0,1,1.78-1.65c.89-.44,1.84-1.83,2.83-4.18a57,57,0,0,0,2.74-8.8q1.25-5.28,2.11-11.66A94.22,94.22,0,0,0,912,1388a38.43,38.43,0,0,0-.39-5.39q-.39-2.74-1.63-7.7t-3.7-13.09q-2.44-8.13-6.58-21.34-2.79-8.79-5-14.85t-3.6-10.12q-1.44-4.07-2.21-6.82a18.09,18.09,0,0,1-.77-4.73,11.43,11.43,0,0,1,.87-3.85,32.53,32.53,0,0,1,2-4.4,24.58,24.58,0,0,1,2.41-3.63c.83-1,1.47-1.54,1.92-1.54s.76.41,1,1.21a21.51,21.51,0,0,1,.43,3.08c.1,1.25.19,2.64.29,4.18a46.88,46.88,0,0,0,.53,4.73,148.1,148.1,0,0,0,3.69,15.73q2.65,9.36,5.62,19.25t5.67,19.25a159,159,0,0,1,3.85,16q2.3-10.56,4.89-21.45t4.81-20.57q2.21-9.67,3.65-17.49a71.78,71.78,0,0,0,1.44-12.21,21.67,21.67,0,0,1,.43-5.61,1.56,1.56,0,0,1,1.49-1.21,4,4,0,0,1,1.87.77,16.52,16.52,0,0,1,2.36,1.87,11.53,11.53,0,0,1,2,2.64,6.72,6.72,0,0,1,.86,3.3,5.64,5.64,0,0,1-.29,1.76c-.19.59-.46,1.36-.82,2.31s-.78,2.17-1.29,3.63-1.09,3.45-1.73,5.94l-16.52,67.1c-.39,1.47-.85,3.85-1.4,7.15s-1.15,7-1.82,11.11-1.38,8.4-2.12,12.87-1.45,8.5-2.16,12.1-1.38,6.56-2,8.91-1.24,3.52-1.82,3.52S907.07,1439.93,906.27,1439.05Z"/><path class="cls-7" d="M696.42,949.62a10.33,10.33,0,0,0-2.14,6.3c0,.38,1.06-.09,1.39-1.13a23.94,23.94,0,0,1,.77-2.32c.55-1.4,2.45-4.12,3.73-3.81,1.11.27,1.28-1.63.61-1.87C699.89,946.48,698.21,947.09,696.42,949.62Z"/><path class="cls-7" d="M693.79,948.64c-1.31-2.78-2.92-4-4-4-.28,0-.16,1.63.51,2.25a12.83,12.83,0,0,1,1.48,1.46c.88,1,2.42,4.22,1.94,6.13-.42,1.67.89,2.15,1.2,1.16C695.3,954.31,695.21,951.67,693.79,948.64Z"/><ellipse class="cls-7" cx="696.14" cy="944.73" rx="0.75" ry="9.73"/><path class="cls-7" d="M695,945c.94,4.13,1,7.46.7,9-.09.39-.83-1.11-.93-2.57-.2-3.09-.24-3.29-.24-3.29-.22-2.07-1.29-6.89-2.36-7.77s-.76-3-.19-2.64C692.72,938.21,694,940.49,695,945Z"/><path class="cls-5" d="M722.21,970.86a10.72,10.72,0,0,0-4.26.88c-5-11.79-13.81-19.63-23.89-19.63s-18.91,7.84-23.88,19.63a10.72,10.72,0,0,0-4.26-.88c-8.55,0-15.48,10.26-15.48,22.91s6.93,22.92,15.48,22.92a10.72,10.72,0,0,0,4.26-.88c5,11.79,13.81,19.63,23.88,19.63S713,1027.6,718,1015.81a10.72,10.72,0,0,0,4.26.88c8.55,0,15.48-10.26,15.48-22.92S730.76,970.86,722.21,970.86ZM716.34,1010a21.93,21.93,0,1,1-43.85,0,22.4,22.4,0,0,1,3.08-11.4c-3.14-3.21-5.19-8.57-5.19-14.64,0-9.83,5.38-17.8,12-17.8,5.56,0,10.23,5.59,11.61,13.17,1.37-7.58,6-13.17,11.61-13.17,6.63,0,12,8,12,17.8,0,5.74-1.83,10.85-4.69,14.1A22.43,22.43,0,0,1,716.34,1010Z"/><path class="cls-8" d="M669.82,995c-2.38-2.66-3.77-7.44-3.92-1.71-.07,2.66,1.65,8.82,3.48,7.21,1.65-1.46,1.14,4.82-1.37,8.6a6.92,6.92,0,0,1-6.41,2.79c-4.52-.92-8.22-7.56-8.22-16.89s3.68-16.9,8.22-16.9c3.34,0,6.21,4.08,7.5,9.94C669.57,990.12,670.89,996.14,669.82,995Z"/><ellipse cx="692.16" cy="999.16" rx="0.53" ry="1.04"/><ellipse cx="684.35" cy="988.57" rx="5.51" ry="8.16"/><ellipse cx="703.72" cy="988.05" rx="5.51" ry="8.16"/><ellipse class="cls-9" cx="682.24" cy="985.79" rx="1.53" ry="2.26"/><ellipse class="cls-9" cx="702.19" cy="985.79" rx="1.53" ry="2.26"/><path class="cls-3" d="M674.54,980.31c.17,2,1.32-2.63,3.06-4.23,2.19-2,.26-.24.6-.55,2.26-2.08,6.49-.65,4.52-2.72a3.84,3.84,0,0,0-5.64.06C674.83,975,674.38,978.32,674.54,980.31Z"/><path class="cls-3" d="M712.86,979.92c0,2-1.5-2.43-3.34-3.75-2.32-1.67-.28-.2-.63-.46-2.39-1.71-6.51.35-4.69-2a3.9,3.9,0,0,1,5.61-.8C712.2,974.62,712.88,977.9,712.86,979.92Z"/><path class="cls-10" d="M718.19,995c2.38-2.66,3.77-7.44,3.92-1.71.07,2.66-1.65,8.82-3.48,7.21-1.65-1.46-1.13,4.82,1.37,8.6a6.92,6.92,0,0,0,6.41,2.79c4.52-.92,8.22-7.56,8.22-16.89s-3.68-16.9-8.22-16.9c-3.33,0-6.21,4.08-7.5,9.94C718.45,990.12,717.13,996.14,718.19,995Z"/><ellipse cx="695.27" cy="999.16" rx="0.47" ry="1.04"/><ellipse class="cls-5" cx="694.7" cy="1087.55" rx="23.7" ry="47.36"/><path class="cls-5" d="M719.66,1173.2a34,34,0,0,1-9.87,5.93c14.77-19.36,4.6-41.84-6.95-45.56a21.68,21.68,0,0,0-3.06-6.66C712.79,1127.46,729.85,1147.93,719.66,1173.2Z"/><path class="cls-5" d="M715.24,1180.78a37.56,37.56,0,0,1-10,5.83c17.09-22.42,4.78-48.26-8.55-52a24.44,24.44,0,0,0-3.15-6.6C708.27,1128.48,727.7,1152.2,715.24,1180.78Z"/><ellipse class="cls-11" cx="706.73" cy="1092.58" rx="10.27" ry="24.58"/><path class="cls-5" d="M717,1041.4a18.88,18.88,0,0,0,2.39,1.78,1.36,1.36,0,0,0,0,.2c.59,3.72,3.66,6.71,6.87,6.68s5.33-3.08,4.75-6.8c0-.08,0-.16,0-.23.38-.9.76-1.89,1.12-3,1.52-4.49,2.11-8.52,1.31-9s-2.67,2.78-4.19,7.27c-.07.21-.14.42-.2.62l-.1-.1c.12-.55.23-1.12.34-1.72.85-4.82.86-9,0-9.35s-2.19,3.3-3,8.12c-.06.34-.12.67-.17,1l-.12,0c0-.48-.09-1-.15-1.48-.57-5.15-1.76-9.37-2.64-9.41s-1.13,4.1-.55,9.25c0,.47.11.94.17,1.39-.14-.32-.28-.64-.43-1-2.22-4.86-4.7-8.5-5.54-8.13s.28,4.61,2.51,9.47c.28.63.58,1.23.87,1.81l-.06.09q-.52-.51-1.11-1c-2.83-2.43-5.58-3.61-6.15-2.65S714.16,1039,717,1041.4Z"/><path class="cls-5" d="M721.56,1119.73c-.09,1.84-.09,3.71,0,5.59-13.31-6.14-25.9-17.42-34.76-33.16q1.28-4,2.88-7.89C697.21,1100.6,708.84,1112.7,721.56,1119.73Z"/><path class="cls-5" d="M723,1114.5a10,10,0,0,0-1.33,1.61l-.12-.07c-2.1-1.29-4.2.43-4.68,3.83s.85,7.2,3,8.49l.13.08c.43.85.9,1.76,1.43,2.69,2.2,3.9,4.29,6.58,4.67,6s-1.1-4.24-3.3-8.14c-.1-.18-.2-.36-.31-.54l.07,0,.88,1.23c2.49,3.36,4.76,5.52,5.07,4.82s-1.45-4-3.94-7.36l-.51-.68a.49.49,0,0,0,0-.11l.83.6c2.88,2,5.35,2.94,5.51,2s-2.05-3.29-4.93-5.32l-.78-.53.58,0c3,.14,5.34-.62,5.27-1.69s-2.55-2.06-5.52-2.19c-.39,0-.76,0-1.12,0,0,0,0-.07,0-.11a8.45,8.45,0,0,0,.72-.65c1.76-1.74,2.83-4,2.39-5.14S724.79,1112.75,723,1114.5Z"/><path class="cls-5" d="M715.13,1177.59a19,19,0,0,1,2.51-6.89,29.47,29.47,0,0,1,0,8.38c-.71,4.22-1.83,7.31-2.51,6.9S714.42,1181.81,715.13,1177.59Z"/><path class="cls-5" d="M713.49,1186c-1.67-3.09-1.9-7.78-1.9-7.78a6.19,6.19,0,0,1,4.15,3.43c1.67,3.1,2.52,6.58,1.9,7.78S715.17,1189.11,713.49,1186Z"/><path class="cls-5" d="M710.52,1186.08a23.21,23.21,0,0,1,1.41-8.11,21.93,21.93,0,0,1,1.69,7.92c.07,4.43-.56,8.06-1.41,8.11S710.6,1190.51,710.52,1186.08Z"/><path class="cls-5" d="M707.3,1182.16a8.47,8.47,0,0,1,4.57-4.17,24.34,24.34,0,0,1-2.32,8.24c-1.91,3.43-4,5.3-4.58,4.17S705.39,1185.58,707.3,1182.16Z"/><path class="cls-5" d="M718.32,1178.71a24.87,24.87,0,0,1-1.53-7.94,8.88,8.88,0,0,1,3.76,4.55c1.46,3.46,2.15,7,1.54,8S719.79,1182.17,718.32,1178.71Z"/><path class="cls-5" d="M717,1178.86a26.9,26.9,0,0,1,.66-8.38,20.17,20.17,0,0,1,2.17,7.41c.41,4.36.12,8.11-.66,8.37S717.41,1183.22,717,1178.86Z"/><path class="cls-12" d="M1104.68,1431.06c-1.37-7.36-6.92-6.11-16.26,0h-1v.66c-29.65,19.88-95.48,84.86-187.56,85.52-82.71.6-86.14-51.41-178.94-59.89-106.75-9.74-122.74,57.21-226.69,55.51-105.4-1.73-123.08-71.12-205.4-81.8-36.6-4.75-81.88,2.67-135.07,41.61a308.54,308.54,0,0,0-44.92-17.7,272.28,272.28,0,0,0-36.92-8.49v-.81H66.41a256.77,256.77,0,0,0-66.12-.4l.66.4H0V1935H1104.11V1745.11h.57V1440A30.79,30.79,0,0,0,1104.68,1431.06Zm-17.26,64.27h-.49c.17-.38.33-.76.49-1.15Z"/><path class="cls-5" d="M684,1088c2.25,3.77,4.9,7.81,8,12a97.46,97.46,0,0,0,9,11,67.64,67.64,0,0,0,16,12"/><path class="cls-13" d="M730.84,1048.77c.59.25,1.41.43,1.74-.11a1,1,0,0,0,.12-.63,4.16,4.16,0,0,0-1.79-2.57l-3.35-2.87a23.44,23.44,0,0,0-4.49-3.27,23,23,0,0,0-3-1.19"/><path class="cls-13" d="M718.63,1037.08a31,31,0,0,1-2.19-4"/><path class="cls-13" d="M716.38,1033.08c-1.85-2.14-2.46-5.07-2.73-7.88"/><path class="cls-13" d="M778.42,1134.62a1.37,1.37,0,0,0,2.39,1.25,2.66,2.66,0,0,0,.39-1.55,36,36,0,0,0-1.76-12.36,3.47,3.47,0,0,0-1.48-2.2c-.81-.41-2.08.19-1.91,1.09"/><path class="cls-13" d="M777.85,1119.78a341.07,341.07,0,0,1,1.28-35.45"/><path class="cls-13" d="M779.11,1085.12l1.42-35.59c1-24.49,1.94-49.3-3.28-73.25-2.35-10.78-6.12-21.59-13.47-29.82s-18.9-13.39-29.6-10.73C723,938.51,715.2,949,711.77,960"/><path class="cls-13" d="M714.28,1024.57a2.84,2.84,0,0,0-.07-1,.58.58,0,0,1-.5.53l.14-.17"/><path class="cls-13" d="M713.39,1024.47l-.12.09a3.14,3.14,0,0,1,.31-.32c.2-.19.37-.39.55-.59a.35.35,0,0,0,.1-.2"/><path class="cls-13" d="M729.64,1049.46a.87.87,0,0,1-.27-.14.44.44,0,0,0,.19-.17.4.4,0,0,0,.08.34.37.37,0,0,0,.14.07,2.73,2.73,0,0,0,.76.19h.18l.21,0a2.45,2.45,0,0,0,1.06-.24"/><path class="cls-13" d="M731.9,1049.68h-.81a.34.34,0,0,0,.24.09.8.8,0,0,0,.26,0l.33-.1"/><path class="cls-13" d="M777.83,1135l-.26-.59a1.67,1.67,0,0,0,.12.7"/><path class="cls-13" d="M778.91,1134.1l-.11-.59a.37.37,0,0,1-.32.23"/><path class="cls-13" d="M775.32,1121a3,3,0,0,0,0,.9.8.8,0,0,0,.37-.31l0,.09"/><path class="cls-13" d="M776.52,1121.4a7.12,7.12,0,0,0-1,.55"/><path class="cls-13" d="M460.32,1170.86c1.29-3.47,1.56-7.22,1.94-10.9,1.22-12,3.87-24.27,11-34,1.39-1.9,3.58-3.88,5.79-3.09,1.43.51,2.23,2,3,3.3,1.94,3.27,4.79,6.27,8.5,7.12,4.57,1.06,9.12-1.35,13.63-2.66a10.51,10.51,0,0,1,4.15-.52,4.69,4.69,0,0,1,3.51,2.05"/><path class="cls-13" d="M511.15,1131.72a30.36,30.36,0,0,1,4.51,5.69"/><path class="cls-13" d="M512.57,1132.62l2.72,4.45a8.94,8.94,0,0,0,3,3.41,8.84,8.84,0,0,0,2.06.72l5.53,1.43"/><path class="cls-13" d="M526.08,1142.76c6-.17,11.08-4.32,16.86-5.88a8.74,8.74,0,0,1,5.65,0,7.47,7.47,0,0,1,3.64,3.79,22.12,22.12,0,0,1,1.48,5.14"/><path class="cls-13" d="M553.75,1145.69a267.72,267.72,0,0,1,9,59.14c.64,16.29-.19,32.75,2.8,48.77s10.48,32.06,24.08,41.06"/><path class="cls-13" d="M916.91,1326.64l5.4-17.89a52.69,52.69,0,0,1,3.84-10.13c1.22-2.23,3.06-4.46,5.59-4.76a6.87,6.87,0,0,1,5.47,2.35c4.57,4.66,4.5,12,4.85,18.5a88.82,88.82,0,0,0,3.43,20.14"/><path class="cls-13" d="M946,1334.51c3.34,20.22,6.71,40.56,13.59,59.86s17.52,37.7,33.28,50.79"/><path class="cls-13" d="M945.91,1335.06a2.87,2.87,0,0,0-.69-2,4.34,4.34,0,0,0,.29,2.73c.16.37.38.7.57,1.06a7.65,7.65,0,0,1,.82,2.65"/><path class="cls-13" d="M917,1326.76l-.83,11.8"/><path class="cls-13" d="M662.09,1324.27l3.66-9.85c.35-1,.7-1.9,1.14-2.81a31.89,31.89,0,0,1,2.33-3.88l2.38-3.57a10.23,10.23,0,0,1,6.49-5.48,23,23,0,0,1,4.59-1.27,11.87,11.87,0,0,1,7.68,1.58"/><path class="cls-13" d="M690,1298.94a9.17,9.17,0,0,1,2.18,1.64,13.6,13.6,0,0,0,2.81,2.76,5.21,5.21,0,0,0,4.62-.07,15.63,15.63,0,0,0,3.83-2.86"/><path class="cls-13" d="M703.19,1300.5c6.11-5,13-9.44,20.83-10.49a3.1,3.1,0,0,1,1.63.08,3,3,0,0,1,1,.84,17.33,17.33,0,0,1,2.49,3.59"/><path class="cls-13" d="M729.17,1294.57c3.5,5,10.21,6.35,16.28,6.8a37.31,37.31,0,0,0,7,0c5.49-.61,10.73-3.18,16.25-3a5.87,5.87,0,0,1,3.63,1.13,6.45,6.45,0,0,1,1.61,2.53c2.19,5.32,2.83,11.14,3.45,16.86a123.32,123.32,0,0,1,1,16.51c-.09,3-.39,6.13.3,9.1s2.66,5.85,5.6,6.65"/><path class="cls-14" d="M680.3,1012c2.89,3.68,13,19.59,26.56.5"/><path class="cls-15" d="M778.44,1131.82c1.59,1,3.31,0,3.61-1.81a11.12,11.12,0,0,0-.5-3.79c-.42-2.06-.83-4.13-1.26-6.2-.36-1.73-1.19-4.66-3.62-4.12a2,2,0,0,0-1.26,3c.43.87,1.73.11,1.3-.75,1.2.05,1.85.52,1.94,1.4.11.47.21.94.3,1.42.17.86.35,1.72.52,2.58l.53,2.58c.1.48,1,5.56-.8,4.42-.81-.52-1.56.78-.76,1.3Z"/><path class="cls-15" d="M776.93,1117.54c1.49-17.09,4.33-34.66,4.1-51.82-.12-8.65-1-17.19-.74-25.86s.53-17.63.43-26.45c-.27-23.84-2.36-61.22-33.15-64.86-6.59-.78-14.5-.45-20.64,2.35s-9,8.63-11.4,14.71c-.36.9,1.09,1.29,1.44.4,1.95-4.9,4.06-9.93,8.76-12.82,3.7-2.27,8.2-2.93,12.44-3.25,9.3-.7,18.24,1,25.36,7.36,13.59,12.07,15,31.34,15.54,48.32.54,18.82-.58,37.56.33,56.38.41,8.6-.61,17.15-1.36,25.71l-2.61,29.83c-.09,1,1.41,1,1.5,0Z"/><path class="cls-15" d="M716.05,967.11a.75.75,0,0,0,0-1.5.75.75,0,0,0,0,1.5Z"/><path class="cls-15" d="M716.23,966.75a.75.75,0,0,0,0-1.5.75.75,0,0,0,0,1.5Z"/><path class="cls-15" d="M730.78,1046c-2.11-1.49-4.33-2.91-6.28-4.6-1.42-1.23-2.58-2.69-4.12-3.78-.79-.55-1.54.75-.76,1.3,1.73,1.23,3,3,4.71,4.27,1.83,1.45,3.79,2.76,5.69,4.11.79.56,1.54-.74.76-1.3Z"/><path class="cls-15" d="M731.15,1046.17c-.64-4.38-6.47-6.17-9.83-7.94-.86-.45-1.61.84-.76,1.29,1.74.92,3.49,1.83,5.22,2.76s3.6,2.07,3.92,4.29c.14,1,1.58.55,1.45-.4Z"/><path class="cls-15" d="M720.13,1037.64c-2.22-2.16-1.47-6.9-1.59-9.73l-.38-9c0-1-1.54-1-1.5,0,.19,4.49.37,9,.57,13.47.11,2.34.06,4.57,1.83,6.3.7.68,1.76-.38,1.07-1.06Z"/><path class="cls-15" d="M717,1019.1a.38.38,0,0,0,0-.75.38.38,0,0,0,0,.75Z"/><path class="cls-15" d="M717.36,1018.91l.45-1-.69-.09c.16.37,0,1,.37,1.25a.38.38,0,0,0,.63-.16,3.15,3.15,0,0,0-.25-1.48c-.15-.46-.88-.26-.72.2.07.21.11.42.16.64s.1.4.09.44l.62-.17c-.13-.11-.1-.73-.17-.92s-.54-.42-.69-.09l-.45,1c-.2.44.44.82.65.38Z"/><path class="cls-15" d="M716,966.51a3.88,3.88,0,0,1-.21.63l.69-.09a2,2,0,0,0-.31-.51c-.33-.35-.86.18-.53.54a1.48,1.48,0,0,1,.19.35.38.38,0,0,0,.69-.09,4.87,4.87,0,0,0,.23-.83.38.38,0,0,0-.75,0Z"/><path class="cls-15" d="M453.79,1177.44c.29,3.84,4.25,4.46,6.55,1.63,3.71-4.57,3.58-13,4.26-18.53,1-8,1.93-16.08,4.94-23.59a38.19,38.19,0,0,1,3.66-7.07c1.74-2.62,3-5.87,6.44-1.53,1.87,2.38,1.64,5.91,3.94,8.27,4.17,4.28,10.72,2,15.45-.24,4.34-2.05,8.94-6.76,12.88-1.31,1.79,2.48,2.57,5.58,4.73,7.84,3.9,4.08,10,4.64,15.3,3.93a11.61,11.61,0,0,0,6.83-2.88c2.93-2.78,6-10.51,10.85-4.19l1.46-2.51-.81-.25c-1.84-.58-2.63,2.32-.79,2.89l.8.25c1.58.49,2.29-1.43,1.46-2.51a7.34,7.34,0,0,0-10.81-1.26c-3,2.53-3.32,5.94-7.72,7.22-3.8,1.1-9.32.81-12.66-1.33-5-3.22-5.1-11.27-11.35-13.23a6.78,6.78,0,0,0-5.22.45c-3.77,1.85-6.37,5-10.78,5.75a5.14,5.14,0,0,1-4.58-.15c-2.76.2-4.4-1.16-4.9-4.08-.77-1.73-1.1-3.63-2-5.33s-2.1-3.33-4.14-3.42c-4.38-.21-7.91,7.23-9.48,10.46-3.09,6.35-4.57,13.29-5.57,20.25-.53,3.71-.92,7.44-1.41,11.16-.28,2.16-.56,4.35-1,6.5-.18,1-.41,2-.68,3a5.36,5.36,0,0,1-2.72,3.79c-.14-1.92-3.14-1.93-3,0Z"/><path class="cls-15" d="M548.06,1138.14c2.51,4.09,2.49,10.5,3,15.11.52,4.81.9,9.64,1.24,14.47q1,13.89,1.29,27.81t-.07,27.83c-.15,5.87-1.9,13.7,2.69,18.38,1.35,1.38,3.47-.74,2.12-2.12-3.1-3.17-2.06-8.27-1.93-12.28q.24-7,.3-13.92.13-13.92-.42-27.83c-.36-9.21-.92-18.43-1.75-27.61-.6-6.47-.41-15.69-3.88-21.36-1-1.64-3.6-.14-2.59,1.52Z"/><path class="cls-15" d="M509.37,1132.72A28.29,28.29,0,0,1,514,1140a8,8,0,0,0,4.4,4.2c1.82.65,2.6-2.25.8-2.9-2.24-.8-2.82-3.59-3.89-5.44a26.4,26.4,0,0,0-3.81-5.21c-1.36-1.38-3.48.75-2.13,2.12Z"/><path class="cls-15" d="M626.9,1333.16q2.08-5.42,4-10.88.95-2.74,1.85-5.5c.45-1.37.77-4.39,1.75-5.52,3.16-3.64,5.17,1.68,8.16,3a19.6,19.6,0,0,0,7.92,1.24,27.58,27.58,0,0,0,15.76-5.26c5.13-3.7,9.15-8.64,14.69-11.82l-1.82-2.35-1.07.69c-1.61.83-.41,3,1.16,2.74,3.88-.66,6.23-.07,9.65,1.84a46.81,46.81,0,0,1,7.24,5c1.48,1.22,3.61-.89,2.12-2.12a48.84,48.84,0,0,0-10.83-7c-3.52-1.6-5.38-1.22-9-.61l1.16,2.74a6.41,6.41,0,0,0,1.67-1.16c1.31-1.14-.37-3.19-1.82-2.36-5.76,3.3-9.87,8.53-15.29,12.27a24.64,24.64,0,0,1-12.83,4.39,19.69,19.69,0,0,1-6-.49c-3.77-1.1-3.59-2.74-6.11-4.78-2.9-2.36-5.64-1.12-7.18,2s-2.29,7.11-3.43,10.46c-1.45,4.27-3,8.5-4.63,12.71-.69,1.8,2.21,2.58,2.9.8Z"/><path class="cls-15" d="M680.89,1298.81a5.05,5.05,0,0,1,1.83.14,1.5,1.5,0,0,0,.8-2.89,8.06,8.06,0,0,0-2.63-.25,1.5,1.5,0,1,0,0,3Z"/><path class="cls-15" d="M680.89,1298.8a1.5,1.5,0,0,0,0-3,1.5,1.5,0,0,0,0,3Z"/><path class="cls-15" d="M680.89,1298.8a1.5,1.5,0,0,0,0-3,1.5,1.5,0,0,0,0,3Z"/><path class="cls-15" d="M743.76,1318.4c-4,.69-5.68-4.59-6.93-7.39-1.13-2.54-1.35-5.42-3-7.72-1.1-1.58-3.7-.08-2.59,1.51,1.31,1.89,1.47,4.23,2.34,6.33a62.08,62.08,0,0,0,2.76,5.83c1.77,3.28,4.41,5,8.18,4.33,1.89-.33,1.09-3.22-.8-2.89Z"/><path class="cls-15" d="M738.2,1318.72a1.5,1.5,0,0,0,0-3,1.5,1.5,0,0,0,0,3Z"/><path class="cls-15" d="M739.26,1316.56c-3.24-6.79-5.42-14-8.17-21-1.17-3-2.88-8.08-7-7.61-3.89.43-5.67,6.21-7.17,9-1.76,3.24-3.47,7.22-6.83,9.12a9.77,9.77,0,0,1-11.5-1.71c-1.4-1.32-3.53.8-2.12,2.12,6.89,6.46,15.94,3.82,20.61-3.64,1.76-2.81,3.19-5.84,4.8-8.73.93-1.69,3-2.83,4.88-1.12,1.18,1,1.85,4.37,2.45,6,2.4,6.42,4.54,12.91,7.49,19.1.83,1.75,3.42.23,2.59-1.51Z"/><path class="cls-15" d="M726.51,1292.5c1.9,7.93,5.44,15.26,8.75,22.67.79,1.76,3.38.24,2.59-1.51-3.21-7.18-6.61-14.27-8.44-22-.45-1.88-3.34-1.08-2.9.8Z"/><path class="cls-15" d="M730.13,1293.9a7.23,7.23,0,0,0-7.19-4.26c-1.91.17-1.93,3.18,0,3a4.4,4.4,0,0,1,4.6,2.77,1.51,1.51,0,0,0,2.05.54,1.55,1.55,0,0,0,.54-2Z"/><path class="cls-15" d="M923.69,1329.14a53.07,53.07,0,0,0,6.35-19.91,50.3,50.3,0,0,0,.28-5.06c0-3.28-.84-3.84,2.46-5.49q2.78-2.9,3.87.81a14.31,14.31,0,0,1,1.36,5,32.81,32.81,0,0,1,0,4.65c-.73,16.81-2.85,33.72-4.74,50.44-1.94,17.14-2.88,34.21-.65,51.38,1.43,11,6.42,24.13,19.48,24.18a1.5,1.5,0,0,0,0-3c-10.78-.05-14.93-11-16.3-19.9a161.89,161.89,0,0,1-1.53-27.83c.43-18.09,3.37-36.13,5-54.14.73-8.33,2.53-17.41,1.75-25.78-.42-4.39-2.54-10.85-7.83-11.25-4.6-.35-5.77,4.3-5.9,8-.34,9.62-1.49,17.81-6.18,26.42-.93,1.69,1.66,3.21,2.59,1.51Z"/><path class="cls-15" d="M928.72,1297.67c-.37,2.51-1.19,5-1.63,7.48-.33,1.89,2.56,2.7,2.89.8.44-2.51,1.26-5,1.63-7.48.27-1.89-2.62-2.71-2.89-.8Z"/><path class="cls-15" d="M930.89,1300.27a6.32,6.32,0,0,1,3-2.17c1.4-.38,2.23.76,3.06,1.75,1.24,1.48,3.35-.65,2.12-2.13s-3-3-5.21-2.7a8.92,8.92,0,0,0-5.07,3.12c-1.24,1.47.87,3.6,2.12,2.13Z"/><path class="cls-15" d="M932.61,1295.26a8.9,8.9,0,0,0-3.88,3.56,1.5,1.5,0,0,0,2.59,1.51,6.16,6.16,0,0,1,2.81-2.48,1.52,1.52,0,0,0,.54-2,1.54,1.54,0,0,0-2.06-.54Z"/><path class="cls-15" d="M746.64,1246.45a13.91,13.91,0,0,0,5.06-.56c1.58-.56,2.74-2.23,4.24-2.7,4.7-1.5,3.22,5.12,3.12,7.41-.11,2.85-.17,5.7-.21,8.55-.11,7.9-.7,16.95,5.51,22.85,1.4,1.33,3.53-.79,2.12-2.12-8.66-8.23-3.45-24.36-4.25-34.8-.17-2.31-1-4.84-3.48-5.49a5,5,0,0,0-3.78.69c-3.17,1.67-4.31,3.23-8.33,3.17-1.93,0-1.93,3,0,3Z"/><path class="cls-16" d="M447.13,1632.85c-5-7.8-16.12-9.7-24.29-12.52-1.83-.63-2.62,2.27-.8,2.9,7.27,2.5,18,4.22,22.5,11.13,1,1.62,3.64.11,2.59-1.51Z"/><path class="cls-16" d="M447.44,1634.22c.34-9.73-8.77-21.53-18.62-22.91-1.89-.27-2.7,2.62-.8,2.89,8.53,1.2,16.72,11.57,16.42,20-.06,1.93,2.94,1.93,3,0Z"/><path class="cls-16" d="M447.93,1635.36c.15-9.55-.16-19.11-6.4-26.87-1.21-1.5-3.32.63-2.12,2.13,5.68,7.05,5.66,16.13,5.52,24.74a1.5,1.5,0,0,0,3,0Z"/><path class="cls-16" d="M449,1634.77c.53-5.15,1.78-11.78,5.45-15.72,2.75-3,6.66-4.56,9.5-7.45,1.36-1.38-.76-3.5-2.12-2.12-3.54,3.59-8.58,5.41-11.31,9.83s-4,10.2-4.52,15.46c-.2,1.92,2.81,1.9,3,0Z"/><path class="cls-16" d="M447.84,1635.12c3.64-6.66,10.22-12.92,18.16-12.86a1.5,1.5,0,0,0,0-3c-9.07-.07-16.56,6.69-20.75,14.35-.92,1.69,1.67,3.21,2.59,1.51Z"/><path class="cls-16" d="M140.13,1630.85c-5-7.8-16.12-9.7-24.29-12.52-1.83-.63-2.62,2.27-.8,2.9,7.27,2.5,18,4.22,22.5,11.13,1,1.62,3.64.11,2.59-1.51Z"/><path class="cls-16" d="M140.44,1632.22c.34-9.73-8.77-21.53-18.62-22.91-1.89-.27-2.7,2.62-.8,2.89,8.53,1.2,16.72,11.57,16.42,20-.06,1.93,2.94,1.93,3,0Z"/><path class="cls-16" d="M140.93,1633.36c.15-9.55-.16-19.11-6.4-26.87-1.21-1.5-3.32.63-2.12,2.13,5.68,7.05,5.66,16.13,5.52,24.74a1.5,1.5,0,0,0,3,0Z"/><path class="cls-16" d="M142,1632.77c.53-5.15,1.78-11.78,5.45-15.72,2.75-3,6.66-4.56,9.5-7.45,1.36-1.38-.76-3.5-2.12-2.12-3.54,3.59-8.58,5.41-11.31,9.83s-4,10.2-4.52,15.46c-.2,1.92,2.81,1.9,3,0Z"/><path class="cls-16" d="M140.84,1633.12c3.64-6.66,10.22-12.92,18.16-12.86a1.5,1.5,0,0,0,0-3c-9.07-.07-16.56,6.69-20.75,14.35-.92,1.69,1.67,3.21,2.59,1.51Z"/><path class="cls-16" d="M276.13,1530.85c-5-7.8-16.12-9.7-24.29-12.52-1.83-.63-2.62,2.27-.8,2.9,7.27,2.5,18,4.22,22.5,11.13,1,1.62,3.64.11,2.59-1.51Z"/><path class="cls-16" d="M276.44,1532.22c.34-9.73-8.77-21.53-18.62-22.91-1.89-.27-2.7,2.62-.8,2.89,8.53,1.2,16.72,11.57,16.42,20-.06,1.93,2.94,1.93,3,0Z"/><path class="cls-16" d="M276.93,1533.36c.15-9.55-.16-19.11-6.4-26.87-1.21-1.5-3.32.63-2.12,2.13,5.68,7.05,5.66,16.13,5.52,24.74a1.5,1.5,0,0,0,3,0Z"/><path class="cls-16" d="M278,1532.77c.53-5.15,1.78-11.78,5.45-15.72,2.75-3,6.66-4.56,9.5-7.45,1.36-1.38-.76-3.5-2.12-2.12-3.54,3.59-8.58,5.41-11.31,9.83s-4,10.2-4.52,15.46c-.2,1.92,2.81,1.9,3,0Z"/><path class="cls-16" d="M276.84,1533.12c3.64-6.66,10.22-12.92,18.16-12.86a1.5,1.5,0,0,0,0-3c-9.07-.07-16.56,6.69-20.75,14.35-.92,1.69,1.67,3.21,2.59,1.51Z"/><path class="cls-16" d="M223.13,1877.85c-5-7.8-16.12-9.7-24.29-12.52-1.83-.63-2.62,2.27-.8,2.9,7.27,2.5,18,4.22,22.5,11.13,1,1.62,3.64.11,2.59-1.51Z"/><path class="cls-16" d="M223.44,1879.22c.34-9.73-8.77-21.53-18.62-22.91-1.89-.27-2.7,2.62-.8,2.89,8.53,1.2,16.72,11.57,16.42,20-.06,1.93,2.94,1.93,3,0Z"/><path class="cls-16" d="M223.93,1880.36c.15-9.55-.16-19.11-6.4-26.87-1.21-1.5-3.32.63-2.12,2.13,5.68,7.05,5.66,16.13,5.52,24.74a1.5,1.5,0,0,0,3,0Z"/><path class="cls-16" d="M225,1879.77c.53-5.15,1.78-11.78,5.45-15.72,2.75-3,6.66-4.56,9.5-7.45,1.36-1.38-.76-3.5-2.12-2.12-3.54,3.59-8.58,5.41-11.31,9.83s-4,10.2-4.52,15.46c-.2,1.92,2.81,1.9,3,0Z"/><path class="cls-16" d="M223.84,1880.12c3.64-6.66,10.22-12.92,18.16-12.86a1.5,1.5,0,0,0,0-3c-9.07-.07-16.56,6.69-20.75,14.35-.92,1.69,1.67,3.21,2.59,1.51Z"/><path class="cls-16" d="M80.13,1801.85c-5-7.8-16.12-9.7-24.29-12.52-1.83-.63-2.62,2.27-.8,2.9,7.27,2.5,18,4.22,22.5,11.13,1,1.62,3.64.11,2.59-1.51Z"/><path class="cls-16" d="M80.44,1803.22c.34-9.73-8.77-21.53-18.62-22.91-1.89-.27-2.7,2.62-.8,2.89,8.53,1.2,16.72,11.57,16.42,20-.06,1.93,2.94,1.93,3,0Z"/><path class="cls-16" d="M80.93,1804.36c.15-9.55-.16-19.11-6.4-26.87-1.21-1.5-3.32.63-2.12,2.13,5.68,7.05,5.66,16.13,5.52,24.74a1.5,1.5,0,0,0,3,0Z"/><path class="cls-16" d="M82,1803.77c.53-5.15,1.78-11.78,5.45-15.72,2.75-3,6.66-4.56,9.5-7.45,1.36-1.38-.76-3.5-2.12-2.12-3.54,3.59-8.58,5.41-11.31,9.83s-4,10.2-4.52,15.46c-.2,1.92,2.81,1.9,3,0Z"/><path class="cls-16" d="M80.84,1804.12c3.64-6.66,10.22-12.92,18.16-12.86a1.5,1.5,0,0,0,0-3c-9.07-.07-16.56,6.69-20.75,14.35-.92,1.69,1.67,3.21,2.59,1.51Z"/><path class="cls-16" d="M555.13,1806.85c-5-7.8-16.12-9.7-24.29-12.52-1.83-.63-2.62,2.27-.8,2.9,7.27,2.5,18,4.22,22.5,11.13,1,1.62,3.64.11,2.59-1.51Z"/><path class="cls-16" d="M555.44,1808.22c.34-9.73-8.77-21.53-18.62-22.91-1.89-.27-2.7,2.62-.8,2.89,8.53,1.2,16.72,11.57,16.42,20-.06,1.93,2.94,1.93,3,0Z"/><path class="cls-16" d="M555.93,1809.36c.15-9.55-.16-19.11-6.4-26.87-1.21-1.5-3.32.63-2.12,2.13,5.68,7.05,5.66,16.13,5.52,24.74a1.5,1.5,0,0,0,3,0Z"/><path class="cls-16" d="M557,1808.77c.53-5.15,1.78-11.78,5.45-15.72,2.75-3,6.66-4.56,9.5-7.45,1.36-1.38-.76-3.5-2.12-2.12-3.54,3.59-8.58,5.41-11.31,9.83s-4,10.2-4.52,15.46c-.2,1.92,2.81,1.9,3,0Z"/><path class="cls-16" d="M555.84,1809.12c3.64-6.66,10.22-12.92,18.16-12.86a1.5,1.5,0,0,0,0-3c-9.07-.07-16.56,6.69-20.75,14.35-.92,1.69,1.67,3.21,2.59,1.51Z"/><path class="cls-16" d="M875.13,1658.85c-5-7.8-16.12-9.7-24.29-12.52-1.83-.63-2.62,2.27-.8,2.9,7.27,2.5,18,4.22,22.5,11.13,1,1.62,3.64.11,2.59-1.51Z"/><path class="cls-16" d="M875.44,1660.22c.34-9.73-8.77-21.53-18.62-22.91-1.89-.27-2.7,2.62-.8,2.89,8.53,1.2,16.72,11.57,16.42,20-.06,1.93,2.94,1.93,3,0Z"/><path class="cls-16" d="M875.93,1661.36c.15-9.55-.16-19.11-6.4-26.87-1.21-1.5-3.32.63-2.12,2.13,5.68,7.05,5.66,16.13,5.52,24.74a1.5,1.5,0,0,0,3,0Z"/><path class="cls-16" d="M877,1660.77c.53-5.15,1.78-11.78,5.45-15.72,2.75-3,6.66-4.56,9.5-7.45,1.36-1.38-.76-3.5-2.12-2.12-3.54,3.59-8.58,5.41-11.31,9.83s-4,10.2-4.52,15.46c-.2,1.92,2.81,1.9,3,0Z"/><path class="cls-16" d="M875.84,1661.12c3.64-6.66,10.22-12.92,18.16-12.86a1.5,1.5,0,0,0,0-3c-9.07-.07-16.56,6.69-20.75,14.35-.92,1.69,1.67,3.21,2.59,1.51Z"/><path class="cls-16" d="M677.13,1535.85c-5-7.8-16.12-9.7-24.29-12.52-1.83-.63-2.62,2.27-.8,2.9,7.27,2.5,18,4.22,22.5,11.13,1,1.62,3.64.11,2.59-1.51Z"/><path class="cls-16" d="M677.44,1537.22c.34-9.73-8.77-21.53-18.62-22.91-1.89-.27-2.7,2.62-.8,2.89,8.53,1.2,16.72,11.57,16.42,20-.06,1.93,2.94,1.93,3,0Z"/><path class="cls-16" d="M677.93,1538.36c.15-9.55-.16-19.11-6.4-26.87-1.21-1.5-3.32.63-2.12,2.13,5.68,7.05,5.66,16.13,5.52,24.74a1.5,1.5,0,0,0,3,0Z"/><path class="cls-16" d="M679,1537.77c.53-5.15,1.78-11.78,5.45-15.72,2.75-3,6.66-4.56,9.5-7.45,1.36-1.38-.76-3.5-2.12-2.12-3.54,3.59-8.58,5.41-11.31,9.83s-4,10.2-4.52,15.46c-.2,1.92,2.81,1.9,3,0Z"/><path class="cls-16" d="M677.84,1538.12c3.64-6.66,10.22-12.92,18.16-12.86a1.5,1.5,0,0,0,0-3c-9.07-.07-16.56,6.69-20.75,14.35-.92,1.69,1.67,3.21,2.59,1.51Z"/><path class="cls-16" d="M848.13,1890.85c-5-7.8-16.12-9.7-24.29-12.52-1.83-.63-2.62,2.27-.8,2.9,7.27,2.5,18,4.22,22.5,11.13,1,1.62,3.64.11,2.59-1.51Z"/><path class="cls-16" d="M848.44,1892.22c.34-9.73-8.77-21.53-18.62-22.91-1.89-.27-2.7,2.62-.8,2.89,8.53,1.2,16.72,11.57,16.42,20-.06,1.93,2.94,1.93,3,0Z"/><path class="cls-16" d="M848.93,1893.36c.15-9.55-.16-19.11-6.4-26.87-1.21-1.5-3.32.63-2.12,2.13,5.68,7.05,5.66,16.13,5.52,24.74a1.5,1.5,0,0,0,3,0Z"/><path class="cls-16" d="M850,1892.77c.53-5.15,1.78-11.78,5.45-15.72,2.75-3,6.66-4.56,9.5-7.45,1.36-1.38-.76-3.5-2.12-2.12-3.54,3.59-8.58,5.41-11.31,9.83s-4,10.2-4.52,15.46c-.2,1.92,2.81,1.9,3,0Z"/><path class="cls-16" d="M848.84,1893.12c3.64-6.66,10.22-12.92,18.16-12.86a1.5,1.5,0,0,0,0-3c-9.07-.07-16.56,6.69-20.75,14.35-.92,1.69,1.67,3.21,2.59,1.51Z"/><path class="cls-16" d="M996.13,1805.85c-5-7.8-16.12-9.7-24.29-12.52-1.83-.63-2.62,2.27-.8,2.9,7.27,2.5,18,4.22,22.5,11.13,1,1.62,3.64.11,2.59-1.51Z"/><path class="cls-16" d="M996.44,1807.22c.34-9.73-8.77-21.53-18.62-22.91-1.89-.27-2.7,2.62-.8,2.89,8.53,1.2,16.72,11.57,16.42,20-.06,1.93,2.94,1.93,3,0Z"/><path class="cls-16" d="M996.93,1808.36c.15-9.55-.16-19.11-6.4-26.87-1.21-1.5-3.32.63-2.12,2.13,5.68,7.05,5.66,16.13,5.52,24.74a1.5,1.5,0,0,0,3,0Z"/><path class="cls-16" d="M998,1807.77c.53-5.15,1.78-11.78,5.45-15.72,2.75-3,6.66-4.56,9.5-7.45,1.36-1.38-.76-3.5-2.12-2.12-3.54,3.59-8.58,5.41-11.31,9.83s-4,10.2-4.52,15.46c-.2,1.92,2.81,1.9,3,0Z"/><path class="cls-16" d="M996.84,1808.12c3.64-6.66,10.22-12.92,18.16-12.86a1.5,1.5,0,0,0,0-3c-9.07-.07-16.56,6.69-20.75,14.35-.92,1.69,1.67,3.21,2.59,1.51Z"/><path class="cls-16" d="M1040.13,1556.85c-5-7.8-16.12-9.7-24.29-12.52-1.83-.63-2.62,2.27-.8,2.9,7.27,2.5,18,4.22,22.5,11.13,1,1.62,3.64.11,2.59-1.51Z"/><path class="cls-16" d="M1040.44,1558.22c.34-9.73-8.77-21.53-18.62-22.91-1.89-.27-2.7,2.62-.8,2.89,8.53,1.2,16.72,11.57,16.42,20-.06,1.93,2.94,1.93,3,0Z"/><path class="cls-16" d="M1040.93,1559.36c.15-9.55-.16-19.11-6.4-26.87-1.21-1.5-3.32.63-2.12,2.13,5.68,7.05,5.66,16.13,5.52,24.74a1.5,1.5,0,0,0,3,0Z"/><path class="cls-16" d="M1042,1558.77c.53-5.15,1.78-11.78,5.45-15.72,2.75-3,6.66-4.56,9.5-7.45,1.36-1.38-.76-3.5-2.12-2.12-3.54,3.59-8.58,5.41-11.31,9.83s-4,10.2-4.52,15.46c-.2,1.92,2.81,1.9,3,0Z"/><path class="cls-16" d="M1040.84,1559.12c3.64-6.66,10.22-12.92,18.16-12.86a1.5,1.5,0,0,0,0-3c-9.07-.07-16.56,6.69-20.75,14.35-.92,1.69,1.67,3.21,2.59,1.51Z"/><path class="cls-16" d="M48.13,1491.85c-5-7.8-16.12-9.7-24.29-12.52-1.83-.63-2.62,2.27-.8,2.9,7.27,2.5,18,4.22,22.5,11.13,1,1.62,3.64.11,2.59-1.51Z"/><path class="cls-16" d="M48.44,1493.22c.34-9.73-8.77-21.53-18.62-22.91-1.89-.27-2.7,2.62-.8,2.89,8.53,1.2,16.72,11.57,16.42,20-.06,1.93,2.94,1.93,3,0Z"/><path class="cls-16" d="M48.93,1494.36c.15-9.55-.16-19.11-6.4-26.87-1.21-1.5-3.32.63-2.12,2.13,5.68,7.05,5.66,16.13,5.52,24.74a1.5,1.5,0,0,0,3,0Z"/><path class="cls-16" d="M50,1493.77c.53-5.15,1.78-11.78,5.45-15.72,2.75-3,6.66-4.56,9.5-7.45,1.36-1.38-.76-3.5-2.12-2.12-3.54,3.59-8.58,5.41-11.31,9.83s-4,10.2-4.52,15.46c-.2,1.92,2.81,1.9,3,0Z"/><path class="cls-16" d="M48.84,1494.12c3.64-6.66,10.22-12.92,18.16-12.86a1.5,1.5,0,0,0,0-3c-9.07-.07-16.56,6.69-20.75,14.35-.92,1.69,1.67,3.21,2.59,1.51Z"/><path class="cls-16" d="M254.13,1669.85c-5-7.8-16.12-9.7-24.29-12.52-1.83-.63-2.62,2.27-.8,2.9,7.27,2.5,18,4.22,22.5,11.13,1,1.62,3.64.11,2.59-1.51Z"/><path class="cls-16" d="M254.44,1671.22c.34-9.73-8.77-21.53-18.62-22.91-1.89-.27-2.7,2.62-.8,2.89,8.53,1.2,16.72,11.57,16.42,20-.06,1.93,2.94,1.93,3,0Z"/><path class="cls-16" d="M254.93,1672.36c.15-9.55-.16-19.11-6.4-26.87-1.21-1.5-3.32.63-2.12,2.13,5.68,7.05,5.66,16.13,5.52,24.74a1.5,1.5,0,0,0,3,0Z"/><path class="cls-16" d="M256,1671.77c.53-5.15,1.78-11.78,5.45-15.72,2.75-3,6.66-4.56,9.5-7.45,1.36-1.38-.76-3.5-2.12-2.12-3.54,3.59-8.58,5.41-11.31,9.83s-4,10.2-4.52,15.46c-.2,1.92,2.81,1.9,3,0Z"/><path class="cls-16" d="M254.84,1672.12c3.64-6.66,10.22-12.92,18.16-12.86a1.5,1.5,0,0,0,0-3c-9.07-.07-16.56,6.69-20.75,14.35-.92,1.69,1.67,3.21,2.59,1.51Z"/><path class="cls-16" d="M632.13,1678.85c-5-7.8-16.12-9.7-24.29-12.52-1.83-.63-2.62,2.27-.8,2.9,7.27,2.5,18,4.22,22.5,11.13,1,1.62,3.64.11,2.59-1.51Z"/><path class="cls-16" d="M632.44,1680.22c.34-9.73-8.77-21.53-18.62-22.91-1.89-.27-2.7,2.62-.8,2.89,8.53,1.2,16.72,11.57,16.42,20-.06,1.93,2.94,1.93,3,0Z"/><path class="cls-16" d="M632.93,1681.36c.15-9.55-.16-19.11-6.4-26.87-1.21-1.5-3.32.63-2.12,2.13,5.68,7.05,5.66,16.13,5.52,24.74a1.5,1.5,0,0,0,3,0Z"/><path class="cls-16" d="M634,1680.77c.53-5.15,1.78-11.78,5.45-15.72,2.75-3,6.66-4.56,9.5-7.45,1.36-1.38-.76-3.5-2.12-2.12-3.54,3.59-8.58,5.41-11.31,9.83s-4,10.2-4.52,15.46c-.2,1.92,2.81,1.9,3,0Z"/><path class="cls-16" d="M632.84,1681.12c3.64-6.66,10.22-12.92,18.16-12.86a1.5,1.5,0,0,0,0-3c-9.07-.07-16.56,6.69-20.75,14.35-.92,1.69,1.67,3.21,2.59,1.51Z"/><path class="cls-5" d="M684.54,1120.29c-4.6-3.29-9.91-3.31-15.31-3.87-4.4-.45-8.63-1.28-11.68-4.77-3.19-3.66-4.1-8.65-4-13.36.24-11.64,7.49-27.7-5.39-35.43a1.5,1.5,0,0,0-1.51,2.59c8.51,5.11,6.3,15.85,4.92,24-1.11,6.55-1.88,13.42.91,19.68a16.34,16.34,0,0,0,11.46,9.54c6.43,1.51,13.44.19,19.08,4.23,1.58,1.12,3.07-1.48,1.52-2.59Z"/></svg>
