<svg id="Layer_1" data-name="Layer 1" xmlns="http://www.w3.org/2000/svg" width="1090" height="1920" viewBox="0 0 1090 1920"><defs><style>.cls-1{fill:#1a5b17;}.cls-2{fill:#e6e6e6;}.cls-3{fill:none;}</style></defs><title>gameover_forgrund</title><path class="cls-1" d="M307.51,727.1c-8.62,93.8-11.26,111.13-12.16,111.09-2.34-.09,4.95-118,2.7-118.09-2.07-.08-9.89,99.16-12.16,99.08s3.74-109,1.35-109.09-9.88,97.16-12.17,97.08,3.29-103,1.35-103.09c-2.27-.08-12.31,142.2-14.86,142.12s4.62-148.06,2.7-148.12S253.37,850.27,250.75,850.2s3-152.08,1.35-152.12-8.65,155.17-10.81,155.13,2.63-157.08,0-157.13S230.91,851.25,229.12,851.2s4.36-157.08,2.7-157.12S223.3,836.24,221,836.19s2-142.07,0-142.11-7.53,127.14-9.46,127.1,1.59-128.08,0-128.11-6,120.13-8.11,120.1-.19-121.09-1.35-121.1-3.28,113.1-5.41,113.1-2.94-115.1-4.05-115.1-.76,102.07-2.7,102.09-4.48-104.11-6.76-104.09-2,96.07-4,96.08-4.3-91.09-5.41-91.08.39,77-1.35,77.07-5.29-75.1-6.76-75.06.7,65-1.35,65-6.19-62.11-8.11-62c-1.77,0,0,53-1.35,53s-4.26-48.07-5.41-48,.86,41.94-1.35,42-6.79-39.12-8.11-39,2.29,33.84,0,34-7.82-30.17-9.46-30c-1.2.11,3.65,22.66,1.35,23s-17.73-19.82-10.81-39c11.79-32.75,79.58-37.76,83.79-38a158.09,158.09,0,0,1,73,13"/><rect class="cls-2" x="68" y="646" width="957" height="704" rx="84.53"/><path class="cls-3" d="M626.07,1140.62c-18.17-14.85-81.81-79.08-167.87-2.67"/><path class="cls-3" d="M626.07,1138.62c-18.17-14.85-81.81-79.08-167.87-2.67"/></svg>
