<svg id="Layer_1" data-name="Layer 1" xmlns="http://www.w3.org/2000/svg" xmlns:xlink="http://www.w3.org/1999/xlink" width="1077" height="1928" viewBox="0 0 1077 1928"><defs><style>.cls-1{fill:url(#linear-gradient);}.cls-2{fill:#15932c;}.cls-3{fill:#085e2d;}.cls-4{fill:#93185b;}.cls-5{fill:#1aba1a;}.cls-6{fill:#15b73b;}.cls-7{fill:#1a5b17;}.cls-8{fill:#1e8716;}.cls-9{fill:#26a319;}.cls-10{fill:#3d2612;}.cls-11{fill:#603813;}.cls-12{fill:#68543a;}.cls-13{fill:#020201;}.cls-14{fill:#0c5b12;}</style><linearGradient id="linear-gradient" x1="538" y1="-4" x2="538" y2="1924" gradientUnits="userSpaceOnUse"><stop offset="0" stop-color="#76c7f2"/><stop offset="0.24" stop-color="#75c4f0"/><stop offset="0.4" stop-color="#70bbea"/><stop offset="0.54" stop-color="#69ace1"/><stop offset="0.67" stop-color="#5f96d3"/><stop offset="0.79" stop-color="#517ac1"/><stop offset="0.9" stop-color="#4158ab"/><stop offset="1" stop-color="#2e3192"/></linearGradient></defs><title>gameover_baggrund</title><rect class="cls-1" x="-2" y="-4" width="1080" height="1928"/><path class="cls-2" d="M1043.34,687.55c-10-6.56-25.86-6.24-30.16-.42-1.14,1.55-1.51,3.52,2,17.79,3,12.35,5.31,19.12,4.69,19.42-1.26.6-5.56-29.73-25.87-40.24-27.61-14.29-73,14.15-97.06,29.24-33.08,20.72-58.27,46.77-53.88,55.45,2,4,9.29,2.5,15.41,10,4.56,5.61,6.57,13.88,4.11,15.76-4.22,3.22-16.24-16.35-30.24-16.37-35.42-.06-83.24,125.1-67.74,132.56,11.4,5.49,53.28-54.5,129.9-99.46,2.79-1.63,7.58-4.44,14.2-7.95,16.53-8.76,52.9-28.06,98.49-35.66,32.48-5.42,46.83-1.1,53.53-11.25,3.49-5.27,1.38-15-3-34.29C1051.23,693.27,1045.58,689,1043.34,687.55Z"/><path class="cls-3" d="M1056.07,1033.5c-5.14-59.52-14.21-106.24-15.45-106-1.95.37,13.58,116.39,7.32,118s-31.22-111.47-32.54-111,24.58,104,16.27,108c-1.12.53-2.58-1.13-5.12-4-6.82-7.71-7.68-16.56-12-30-1.86-5.83-4.34-11.33-6.51-17-10.69-27.94-27.25-56.88-28.47-56-1,.75,10.17,22.58,22.78,61,7.88,24,15.78,53,13.82,54-1.7.91-9.22-20.33-26-53-16.39-31.86-31.83-55.59-32.53-55s13.45,24.22,29.28,62c11,26.35,21.33,55.81,19.52,57-1.64,1.08-11.59-22.2-32.53-57-20-33.29-37-55.37-37.42-55s17.93,25,37.42,64c11.94,23.87,27.2,58.88,23.59,62-.89.76-3-.28-10.46-8.36a232.57,232.57,0,0,1-30.21-40.64c-20.27-36.69-44.43-59.34-44.74-59s20.66,26.48,43.11,67c11.34,20.46,23.94,46.2,22,48-1.64,1.5-11.74-15-30.91-37-26.08-29.94-47.62-45.6-48-45s26.1,22.16,49.62,62c2.67,4.53,17.46,29.58,13.83,34-.31.37-1.73,1.8-9.18-2.5-14.15-8.2-22.54-21.23-23.36-22.5-17.85-27.56-49.53-37.18-49.62-37s29.76,13.91,51.25,49c8.29,13.55,15.46,30.47,13,33s-12.85-11.1-32.54-28c-25.94-22.26-47.65-32.73-48-32s23,14.2,48,43c8.32,9.58,21.37,26.13,19.53,29-1.4,2.18-10.6-4.78-22-12-36.08-22.94-62.72-28.64-62.63-29s32.6,7.82,60.19,37c2,2.11,13.87,14.8,12.21,18-1.47,2.83-12.35-3.89-26.85-10-30.41-12.83-53.64-13.27-53.68-13a117.76,117.76,0,0,1,53.68,21c11.34,8.08,23.33,19.67,22,23-1.26,3.06-13-2.9-35-9-27.12-7.51-47-8.91-47.18-8s20.71,3.46,45.55,18c9.17,5.37,23.85,15.28,22.78,19-.63,2.16-6.35,1.19-12.58.6-29.16-2.74-52.33-11.25-52.49-10.6-.26,1,55.7,19.93,54.49,29-.31,2.35-4.4,3.6-12.92,4.82a204.88,204.88,0,0,1-60.28-.82c0-.08,65.53,6.24,66.7,21,1.28,16.27-75.89,39-75.65,40s74.23-28.78,77.27-20c1.32,3.81-11,14-29.28,29-21.31,17.55-39.87,30-39.86,30s22.36-14.14,40.67-27a92,92,0,0,1,17.09-10c4.7-2,5.86-2,9.76-4,10.22-5.22,14.68-11.87,15.45-11,1.37,1.54-12.46,23-23.59,40-17.77,27.19-24.91,37.42-24.4,38,.66.75,14.07-14.69,27.66-33,26.38-35.57,37.19-60.12,40.67-58,4.59,2.8-9.93,48.58-9,49,.64.27,8.43-19.08,15.45-46,4.17-16,6.12-27.14,8.95-27,3.06.15,4.8,13.4,4.88,14,2.48,19.53-5.15,35.87-4.88,36s7.35-14.34,12.2-39c4.32-22,3.9-37,5.69-37s3.74,12.74,4.07,25c.55,20.16-3.72,34.85-3.25,35s5.4-14.18,8.13-35c3.65-27.78,1.65-46.81,3.26-47,1.41-.17,4.51,14.47,5.69,31,2.19,30.61-3.27,52.79-2.44,53s7.4-22.92,10.57-55c2.61-26.28,1.48-43.83,3.26-44s4.7,15.37,5.69,31c1.77,28-3.37,49.77-2.44,50,.39.1.94-5.68,3.79-14.76,2.45-7.78,4.6-11.66,6.78-20.24a79.9,79.9,0,0,0,1.63-8c0-.29.6-4,.82-8,.69-12.7-1-45.57.81-46,1.41-.33,7.92,18.1,8.95,42,1.32,30.93-7.29,53.71-6.51,54s9.42-22.06,13.83-54c3.74-27.11,2.17-44.82,4.06-45,2-.19,6.59,20.17,6.51,43-.1,28.5-7.36,48.67-6.51,49s8.28-19.14,13-46c4.59-26,3.82-42.92,5.69-43,2.09-.08,5,20.83,5.7,41,.75,22.23-1.4,37.9-.82,38,1.35.24,10.26-83.33,13.83-83,3.31.31-.44,89,0,89S1065.23,1139.51,1056.07,1033.5Z"/><path class="cls-4" d="M1023.32,1408.65c5.32-12.94-2.22-24.67.86-49.86.21-1.75,1-7.49.14-8-1.39-.9-5.39,14.35-7.74,13.19-1.79-.88-2-11-2.19-18.51,0-1.44,0-2.48,0-3.94,0-9.65.38-15,.42-17.77.15-12.29-6.52-25.6-8.33-25-2.1.68.48,20.33.15,20.34-.16,0-.62-4.3-2.42-19.64l-.07-.59c-2-16.63-2.3-18.69-2.58-20.18a93.6,93.6,0,0,0-2.53-10.11c-1.13-3.87-5.06-17.33-7-16.92-2.27.49-.37,19.6-1.59,19.69s-4-17.92-5.24-26c-1.63-10.43-1.31-10-2.08-13.73-3.26-15.65-10-28.44-11.29-27.69-1.62,1,4.86,24.7,3.57,25.28-.14.06-.3-.15-.4-.28-2.86-3.84-9.85-27.7-10.14-27.64s.47,21.32,4.22,31.36c.2.54.88,2.29.44,3.17-1.1,2.29-8-4.21-9.22-1.94-.92,1.68,1.69,7.19,2.74,9.41,2.32,4.92,4.27,6.81,4,7.7-.6,1.81-8.49-5.69-11-2.6s3,13.92,6.93,33.84c3.27,16.7,1,17.4,4.89,35.66a195.59,195.59,0,0,0,6.82,25.47c3.21,9.2,4.39,10,5.73,16.22,2.18,10.12,1.52,19.29,1.07,24.85-.93,11.75-2.95,12.94-1.82,18.56,2,9.91,10.06,15.18,12.23,16.6a19.19,19.19,0,0,0,19.51,1.16A22.17,22.17,0,0,0,1023.32,1408.65Z"/><path class="cls-5" d="M-6.79,1331.6c.57-4.33,4-28.92,11.7-30,3.29-.47,5.47,3.63,17.56,15,7.7,7.25,11.55,10.88,12.54,10,2.77-2.46-20.37-30.29-24.25-58C2.82,1211.64,74,1141.26,141.18,1112.42c49-21,111.82-26.84,118.72-6,6.46,19.49-43,41.19-101.16,126.11-41.3,60.33-31.33,71.29-76.91,133.11-33.23,45-81.89,98-81.94,98.08C48,1418,74.1,1393.35,74.3,1393.65c2.09,3.11-57,82.24-74.45,69.87-4.78-3.38-6.67-13.82-4.14-16.83,5.2-6.18,33.26,13.8,31.77,19-.92,3.25-14.26,4.11-17.55-2-7.42-13.77,35-65.13,71.9-98.08,44.58-39.78,118.86-86.24,142.12-60.05,13.5,15.19,7.05,53,10.87,53,2,0,3-10.42,9.2-29,4.94-14.78,7.51-22.23,12.54-25,7.85-4.37,17.5,3.59,27.59,11,36.26,26.64,40.86,18.69,89.45,57.05,15.8,12.47,18.26,15.64,18.39,20,.37,12.21-17.9,17.79-82.76,51-27.22,14-37,19.61-47.66,14-19.42-10.16-24.2-48.09-26.75-47-1.2.49.3,8.67,2.51,27,2,16.61,3,24.91,2.51,27-3.38,14.79-20,14.79-57.69,34-23,11.76-26.87,16.89-34.28,14-20.51-8-22.1-61.69-25.08-61-1.44.3-1.14,12.8,0,25,2.57,27.48,7.4,32.41,5,40-4.5,14.36-26.86,12.13-57.69,19-47.73,10.67-57.91,25-68.8,23.92a10.19,10.19,0,0,1-5.61-1.9c-10.43-7.82-1.65-41,1.68-68C5,1428.14-16.19,1401.75-6.79,1331.6Z"/><path class="cls-6" d="M-4.29,1540.77c9.21-11.77,25.57-16.32,30.94-10,1.42,1.67,2.11,4.15.83,24-1.1,17.2-2.36,26.83-1.67,27,1.4.4.89-40.85,20.07-61,26.06-27.45,77.31-4.28,104.5,8,37.36,16.89,67.47,43.25,64.38,56-1.42,5.86-9.15,6.21-14.22,18-3.78,8.81-4.5,20.31-1.67,22,4.86,2.92,14-26.61,28.43-31,36.39-11.18,105.84,138.45,91.12,153.13-10.82,10.79-63.6-55-149.65-90.08-3.13-1.27-8.51-3.46-15.88-6-18.41-6.35-58.93-20.31-107-16-34.27,3.06-48.32,13.24-56.85,2-4.44-5.84-3.86-19.32-2.51-46C-11.47,1550.77-6.35,1543.41-4.29,1540.77Z"/><path class="cls-7" d="M165.29,724.1c-5.33,93.8-7,111.13-7.52,111.09-1.45-.09,3.06-118,1.67-118.09s-6.12,99.16-7.52,99.08,2.32-109,.83-109.09-6.1,97.16-7.52,97.08,2-103,.84-103.09c-1.41-.08-7.62,142.2-9.2,142.12s2.86-148.06,1.67-148.12-6.73,152.19-8.36,152.12S132,695.12,131,695.08s-5.35,155.17-6.69,155.13,1.63-157.08,0-157.13-6.42,155.17-7.53,155.12,2.7-157.08,1.68-157.12-5.28,142.16-6.69,142.11,1.26-142.07,0-142.11-4.66,127.14-5.85,127.1,1-128.08,0-128.11-3.74,120.13-5,120.1-.12-121.09-.84-121.1-2,113.1-3.34,113.1-1.82-115.1-2.51-115.1-.47,102.07-1.67,102.09-2.77-104.11-4.18-104.09-1.27,96.07-2.51,96.08-2.66-91.09-3.34-91.08.24,77-.84,77.07-3.27-75.1-4.18-75.06.43,65-.84,65-3.82-62.11-5-62,0,53-.84,53-2.63-48.07-3.34-48,.53,41.94-.84,42-4.2-39.12-5-39,1.41,33.84,0,34-4.84-30.17-5.86-30c-.74.11,2.26,22.66.84,23s-11-19.82-6.69-39c7.29-32.75,49.23-37.76,51.84-38,21.09-2.19,37.59,7.67,45.14,13"/><path class="cls-7" d="M2.71,528.88C.54,467.78-2.92,388.72-6.86,388.75c-5.34.05-8.21,145.47-10.94,145.32s-2-141.08-2.05-155.7c5.71.4,14.23,1.06,24.61,2.08,10,1,16.32,1.77,19.14,2.07,20.49,2.24,38.7-.91,47.16-2.07,26.38-3.64,61.05-2.19,75.87,2.07,62.83,18.07,95.51,180.68,118.24,293.76C286,780,293.09,866.87,291.83,867.27c-1.87.6-26.35-187.56-33.49-185.8-6.92,1.7,6.67,180.43,5.47,180.61s-14-191.36-17.09-191c-2.88.35,4.73,170.84,1.36,171.27S233.56,661.25,229,661.75s.38,176.35-1.37,176.46-7.12-179.7-10.25-179.58-2.14,164-4.1,164c-2.13,0-4.2-192-8.21-192s-6.68,178.6-9.56,178.53S193.19,613.05,190,613s-7.52,180.69-8.89,180.61,2.63-195,.69-195.14-7.85,181.76-9.57,181.65,2.45-188.86,1.36-188.92-6,180.69-7.51,180.61,2.72-201.11-.69-201.37-11.85,187-13,186.84,7.38-198,5.46-198.26c-1.49-.17-7.64,119.64-10.93,119.37s-1.68-123.49-2.74-123.52-2.9,111.09-4.78,111.07c-.7,0-.9-15.24-2.74-52.94-1.36-28.06-3.19-65.44-4.78-65.39-.7,0-1.13,7.27-1.37,11.41-1.73,30-4.11,97.32-1.36,97.58,3,.27,18.18-77-4.1-116.26-6-10.63-13.34-15.87-19.13-20-24.6-17.64-47.63-7.77-53.39-3.92a42.12,42.12,0,0,0-3.87,3A31.45,31.45,0,0,0,41.62,527a61.88,61.88,0,0,0-3.3,5.62s-.4.74-.75,1.44c-5.86,11.68-4.4,36.32-4.79,36.33-1.93.06-3.67-47.8-5.47-47.75-1.58.05-1.9,37.33-3.41,37.37-1.69.05-3.08-46.75-4.79-46.71-1.55,0-2.24,38.42-3.41,38.41-1.33,0-.42-49-4.79-49.83C8.75,501.46,5.78,512.93,2.71,528.88Z"/><path class="cls-7" d="M91.66,82.56c-5.33,93.79-7,111.13-7.53,111.09-1.44-.1,3.07-118,1.68-118.1s-6.12,99.17-7.53,99.08,2.32-109,.84-109.09S73,162.71,71.59,162.62s2-103,.84-103.08c-1.41-.08-7.62,142.2-9.2,142.12S66.09,53.59,64.91,53.53s-6.74,152.2-8.37,152.13,1.86-152.09.84-152.13S52,208.7,50.69,208.66s1.63-157.07,0-157.13S44.28,206.7,43.17,206.66,45.86,49.57,44.84,49.53,39.57,191.7,38.15,191.65s1.26-142.08,0-142.12-4.66,127.14-5.85,127.1,1-128.07,0-128.1-3.74,120.13-5,120.1-.12-121.09-.83-121.1-2,113.1-3.35,113.09S21.28,45.52,20.6,45.53s-.48,102.06-1.68,102.08S16.16,43.51,14.74,43.53s-1.26,96.06-2.5,96.07S9.58,48.52,8.89,48.53s.24,77-.84,77.06S4.78,50.5,3.87,50.53s.44,65-.83,65.06S-.79,53.48-2,53.53s0,53-.83,53.05-2.64-48.07-3.35-48,.53,41.94-.83,42-4.2-39.11-5-39,1.41,33.84,0,34-4.84-30.18-5.85-30c-.74.11,2.26,22.67.83,23s-11-19.81-6.68-39c7.29-32.75,49.22-37.76,51.83-38,21.09-2.19,37.6,7.66,45.15,13"/><path class="cls-8" d="M-2.45,197.42c2.81-45.88,5.08-73.08,6.52-72.94,2.78.28.58,102.24,3.77,102.58s9.44-108.44,11.43-108.18-4.13,121.68.07,122.43c3.7.66,14.7-114.3,16-114s-9.66,107-5.39,108.16,22-106.78,23.74-106.2-15,103-11.9,104.21S66.87,132.59,67.75,133,45.52,235,49.81,237.18s35.45-101.43,37.28-100.4-31.32,113-28,115,41.84-109,44-107.59S70.35,249.63,74.25,252.28c3.56,2.42,37.05-81.48,39.72-79.56,2.48,1.78-24.2,75.17-21.09,77.43,2.39,1.73,20.1-40.09,22.69-38.23,3.25,2.33-21.67,70.68-18.6,73,4,3,54.49-111.57,55.71-110.59s-49.29,111.22-41.95,118.38c6.4,6.26,54.08-68.89,56.4-66.18s-41.78,71.16-37.85,76.21c4.3,5.53,63.42-68.63,65.52-65.7s-59.39,80.5-54.57,88.14c4.66,7.39,69.74-53.82,70-53.3s-60.43,53.09-58.08,58.37c.94,2.1,11.22-4.86,36.72-15.31,1.35-.55,31.32-12.78,32-10.45.42,1.46-11.17,7.46-31.46,21.49-13.54,9.37-28.35,19.62-27.63,21.87,1.46,4.64,68.44-26.18,68.83-24.77s-58,24.74-56.32,34.8c1.77,10.5,68.29,2.11,68.4,3.64s-64.89,5-64.94,13c-.05,8.86,79.75,20.17,79.63,22s-71.27-11.38-72.22-4c-1,7.78,76.2,36.12,76.07,36.75s-59.59-26.78-62.51-17.78c-3.32,10.21,67.4,64.23,67.26,64.54s-56.67-50.53-61-43.34c-4.6,7.65,51,79.33,50.89,79.45s-49.17-72.66-55.41-66.54c-4.79,4.68,17.09,54.38,16.28,54.93s-25.18-61.73-28.21-60,14.37,61.23,14,61.39-19.64-74.26-23.69-72.91c-3.39,1.13,5.06,54.76,4.2,54.94s-10.89-69-13.36-68.57c-2.25.36,2.95,58.24,1.59,58.42-1.52.19-9.28-72.25-10.75-72.06-1.24.16,3.15,52.14,1.63,52.35s-8.29-58.26-9.85-58,4.08,64.11,2.29,64.37-10.34-70.07-12-69.82,4.48,61,2.69,61.27c-2,.33-11.57-71.93-13-71.68s5.64,59.72,4,60-11.6-67.91-13.24-67.59,6.74,69.65,5.21,69.95S115,361.73,113.6,362s8.11,73.43,6.42,73.79-14-76.62-15-76.39,9.24,63.92,6.85,64.62c-2.77.82-20.51-83.79-21.89-83.33s14.57,81.34,13.39,81.73S83.15,334.54,81.72,335s14.23,78,11.57,79S73.18,343,70.69,344s11.83,69.47,9.78,70.19-18.45-67-19.91-66.46,12.26,61.23,10.32,62-20-65.77-21.27-65.22,13.62,57.75,11.45,58.78S39.38,341.49,37.29,342.5c-1.9.93,12.47,54.12,11,54.81s-18.06-55-19.25-54.43,21.47,81,20.18,81.6-24.14-74.22-25.29-73.65,20.57,74.82,18.74,75.76-25.55-69.86-26.3-69.43c-.22.13,1.49,6.27,4.31,16.41.61,2.17,1,3.75,1.11,3.93C31,410,33.45,419.82,32.84,420.16c-.18.09-.63-.58-1.5-1.85A21.74,21.74,0,0,1,30,416.06c-1.59-3.22-8.72-22.42-9.34-22.18s5.61,30.46,5.85,30.38c.85-.29-5.05-52.51-10.76-52.83-6.65-.37-13,69.73-18.53,156.93"/><path class="cls-5" d="M1079,1515.5c-.57-4.32-3.92-28.9-11.39-30-3.2-.47-5.32,3.63-17.08,15-7.5,7.25-11.25,10.88-12.2,10-2.7-2.47,19.81-30.27,23.58-58,7.74-56.86-61.47-127.18-126.89-156-47.63-21-108.78-26.81-115.5-6-6.28,19.47,41.86,41.15,98.42,126,40.19,60.28,30.48,71.24,74.84,133,32.32,45,79.67,98,79.71,98-46.78-45.69-72.2-70.29-72.39-70-2,3.11,55.45,82.17,72.43,69.82,4.65-3.38,6.49-13.81,4-16.82-5.06-6.17-32.36,13.78-30.91,19,.9,3.25,13.88,4.11,17.08-2,7.21-13.75-34-65.07-70-98-43.38-39.74-115.65-86.16-138.28-60-13.14,15.18-6.86,52.93-10.58,53-1.95,0-2.89-10.42-8.94-29-4.81-14.77-7.31-22.21-12.2-25-7.64-4.36-17,3.6-26.85,11-35.28,26.61-39.75,18.67-87,57-15.37,12.46-17.77,15.63-17.89,20-.36,12.2,17.41,17.78,80.52,51,26.48,13.94,36,19.59,46.37,14,18.9-10.15,23.54-48,26-47,1.17.49-.29,8.67-2.44,27-1.94,16.59-2.91,24.88-2.44,27,3.28,14.78,19.46,14.78,56.13,34,22.4,11.74,26.14,16.87,33.35,14,20-7.94,21.5-61.64,24.4-61,1.4.31,1.11,12.79,0,25-2.5,27.46-7.2,32.39-4.88,40,4.38,14.35,26.13,12.12,56.12,19,46.44,10.65,56.34,25,66.94,23.89a9.73,9.73,0,0,0,5.46-1.89c10.14-7.82,1.6-41-1.63-68C1067.57,1612,1088.13,1585.6,1079,1515.5Z"/><path class="cls-6" d="M1028.68,1713.5c-9-11.76-24.87-16.31-30.1-10-1.38,1.67-2.05,4.15-.81,24,1.07,17.18,2.29,26.8,1.62,27-1.35.4-.86-40.81-19.52-61-25.35-27.43-75.22-4.28-101.67,8-36.35,16.88-65.65,43.22-62.63,56,1.37,5.85,8.89,6.2,13.82,18,3.68,8.81,4.39,20.3,1.63,22-4.72,2.92-13.66-26.59-27.66-31-35.4-11.17-103,138.33-88.66,153,10.54,10.79,61.89-54.92,145.6-90,3.05-1.28,8.29-3.46,15.46-6,17.91-6.34,57.32-20.29,104.11-16,33.34,3.06,47,13.24,55.31,2,4.32-5.84,3.75-19.3,2.44-46C1035.66,1723.49,1030.69,1716.14,1028.68,1713.5Z"/><path class="cls-2" d="M37.79,567c12.52-5.94,28.94-1.69,31.54,6.76.69,2.24.43,4.83-7.81,22.15-7.13,15-11.7,23.05-11.15,23.58,1.12,1.07,15.37-36.48,39.92-45,33.36-11.51,71.44,35.64,91.64,60.65,27.76,34.37,45.59,73.6,38.23,83.59-3.37,4.56-10.48.93-19.28,9-6.57,6-11.32,16.07-9.37,19.06,3.35,5.12,22.19-16.89,36.77-13.53,36.9,8.49,46.34,179.3,27.79,185-13.64,4.23-37.91-82.21-103.19-157.94-2.38-2.75-6.47-7.48-12.23-13.54-14.38-15.15-46-48.49-91.05-69.18C17.52,663,1.18,665-2.52,650.47-4.45,642.92.88,631,11.63,607.56,27.73,572.38,35,568.34,37.79,567Z"/><path class="cls-3" d="M1071,1674.75c-17.32-69.72-22.57-85.83-23.66-84.92s1.86,19.28,4.28,34.28c7.7,47.78,14.94,74.41,13.83,75.66-2.23,2.5-33.74-101.24-35.93-98.87-2.45,2.65,33.82,135.66,30.92,138.89-2.73,3-37.71-111.46-40-108.86-2.7,3,41.7,162.18,40.16,163.86s-49.32-163-51.37-160.82,44.07,170.69,41.2,173.86c-3.19,3.51-64.29-199.56-66.75-196.77-2.26,2.55,45.77,176.13,43.25,178.85-.76.82-6.85-13.19-9.57-19.88,0,0-.86-2.09-1.61-4-6.48-16.86-51.78-150.64-52.46-149.85s50.07,163.46,45.27,169.84c-1.15,1.53-5.15-6.35-8.65-13.48-30.07-61.29-54.63-132-54.41-132.3S992.12,1777.9,988.64,1783c-3.6,5.31-60.76-130-61.5-128.78S983.56,1783,978,1794.08c-1.3,2.58-5.66-1.83-12-9.26-35.91-42.21-60.62-94.45-61.18-93.48-.81,1.38,48,110.32,45.65,114.84-2.27,4.37-52.17-89.88-54.25-85.81s44.81,98,41.55,104.85c-3.65,7.66-67.06-99.31-69.58-93.75-2.24,5,47,92.72,43.59,100.84-3.58,8.52-62.54-76.45-63.92-72.77s61.76,95.32,58.89,103.79-69.92-69.48-71-65.75c-1,3.49,58.32,70.09,55.27,82.81-3.25,13.55-76-40.11-76.58-36.73-.58,3.23,66.89,48.34,64.91,63.77-.42,3.29-3.87,4.21-6.33,4.75-28.78,6.31-67-7.9-66.61-11.5.52-4.63,64.83,11.7,65.36,33.77a11,11,0,0,1-1.42,6.06c-10.4,16.5-72.66-21.56-71.44-26,1.27-4.62,72.83,19.89,73.21,20,28.26,6.2,49.63,3.69,64.26,0,19.28-3.14,24.74-7.71,48.8-10,15.43-1.47,22-.43,24.4,0,15.85,2.83,20.65,9.47,32.54,10,6.57.3,16-1.24,27.65-10"/><path class="cls-3" d="M-5.26,833.17C0,773.6,9.35,726.85,10.63,727.09c2,.37-14,116.48-7.53,118.09S35.19,733.62,36.54,734.09,11.28,838.23,19.82,842.18c1.15.53,2.66-1.13,5.26-4,7-7.72,7.9-16.57,12.3-30,1.91-5.83,4.46-11.34,6.69-17,11-28,28-56.92,29.26-56,1.07.75-10.46,22.6-23.41,61-8.1,24.05-16.22,53-14.21,54.05,1.75.91,9.48-20.35,26.75-53.05,16.85-31.89,32.73-55.63,33.44-55s-13.82,24.24-30.09,62C54.46,830.52,43.88,860,45.74,861.2c1.69,1.07,11.91-22.22,33.44-57.05,20.6-33.31,38.08-55.42,38.46-55s-18.43,25.07-38.46,64.06c-12.27,23.89-28,58.92-24.24,62.05.9.76,3.06-.28,10.75-8.36a233.37,233.37,0,0,0,31.05-40.68c20.83-36.73,45.67-59.39,46-59s-21.24,26.5-44.31,67c-11.65,20.48-24.6,46.24-22.57,48,1.69,1.5,12.07-15,31.77-37,26.8-30,48.94-45.63,49.32-45s-26.82,22.17-51,62.05c-2.75,4.53-18,29.6-14.22,34,.32.38,1.78,1.81,9.43-2.5,14.55-8.21,23.17-21.24,24-22.52,18.35-27.58,50.92-37.21,51-37a139.21,139.21,0,0,0-52.67,49c-8.52,13.56-15.89,30.5-13.37,33s13.2-11.11,33.44-28c26.66-22.28,49-32.76,49.32-32s-23.65,14.21-49.32,43c-8.55,9.59-22,26.14-20.07,29,1.44,2.19,10.9-4.78,22.58-12,37.08-23,64.47-28.67,64.37-29s-33.5,7.82-61.87,37c-2,2.11-14.25,14.81-12.54,18,1.51,2.83,12.69-3.89,27.59-10,31.26-12.83,55.14-13.28,55.18-13a123.13,123.13,0,0,0-55.18,21c-11.65,8.09-24,19.69-22.57,23,1.29,3.06,13.32-2.9,35.95-9,27.87-7.52,48.36-8.92,48.49-8s-21.28,3.45-46.82,18c-9.42,5.37-24.51,15.29-23.41,19,.65,2.16,6.53,1.19,12.93.6,30-2.75,53.78-11.27,53.95-10.61.27,1-57.25,20-56,29,.32,2.35,4.53,3.61,13.28,4.82a216,216,0,0,0,62-.82c0-.08-67.36,6.25-68.55,21-1.32,16.28,78,39,77.75,40s-76.3-28.8-79.42-20c-1.36,3.81,11.33,14,30.09,29,21.91,17.56,41,30,41,30s-23-14.16-41.8-27a95.34,95.34,0,0,0-17.56-10c-4.84-2.06-6-2-10-4-10.5-5.22-15.1-11.87-15.89-11-1.4,1.55,12.82,23,24.25,40,18.26,27.21,25.6,37.45,25.08,38-.68.74-14.46-14.7-28.43-33-27.12-35.6-38.22-60.17-41.8-58.05-4.71,2.81,10.2,48.63,9.2,49-.66.28-8.67-19.09-15.89-46-4.28-16-6.28-27.17-9.19-27-3.15.16-4.94,13.41-5,14-2.55,19.55,5.29,35.9,5,36s-7.56-14.34-12.54-39c-4.44-22-4-37-5.85-37s-3.84,12.75-4.18,25c-.57,20.17,3.82,34.88,3.34,35s-5.55-14.19-8.36-35c-3.75-27.8-1.7-46.84-3.34-47-1.46-.17-4.64,14.49-5.86,31-2.25,30.64,3.36,52.83,2.51,53s-7.6-22.94-10.87-55c-2.67-26.3-1.52-43.87-3.34-44s-4.84,15.39-5.85,31c-1.83,28,3.46,49.81,2.5,50-.4.1-1-5.69-3.89-14.77-2.52-7.79-4.73-11.67-7-20.26a80.83,80.83,0,0,1-1.68-8c0-.29-.61-4-.83-8-.71-12.71,1-45.62-.84-46-1.45-.33-8.14,18.11-9.19,42-1.37,31,7.48,53.76,6.68,54s-9.68-22.08-14.21-54c-3.84-27.13-2.24-44.86-4.18-45-2.1-.19-6.77,20.18-6.69,43,.1,28.53,7.57,48.71,6.69,49s-8.51-19.16-13.38-46c-4.72-26-3.92-42.95-5.85-43-2.15-.09-5.15,20.85-5.85,41-.77,22.25,1.44,37.93.84,38-1.39.24-10.55-83.4-14.22-83.06-3.4.31.46,89,0,89.07S-14.67,939.27-5.26,833.17Z"/><path class="cls-9" d="M28.18,1014.34c10.61-4.07,29.39-11.27,31.77-6,.92,2-1.21,4.52-8.36,19-7.27,14.75-7.05,16.2-6.68,17,3.26,7.24,29.66-11.69,42.63,1,6.58,6.44,8.23,19.56,5,23-3.52,3.8-11-6-21.74-3-8,2.21-15.27,10.81-14.21,16s9.79,3.69,25.92,11c10.15,4.61,18,8.15,22.57,17,6.21,11.91,4.44,29.14,0,31-3.68,1.56-7-8.32-20.06-19-9.59-7.87-20.58-13-21.74-11-2.18,3.77,35.23,23.62,39.29,59,.5,4.37-3,19.65-10,50-7.79,33.67-10.64,44.86-15,45s-5.13-11-15.88-24c-9.68-11.69-15.84-10.71-20.9-17-18-22.37,19-88.26,12.54-93.08-3-2.18-13.82,8.65-20.91,23-12.67,25.72-6.31,48.76-12.54,51-6.43,2.37-24-18.33-23.4-41,.85-35,44.22-53.67,39.29-68.06-2.45-7.14-15.63-9.82-24.25-5-12.26,6.87-12.74,27.57-16.72,27-4.61-.63-5.33-28.73-5.85-49-.62-24.11.68-27.77,1.67-30C-4.46,1027.05,6.49,1022.66,28.18,1014.34Z"/><path class="cls-9" d="M-24.58,991.51c1.51-13.21,4.19-36.6,9.19-36.9,1.92-.12,2.88,3.26,10.72,17.24,8,14.21,9.16,14.61,9.93,14.56,6.87-.4,4-37.07,19.16-45.61,7.69-4.32,18.29-.44,19.51,4.52,1.35,5.44-9.25,9.34-11.64,22.18-1.79,9.59,1.55,21.16,5.93,22.26s7-9,19.48-23.23c7.86-9,13.89-15.87,22.57-17,11.65-1.57,23.87,7.78,23.37,13.39-.41,4.64-9.31,4-23,13.46C70.59,983.3,62,992.94,63,995.07c1.91,4,33-27.85,61.46-16.94,3.51,1.34,13.52,11.72,33.38,32.43,22,23,29.21,30.85,27.44,35.69s-10.53.78-25,6.79c-13,5.4-14.91,12.47-21.84,15.22-24.62,9.76-58.29-58.65-64.72-53.72-2.92,2.24.54,18.65,8.32,32.51,13.9,24.78,34,27.86,33.05,35.57-1,8-24.16,18-41,7.56-26-16-21.35-70.92-34.32-71.8-6.44-.44-14.15,12.64-14.23,24-.12,16.21,15.27,25.66,13.14,29.72-2.47,4.71-23.95-6.65-39.48-14.85-18.43-9.75-20.63-12.73-21.9-14.77C-29.09,1032.24-27.67,1018.52-24.58,991.51Z"/><path class="cls-9" d="M1044.09,299.7c-7.62-5.08-21.11-14.07-23.59-10.66-1,1.31.36,3.56,4,15.64,3.73,12.28,3.38,13.31,3,13.84-3.41,4.69-21.27-14.44-32.8-7.64-5.85,3.44-8.75,12.77-6.72,16,2.22,3.48,9.19-2.22,17,2.06,5.86,3.2,10.36,11,8.89,14.58s-8,.79-21.23,3c-8.36,1.4-14.78,2.47-19.42,8.09-6.25,7.55-7,20.58-3.88,22.84,2.63,1.87,6.43-4.74,17.75-10.05,8.33-3.91,17.39-5.55,18-3.84,1.2,3.21-29.95,10.47-37.48,35.75-.93,3.13-.16,15.07,1.43,38.82,1.77,26.32,2.55,35.11,5.91,36.11s5.31-7.11,15.17-14.56c8.88-6.71,13.48-4.78,18.14-8.42,16.57-12.93-3.56-68.72,2-71,2.53-1,9.51,9.08,13.14,21.05,6.5,21.43-1.25,37.14,3.24,40s20.65-8.79,23.06-25.61c3.72-26-27.19-48.2-21.61-57.83,2.77-4.78,13.21-4.16,19.2,1.08,8.54,7.47,6.33,22.8,9.44,23.18,3.62.44,7.68-20.1,10.61-35,3.48-17.63,3-20.58,2.47-22.43C1067.51,315.47,1059.67,310.09,1044.09,299.7Z"/><path class="cls-5" d="M1073.56,580.6c-1.06-3.44-7.2-23-13.91-22.88-2.88.06-4.22,3.7-13.09,14.63-5.65,7-8.48,10.45-9.44,9.87-2.69-1.64,13.51-27.48,13.23-50.63-.58-47.49-70.61-95.18-131.91-109.54-44.64-10.46-99.22-6.66-102.43,11.27-3,16.76,42.18,27.72,103,89,43.19,43.57,36.07,53.87,83.12,98.06,34.29,32.21,82.83,68.78,82.87,68.81-47.1-30.74-72.66-47.25-72.79-47-1.39,2.83,59.46,59.3,72.8,46.84,3.66-3.41,3.92-12.18,1.36-14.29-5.25-4.33-26.68,15.78-24.73,19.83,1.21,2.53,12.74,1.41,14.77-4,4.56-12.24-38.38-48.34-74.28-70.18-43.33-26.36-113-54.13-129.48-29.61C863,605,873.46,635,870.2,635.54c-1.72.31-3.9-8.09-11.64-22.41-6.15-11.38-9.32-17.1-14-18.69-7.29-2.49-14.52,5.32-22.2,12.73-27.59,26.66-32.56,20.8-69.19,58.7-11.91,12.32-13.61,15.24-13.15,18.82,1.27,10,17.63,12.07,77.48,30.35,25.12,7.67,34.19,11,42.62,4.93,15.32-10.93,14.49-42.5,16.81-42,1.09.23.86,7.11,1.36,22.37.44,13.81.66,20.71,1.35,22.38,4.81,11.6,19.05,9.33,53.81,19.88,21.24,6.45,25.19,10.11,31.16,6.76,16.53-9.27,10.92-53.31,13.56-53.19,1.27.05,2.63,10.28,3.24,20.4,1.37,22.75-2.13,27.44.9,33.32,5.72,11.1,24.57,6.23,51.86,7.65,42.25,2.19,52.82,12.51,62,10.13a9.12,9.12,0,0,0,4.56-2.31c7.92-7.8-3.9-33.65-10.26-55.26C1076,660.92,1090.7,636.53,1073.56,580.6Z"/><path class="cls-9" d="M1059.45,953.17c2,13.09,5.5,36.28,1,38.45-1.74.83-3.49-2-14.31-12.31-11-10.47-12.2-10.4-12.9-10.07-6.24,3,5.8,36.67-6,50.47-6,7-16.77,7.31-19.17,3.07-2.63-4.65,6.15-12.34,5.08-25.42-.8-9.77-6.85-19.49-11.18-18.88s-4.16,11.16-12,29.38c-5,11.46-8.76,20.28-16.48,24.65-10.36,5.87-24,1.61-25-3.9-.81-4.56,7.57-7.3,17.78-21.42,7.51-10.38,13-22.78,11.54-24.41-2.78-3.06-23.36,38.84-52.42,39.21-3.59,0-15.48-6-39.12-18.18-26.2-13.47-34.87-18.25-34.47-23.51s9.52-4.71,21.31-15.84c10.6-10,10.57-17.44,16.27-22.66,20.23-18.53,68.83,33.66,73.51,26.56,2.12-3.22-5.28-17.48-16-27.69-19.19-18.26-38.54-13.61-39.63-21.29-1.12-7.93,17.71-26.13,36-22.63,28.14,5.41,37.87,59.22,50.07,55.17,6.06-2,9.84-17.32,7-28.14-4-15.42-20.67-18.59-19.75-23.23,1.08-5.4,23.82-2.72,40.26-.79,19.52,2.29,22.31,4.29,24,5.75C1053.19,912.84,1055.39,926.38,1059.45,953.17Z"/><path class="cls-9" d="M1066.61,1017.59c5.43,11.53,15,31.95,11.34,35.86-1.42,1.5-3.83-.46-16.83-5.73-13.21-5.37-14.32-4.81-14.89-4.21-5.08,5.36,15.41,32.19,8,50-3.75,9.06-13.82,13.77-17.24,10.75-3.74-3.3,2.45-14.15-2.11-26-3.41-8.88-11.75-15.56-15.66-13.21s-.9,12.22-3.38,32.63c-1.56,12.84-2.76,22.71-8.84,30-8.18,9.78-22.23,11.38-24.64,6.59-2-4,5.15-10,11-27.49,4.26-12.87,6.09-26.82,4.24-27.75-3.44-1.74-11.47,46.2-38.76,58.47-3.37,1.52-16.23.67-41.82-1.1-28.35-2-37.82-2.9-38.88-8s7.7-8.34,15.79-23.67c7.29-13.79,5.24-20.78,9.19-28,14-25.76,74,3.5,76.51-5.11,1.13-3.91-9.72-14.32-22.6-19.54-23-9.35-40,3-43.13-3.82-3.21-7,9.6-31.9,27.75-36.07,28-6.45,51.76,40.29,62.17,31.47,5.17-4.38,4.57-20.36-1-29.4-8-12.88-24.53-9.05-24.92-13.81-.45-5.52,21.72-12.33,37.74-17.25,19-5.85,22.19-5.11,24.19-4.43C1049.76,982.14,1055.52,994,1066.61,1017.59Z"/><ellipse class="cls-10" cx="53.5" cy="1847.5" rx="55.5" ry="56.5"/><ellipse class="cls-11" cx="54.25" cy="1845.64" rx="49.85" ry="49.56"/><ellipse class="cls-12" cx="53.64" cy="1847.45" rx="48.03" ry="47.75"/><path d="M30.42,1845.89a9.84,9.84,0,0,0-.08-1,1.14,1.14,0,0,0-.14-.48.68.68,0,0,0-.24-.2l-.44-.26a.3.3,0,0,1-.16-.28.27.27,0,0,1,.06-.16,1.84,1.84,0,0,1,.32-.26,9,9,0,0,1,.82-.46l1.55-.78a1.07,1.07,0,0,1,.27-.09,2,2,0,0,1,.5,0,5.21,5.21,0,0,1,2.34.44,1.57,1.57,0,0,1,.86,1.54,5,5,0,0,1-.08.94,1.89,1.89,0,0,1-.36.74,4.26,4.26,0,0,1-.78.71,13.29,13.29,0,0,1-1.34.83,4.67,4.67,0,0,1,.94.46,7.12,7.12,0,0,1,1,.81,5.71,5.71,0,0,1,.85,1,2.06,2.06,0,0,1,.35,1.1,1.93,1.93,0,0,1-.38,1.14,4.5,4.5,0,0,1-1,1,7.07,7.07,0,0,1-1.26.74c-.47.21-.9.39-1.31.53a8.76,8.76,0,0,1-1.06.33,2.83,2.83,0,0,1-.58.11,5.58,5.58,0,0,1-1.26-.09c-.21-.06-.31-.16-.31-.32a.51.51,0,0,1,.22-.36.73.73,0,0,0,.25-.46,6.22,6.22,0,0,0,.13-.85c0-.38.08-.8.12-1.28s.08-1,.1-1.51,0-1,0-1.56C30.44,1847,30.43,1846.34,30.42,1845.89Zm1.1,6.14a3.93,3.93,0,0,0,.05.5.34.34,0,0,0,.12.21.49.49,0,0,0,.19,0,4.63,4.63,0,0,0,.94-.12,4.32,4.32,0,0,0,1.1-.37,3.31,3.31,0,0,0,.91-.64,1.33,1.33,0,0,0,.38-1,1.36,1.36,0,0,0-.28-.78,4.53,4.53,0,0,0-.69-.8,5.57,5.57,0,0,0-.9-.7,4.72,4.72,0,0,0-.92-.47,2,2,0,0,0-.37.16,1.45,1.45,0,0,0-.29.21,1.48,1.48,0,0,0-.2.75c0,.39,0,1.07,0,2C31.51,1851.5,31.52,1851.8,31.52,1852Zm.44-5.15a.44.44,0,0,0,.28.1,1.17,1.17,0,0,0,.62-.29,4.56,4.56,0,0,0,.77-.71,5.26,5.26,0,0,0,.67-.9,1.66,1.66,0,0,0,.29-.87,1.26,1.26,0,0,0-.13-.55,1.42,1.42,0,0,0-.4-.49,2.37,2.37,0,0,0-.63-.36,2.21,2.21,0,0,0-.84-.14,1.09,1.09,0,0,0-.61.16.67.67,0,0,0-.26.62v3.22Z"/><path d="M42.28,1851.12a1.67,1.67,0,0,0-.68.71l-1,1.79a1.06,1.06,0,0,0-.13.39c0,.14-.12.2-.31.2a3,3,0,0,1-.93-.12c-.23-.08-.35-.2-.35-.35a.59.59,0,0,1,.21-.39c.13-.14.29-.32.47-.55s.53-.69.83-1.13.6-.9.91-1.38.6-1,.89-1.45.54-.93.76-1.34.4-.78.54-1.08a2,2,0,0,0,.21-.65,1.92,1.92,0,0,0-.71-1.11L41.27,1843a2.45,2.45,0,0,0-.5-.43.33.33,0,0,1-.2-.29s0-.12.15-.19a3.76,3.76,0,0,1,.36-.23,3.3,3.3,0,0,1,.43-.19.91.91,0,0,1,.36-.08,2.83,2.83,0,0,1,.45,0,.58.58,0,0,1,.28.09.55.55,0,0,1,.19.21c.05.1.1.23.17.39a2.17,2.17,0,0,0,.26.42c.15.19.29.38.45.57,1.11,1.34,2.08,2.47,2.89,3.39s1.55,1.72,2.22,2.42,1.31,1.32,1.93,1.88,1.28,1.16,2,1.81a1.21,1.21,0,0,0,.39.24l.32.1a.57.57,0,0,1,.22.12.3.3,0,0,1,.08.25.41.41,0,0,1-.11.24,2.61,2.61,0,0,1-.28.31,2.5,2.5,0,0,1-.33.26.67.67,0,0,1-.29.1H52.1a.23.23,0,0,1-.23-.15,1,1,0,0,0-.16-.26,32.36,32.36,0,0,0-2.77-3H43.46A2.78,2.78,0,0,0,42.28,1851.12Zm1-2.25c-.17.32-.29.52-.35.62a.56.56,0,0,0-.08.25.21.21,0,0,0,0,.13.51.51,0,0,0,.26.07l.62,0h2.5l.87,0a4.14,4.14,0,0,0,.5,0,1.21,1.21,0,0,0,.24-.07l-3.24-3.29Z"/><path d="M56.35,1846.67a6.83,6.83,0,0,1,.9-1.9,5.2,5.2,0,0,1,1.27-1.29,6.66,6.66,0,0,1,1.48-.8,7.45,7.45,0,0,1,1.49-.42,9.49,9.49,0,0,1,1.32-.11,2.33,2.33,0,0,1,1.34.33c.32.22.48.43.48.64a.62.62,0,0,1-.13.3,1.83,1.83,0,0,1-.3.33,1.39,1.39,0,0,1-.37.28.67.67,0,0,1-.32.12.33.33,0,0,1-.24-.15c-.07-.09-.16-.2-.27-.32a2.07,2.07,0,0,0-.38-.32,1.08,1.08,0,0,0-.56-.14,4,4,0,0,0-1.72.34,4.39,4.39,0,0,0-1.26.86,4.46,4.46,0,0,0-.86,1.18,8.19,8.19,0,0,0-.52,1.3,8.77,8.77,0,0,0-.26,1.18,6.48,6.48,0,0,0-.07.85,4.26,4.26,0,0,0,.26,1.35,5.56,5.56,0,0,0,.73,1.41,4.45,4.45,0,0,0,1.15,1.1,2.67,2.67,0,0,0,1.48.44,3.46,3.46,0,0,0,1.35-.26,6.06,6.06,0,0,0,1.08-.57l.79-.58a1,1,0,0,1,.52-.26.43.43,0,0,1,.32.13.45.45,0,0,1,.11.31.61.61,0,0,1-.13.27,3.2,3.2,0,0,1-.37.44,6.7,6.7,0,0,1-.54.51,3.54,3.54,0,0,1-.65.44,3.46,3.46,0,0,1-.56.24,7,7,0,0,1-.76.19c-.28.06-.57.1-.87.14s-.59,0-.87,0a4.57,4.57,0,0,1-1.34-.25,4.1,4.1,0,0,1-1.45-.83,4.71,4.71,0,0,1-1.15-1.54,5.43,5.43,0,0,1-.46-2.38A8.84,8.84,0,0,1,56.35,1846.67Z"/><path d="M69.93,1854a1,1,0,0,1-.25.17,1.39,1.39,0,0,1-.28.12l-.21,0a.78.78,0,0,1-.31-.13.42.42,0,0,1-.2-.36c0-.18,0-.44,0-.79s0-.73.06-1.17,0-.9,0-1.39,0-1,0-1.46c0-.72,0-1.43,0-2.14s0-1.42-.07-2.12a5.1,5.1,0,0,0-.09-.82,3.7,3.7,0,0,0-.15-.49l-.12-.3a.47.47,0,0,1,0-.22.55.55,0,0,1,.13-.28,3.47,3.47,0,0,1,.3-.37,2.15,2.15,0,0,1,.35-.33.61.61,0,0,1,.27-.15.92.92,0,0,1,.36.12,1.13,1.13,0,0,1,.3.17,1.78,1.78,0,0,1,.14.21l.18.36c.06.13.12.25.16.36a.81.81,0,0,1,.06.22.79.79,0,0,1-.13.36,1.16,1.16,0,0,0-.16.57c0,.53-.05,1-.07,1.38s0,.73-.06,1,0,.54,0,.74,0,.4,0,.58a1.31,1.31,0,0,0,0,.33.17.17,0,0,0,.16.1c.07,0,.26-.15.57-.44s.68-.66,1.1-1.09.89-.91,1.38-1.42l1.37-1.42,1.11-1.09c.31-.29.5-.44.57-.44a.78.78,0,0,1,.34.14l.42.33.36.36c.11.12.16.2.16.24s0,.13-.15.17a1.84,1.84,0,0,1-.34.14l-.41.14a1,1,0,0,0-.36.21c-.37.31-.79.69-1.24,1.14l-1.36,1.31q-.66.64-1.26,1.17a5.26,5.26,0,0,1-1,.73v0a1.89,1.89,0,0,1,.75.35c.28.21.6.46.94.76l1.07,1c.38.36.76.69,1.14,1a11.72,11.72,0,0,0,1.11.8,3.2,3.2,0,0,0,1,.42.73.73,0,0,1,.38.14.46.46,0,0,1,.09.31c0,.07-.07.16-.22.26a4.35,4.35,0,0,1-.53.29,5.24,5.24,0,0,1-.58.22,1.56,1.56,0,0,1-.4.09A.56.56,0,0,1,76,1854q-.23-.18-.51-.45l-.65-.64-.78-.75-1.63-1.52c-.41-.38-.74-.68-1-.88a2.94,2.94,0,0,0-.54-.4.62.62,0,0,0-.32-.1l-.33,0-.21,0,0,1.47c0,.5,0,1,0,1.46v1.5A.31.31,0,0,1,69.93,1854Z"/><ellipse class="cls-10" cx="171" cy="1847.5" rx="56" ry="56.5"/><ellipse class="cls-11" cx="171.75" cy="1846.08" rx="50.3" ry="49.16"/><ellipse class="cls-12" cx="171.14" cy="1847.88" rx="48.46" ry="47.37"/><path class="cls-13" d="M131.63,1853.12a.26.26,0,0,1,.2-.1,1.67,1.67,0,0,1,.69.2,2.2,2.2,0,0,0,1,.19,1.16,1.16,0,0,0,.91-.38,1.22,1.22,0,0,0,.34-.82,3,3,0,0,0-.2-1,10.91,10.91,0,0,0-.49-1.17c-.19-.42-.41-.84-.63-1.29s-.45-.87-.64-1.28a11.84,11.84,0,0,1-.49-1.17,2.94,2.94,0,0,1-.2-.94,2.69,2.69,0,0,1,.28-1,7.17,7.17,0,0,1,.75-1.29,5.33,5.33,0,0,1,1.09-1.13,2,2,0,0,1,1.28-.48l.43,0a3.33,3.33,0,0,1,.55.1,2.67,2.67,0,0,1,.48.18c.14.08.21.17.21.28,0,.27,0,.45-.16.53a1.45,1.45,0,0,1-.74.14,2.92,2.92,0,0,0-2,.62,1.93,1.93,0,0,0-.6,1.44,3.36,3.36,0,0,0,.35,1.33l.78,1.74a20.09,20.09,0,0,1,.78,1.91,5.53,5.53,0,0,1,.36,1.89,5.62,5.62,0,0,1-.1.67,4,4,0,0,1-.39,1.05,3.66,3.66,0,0,1-.75,1,1.76,1.76,0,0,1-1.22.43,2.4,2.4,0,0,1-.48-.06,3.43,3.43,0,0,1-.57-.17,4.14,4.14,0,0,1-.51-.21.67.67,0,0,1-.26-.21c0-.13-.07-.25-.1-.36a1.53,1.53,0,0,1,0-.38A.43.43,0,0,1,131.63,1853.12Z"/><path class="cls-13" d="M146,1848s0,.1-.12.19a2.46,2.46,0,0,1-.28.28l-.32.24a.48.48,0,0,1-.26.1c-.63.06-1.21.09-1.74.1s-1,0-1.43,0a5.81,5.81,0,0,0,1,3.68,3.76,3.76,0,0,0,3.13,1.23,1.59,1.59,0,0,1,.61.08.35.35,0,0,1,.16.35c0,.11-.1.21-.31.32a2.6,2.6,0,0,1-1.11.17,6.93,6.93,0,0,1-2-.26,4.57,4.57,0,0,1-1.4-.68,3.28,3.28,0,0,1-.88-1,5.1,5.1,0,0,1-.5-1.18,6,6,0,0,1-.2-1.26c0-.42,0-.82,0-1.2a12.64,12.64,0,0,1,.39-3.41,6.9,6.9,0,0,1,1-2.23,3.64,3.64,0,0,1,1.45-1.2,4.21,4.21,0,0,1,1.7-.35,3.53,3.53,0,0,1,1.19.13.48.48,0,0,1,.31.48q0,.45-.39.45h-1.23a2.31,2.31,0,0,0-1,.2,2.1,2.1,0,0,0-.86.76,5.19,5.19,0,0,0-.66,1.54,11.81,11.81,0,0,0-.35,2.51,1.4,1.4,0,0,1,.4-.23,1.27,1.27,0,0,1,.54-.1h2.81C145.82,1847.74,146,1847.83,146,1848Z"/><path class="cls-13" d="M149.25,1844.08l-.4,0a.42.42,0,0,1-.38-.26,1.2,1.2,0,0,1-.12-.52.6.6,0,0,1,.22-.39.58.58,0,0,1,.4-.22l.55,0,.76,0,1.07.06q.63,0,1.5,0c.77,0,1.53,0,2.3-.08s1.53-.08,2.29-.08c.21,0,.31.09.31.28a.42.42,0,0,1-.09.22,1.84,1.84,0,0,1-.23.27,1.42,1.42,0,0,1-.3.25.76.76,0,0,1-.31.12,7,7,0,0,1-.72.06l-.83,0c-.28,0-.55,0-.81,0h-.67c-.07.4-.13.83-.18,1.3s-.09,1-.12,1.6-.06,1.27-.08,2,0,1.61,0,2.57a2.37,2.37,0,0,0,.09.65,1.52,1.52,0,0,0,.28.57,1.41,1.41,0,0,0,.55.42,2.34,2.34,0,0,0,.9.16l.36,0,.33,0a.16.16,0,0,1,.17.15,1,1,0,0,1,0,.28.58.58,0,0,1-.19.46,2.55,2.55,0,0,1-.64.31,2.33,2.33,0,0,1-.72.14,2.59,2.59,0,0,1-1.11-.22,2.84,2.84,0,0,1-.85-.58,2.67,2.67,0,0,1-.54-.78,1.85,1.85,0,0,1-.19-.78,4.17,4.17,0,0,1,.05-.53c0-.22.07-.5.11-.86s.07-.79.1-1.3,0-1.14,0-1.86,0-1.21,0-1.79,0-1.18-.12-1.8h-2.38Z"/><path class="cls-13" d="M159.68,1844.08l-.4,0a.41.41,0,0,1-.38-.26,1.2,1.2,0,0,1-.12-.52.6.6,0,0,1,.22-.39.58.58,0,0,1,.4-.22l.54,0,.77,0,1.07.06q.63,0,1.5,0c.76,0,1.53,0,2.3-.08s1.52-.08,2.29-.08c.21,0,.31.09.31.28a.42.42,0,0,1-.09.22,1.84,1.84,0,0,1-.23.27,1.42,1.42,0,0,1-.3.25.75.75,0,0,1-.32.12,6.73,6.73,0,0,1-.72.06l-.82,0c-.28,0-.55,0-.81,0h-.67c-.07.4-.13.83-.18,1.3s-.09,1-.12,1.6-.07,1.27-.09,2,0,1.61,0,2.57a2.37,2.37,0,0,0,.09.65,1.52,1.52,0,0,0,.28.57,1.41,1.41,0,0,0,.55.42,2.34,2.34,0,0,0,.9.16l.36,0,.32,0a.17.17,0,0,1,.18.15,1.41,1.41,0,0,1,0,.28.57.57,0,0,1-.18.46,2.55,2.55,0,0,1-.64.31,2.33,2.33,0,0,1-.72.14,2.67,2.67,0,0,1-1.12-.22,2.93,2.93,0,0,1-.84-.58,2.49,2.49,0,0,1-.54-.78,1.85,1.85,0,0,1-.19-.78,4.17,4.17,0,0,1,.05-.53c0-.22.07-.5.11-.86s.07-.79.1-1.3.05-1.14.05-1.86,0-1.21,0-1.79,0-1.18-.12-1.8h-2.38Z"/><path class="cls-13" d="M171.61,1846.28c0-.41,0-.79,0-1.15,0-.19,0-.34,0-.47a.61.61,0,0,0-.14-.34,1.46,1.46,0,0,1-.29-.4.82.82,0,0,1-.07-.33.61.61,0,0,1,.19-.35,3,3,0,0,1,.44-.43,3.61,3.61,0,0,1,.51-.36.91.91,0,0,1,.4-.15,1.06,1.06,0,0,1,.52.17q.3.18.3.3a1.31,1.31,0,0,1-.1.5,2.07,2.07,0,0,0-.11.6c-.06.6-.1,1.6-.14,3s0,3.33,0,5.78a5.59,5.59,0,0,1-.15,1.62.54.54,0,0,1-.52.39.58.58,0,0,1-.26-.05.49.49,0,0,1-.2-.25,2.71,2.71,0,0,1-.13-.62,10.39,10.39,0,0,1-.07-1.16c0-.5,0-1.13,0-1.88s0-1.67,0-2.74C171.64,1847.25,171.63,1846.68,171.61,1846.28Z"/><path class="cls-13" d="M179,1846c0-.25,0-.5,0-.76a1.49,1.49,0,0,0-.28-1,1.64,1.64,0,0,0-.63-.44l-.63-.23a.38.38,0,0,1-.28-.37c0-.1.08-.2.23-.31l.75-.59a1.26,1.26,0,0,1,.28-.18.6.6,0,0,1,.22,0,.4.4,0,0,1,.24.07,1.35,1.35,0,0,1,.28.27q1.22,1.41,2.49,2.82c.84.93,1.63,1.79,2.36,2.57s1.37,1.43,1.9,2,.9.9,1.1,1.06q.16-1,.24-2c0-.64.07-1.29.07-1.95s0-1-.06-1.39-.09-.73-.13-1-.08-.49-.12-.65a1.69,1.69,0,0,1-.06-.39.39.39,0,0,1,.17-.29,1.28,1.28,0,0,1,.39-.18,3.43,3.43,0,0,1,.48-.08l.46,0a.41.41,0,0,1,.39.18.71.71,0,0,1,.11.39,3.76,3.76,0,0,1-.11.68c-.07.31-.14.73-.23,1.26s-.16,1.19-.23,2-.1,1.75-.1,2.86c0,.34,0,.71,0,1.09s0,.8,0,1.24a.68.68,0,0,1-.19.43,2.44,2.44,0,0,1-.42.43,4.07,4.07,0,0,1-.47.33.81.81,0,0,1-.32.13c-.07,0-.12-.07-.17-.22l-.18-.57a6.73,6.73,0,0,0-.3-.78,3.57,3.57,0,0,0-.58-.85c-.54-.63-1.1-1.25-1.68-1.85s-1.11-1.17-1.62-1.69l-1.38-1.4q-.62-.61-.93-1c0,.57-.07,1.16-.1,1.77s-.05,1.19-.05,1.76,0,1.1,0,1.6,0,.91,0,1.25,0,.61,0,.91,0,.54,0,.7a.84.84,0,0,1-.08.34.42.42,0,0,1-.3.24l-.76.18a2.18,2.18,0,0,1-.49.06c-.26,0-.4-.09-.4-.29a.56.56,0,0,1,.11-.31q.1-.15.24-.39a2.89,2.89,0,0,0,.26-.62,4.57,4.57,0,0,0,.17-1l.25-5Z"/><path class="cls-13" d="M201,1850.07a1.39,1.39,0,0,1,.61-.08.4.4,0,0,1,.2,0c.06,0,.11.1.14.21a2.14,2.14,0,0,1,.06.53c0,.24,0,.58,0,1a18.78,18.78,0,0,0,.1,2.21,14.14,14.14,0,0,1,.09,1.44.63.63,0,0,1-.11.41.71.71,0,0,1-.49.12.33.33,0,0,1-.21-.06.62.62,0,0,1-.17-.24,2.1,2.1,0,0,1-.16-.5c0-.21-.1-.5-.15-.85a.58.58,0,0,0-.63-.53l-.3,0-.51.08-.63.08a4.59,4.59,0,0,1-.62,0,4.67,4.67,0,0,1-2.37-.53,4.42,4.42,0,0,1-1.47-1.29,4.79,4.79,0,0,1-.76-1.6,5.76,5.76,0,0,1-.22-1.47,7.91,7.91,0,0,1,.4-2.49,6,6,0,0,1,1.24-2.18,6.33,6.33,0,0,1,2.13-1.56,7.31,7.31,0,0,1,3.09-.6,5.05,5.05,0,0,1,1.82.26.85.85,0,0,1,.62.8.5.5,0,0,1-.12.3,1.25,1.25,0,0,1-.3.26,1.86,1.86,0,0,1-.33.19.89.89,0,0,1-.27.07.44.44,0,0,1-.3-.13c-.11-.08-.31-.25-.62-.53a1,1,0,0,0-.4-.23,1.87,1.87,0,0,0-.45,0,3.43,3.43,0,0,0-1.93.6,6.4,6.4,0,0,0-1.6,1.52,7.49,7.49,0,0,0-1.08,2,5.88,5.88,0,0,0-.4,2.07,5.57,5.57,0,0,0,.24,1.79,2.43,2.43,0,0,0,.67,1.07,2.25,2.25,0,0,0,1,.52,4.67,4.67,0,0,0,1.21.14,3.72,3.72,0,0,0,1-.13,3.61,3.61,0,0,0,.82-.34,2.2,2.2,0,0,0,.54-.44,1.17,1.17,0,0,0,.24-.49l.16-1.23A.37.37,0,0,1,201,1850.07Z"/><path class="cls-13" d="M206.17,1853.12a.28.28,0,0,1,.2-.1,1.63,1.63,0,0,1,.69.2,2.2,2.2,0,0,0,1,.19,1.14,1.14,0,0,0,.91-.38,1.18,1.18,0,0,0,.34-.82,3,3,0,0,0-.2-1,10.91,10.91,0,0,0-.49-1.17c-.19-.42-.4-.84-.63-1.29s-.44-.87-.64-1.28-.36-.81-.49-1.17a2.94,2.94,0,0,1-.2-.94,2.9,2.9,0,0,1,.28-1,7.17,7.17,0,0,1,.75-1.29,5.33,5.33,0,0,1,1.09-1.13,2.06,2.06,0,0,1,1.28-.48l.43,0a3.33,3.33,0,0,1,.55.1,2.67,2.67,0,0,1,.48.18c.14.08.21.17.21.28,0,.27-.05.45-.16.53a1.45,1.45,0,0,1-.74.14,3,3,0,0,0-2,.62,1.93,1.93,0,0,0-.6,1.44,3.55,3.55,0,0,0,.35,1.33l.78,1.74c.29.62.55,1.25.79,1.91a5.75,5.75,0,0,1,.35,1.89,4,4,0,0,1-.1.67,4,4,0,0,1-.39,1.05,3.66,3.66,0,0,1-.75,1,1.76,1.76,0,0,1-1.22.43,2.4,2.4,0,0,1-.48-.06,3.74,3.74,0,0,1-.57-.17,3.42,3.42,0,0,1-.5-.21.65.65,0,0,1-.27-.21c0-.13-.07-.25-.1-.36a1.53,1.53,0,0,1,0-.38A.43.43,0,0,1,206.17,1853.12Z"/><path class="cls-3" d="M241.84,1734a83.59,83.59,0,0,0-51.6-16.84,85.11,85.11,0,0,0-33.87,7.76,82.34,82.34,0,0,0-19.15,12.58c-19.46,17.91-18.7,50.64-21.48,67C105,1868,81.37,1892.14,98.31,1902.73c6.58,4.11,11.53.21,52.42-2.86,45.07-3.4,46.3.57,72.51-3.52,37.25-5.83,42.95-15.14,58.12-11.07,9.37,2.51,12.91,8.52,38.31,45.71,18.62,27.26,21.9,39.35,32.24,40s16.6-10.84,38.32-36.44c37.41-44.08,46.36-42.56,55.65-63.28a88.51,88.51,0,0,0,6.62-48.52h0s-1.51-7.23-3.18-14.12c-2-8.45-34.78-29.16-37.42-30.85-34.32-21.85-41.86-50.16-43.37-49.59-.47.18,5.61,16.35,26.4,32,10.92,8.23,13.78,6.9,32.36,19.41,8,5.39,17.7,11.93,28,21.79,13.81,13.16,11.58,15.84,20.27,20.9,12.1,7,30.37,10,46.18,6.59,22.2-4.71,32.27-20.33,38.88-30.11,16.54-24.46,2-33.12,16.52-60.11,12.62-23.38,31.38-31.37,25.48-41.2-4-6.6-14-5.62-34.5-12.28-35.8-11.63-32.65-23.5-59.26-30.75-34.3-9.34-59.09,5.07-70.32-5.78-6.1-5.89-.9-12.16,0-29.18.58-11.16-1.06-19.79-8.69-44.93-20.1-66.33-30.16-99.5-43.34-102.56-29.76-6.91-88.62,31.86-106,75.24-8.33,20.81-6,39.94-20.94,44.15-11.94,3.37-20.09-8-47.85-18-37.41-13.41-73.58-11.29-100.22-9.72-33.44,2-51.34,3-60.12,12.75C38.72,1590.51,54,1613,74.87,1642.84c12.91,18.45,33,43.39,63.63,70.49"/><path class="cls-7" d="M294.51,724.1c-8.62,93.8-11.26,111.13-12.16,111.09-2.34-.09,4.95-118,2.7-118.09-2.07-.08-9.89,99.16-12.16,99.08s3.74-109,1.35-109.09-9.88,97.16-12.17,97.08,3.29-103,1.35-103.09c-2.27-.08-12.31,142.2-14.86,142.12s4.62-148.06,2.7-148.12S240.37,847.27,237.75,847.2s3-152.08,1.35-152.12-8.65,155.17-10.81,155.13,2.63-157.08,0-157.13S217.91,848.25,216.12,848.2s4.36-157.08,2.7-157.12S210.3,833.24,208,833.19s2-142.07,0-142.11-7.53,127.14-9.46,127.1,1.59-128.08,0-128.11-6,120.13-8.11,120.1-.19-121.09-1.35-121.1-3.28,113.1-5.41,113.1-2.94-115.1-4.05-115.1-.76,102.07-2.7,102.09-4.48-104.11-6.76-104.09-2,96.07-4,96.08-4.3-91.09-5.41-91.08.39,77-1.35,77.07-5.29-75.1-6.76-75.06.7,65-1.35,65-6.19-62.11-8.11-62c-1.77,0,0,53-1.35,53s-4.26-48.07-5.41-48,.86,41.94-1.35,42-6.79-39.12-8.11-39,2.29,33.84,0,34-7.82-30.17-9.46-30c-1.2.11,3.65,22.66,1.35,23s-17.73-19.82-10.81-39c11.79-32.75,79.58-37.76,83.79-38a158.09,158.09,0,0,1,73,13"/><path class="cls-7" d="M183.68,730.11c-8.61,93.79-11.26,111.12-12.16,111.09-2.34-.1,5-118,2.7-118.1-2.06-.08-9.89,99.17-12.16,99.08s3.75-109,1.35-109.09-9.87,97.17-12.16,97.08,3.29-103,1.35-103.08c-2.28-.08-12.31,142.2-14.87,142.11s4.63-148.06,2.71-148.12-10.89,152.2-13.52,152.13,3-152.09,1.35-152.13-8.64,155.17-10.81,155.13,2.64-157.07,0-157.13S107.09,854.25,105.3,854.21s4.35-157.09,2.7-157.13S99.47,839.25,97.19,839.2s2-142.08,0-142.12-7.53,127.14-9.46,127.1,1.59-128.07,0-128.1-6,120.13-8.11,120.1-.2-121.09-1.35-121.1S75,808.18,72.86,808.17s-3-115.1-4-115.09S68,795.14,66.1,795.16s-4.47-104.1-6.76-104.08-2,96.06-4.05,96.07-4.3-91.08-5.41-91.07.39,77-1.35,77.06-5.28-75.09-6.76-75.06.7,65-1.35,65-6.19-62.1-8.11-62,0,53-1.35,53-4.26-48.07-5.4-48,.85,41.94-1.36,42-6.79-39.11-8.1-39,2.28,33.84,0,34-7.83-30.18-9.47-30c-1.19.11,3.66,22.67,1.36,23s-17.73-19.81-10.82-39C9,664.33,76.75,659.32,81,659.05a158.07,158.07,0,0,1,73,13"/><path class="cls-7" d="M17.14,142.51C13.56,81.41,7.87,2.35,1.4,2.38c-8.78.05-13.51,145.47-18,145.32C-20.85,147.56-19.88,6.62-20-8c9.38.4,23.4,1.06,40.47,2.08C37-4.94,47.35-4.16,52-3.85c33.71,2.24,63.66-.91,77.57-2.07C172.94-9.56,230-8.11,254.34-3.85c103.34,18.07,157.1,180.68,194.48,293.76,34.29,103.72,45.92,190.59,43.84,191-3.07.59-43.34-187.56-55.08-185.8-11.37,1.7,11,180.43,9,180.61s-23.07-191.37-28.1-191c-4.74.35,7.78,170.84,2.25,171.27-5.72.44-23.9-181.11-31.48-180.62s.63,176.35-2.25,176.46-11.7-179.69-16.86-179.57c-4.92.12-3.52,164-6.75,164-3.49.05-6.9-192-13.49-192-6.35,0-11,178.61-15.73,178.54-5-.07-3.73-196.09-9-196.18-5.06-.09-12.35,180.69-14.61,180.61s4.32-195,1.12-195.14-12.9,181.76-15.74,181.65,4-188.86,2.25-188.92-9.86,180.69-12.36,180.61S290.3,184.29,284.69,184c-5.41-.25-19.49,187-21.36,186.84s12.15-198,9-198.26c-2.46-.17-12.57,119.64-18,119.37s-2.75-123.49-4.5-123.52S245.07,279.55,242,279.53c-1.14,0-1.47-15.24-4.49-52.94-2.25-28.06-5.26-65.44-7.87-65.4-1.15,0-1.86,7.28-2.25,11.42-2.86,30-6.77,97.32-2.25,97.57,4.88.28,29.92-77-6.74-116.25-9.93-10.63-21.94-15.87-31.46-20-40.47-17.64-78.33-7.77-87.82-3.92-3.32,1.35-6.35,3-6.35,3a45.07,45.07,0,0,0-11.6,7.67,60.8,60.8,0,0,0-5.42,5.62s-.67.74-1.25,1.44C64.84,159.37,67.24,184,66.6,184c-3.18.06-6-47.8-9-47.75-2.61.05-3.14,37.33-5.62,37.37-2.78,0-5.06-46.75-7.87-46.71-2.55,0-3.69,38.42-5.62,38.41-2.19,0-.69-49-7.87-49.83C27.07,115.09,22.2,126.56,17.14,142.51Z"/><path class="cls-8" d="M105.68,125.61c15.39-1.86,27.25,2.32,40.54,7a124.45,124.45,0,0,1,35.14,19c.33-.68,7.88-15.76,25.68-18,21.76-2.76,41.71,15.82,39.2,27-1,4.43-5.62,8-14.87,15-9.58,7.3-17.13,10.67-16.22,12,1.46,2.15,20.6-7.1,29.74-2,8.51,4.75,7.07,21.23-2.71,26-6.34,3.1-14.41.43-17.57,4-2.4,2.72-1.77,7.38,1.35,9,4.63,2.42,11.95-3.24,16.22-1,1.5.78,1.87,2.13,1.35,14-.32,7.44-.57,9.43,0,13a43,43,0,0,0,2.71,9c5.86,13.54,23.35,19.12,29.73,31,2.8,5.23,1,12.49-2.7,27-4.66,18.44-12,30.19-20.28,43-10.82,16.89-15.33,18.74-18.92,19-5.67.44-11.52-4-23-13-12.6-9.88-18.9-14.81-21.63-21-1.3-3-.88-10.7,0-26,.76-13.07,1.27-17.64,0-25-1.14-6.65-4-17.08-6.75-17-3,.07-5.79,12.5-9.47,29-2.35,10.57-2.85,14.94-6.75,16-2.74.75-6.34-.34-20.28-10-15.79-11-23.69-16.43-24.32-20-1.38-7.77,6-16.27,18.49-30.54l.43-.49c9.92-11.25,16-12.59,16.22-17,.08-1.45-.58-1.11-4.06-7-5.45-9.23-4.76-11.62-6.76-12-4.6-.9-12.12,11.11-28.38,31-12.64,15.48-16.17,18.11-20.27,18-2.23-.06-6.27-1-20.27-21-9-12.9-13.52-19.34-13.52-23,0-15.83,22.56-29.47,32.44-34,2.82-1.3,9.09-4.54,21.62-11,5.58-2.88,6.8-3.54,8.11-5,7.26-8.07-.13-21,0-21s.56,1.87,1,3.19c1.24,4.14,2.18,5.63,1.74,5.81-.83.36-3.77-5.21-8.1-7-15.22-6.29-52.43,31.83-63.53,27-7.12-3.08.39-22.15,2.71-28,3-7.56,5.6-14.24,13.51-21A60.81,60.81,0,0,1,105.68,125.61Z"/><path class="cls-9" d="M57.81,166.72c17.14-4.07,47.5-11.27,51.35-6,1.49,2-2,4.51-13.51,19-11.76,14.75-11.41,16.2-10.81,17,5.28,7.24,47.95-11.69,68.92,1,10.64,6.43,13.3,19.55,8.11,23-5.68,3.79-17.82-6-35.14-3-12.93,2.21-24.69,10.82-23,16s15.82,3.68,41.89,11c16.41,4.61,29,8.15,36.5,17,10,11.91,7.17,29.14,0,31-6,1.56-11.38-8.33-32.44-19-15.49-7.86-33.26-13-35.14-11-3.52,3.78,57,23.62,63.52,59.05.81,4.38-4.85,19.66-16.22,50-12.59,33.68-17.19,44.86-24.32,45s-8.3-11-25.68-24c-15.65-11.69-25.61-10.72-33.79-17C49,353.53,108.84,287.64,98.35,282.82c-4.76-2.19-22.33,8.64-33.79,23-20.48,25.71-10.21,48.75-20.27,51-10.41,2.36-38.73-18.33-37.84-41,1.37-35,71.49-53.66,63.52-68-4-7.14-25.27-9.83-39.2-5-19.83,6.87-20.6,27.56-27,27-7.46-.64-8.62-28.74-9.46-49-1-24.11,1.1-27.78,2.71-30C5,179.44,22.74,175.05,57.81,166.72Z"/><path class="cls-14" d="M8.58,1954.62c-13.85-9.55-23-26.95-26.07-101.61-2-49.13-4.16-189.72,15.87-191.19,26.16-1.92,64,235.44,66.89,234.89,2.23-.42-27.56-139.59-48.75-303.72C-4.8,1427.82-7.11,1317.16-1.62,1316.58c10.81-1.12,48.32,425.19,117.91,427.18,39.15,1.12,38.52-133.5,161-232.71,93.25-75.53,211.42-92.9,218.81-78.66,7,13.46-87.65,49.89-200.67,166.06-11.52,11.85-52.74,67.49-135.17,178.77-2.94,4-21.86,29.7-17.89,33.18,6.7,5.9,59.66-68.51,146.25-98.32,94.55-32.55,197.1-.9,197.28,12,.14,10.55-67.88,18.52-66.89,25.13.73,4.9,37.77-1.14,85,9.84,26.28,6.1,70.34,20.85,69.16,31.68-2.08,19.07-139.55-20.31-269.84,44.79-59.26,29.61-69.64,57.16-158.73,96.14C93.08,1954.24,40.41,1976.55,8.58,1954.62Z"/><path class="cls-4" d="M73.48,1826.92c-8.9-16.77,6-32.83,2.18-66-.26-2.3-1.2-9.86.35-10.61,2.64-1.29,8.9,18.64,13.35,16.94,3.38-1.29,4.57-14.66,5.45-24.68.17-1.91.26-3.28.37-5.22.79-12.8.44-19.87.58-23.52.64-16.28,14-34.37,17.34-33.71,3.83.76-2.44,27-1.82,27,.29,0,1.47-5.75,6-26.2l.17-.79c4.88-22.17,5.68-24.92,6.3-26.91a107.9,107.9,0,0,1,5.46-13.58c2.39-5.21,10.71-23.31,14.29-22.9,4.19.49-.78,26,1.46,26s8.75-24,11.69-34.79c3.81-13.93,3.19-13.37,4.9-18.33,7.23-21,20.74-38.38,23-37.47,2.93,1.16-10.89,33.07-8.53,33.74.24.07.56-.21.76-.39,5.59-5.29,20.35-37.39,20.88-37.33s-2.49,28.29-10.19,41.85c-.42.73-1.8,3.09-1.07,4.24,1.89,2.94,15.13-6.15,17.26-3.21,1.57,2.15-3.68,9.64-5.79,12.66-4.68,6.67-8.44,9.31-8,10.48,1,2.34,16.17-8.14,20.54-4.21s-6.66,18.66-15.41,45.32c-7.33,22.36-3.18,23.13-11.77,47.6a222.73,222.73,0,0,1-14.57,34.23c-6.65,12.4-8.88,13.52-11.85,21.88-4.81,13.57-4.27,25.67-3.87,33,.84,15.51,4.49,16.94,2,24.46-4.43,13.27-19.79,20.81-23.93,22.85a48.34,48.34,0,0,1-36.26,2.88C89.37,1840.44,78.92,1837.17,73.48,1826.92Z"/><path class="cls-6" d="M11.52,526.94c14.88-11.77,41.33-16.32,50-10,2.3,1.67,3.41,4.15,1.35,24-1.79,17.2-3.81,26.83-2.7,27,2.25.39,1.43-40.85,32.43-61.05,42.13-27.46,125-4.29,168.94,8C322,531.82,370.63,558.19,365.62,571c-2.29,5.85-14.78,6.2-23,18-6.12,8.82-7.29,20.32-2.71,22,7.85,2.92,22.7-26.61,45.95-31C444.73,568.81,557,718.43,533.21,733.11c-17.5,10.79-102.83-55-241.92-90.07-5.07-1.28-13.77-3.47-25.68-6-29.76-6.34-95.26-20.31-173-16-55.39,3.06-78.1,13.25-91.9,2-7.17-5.84-6.23-19.32-4-46C-.09,536.94,8.18,529.58,11.52,526.94Z"/><path class="cls-2" d="M51.21,583c20.24-5.94,46.78-1.69,51,6.76,1.11,2.24.69,4.83-12.63,22.15C78,626.9,70.65,635,71.55,635.5c1.8,1.07,24.85-36.48,64.53-45C190,579,251.57,626.19,284.23,651.2c44.88,34.37,73.69,73.6,61.79,83.59-5.45,4.56-16.94.93-31.16,9-10.62,6-18.3,16.07-15.14,19.06,5.41,5.12,35.86-16.89,59.44-13.53,59.64,8.49,74.9,179.3,44.92,185-22.05,4.23-61.29-82.21-166.83-157.94-3.84-2.75-10.45-7.48-19.76-13.54-23.25-15.15-74.42-48.49-147.2-69.18C18.43,679-8,681-14,666.47c-3.11-7.55,5.51-19.44,22.88-42.91C34.94,588.38,46.66,584.34,51.21,583Z"/><path class="cls-9" d="M329.57-17.46c11.8-2,32.68-5.46,34.41-1.52.66,1.51-2,3.09-11.68,12.73-9.88,9.81-9.87,10.86-9.61,11.47,2.36,5.4,33-5.73,44.82,4.36,6,5.12,5.73,14.54,1.83,16.72-4.28,2.38-10.74-5.16-22.47-4-8.77.88-17.74,6.34-17.4,10.11s9.77,3.45,25.68,10c10,4.13,17.7,7.31,21.24,14,4.76,9,.31,21-4.66,22-4.11.79-6.17-6.5-18.3-15.18-8.92-6.38-19.74-11-21.27-9.65C349.3,56,385.77,73.26,384.73,98.68c-.13,3.14-6.12,13.65-18.1,34.54-13.28,23.16-18,30.83-22.64,30.58s-3.76-8.25-13.14-18.36c-8.45-9.1-15.09-8.93-19.49-13.83-15.59-17.36,33.34-60.81,27.22-64.78-2.78-1.8-15.87,4.93-25.5,14.5-17.23,17.11-14,34-20.9,35-7.14,1.12-22.51-15-18.52-31,6.17-24.71,54.7-34.18,51.67-44.79-1.51-5.26-15-8.29-24.82-5.61-14,3.81-17.58,18.41-21.69,17.68-4.77-.84-1.31-20.78,1.2-35.2,3-17.11,4.89-19.59,6.27-21.1C293.24-11.26,305.45-13.43,329.57-17.46Z"/><path class="cls-9" d="M310.21-18.48c6.13-6.54,17-18.11,22.69-16.07,2.19.78,2.13,3,6.22,14.13,4.15,11.27,5.35,12,6.23,12.32,7.82,2.81,16.93-18.45,36.78-16.42,10.06,1,20.62,7.82,20.33,11.07-.32,3.56-13.5,1-20.49,7C376.74-2,376.6,5.74,381.13,8.26S392,6.46,410.76,4.19c11.81-1.43,20.88-2.53,31,.66,13.57,4.29,24.12,14.78,21.68,17.61-2,2.36-11.78-1.92-30.27-2.79-13.6-.65-26.51.8-26.09,2.41.8,3,46.33-.63,74.52,17.86,3.49,2.29,11.2,12.36,26.48,32.41,16.95,22.23,22.35,29.71,18.75,31.57s-12.06-4.22-30.23-7.3c-16.36-2.78-20.89.22-29.58-1.33-30.84-5.54-45.58-57.7-54.44-57.85-4-.07-5.65,10.41-1.6,21.4,7.25,19.65,28.73,30.2,25.06,34S403,92,387.55,78.85c-23.76-20.23-.09-48.09-14.31-54.3-7.07-3.08-20.1.65-24,6.82-5.58,8.79,8.48,20.74,4.74,22-4.35,1.48-24.6-14.19-39.23-25.51-17.37-13.45-18.83-16-19.56-17.72C291.48,1.75,297.67-5.11,310.21-18.48Z"/><path class="cls-7" d="M1076.91,940.39c3.37-61,8.74-140,14.84-140,8.28,0,12.73,145.35,17,145.2,4-.13,3.1-141,3.18-155.57-8.85.4-22.06,1.06-38.16,2.07-15.49,1-25.3,1.77-29.67,2.08-31.78,2.23-60-.91-73.13-2.08-40.9-3.63-94.66-2.18-117.63,2.08C755.87,812.2,705.19,974.68,670,1087.66c-32.33,103.64-43.29,190.44-41.33,190.84,2.9.6,40.86-187.41,51.93-185.65,10.72,1.7-10.35,180.28-8.48,180.46s21.75-191.2,26.49-190.83c4.47.35-7.33,170.7-2.12,171.13,5.39.44,22.53-181,29.68-180.47s-.59,176.21,2.12,176.32,11-179.55,15.9-179.43c4.63.12,3.31,163.83,6.35,163.87,3.3,0,6.51-191.84,12.72-191.87,6,0,10.37,178.46,14.84,178.39,4.68-.07,3.51-195.93,8.48-196,4.77-.09,11.65,180.54,13.78,180.46s-4.07-194.86-1.06-195,12.16,181.61,14.83,181.5-3.8-188.7-2.12-188.76,9.3,180.54,11.66,180.46-4.22-200.95,1.06-201.21c5.1-.24,18.37,186.82,20.14,186.69s-11.45-197.87-8.48-198.1c2.31-.17,11.84,119.54,17,119.28s2.59-123.4,4.23-123.42,4.5,111,7.42,111c1.08,0,1.39-15.22,4.24-52.89,2.13-28,4.95-65.39,7.42-65.34,1.09,0,1.75,7.26,2.12,11.4,2.69,30,6.38,97.25,2.12,97.5-4.59.27-28.2-76.93,6.36-116.16,9.36-10.63,20.68-15.86,29.65-20,38.15-17.63,73.85-7.77,82.79-3.93,3.13,1.35,6,3,6,3a42.49,42.49,0,0,1,10.94,7.67,60.07,60.07,0,0,1,5.11,5.61s.63.74,1.17,1.44c9.08,11.67,6.83,36.29,7.42,36.3,3,.06,5.69-47.76,8.48-47.71,2.46.05,3,37.3,5.3,37.34,2.62,0,4.77-46.71,7.42-46.67,2.4,0,3.47,38.39,5.3,38.37,2.06,0,.65-48.91,7.42-49.78C1067.55,913,1072.15,924.45,1076.91,940.39Z"/><path class="cls-2" d="M1049.2,681.55c-14.26-6.56-36.9-6.24-43.05-.42-1.62,1.55-2.14,3.52,2.85,17.79,4.31,12.35,7.58,19.12,6.69,19.42-1.8.6-7.92-29.73-36.92-40.24-39.4-14.29-104.16,14.15-138.52,29.24-47.2,20.72-83.15,46.77-76.89,55.45,2.86,4,13.25,2.5,22,10,6.52,5.61,9.38,13.88,5.87,15.76-6,3.22-23.18-16.35-43.16-16.37-50.54-.06-118.79,125.1-96.67,132.56,16.26,5.49,76-54.5,185.39-99.46,4-1.63,10.82-4.44,20.26-7.95,23.59-8.76,75.5-28.06,140.56-35.66,46.36-5.42,66.83-1.1,76.4-11.25,5-5.27,2-15-4.24-34.29C1060.46,687.27,1052.4,683,1049.2,681.55Z"/><path class="cls-3" d="M1076.37,1078.5c-7.33-59.52-20.28-106.24-22-106-2.78.37,19.38,116.39,10.44,118s-44.55-111.47-46.43-111,35.08,104,23.22,108c-1.6.53-3.69-1.13-7.3-4-9.74-7.71-11-16.56-17.08-30-2.65-5.83-6.19-11.33-9.29-17-15.26-27.94-38.88-56.88-40.63-56-1.49.75,14.52,22.58,32.51,61,11.24,24,22.52,53,19.73,54-2.43.91-13.16-20.33-37.15-53-23.39-31.86-45.43-55.59-46.43-55s19.2,24.22,41.79,62c15.76,26.35,30.44,55.81,27.86,57-2.34,1.08-16.54-22.2-46.43-57-28.6-33.29-52.88-55.37-53.4-55s25.59,25,53.4,64c17,23.87,38.83,58.88,33.66,62-1.26.76-4.25-.28-14.92-8.36-27.47-20.79-43.12-40.64-43.12-40.64-28.92-36.69-63.41-59.34-63.85-59s29.49,26.48,61.53,67c16.18,20.46,34.16,46.2,31.34,48-2.34,1.5-16.76-15-44.11-37-37.22-29.94-68-45.6-68.49-45s37.24,22.16,70.81,62c3.82,4.53,24.92,29.58,19.73,34-.43.37-2.46,1.8-13.08-2.5a96.56,96.56,0,0,1-33.35-22.5c-25.47-27.56-70.69-37.18-70.81-37s42.47,13.91,73.13,49c11.84,13.55,22.07,30.47,18.58,33s-18.34-11.1-46.44-28c-37-22.26-68-32.73-68.49-32s32.84,14.2,68.49,43c11.86,9.58,30.49,26.13,27.86,29-2,2.18-15.12-4.78-31.34-12-51.49-22.94-89.52-28.64-89.38-29s46.51,7.82,85.9,37c2.85,2.11,19.79,14.8,17.41,18-2.09,2.83-17.62-3.89-38.31-10-43.4-12.83-76.56-13.27-76.61-13s37.74,1.58,76.61,21c16.18,8.08,33.29,19.67,31.35,23-1.79,3.06-18.51-2.9-49.92-9-38.7-7.51-67.15-8.91-67.33-8s29.55,3.46,65,18c13.09,5.37,34,15.28,32.5,19-.89,2.16-9.06,1.19-18,.6-41.62-2.74-74.68-11.25-74.91-10.6-.37,1,79.49,19.93,77.77,29-.44,2.35-6.28,3.6-18.44,4.82a415.78,415.78,0,0,1-86-.82c0-.08,93.53,6.24,95.18,21,1.83,16.27-108.3,39-108,40s105.94-28.78,110.28-20c1.88,3.81-15.74,14-41.79,29-30.42,17.55-56.91,30-56.88,30s31.91-14.14,58-27a151.34,151.34,0,0,1,24.37-10c6.72-2,8.38-2,13.93-4,14.59-5.22,21-11.87,22.06-11,2,1.54-17.79,23-33.66,40-25.36,27.19-35.56,37.42-34.83,38,.94.75,20.08-14.69,39.47-33,37.66-35.57,53.08-60.12,58-58,6.55,2.8-14.16,48.58-12.77,49,.92.27,12-19.08,22.06-46,5.94-16,8.73-27.14,12.77-27,4.36.15,6.85,13.4,7,14,3.54,19.53-7.34,35.87-7,36s10.49-14.34,17.41-39c6.16-22,5.56-37,8.12-37,2.38,0,5.34,12.74,5.81,25,.78,20.16-5.32,34.85-4.64,35s7.7-14.18,11.6-35c5.21-27.78,2.36-46.81,4.65-47,2-.17,6.44,14.47,8.12,31,3.13,30.61-4.66,52.79-3.48,53s10.56-22.92,15.09-55c3.71-26.28,2.11-43.83,4.64-44s6.72,15.37,8.13,31c2.53,28-4.81,49.77-3.48,50,.56.1,1.34-5.68,5.41-14.76,3.49-7.78,6.57-11.66,9.68-20.24a62.18,62.18,0,0,0,2.32-8,66.69,66.69,0,0,0,1.16-8c1-12.7-1.44-45.57,1.16-46,2-.33,11.31,18.1,12.77,42,1.89,30.93-10.39,53.71-9.29,54s13.45-22.06,19.74-54c5.34-27.11,3.1-44.82,5.8-45,2.91-.19,9.4,20.17,9.29,43-.14,28.5-10.51,48.67-9.29,49s11.81-19.14,18.58-46c6.55-26,5.45-42.92,8.12-43,3-.08,7.15,20.83,8.13,41,1.07,22.23-2,37.9-1.16,38,1.92.24,14.64-83.33,19.73-83,4.72.31-.63,89,0,89S1089.44,1184.51,1076.37,1078.5Z"/><path class="cls-14" d="M1068.81,1558.74c12.19-9.83,20.26-27.76,23-104.67,1.78-50.61,3.66-195.43-14-196.94-23-2-56.35,242.53-58.9,242-2-.44,24.27-143.79,42.92-312.86,18.78-170.14,20.81-284.14,16-284.73-9.53-1.16-42.55,438-103.82,440-34.47,1.16-33.92-137.52-141.76-239.71-82.11-77.81-186.15-95.69-192.66-81-6.15,13.86,77.18,51.4,176.69,171.06,10.15,12.2,46.44,69.52,119,184.15,2.59,4.08,19.25,30.59,15.76,34.18-5.91,6.07-52.53-70.57-128.78-101.28-83.24-33.53-173.54-.92-173.69,12.38-.13,10.86,59.76,19.06,58.89,25.88-.64,5-33.26-1.17-74.87,10.13-23.13,6.28-61.93,21.48-60.89,32.64,1.83,19.64,122.87-20.92,237.58,46.14,52.18,30.5,61.33,58.88,139.76,99C994.42,1558.34,1040.79,1581.33,1068.81,1558.74Z"/><path class="cls-4" d="M967.66,1411.65c7.6-12.94-3.16-24.67,1.23-49.86.3-1.75,1.36-7.49.19-8-2-.9-7.68,14.35-11,13.19-2.55-.88-2.88-11-3.12-18.51,0-1.44,0-2.48,0-3.94,0-9.65.54-15,.59-17.77.22-12.29-9.3-25.6-11.89-25-3,.68.69,20.33.21,20.34-.22,0-.88-4.3-3.45-19.64l-.1-.59c-2.78-16.63-3.28-18.69-3.67-20.18a72.62,72.62,0,0,0-3.62-10.11c-1.61-3.87-7.23-17.33-10-16.92-3.25.49-.54,19.6-2.27,19.69s-5.69-17.92-7.49-26c-2.32-10.43-1.87-10-3-13.73-4.65-15.65-14.3-28.44-16.11-27.69-2.31,1,6.94,24.7,5.09,25.28-.18.06-.42-.15-.56-.28-4.09-3.84-14.06-27.7-14.47-27.64s.67,21.32,6,31.36c.29.54,1.25,2.29.63,3.17-1.58,2.29-11.39-4.21-13.17-1.94-1.3,1.68,2.42,7.19,3.91,9.41,3.32,4.92,6.1,6.81,5.68,7.7-.87,1.81-12.12-5.69-15.66-2.6s4.31,13.92,9.89,33.84c4.67,16.7,1.43,17.4,7,35.66a150.73,150.73,0,0,0,9.73,25.47c4.58,9.2,6.26,10,8.18,16.22,3.11,10.12,2.16,19.29,1.53,24.85-1.33,11.75-4.21,12.94-2.6,18.56,2.84,9.91,14.35,15.18,17.46,16.6a37.66,37.66,0,0,0,27.84,1.16C954.81,1422.32,963,1419.54,967.66,1411.65Z"/><path class="cls-7" d="M1137.89,402.28c-15,121-19.65,143.4-21.22,143.35-4.09-.12,8.64-152.28,4.71-152.39-3.6-.1-17.26,128-21.22,127.85-4.15-.11,6.54-140.65,2.36-140.76-4-.11-17.23,125.37-21.23,125.26s5.74-132.92,2.36-133c-4-.1-21.48,183.49-25.94,183.38s8.07-191.06,4.72-191.13-19,196.39-23.58,196.3,5.24-196.25,2.36-196.3S1026.12,565.06,1022.34,565s4.6-202.68,0-202.75-18.1,200.23-21.22,200.17,7.6-202.7,4.71-202.76S991,543.11,987,543.05s3.55-183.33,0-183.39c-3.37,0-13.14,164.06-16.51,164s2.77-165.26,0-165.3-10.55,155-14.15,155S956,357.1,954,357.08,948.23,503,944.52,503s-5.14-148.52-7.08-148.51-1.33,131.7-4.71,131.72-7.81-134.32-11.79-134.3-3.58,124-7.08,124-7.49-117.53-9.43-117.52c-1.78,0,.68,99.4-2.36,99.44s-9.22-96.9-11.79-96.85c-2.39,0,1.22,83.87-2.36,83.94s-10.79-80.14-14.15-80.07c-3.09.07,0,68.4-2.35,68.45s-7.44-62-9.44-62,1.5,54.11-2.36,54.24-11.85-50.47-14.14-50.37,4,43.67,0,43.91c-3.8.23-13.65-38.94-16.51-38.74-2.09.14,6.37,29.24,2.36,29.7s-30.94-25.57-18.87-50.37c20.57-42.25,138.85-48.72,146.21-49.07A361.47,361.47,0,0,1,1086,327.38"/><path class="cls-7" d="M1026.14,363.12c2.77-30.5,7.18-70,12.19-69.94,6.79,0,10.45,72.6,13.92,72.53,3.3-.07,2.55-70.41,2.61-77.71-7.26.2-18.11.53-31.33,1-12.72.49-20.77.88-24.36,1-26.09,1.12-49.27-.45-60-1-33.59-1.82-77.73-1.09-96.59,1-80,9-121.6,90.18-150.54,146.61-26.54,51.77-35.54,95.12-33.93,95.32,2.38.3,33.55-93.61,42.63-92.73,8.81.85-8.49,90.05-7,90.14s17.86-95.51,21.76-95.32c3.67.17-6,85.26-1.74,85.48s18.49-90.39,24.36-90.14-.48,88,1.74,88.06,9.06-89.68,13-89.62c3.81.06,2.73,81.83,5.23,81.85,2.7,0,5.34-95.82,10.44-95.83,4.92,0,8.51,89.13,12.18,89.1,3.84,0,2.88-97.86,7-97.91,3.92-.05,9.57,90.18,11.31,90.14s-3.34-97.33-.87-97.39,10,90.71,12.18,90.65-3.12-94.25-1.74-94.28,7.63,90.18,9.58,90.14-3.47-100.37.87-100.5,15.08,93.31,16.53,93.25-9.4-98.84-7-98.95c1.9-.09,9.72,59.71,13.92,59.58s2.13-61.64,3.48-61.65,3.69,55.44,6.09,55.43c.89,0,1.14-7.61,3.48-26.42,1.75-14,4.07-32.66,6.09-32.64.89,0,1.44,3.63,1.74,5.7,2.22,15,5.24,48.57,1.74,48.7-3.77.13-23.15-38.43,5.23-58,7.68-5.31,17-7.92,24.34-10,31.33-8.81,60.64-3.88,68-2,2.57.67,4.92,1.48,4.92,1.48a40.38,40.38,0,0,1,9,3.83,41.53,41.53,0,0,1,4.2,2.81s.52.37,1,.72c7.45,5.82,5.6,18.12,6.09,18.13,2.46,0,4.67-23.86,7-23.83,2,0,2.43,18.63,4.35,18.65,2.15,0,3.91-23.33,6.09-23.31,2,0,2.85,19.17,4.35,19.16,1.69,0,.53-24.43,6.09-24.86C1018.46,349.43,1022.23,355.16,1026.14,363.12Z"/><path class="cls-5" d="M1015.72,1517.5c-.8-4.32-5.59-28.9-16.25-30-4.56-.47-7.59,3.63-24.38,15-10.69,7.25-16,10.88-17.41,10-3.84-2.47,28.29-30.27,33.67-58,11-56.86-87.74-127.18-181.09-156-68-21-155.26-26.81-164.84-6-9,19.47,59.74,41.15,140.46,126,57.35,60.28,43.5,71.24,106.8,133,46.13,45,113.7,98,113.76,98-66.77-45.69-103-70.29-103.32-70-2.9,3.11,79.14,82.17,103.37,69.82,6.64-3.38,9.26-13.81,5.75-16.82-7.21-6.17-46.17,13.78-44.11,19,1.28,3.25,19.81,4.11,24.38-2,10.29-13.75-48.55-65.07-99.83-98-61.91-39.74-165-86.16-197.35-60-18.74,15.18-9.78,52.93-15.09,53-2.79,0-4.13-10.42-12.77-29-6.86-14.77-10.43-22.21-17.41-25-10.9-4.36-24.3,3.6-38.31,11-50.35,26.61-56.73,18.67-124.2,57-21.94,12.46-25.36,15.63-25.54,20-.51,12.2,24.85,17.78,114.92,51,37.79,13.94,51.31,19.59,66.17,14,27-10.15,33.6-48,37.14-47,1.67.49-.42,8.67-3.48,27-2.77,16.59-4.15,24.88-3.48,27,4.68,14.78,27.77,14.78,80.1,34,32,11.74,37.3,16.87,47.59,14,28.48-7.94,30.69-61.64,34.82-61,2,.31,1.59,12.79,0,25-3.56,27.46-10.27,32.39-7,40,6.25,14.35,37.29,12.12,80.1,19,66.27,10.65,80.4,25,95.52,23.89,3.47-.25,5.62-.72,7.79-1.89,14.48-7.82,2.29-41-2.32-68C999.42,1614,1028.76,1587.6,1015.72,1517.5Z"/><path class="cls-6" d="M1005.28,1713.5c-12.79-11.76-35.5-16.31-42.95-10-2,1.67-2.94,4.15-1.17,24,1.54,17.18,3.28,26.8,2.33,27-1.94.4-1.24-40.81-27.86-61-36.19-27.43-107.35-4.28-145.11,8-51.87,16.88-93.68,43.22-89.38,56,2,5.85,12.69,6.2,19.73,18,5.26,8.81,6.26,20.3,2.32,22-6.74,2.92-19.49-26.59-39.46-31-50.54-11.17-147,138.33-126.53,153,15,10.79,88.32-54.92,207.78-90,4.35-1.28,11.83-3.46,22.06-6,25.56-6.34,81.81-20.29,148.59-16,47.58,3.06,67.08,13.24,78.93,2,6.16-5.84,5.35-19.3,3.49-46C1015.25,1723.49,1008.15,1716.14,1005.28,1713.5Z"/><path class="cls-3" d="M1082.53,38.75c-24.72-69.72-32.21-85.83-33.76-84.92s2.65,19.28,6.1,34.28c11,47.78,21.32,74.41,19.73,75.66-3.18,2.5-48.14-101.24-51.27-98.87-3.5,2.65,48.27,135.66,44.13,138.89-3.9,3-53.83-111.46-57.13-108.86-3.85,3,59.51,162.18,57.31,163.86S997.26-4.23,994.33-2s62.9,170.69,58.8,173.86c-4.55,3.51-91.75-199.56-95.27-196.77-3.22,2.55,65.32,176.13,61.73,178.85-1.08.82-9.77-13.19-13.66-19.88,0,0-1.22-2.09-2.29-4.05-9.25-16.86-73.9-150.64-74.87-149.85S1000.23,143.59,993.38,150c-1.64,1.53-7.35-6.35-12.35-13.48-42.92-61.29-78-132-77.66-132.3S970,141.9,965,147c-5.12,5.31-86.7-130-87.76-128.78S957.73,147,949.74,158.08c-1.87,2.58-8.09-1.83-17.1-9.26-51.26-42.21-86.52-94.45-87.32-93.48-1.15,1.38,68.5,110.32,65.15,114.84C907.23,174.55,836,80.3,833,84.37s64,98,59.3,104.85c-5.2,7.66-95.7-99.31-99.29-93.75-3.2,5,67.06,92.72,62.2,100.84-5.1,8.52-89.25-76.45-91.22-72.77s88.14,95.32,84,103.79-99.78-69.48-101.38-65.75c-1.5,3.49,83.23,70.09,78.88,82.81-4.64,13.55-108.43-40.11-109.29-36.73-.83,3.23,95.46,48.34,92.64,63.77-.49,2.7-4.65,3.54-9,4.75-18.72,5.18-30.63-8.28-58.17-12.68-19.82-3.16-36.86.1-36.9,1.18s15.15.68,35.73,4.82c4.72.95,57.09,11.84,57.54,28.95.07,2.49-1,4.28-2,6.06-7.6,13-28.31,11.78-54.35,20-24.14,7.6-40.08,19.3-39.54,20.19s19.07-8.75,46.5-15.19c15.33-3.6,51.88-12.19,59-3.07,12.44,16-70,79.62-68.87,82.17,1.61,3.49,74.26-52.07,151-110.37,32.59-24.75,49.32-37.29,70.45-45.18a163.83,163.83,0,0,1,35.64-8.92,177.08,177.08,0,0,1,81.53,8.64"/><path class="cls-3" d="M1080.27,1650.75c-24.72-69.72-32.21-85.83-33.76-84.92s2.66,19.28,6.11,34.28c11,47.78,21.32,74.41,19.73,75.66-3.18,2.5-48.15-101.24-51.28-98.87-3.49,2.65,48.28,135.66,44.13,138.89-3.89,3-53.82-111.46-57.13-108.86-3.85,3,59.52,162.18,57.32,163.86S995,1607.77,992.07,1610s62.9,170.69,58.8,173.86c-4.55,3.51-91.75-199.56-95.26-196.77-3.22,2.55,65.32,176.13,61.73,178.85-1.09.82-9.78-13.19-13.67-19.88,0,0-1.21-2.09-2.29-4-9.24-16.86-73.89-150.64-74.87-149.85S998,1755.59,991.12,1762c-1.64,1.53-7.35-6.35-12.35-13.48-42.91-61.29-78-132-77.65-132.3S967.7,1753.9,962.73,1759c-5.13,5.31-86.7-130-87.77-128.78s80.52,128.75,72.52,139.82c-1.86,2.58-8.08-1.83-17.1-9.26-51.25-42.21-86.51-94.45-87.32-93.48-1.14,1.38,68.51,110.32,65.16,114.84-3.24,4.37-74.46-89.88-77.43-85.81s64,98,59.3,104.85c-5.2,7.66-95.71-99.31-99.29-93.75-3.2,5,67.05,92.72,62.19,100.84-5.09,8.52-89.25-76.45-91.21-72.77s88.13,95.32,84,103.79-99.78-69.48-101.38-65.75c-1.51,3.49,83.23,70.09,78.87,82.81-4.64,13.55-108.42-40.11-109.29-36.73-.83,3.23,95.46,48.34,92.64,63.77-.6,3.29-5.53,4.21-9,4.75-41.07,6.31-95.63-7.9-95.06-11.5.73-4.63,92.51,11.7,93.27,33.77a8.36,8.36,0,0,1-2,6.06c-14.84,16.5-103.7-21.56-102-26,1.81-4.62,103.93,19.89,104.47,20,40.33,6.2,70.83,3.69,91.71,0,27.51-3.14,35.31-7.71,69.65-10,22-1.47,31.39-.43,34.82,0,22.62,2.83,29.47,9.47,46.43,10,9.39.3,22.84-1.24,39.47-10"/><path class="cls-9" d="M1048.57,153.32c-8.31-11.23-23-31.13-29.47-28.9-2.48.85-2.06,4.4-5.18,21-3.17,16.89-4.47,17.85-5.47,18.19-8.86,3.07-23-31.66-46.27-31.83-11.8-.09-23.28,8.73-22.42,13.85.94,5.61,16.19,3.85,25.43,14.31,6.91,7.82,8.3,20,3.31,23.17s-13.19-4.65-35.84-11.35c-14.25-4.22-25.21-7.47-36.72-4.19-15.46,4.41-26.34,19-23,23.84,2.77,4,13.69-1,35.53.73,16,1.29,31.62,5.72,31.37,8.16-.48,4.57-55.14-8.78-85.74,15.33-3.78,3-11.37,17.4-26.39,46.12-16.65,31.84-21.9,42.61-17.32,46.11s13.66-4.55,34.77-6.31c19-1.58,24.85,3.88,34.93,2.91,35.78-3.44,45.12-82.37,55.62-81.11,4.76.58,8.35,17.21,5.25,33.67-5.54,29.45-29.41,42.29-24.45,48.81,5.12,6.74,39.17,4.23,55.42-13.63,25.06-27.57-7.44-75,8.5-82.34,7.91-3.62,24,4.4,29.6,14.69,8,14.66-6.83,30.93-2.19,33.55,5.4,3,27-18,42.61-33.21,18.54-18,19.87-21.86,20.48-24.34C1074,188.05,1065.56,176.31,1048.57,153.32Z"/><path class="cls-9" d="M1061.87,209.7c-10.87-5.08-30.13-14.07-33.67-10.66-1.37,1.31.52,3.56,5.75,15.64,5.32,12.28,4.83,13.31,4.28,13.84-4.86,4.69-30.35-14.44-46.81-7.64-8.34,3.44-12.48,12.77-9.58,16,3.16,3.48,13.12-2.22,24.3,2.06,8.36,3.2,14.78,11,12.69,14.58s-11.36.79-30.31,3c-11.92,1.4-21.08,2.47-27.71,8.09-8.92,7.55-10,20.58-5.53,22.84,3.74,1.87,9.18-4.74,25.33-10.05,11.88-3.91,24.82-5.55,25.73-3.84,1.71,3.21-42.74,10.47-53.49,35.75-1.33,3.13-.23,15.07,2,38.82,2.51,26.32,3.63,35.11,8.43,36.11s7.58-7.11,21.65-14.56c12.67-6.71,19.23-4.78,25.89-8.42,23.65-12.93-5.08-68.72,2.88-71,3.61-1,13.56,9.08,18.75,21.05,9.27,21.43-1.79,37.14,4.61,40,6.62,3,29.47-8.79,32.92-25.61,5.31-26-38.8-48.2-30.84-57.83,4-4.78,18.85-4.16,27.4,1.08,12.2,7.47,9,22.8,13.47,23.18,5.16.44,11-20.1,15.14-35,5-17.63,4.21-20.58,3.53-22.43C1095.3,225.47,1084.11,220.09,1061.87,209.7Z"/><path class="cls-9" d="M1049.2,953.17c2.83,13.09,7.85,36.28,1.37,38.45-2.49.83-5-2-20.42-12.31-15.7-10.47-17.41-10.4-18.41-10.07-8.91,3,8.27,36.67-8.59,50.47-8.56,7-23.93,7.31-27.36,3.07-3.76-4.65,8.77-12.34,7.24-25.42-1.14-9.77-9.78-19.49-15.95-18.88s-6,11.16-17.18,29.38c-7.08,11.46-12.51,20.28-23.52,24.65-14.79,5.87-34.31,1.61-35.7-3.9-1.15-4.56,10.81-7.3,25.38-21.42,10.72-10.38,18.58-22.78,16.46-24.41-4-3.06-33.33,38.84-74.8,39.21-5.12,0-22.1-6-55.83-18.18-37.39-13.47-49.77-18.25-49.2-23.51s13.59-4.71,30.41-15.84c15.14-10,15.09-17.44,23.22-22.66,28.87-18.53,98.24,33.66,104.92,26.56,3-3.22-7.54-17.48-22.85-27.69-27.37-18.26-55-13.61-56.54-21.29-1.6-7.93,25.27-26.13,51.3-22.63,40.16,5.41,54,59.22,71.46,55.17,8.64-2,14-17.32,10-28.14-5.76-15.42-29.5-18.59-28.17-23.23,1.53-5.4,34-2.72,57.45-.79,27.85,2.29,31.84,4.29,34.25,5.75C1040.26,912.84,1043.41,926.38,1049.2,953.17Z"/><path class="cls-9" d="M1059.42,1017.59c7.74,11.53,21.45,31.95,16.18,35.86-2,1.5-5.48-.46-24-5.73-18.86-5.37-20.44-4.81-21.26-4.21-7.24,5.36,22,32.19,11.46,50-5.36,9.06-19.74,13.77-24.61,10.75-5.34-3.3,3.49-14.15-3-26-4.86-8.88-16.76-15.56-22.34-13.21s-1.29,12.22-4.83,32.63c-2.22,12.84-3.93,22.71-12.62,30-11.66,9.78-31.71,11.38-35.16,6.59-2.85-4,7.36-10,15.63-27.49,6.08-12.87,8.69-26.82,6.06-27.75-4.92-1.74-16.37,46.2-55.32,58.47-4.82,1.52-23.17.67-59.68-1.1-40.47-2-54-2.9-55.49-8s11-8.34,22.54-23.67c10.39-13.79,7.47-20.78,13.11-28,20-25.76,105.65,3.5,109.19-5.11,1.61-3.91-13.87-14.32-32.26-19.54-32.88-9.35-57.12,3-61.55-3.82-4.58-7,13.71-31.9,39.6-36.07,40-6.45,73.88,40.29,88.73,31.47,7.38-4.38,6.52-20.36-1.48-29.4-11.41-12.88-35-9.05-35.57-13.81-.64-5.52,31-12.33,53.86-17.25,27.14-5.85,31.68-5.11,34.52-4.43C1035.37,982.14,1043.58,994,1059.42,1017.59Z"/></svg>
