<svg id="Layer_1" data-name="Layer 1" xmlns="http://www.w3.org/2000/svg" width="1008" height="466" viewBox="0 0 1008 466"><defs><style>.cls-1{fill:#8c623a;}</style></defs><title>gameover_tekst</title><path class="cls-1" d="M220.75,181.78a6.84,6.84,0,0,1,2.94-1.65,3,3,0,0,1,1.25-.22,2.84,2.84,0,0,1,1.46.84,16,16,0,0,1,2.15,2.6c.85,1.22,2,3,3.52,5.19q4.69,7,8.07,11.23c2.24,2.78,4,5.2,5.38,7.23a3.52,3.52,0,0,1,.83,2.32c-.09.57-.76,1.08-2,1.54a2,2,0,0,1-1.24.08,5.2,5.2,0,0,1-1.64-.89,20.18,20.18,0,0,1-2.52-2.27q-1.5-1.53-3.78-4.09t-5-1.49a8.25,8.25,0,0,0-1.38.81c-.64.43-1.41.91-2.29,1.44s-1.83,1.09-2.85,1.67a25.18,25.18,0,0,1-3,1.49,29.09,29.09,0,0,1-13.88,2.32,39.94,39.94,0,0,1-12.48-3.19A46,46,0,0,1,184,200.58a47.89,47.89,0,0,1-7-6.7,48.9,48.9,0,0,1-7.82-13.21,27,27,0,0,1-1.73-13.83,25.91,25.91,0,0,1,6.18-13c3.44-4.09,8.7-7.55,15.67-10.28a34.12,34.12,0,0,1,11.47-2.75c3,0,5.14.9,6.38,2.8a2.31,2.31,0,0,1,.28,1.8,5.78,5.78,0,0,1-.78,2,9.1,9.1,0,0,1-1.28,1.67,3.68,3.68,0,0,1-1.31.95,3.75,3.75,0,0,1-2.15,0c-.88-.19-2.67-.64-5.39-1.36a8.35,8.35,0,0,0-3.11-.31,11.68,11.68,0,0,0-2.83.78,17,17,0,0,0-8.86,7.5,25.41,25.41,0,0,0-3.28,11.39,34,34,0,0,0,1.76,12.58,36.08,36.08,0,0,0,5.94,11.21,44.8,44.8,0,0,0,8.26,8.36,22.42,22.42,0,0,0,7.57,3.85,17.75,17.75,0,0,0,7,.45,28.35,28.35,0,0,0,6.69-1.84,17.47,17.47,0,0,0,4.77-2.81,13.69,13.69,0,0,0,3-3.37,8.12,8.12,0,0,0,1.2-3.39,5.51,5.51,0,0,0-.48-3q-1.73-3.3-3.43-6.6A1.74,1.74,0,0,1,220.75,181.78Z"/><path class="cls-1" d="M262.46,174.19a7.09,7.09,0,0,0-1.5,4.92c0,3.73,0,7.45.07,11.17a5.56,5.56,0,0,0,.58,2.25c.36.74,0,1.28-.95,1.62a15.94,15.94,0,0,1-5.16,1c-1.46,0-2.44-.39-2.93-1.17a2.9,2.9,0,0,1-.19-2.4,24.63,24.63,0,0,0,.7-3.75c.3-2.09.55-4.55.79-7.38s.44-5.79.62-8.85.33-6.12.46-9.2.23-5.9.26-8.47,0-4.78-.12-6.66a10.49,10.49,0,0,0-.69-3.8c-.8-1.44-3.21-3-7.3-4.57Q239.66,136,232,133.18a21,21,0,0,0-4.26-1.27,2.71,2.71,0,0,1-2.12-1.09c-.17-.28-.07-.73.31-1.33a16.69,16.69,0,0,1,1.47-1.91,17.17,17.17,0,0,1,1.94-1.87,6.46,6.46,0,0,1,1.93-1.15,25.1,25.1,0,0,1,2.8-.78,5.18,5.18,0,0,1,1.95-.06,4.42,4.42,0,0,1,1.76.78c.57.41,1.3,1,2.2,1.72a14.89,14.89,0,0,0,2.75,1.68q2.13,1.11,4.31,2.21c10.49,5,19.18,9.4,26.3,13s13.37,6.74,18.85,9.46,10.54,5.18,15.24,7.37,9.73,4.57,15.09,7.15a7.76,7.76,0,0,0,2.65.84c.75.07,1.4.13,1.93.16a4,4,0,0,1,1.41.35,2.37,2.37,0,0,1,1,1.31,2.49,2.49,0,0,1-.08,1.43,11.09,11.09,0,0,1-.79,2,10,10,0,0,1-1.16,1.82,2.48,2.48,0,0,1-1.28.92l-3.24.79a1.49,1.49,0,0,1-1.52-.49A8.11,8.11,0,0,0,320,175c-3.83-2.76-11.05-7-22.14-12.54q-14.88,4-29.64,8.69C265.39,172,263.47,173.05,262.46,174.19Zm-1.14-13.64q-.1,3-.12,3.87a2.69,2.69,0,0,0,.27,1.45,1.36,1.36,0,0,0,.67.61,3,3,0,0,0,1.62-.07q1.19-.24,3.48-.9c1.52-.43,3.63-1.07,6.34-1.89,2.94-.89,5.38-1.63,7.33-2.24s3.5-1.13,4.67-1.55a22.12,22.12,0,0,0,2.59-1,4.88,4.88,0,0,0,1.18-.77q-13.22-6.35-27.1-12.26Q261.67,153.17,261.32,160.55Z"/><path class="cls-1" d="M388,107c1.7-4.49,3.07-7.89,4-10.2a25.71,25.71,0,0,1,2.13-4.44,2.39,2.39,0,0,1,1.61-1.09,11.65,11.65,0,0,1,2.17,0q1.39.15,2.82.39a16.91,16.91,0,0,1,2.46.62c.69.24,1.06.48,1.11.71a14.2,14.2,0,0,1,.25,2.41,11.69,11.69,0,0,0,.17,1.95,67.46,67.46,0,0,0,2.6,9.18q1.91,5.56,4.33,11.79t5,12.62q2.6,6.39,4.71,11.7t3.48,8.87a36.34,36.34,0,0,1,1.49,4.25,1.5,1.5,0,0,1-.68,1.37,8.59,8.59,0,0,1-1.87,1.2c-.73.35-1.41.65-2,.92a6.49,6.49,0,0,1-1.27.43,1.85,1.85,0,0,1-1.46-.33,5.25,5.25,0,0,1-1-2q-2.34-7.84-5-15.35t-5.43-14.51q-2.74-7-5.4-13.45t-4.71-12.14c-3.91,8.51-6.73,15.38-8.74,20.6s-3.44,9.36-4.37,12.42a39,39,0,0,0-1.61,6.78,13.56,13.56,0,0,0,.06,3.71c.26,1.32.18,2.24-.24,2.74a3.45,3.45,0,0,1-2.22,1,3.37,3.37,0,0,1-2.45-.33,12.05,12.05,0,0,1-2.41-2.75c-.49-.64-1.48-1.75-2.95-3.31s-3.26-3.34-5.33-5.33-4.36-4.08-6.84-6.31-4.95-4.36-7.37-6.43-4.67-4-6.73-5.72-3.72-3.12-4.91-4.11c.06,1,.23,2.84.55,5.61s.69,6,1.14,9.57,1,7.39,1.53,11.38,1.13,7.69,1.67,11.11,1,6.36,1.49,8.79.77,3.86.93,4.32a8,8,0,0,0,.86,1.77,9.63,9.63,0,0,1,.85,1.78,1,1,0,0,1-.19,1,2.25,2.25,0,0,1-1.43.72,19.87,19.87,0,0,1-4.93.43,3.09,3.09,0,0,1-3-2,8.72,8.72,0,0,1-.4-2.67c0-1.17-.11-2.85-.19-5-.08-1.28-.26-3.31-.53-6.06s-.63-5.9-1.08-9.43-.9-7.24-1.38-11.13-1-7.57-1.44-11.05-.93-6.58-1.38-9.29a41.42,41.42,0,0,0-1.25-5.78,5,5,0,0,0-1.54-2.55,3.81,3.81,0,0,1-1.35-2c-.29-.84.15-1.51,1.32-2a21.67,21.67,0,0,1,4.55-1.32,7,7,0,0,1,3-.15,2.92,2.92,0,0,1,1.48,1.48,23.78,23.78,0,0,0,3.67,4.41q2.73,2.77,6.38,6.16t7.74,7.1q4.1,3.7,7.77,7t6.61,6c2,1.77,3.41,3.11,4.37,4q1.94-5.78,4-11.54C383.91,117.61,386.25,111.49,388,107Z"/><path class="cls-1" d="M478.23,118.85a2.17,2.17,0,0,1-.61,1.13,14.35,14.35,0,0,1-1.55,1.63,18.13,18.13,0,0,1-1.78,1.47,2.93,2.93,0,0,1-1.46.63q-5.31.63-9.86.88t-8.1.56c.84,9.41,3.29,16.38,7.19,21s9.59,6.73,17.22,6.55a7.72,7.72,0,0,1,3.3.41,2.14,2.14,0,0,1,.89,2c0,.63-.52,1.26-1.6,1.91s-3,1-5.79,1.08a35.59,35.59,0,0,1-10.75-1.1,24.87,24.87,0,0,1-7.73-3.59,20.53,20.53,0,0,1-5.29-5.44,31.69,31.69,0,0,1-3.36-6.65,40.47,40.47,0,0,1-1.93-7.15c-.41-2.42-.74-4.72-1-6.92-.85-7.82-.83-14.43.14-19.81A35.38,35.38,0,0,1,451,94.23a19.93,19.93,0,0,1,8.28-7.37,26.26,26.26,0,0,1,10.34-2.45c3.61-.11,6.07.09,7.37.57a2.8,2.8,0,0,1,2,2.73c.06,1.73-.72,2.61-2.33,2.64q-3.75.09-7.5.21a14.93,14.93,0,0,0-5.84,1.38,11.67,11.67,0,0,0-4.86,4.63,27.24,27.24,0,0,0-3.21,9.07,65.62,65.62,0,0,0-.81,14.57,7.76,7.76,0,0,1,2.16-1.47,8.14,8.14,0,0,1,3.08-.67q8.11-.37,16.23-.58C477.42,117.45,478.2,117.91,478.23,118.85Z"/><path class="cls-1" d="M536.18,112a32.21,32.21,0,0,1,6.55-10.63A30,30,0,0,1,553.57,94,32.65,32.65,0,0,1,568.89,92a24.27,24.27,0,0,1,9.36,2.72,18.45,18.45,0,0,1,6.94,6.43,24.94,24.94,0,0,1,3.48,10.28,43.8,43.8,0,0,1-.84,14.15,39.74,39.74,0,0,1-5.1,13.35,35.79,35.79,0,0,1-8.09,9.28,30.45,30.45,0,0,1-9.74,5.26,26.73,26.73,0,0,1-10.37,1.23,20.35,20.35,0,0,1-8.11-2.51,22.06,22.06,0,0,1-7-6.07,29.13,29.13,0,0,1-4.74-9.53,34.64,34.64,0,0,1-1.14-12.93A43.24,43.24,0,0,1,536.18,112Zm6.28,16.42a28.08,28.08,0,0,0,2.13,8.11,21.86,21.86,0,0,0,5,7.27,14,14,0,0,0,8.9,3.66,18.59,18.59,0,0,0,5.45-.47,16.08,16.08,0,0,0,6.18-3,22.55,22.55,0,0,0,5.71-6.61,33.79,33.79,0,0,0,3.9-11.3,40,40,0,0,0,.64-12.31,20.3,20.3,0,0,0-2.8-8.31,13.94,13.94,0,0,0-5.26-4.91,17.62,17.62,0,0,0-6.81-2,18.59,18.59,0,0,0-9,1.35,20.53,20.53,0,0,0-7.12,5,25.18,25.18,0,0,0-4.78,7.73,34.74,34.74,0,0,0-2.31,9.56A32.92,32.92,0,0,0,542.46,128.44Z"/><path class="cls-1" d="M608.83,93.35c1.72-.61,4.62-.63,8.71,0a11,11,0,0,1,3.42.86,2,2,0,0,1,.92,1.82c.2,3.32.56,6.82,1,10.5s1,7.4,1.6,11.15,1.15,7.42,1.74,11,1.15,7,1.67,10.18.93,6.09,1.26,8.69.54,4.76.64,6.47q6-5.81,12.75-12.52t12.83-12.73c4-4,7.47-7.56,10.31-10.67s4.54-5.29,5-6.57a8.16,8.16,0,0,1,1.93-3.38,3.1,3.1,0,0,1,2.72-.39,17.87,17.87,0,0,1,2.55.81c.94.38,1.95.81,3,1.3a7.26,7.26,0,0,1,2,1.21,1,1,0,0,1,.16,1.14,12.32,12.32,0,0,1-2.12,2.28c-1.29,1.22-3,2.76-5.09,4.62l-7.07,6.22q-3.92,3.44-8,7.14t-8.08,7.34l-7.36,6.74a87.21,87.21,0,0,0-9.1,9.47,73.35,73.35,0,0,0-4.91,6.77c-1.14,1.81-1.92,3.14-2.39,4s-.91,1.23-1.34,1.15a10.08,10.08,0,0,1-3.93-1.45c-.95-.65-1.45-1.3-1.48-1.95a218.59,218.59,0,0,0-3.95-33.6,214.62,214.62,0,0,0-8.07-29.77,3.27,3.27,0,0,0-1.13-1.53c-.55-.44-1.08-.85-1.6-1.24a7.94,7.94,0,0,1-1.29-1.19,1.57,1.57,0,0,1-.33-1.42C606.14,94.76,607.11,94,608.83,93.35Z"/><path class="cls-1" d="M718,150.73a2.9,2.9,0,0,1-1.17.86,23.74,23.74,0,0,1-2.32,1c-.88.33-1.69.59-2.45.8a3.48,3.48,0,0,1-1.72.13q-5.4-1.05-9.86-2.2c-3-.77-5.64-1.41-8-1.95-4,8.92-5.27,16.08-3.91,21.48s5.68,9.11,13.07,11.29a6.74,6.74,0,0,1,3,1.38c.39.45.33,1.15-.17,2.1-.31.58-1.13,1-2.51,1.27a14,14,0,0,1-6.09-.78,32.85,32.85,0,0,1-9.7-4.29,19.08,19.08,0,0,1-5.5-5.66,15.74,15.74,0,0,1-2.23-6.61,27.67,27.67,0,0,1,.22-7.14,39.36,39.36,0,0,1,1.85-7.17q1.26-3.53,2.61-6.66a80.66,80.66,0,0,1,10.28-18.19,46.13,46.13,0,0,1,11.29-10.65,26.72,26.72,0,0,1,11.63-4.27,29.32,29.32,0,0,1,11.12.9c3.5,1,5.75,1.94,6.75,2.78a2.3,2.3,0,0,1,.54,3.13c-.83,1.61-2,2.18-3.58,1.72l-7.29-2.11a16.51,16.51,0,0,0-6.27-.5,15.7,15.7,0,0,0-7,2.78,35.75,35.75,0,0,0-7.7,7.36,76.92,76.92,0,0,0-8.23,13.17,9.92,9.92,0,0,1,2.8-.7,9.05,9.05,0,0,1,3.28.31q7.89,2.13,15.77,4.43C717.9,149.2,718.42,149.86,718,150.73Z"/><path class="cls-1" d="M776.93,130.46a23.21,23.21,0,0,1,3.18.94,26.55,26.55,0,0,1,7.94,4.31,19.67,19.67,0,0,1,4.89,5.64,12.9,12.9,0,0,1,1.73,6,8.85,8.85,0,0,1-1.59,5.4,21.58,21.58,0,0,1-5.82,5.88,24.32,24.32,0,0,1-6.58,3.08,30.52,30.52,0,0,1-6.51,1.17,49.3,49.3,0,0,1-5.64.07c-2.21-.11-3.56-.14-4-.11s-.82.17-1,.38,0,.57.45,1.08a43.79,43.79,0,0,1,2.57,3.68c1.27,2,2.75,4.29,4.39,7s3.37,5.73,5.13,9q2,3.58,4,7.13t3.73,6.83c1.15,2.18,2.21,4.16,3.21,5.93s1.78,3.25,2.38,4.41a14.63,14.63,0,0,0,6.75,6.12.84.84,0,0,1,.45.76,1.9,1.9,0,0,1-.53,1.26,5.27,5.27,0,0,1-2.11,1.11,34.51,34.51,0,0,1-3.69,1.09,37.87,37.87,0,0,1-3.77.71,5.24,5.24,0,0,1-2.4,0c-.75-.34-1.7-1.75-2.89-4.25s-2.55-5.55-4.14-9.17-3.35-7.58-5.31-11.91-4.09-8.46-6.36-12.39a105.88,105.88,0,0,0-6.92-10.54,25,25,0,0,0-6.57-6.48q-1.53,2.06-3.23,4.64c-1.14,1.72-2.23,3.44-3.27,5.14l-1.76,2.89q-2.65,4.38-4.19,7.22T737,189.11c-.6,1.22-1.08,2.2-1.4,2.95a16.48,16.48,0,0,1-1,2,2.63,2.63,0,0,1-1.5,1.29,4.19,4.19,0,0,1-2.32-.29,9.31,9.31,0,0,1-1.85-.95,24.9,24.9,0,0,1-2.11-1.49,5.89,5.89,0,0,1-1.5-1.66,1.47,1.47,0,0,1-.14-1.52,3.46,3.46,0,0,1,.9-1c.38-.3.88-.72,1.49-1.24s1.3-1.21,2.1-2.06a23.38,23.38,0,0,0,2.51-3.28c.34-.58,1.18-1.94,2.54-4.11l4.8-7.59q2.76-4.35,5.75-9.21t5.41-8.93q1.07-1.83,2.66-4.65c1.06-1.87,2.07-3.75,3-5.61s1.74-3.54,2.37-5,.82-2.36.62-2.68q-1.8-2.15-.69-4.09c.54-.93,1.73-1.31,3.59-1.12q6.09.56,12.22,1.2C775.3,130.17,776.12,130.31,776.93,130.46Zm-20.41,27.16a1.42,1.42,0,0,0,.74.51,6.37,6.37,0,0,0,2.18.12l5.43-.28c.87,0,1.83-.08,2.87-.14a29.2,29.2,0,0,0,3.36-.41,18.81,18.81,0,0,0,3.57-1,15.7,15.7,0,0,0,3.52-2,30.62,30.62,0,0,0,6-6.58,5.68,5.68,0,0,0,1.05-2.62,9.45,9.45,0,0,0-.09-2.26,2.49,2.49,0,0,0-.6-1.14,13.25,13.25,0,0,0-1.37-1.49,14.41,14.41,0,0,0-1.57-1.29,5.64,5.64,0,0,0-1.27-.72,17,17,0,0,0-1.93-.5,27.55,27.55,0,0,0-3-.5,22.11,22.11,0,0,0-3-.14,2.64,2.64,0,0,0-1.81.53q-2.12,2.25-4.21,5t-4,5.35c-1.26,1.76-2.39,3.4-3.36,4.92s-1.72,2.7-2.24,3.56C756.42,157,756.33,157.38,756.52,157.62Z"/></svg>
