<svg id="Layer_1" data-name="Layer 1" xmlns="http://www.w3.org/2000/svg" xmlns:xlink="http://www.w3.org/1999/xlink" width="606" height="497" viewBox="0 0 606 497"><defs><style>.cls-1{fill:#544436;}.cls-2{fill:#a67c52;}.cls-3{fill:url(#linear-gradient);}.cls-4{fill:#fff;}.cls-5{fill:#8c6239;}.cls-6{fill:url(#linear-gradient-2);}.cls-13,.cls-7{fill:none;}.cls-8{fill:url(#linear-gradient-3);}.cls-9{fill:#e5af7f;}.cls-10{fill:url(#linear-gradient-4);}.cls-11{fill:url(#linear-gradient-5);}.cls-12{fill:url(#linear-gradient-6);}.cls-13{stroke:#000;stroke-miterlimit:10;stroke-width:2px;}</style><linearGradient id="linear-gradient" x1="93.37" y1="280.24" x2="-0.01" y2="186.86" gradientUnits="userSpaceOnUse"><stop offset="0" stop-color="#fff"/><stop offset="0.1" stop-color="#fff4f9"/><stop offset="0.27" stop-color="#ffd8e8"/><stop offset="0.5" stop-color="#ffaace"/><stop offset="0.55" stop-color="#ff9fc7"/></linearGradient><linearGradient id="linear-gradient-2" x1="-7102.89" y1="280.24" x2="-7196.27" y2="186.86" gradientTransform="matrix(-1, 0, 0, 1, -6608.5, 0)" xlink:href="#linear-gradient"/><linearGradient id="linear-gradient-3" x1="-3412.02" y1="-7784.3" x2="-3171.48" y2="-7784.3" gradientTransform="matrix(-0.11, 0.22, -0.7, -0.36, -5429.87, -1972.79)" gradientUnits="userSpaceOnUse"><stop offset="0" stop-color="#c1272d"/><stop offset="0.15" stop-color="#b94038"/><stop offset="0.35" stop-color="#b15a43"/><stop offset="0.56" stop-color="#ab6d4b"/><stop offset="0.77" stop-color="#a77850"/><stop offset="1" stop-color="#a67c52"/></linearGradient><linearGradient id="linear-gradient-4" x1="93.37" y1="278.24" x2="-0.01" y2="184.86" xlink:href="#linear-gradient"/><linearGradient id="linear-gradient-5" x1="-7102.89" y1="278.24" x2="-7196.27" y2="184.86" gradientTransform="matrix(-1, 0, 0, 1, -6608.5, 0)" xlink:href="#linear-gradient"/><linearGradient id="linear-gradient-6" x1="-3419.22" y1="-7783.13" x2="-3178.69" y2="-7783.13" xlink:href="#linear-gradient-3"/></defs><title>gameover_abe</title><path class="cls-1" d="M315.32,70.3c10.07-10.56,20.18-15.46,26.07-15.41,1.51,0-.92,6.1-5.2,8.49C327.08,68.46,326.6,69,326.6,69,320.76,72.81,309,85,309.48,92.17c.46,6.24-7.14,8.13-7.7,4.46C301,91.72,304.35,81.8,315.32,70.3Z"/><path class="cls-1" d="M309.13,87.72c-10.4,9.51-14.43,19.61-13.53,25.79.23,1.58,6.72-.35,8.78-4.6,4.38-9,4.88-9.5,4.88-9.5,3.47-5.74,15.49-16.89,23.57-15.62,7.06,1.1,8.09-6.68,3.89-7.63C331.1,74.89,320.45,77.38,309.13,87.72Z"/><path class="cls-1" d="M292.52,83.73C284.26,72.33,274,67.15,267.1,67.3c-1.79,0-1,6.68,3.22,9.22,9,5.4,9.39,6,9.39,6C285.27,86.58,295,99.78,292,107.6c-2.66,6.84,5.64,8.78,7.54,4.75C302.05,107,301.52,96.14,292.52,83.73Z"/><ellipse class="cls-1" cx="301.48" cy="76.41" rx="4.82" ry="33.41"/><path class="cls-1" d="M294.05,77.26c6,14.18,6.74,25.6,4.47,30.84-.58,1.35-5.33-3.8-5.93-8.8C291.31,88.67,291,88,291,88c-1.36-7.1-8.28-23.64-15.11-26.66-6-2.64-4.86-10.36-1.23-9.07C279.53,54,287.5,61.83,294.05,77.26Z"/><path class="cls-2" d="M472.15,178.06a101.85,101.85,0,0,0-26.91,3.6c-31.42-48.26-87.29-80.37-151-80.37s-119.57,32.11-151,80.37a101.85,101.85,0,0,0-26.91-3.6c-54,0-97.85,42-97.85,93.84s43.81,93.83,97.85,93.83a101.85,101.85,0,0,0,26.91-3.6c31.42,48.26,87.29,80.37,151,80.37s119.57-32.11,151-80.37a101.85,101.85,0,0,0,26.91,3.6c54,0,97.85-42,97.85-93.83S526.19,178.06,472.15,178.06Zm-37.06,160.3c0,50.45-62.06,91.34-138.62,91.34s-138.61-40.89-138.61-91.34c0-17.06,7.1-33,19.45-46.68-19.81-13.15-32.79-35.09-32.79-60,0-40.24,34-72.86,76-72.86,35.13,0,64.69,22.87,73.38,53.94,8.69-31.07,38.25-53.94,73.39-53.94,42,0,76,32.62,76,72.86,0,23.52-11.62,44.43-29.65,57.75C427.2,303.62,435.09,320.38,435.09,338.36Z"/><path class="cls-3" d="M141,276.73c-15.09-10.87-23.85-30.46-24.8-7-.45,10.87,10.44,36.11,22,29.51,10.43-6,7.19,19.74-8.63,35.22C118.79,345,97.51,347,89,345.9c-28.57-3.76-52-31-52-69.17s23.28-69.17,52-69.17c21.08,0,39.24,16.7,47.39,40.71C139.37,257,147.72,281.57,141,276.73Z"/><ellipse cx="282.2" cy="293.93" rx="3.34" ry="4.27"/><ellipse cx="232.87" cy="250.57" rx="34.86" ry="33.41"/><ellipse cx="355.26" cy="248.44" rx="34.86" ry="33.41"/><ellipse class="cls-4" cx="219.52" cy="239.2" rx="9.64" ry="9.24"/><ellipse class="cls-4" cx="345.62" cy="239.2" rx="9.64" ry="9.24"/><path class="cls-5" d="M178.93,237.53c2.53,7.95,6.25-12.11,15.91-20.52l3.32-2.89c12.53-10.9,39.92-10,26.13-16.07-7.76-3.44-22.48-4.27-35,6.63S176.44,229.67,178.93,237.53Z"/><path class="cls-5" d="M413.38,235.76c-2.64,7.9-6-12.29-15.53-20.95-12-10.9-1.44-1.3-3.27-3-12.32-11.23-39.66-10.94-25.8-16.73,7.79-3.26,22.49-3.74,34.81,7.49S416,227.94,413.38,235.76Z"/><path class="cls-6" d="M446.74,276.73c15.09-10.87,23.85-30.46,24.8-7,.44,10.87-10.44,36.11-22,29.51-10.43-6-7.19,19.74,8.63,35.22C469,345,490.25,347,498.73,345.9c28.57-3.76,52-31,52-69.17s-23.27-69.17-52-69.17c-21.09,0-39.24,16.7-47.4,40.71C448.38,257,440,281.57,446.74,276.73Z"/><ellipse cx="301.85" cy="293.93" rx="2.97" ry="4.27"/><path class="cls-7" d="M378.07,383.62C359.9,368.77,296.26,304.54,210.2,381"/><path class="cls-8" d="M369.26,149.58C313.06,133,282.55,123.8,282,112c-.11-2.33.84-7,4-9,1.2-.77,2.5-1,14-1,.93,0,2.32,0,4,0a97.68,97.68,0,0,1,11,1c7.08.78,13.06-.51,20-2,4.15-.89,3.65-1.08,8-2,5.12-1.08,10.11-2.23,16-2a53.94,53.94,0,0,1,18,4,46.71,46.71,0,0,1,15,9c15.95,14.84,23.5,36.36,31,44,1.69,1.73,3,3.12,4.24,4.45,3.09,3.37,5.28,6,5.76,6.55,5.08,6.11,7.63,9.22,8,12,.05.41.75,6.14-2,8-4.79,3.23-15.88-8-33.41-19.5C389.42,154.92,373.59,150.86,369.26,149.58Z"/><ellipse class="cls-9" cx="297" cy="274.5" rx="164" ry="165.5"/><path class="cls-1" d="M315.32,68.3c10.07-10.56,20.18-15.46,26.07-15.41,1.51,0-.92,6.1-5.2,8.49C327.08,66.46,326.6,67,326.6,67,320.76,70.81,309,83,309.48,90.17c.46,6.24-7.14,8.13-7.7,4.46C301,89.72,304.35,79.8,315.32,68.3Z"/><path class="cls-1" d="M309.13,85.72c-10.4,9.51-14.43,19.61-13.53,25.79.23,1.58,6.72-.35,8.78-4.6,4.38-9,4.88-9.5,4.88-9.5,3.47-5.74,15.49-16.89,23.57-15.62,7.06,1.1,8.09-6.68,3.89-7.63C331.1,72.89,320.45,75.38,309.13,85.72Z"/><path class="cls-1" d="M292.52,81.73C284.26,70.33,274,65.15,267.1,65.3c-1.79,0-1,6.68,3.22,9.22,9,5.4,9.39,6,9.39,6C285.27,84.58,295,97.78,292,105.6c-2.66,6.84,5.64,8.78,7.54,4.75C302.05,105,301.52,94.14,292.52,81.73Z"/><ellipse class="cls-1" cx="301.48" cy="74.41" rx="4.82" ry="33.41"/><path class="cls-1" d="M294.05,75.26c6,14.18,6.74,25.6,4.47,30.84-.58,1.35-5.33-3.8-5.93-8.8C291.31,86.67,291,86,291,86c-1.36-7.1-8.28-23.64-15.11-26.66-6-2.64-4.86-10.36-1.23-9.07C279.53,52,287.5,59.83,294.05,75.26Z"/><path class="cls-2" d="M472.15,176.06a101.85,101.85,0,0,0-26.91,3.6c-31.42-48.26-87.29-80.37-151-80.37s-119.57,32.11-151,80.37a101.85,101.85,0,0,0-26.91-3.6c-54,0-97.85,42-97.85,93.84s43.81,93.83,97.85,93.83a101.85,101.85,0,0,0,26.91-3.6c31.42,48.26,87.29,80.37,151,80.37s119.57-32.11,151-80.37a101.85,101.85,0,0,0,26.91,3.6c54,0,97.85-42,97.85-93.83S526.19,176.06,472.15,176.06Zm-37.06,160.3c0,50.45-62.06,91.34-138.62,91.34s-138.61-40.89-138.61-91.34c0-17.06,7.1-33,19.45-46.68-19.81-13.15-32.79-35.09-32.79-60,0-40.24,34-72.86,76-72.86,35.13,0,64.69,22.87,73.38,53.94,8.69-31.07,38.25-53.94,73.39-53.94,42,0,76,32.62,76,72.86,0,23.52-11.62,44.43-29.65,57.75C427.2,301.62,435.09,318.38,435.09,336.36Z"/><path class="cls-10" d="M141,274.73c-15.09-10.87-23.85-30.46-24.8-7-.45,10.87,10.44,36.11,22,29.51,10.43-6,7.19,19.74-8.63,35.22C118.79,343,97.51,345,89,343.9c-28.57-3.76-52-31-52-69.17s23.28-69.17,52-69.17c21.08,0,39.24,16.7,47.39,40.71C139.37,255,147.72,279.57,141,274.73Z"/><ellipse cx="282.2" cy="291.93" rx="3.34" ry="4.27"/><ellipse cx="232.87" cy="248.57" rx="34.86" ry="33.41"/><ellipse cx="355.26" cy="246.44" rx="34.86" ry="33.41"/><ellipse class="cls-4" cx="219.52" cy="237.2" rx="9.64" ry="9.24"/><ellipse class="cls-4" cx="345.62" cy="237.2" rx="9.64" ry="9.24"/><path class="cls-5" d="M178.93,235.53c2.53,7.95,6.25-12.11,15.91-20.52l3.32-2.89c12.53-10.9,39.92-10,26.13-16.07-7.76-3.44-22.48-4.27-35,6.63S176.44,227.67,178.93,235.53Z"/><path class="cls-5" d="M413.38,233.76c-2.64,7.9-6-12.29-15.53-20.95-12-10.9-1.44-1.3-3.27-3-12.32-11.23-39.66-10.94-25.8-16.73,7.79-3.26,22.49-3.74,34.81,7.49S416,225.94,413.38,233.76Z"/><path class="cls-11" d="M446.74,274.73c15.09-10.87,23.85-30.46,24.8-7,.44,10.87-10.44,36.11-22,29.51-10.43-6-7.19,19.74,8.63,35.22C469,343,490.25,345,498.73,343.9c28.57-3.76,52-31,52-69.17s-23.27-69.17-52-69.17c-21.09,0-39.24,16.7-47.4,40.71C448.38,255,440,279.57,446.74,274.73Z"/><ellipse cx="301.85" cy="291.93" rx="2.97" ry="4.27"/><path class="cls-7" d="M378.07,381.62C359.9,366.77,296.26,302.54,210.2,379"/><path class="cls-12" d="M369.26,147.58C313.06,131,282.55,121.8,282,110c-.11-2.33.84-7,4-9,1.2-.77,2.5-1,14-1,.93,0,2.32,0,4,0a97.68,97.68,0,0,1,11,1c7.08.78,13.06-.51,20-2,4.15-.89,3.65-1.08,8-2,5.12-1.08,10.11-2.23,16-2a53.94,53.94,0,0,1,18,4,46.71,46.71,0,0,1,15,9c15.95,14.84,23.5,36.36,31,44,1.69,1.73,3,3.12,4.24,4.45,3.09,3.37,5.28,6,5.76,6.55,5.08,6.11,7.63,9.22,8,12,.05.41.75,6.14-2,8-4.79,3.23-15.88-8-33.41-19.5C389.42,152.92,373.59,148.86,369.26,147.58Z"/><path class="cls-13" d="M360,382c-14.84-13.61-66.84-72.49-137-2.21"/></svg>
