<svg id="Layer_1" data-name="Layer 1" xmlns="http://www.w3.org/2000/svg" width="59" height="55" viewBox="0 0 59 55"><defs><style>.cls-1{fill:#e6e6e6;}</style></defs><title>graa_hjerte</title><path class="cls-1" d="M30,51.18C28,48.49,24.64,44.36,20.19,39.6,15.49,34.55,13.18,33,9,28c-4.42-5.3-6.64-8-7.17-11.48C1.8,16.12.77,8.54,6.63,4.2,11.85.33,20.79.33,25.3,4.93a11,11,0,0,1,2.94,6.34,9.94,9.94,0,0,1,3.67-7.33c4.3-3.24,10.74-1.81,14.67.57a15.3,15.3,0,0,1,7.23,12.73c0,4.18-2.47,7.25-7.39,13.41-3,3.79-4.43,4.66-7.61,8.42A99.22,99.22,0,0,0,30,51.18Z"/></svg>
