<svg id="Layer_1" data-name="Layer 1" xmlns="http://www.w3.org/2000/svg" width="393" height="209" viewBox="0 0 393 209"><title>home_settings</title><path d="M71.33,121.64a1.52,1.52,0,0,1-1.4-.6,3.38,3.38,0,0,1-.37-1.72c0-3.22.1-6.57.28-10s.28-7.16.28-11.07v-5.4c0-1.92,0-3.81-.05-5.67s-.07-3.59-.14-5.21-.12-3-.18-4.18a3,3,0,0,0-.61-1.91,7.32,7.32,0,0,0-1.39-1.39c-.53-.41-1-.79-1.4-1.16a1.75,1.75,0,0,1-.6-1.31,2.22,2.22,0,0,1,.42-.93,9,9,0,0,1,1.11-1.35,8.67,8.67,0,0,1,1.63-1.25,3.76,3.76,0,0,1,2-.56,7.5,7.5,0,0,1,2,.37,19.68,19.68,0,0,1,2.33.89,11.81,11.81,0,0,1,1.9,1.06c.53.38.79.72.79,1a6.75,6.75,0,0,1-.69,2.42,10.33,10.33,0,0,0-.79,3.81c0,2.23,0,4.56,0,7s-.11,4.78-.23,7.07H100.9c.06-1.24.11-2.63.14-4.18s0-3.13,0-4.75a57.14,57.14,0,0,0-.28-6c-.19-1.8-.28-3.13-.28-4,0-.43.31-.83.93-1.21a11.16,11.16,0,0,1,2.19-1,17.14,17.14,0,0,1,2.56-.65,12.19,12.19,0,0,1,2.13-.24c1.24,0,1.86.44,1.86,1.31a1.57,1.57,0,0,1-.23.79q-.23.42-.51,1c-.19.4-.4.92-.65,1.53a12.69,12.69,0,0,0-.65,2.42c-.19,1.12-.34,2.33-.47,3.63s-.22,2.62-.28,3.95-.11,2.64-.14,3.91,0,2.37,0,3.3c.49-.06,1-.11,1.53-.14s1,0,1.54,0a2.36,2.36,0,0,1,1.16.24c.28.15.42.54.42,1.16a6.85,6.85,0,0,1-.56,2.28c-.37,1-.93,1.44-1.67,1.44a2.73,2.73,0,0,1-.65-.09,3.12,3.12,0,0,0-.84-.1c-.62,0-.93.38-.93,1.12L107,115.6a5.14,5.14,0,0,1-.23,1.35,12.74,12.74,0,0,1-.6,1.58,5.36,5.36,0,0,1-.89,1.35,1.55,1.55,0,0,1-1.16.56,2.69,2.69,0,0,1-1.81-.47,2.87,2.87,0,0,1-.61-2l-.93-21.67c-1.67,0-3.73,0-6.18.14s-4.92.2-7.4.32-4.76.3-6.83.52A29.66,29.66,0,0,0,76,98a6.52,6.52,0,0,0-.37,1.72c-.06.65-.1,1.23-.1,1.72v15.81C75.51,120.19,74.12,121.64,71.33,121.64Z"/><path d="M131.87,87a25.83,25.83,0,0,1,4.19-8.65,22.2,22.2,0,0,1,7.39-6.37,22.43,22.43,0,0,1,10.93-2.47,17.74,17.74,0,0,1,7.07,1.44,15.71,15.71,0,0,1,5.86,4.47,22.64,22.64,0,0,1,4,7.72,36.66,36.66,0,0,1,1.49,11.11,29,29,0,0,1-1.9,10.88,24.11,24.11,0,0,1-5.07,8,21.86,21.86,0,0,1-15.63,6.56,17.89,17.89,0,0,1-7-1.49,18.57,18.57,0,0,1-6.33-4.42,22.79,22.79,0,0,1-4.55-7.3,26.83,26.83,0,0,1-1.77-10.13A34.93,34.93,0,0,1,131.87,87Zm6,12.64a22.06,22.06,0,0,0,2.37,6.28,17.72,17.72,0,0,0,4.7,5.44,12,12,0,0,0,7.62,2.33,14.9,14.9,0,0,0,4.37-.75,11.79,11.79,0,0,0,4.61-2.79,15.56,15.56,0,0,0,3.62-5.62,24.85,24.85,0,0,0,1.44-9.16,33.43,33.43,0,0,0-1.2-9.68,18.23,18.23,0,0,0-3.17-6.27,11.62,11.62,0,0,0-4.46-3.44,13.59,13.59,0,0,0-11.72.55,15.06,15.06,0,0,0-4.83,4.33,19.65,19.65,0,0,0-3,6.32,28.06,28.06,0,0,0-1,7.63A25.43,25.43,0,0,0,137.92,99.6Z"/><path d="M239.19,78.17l4.51-7.54a24.46,24.46,0,0,1,2.19-3.25,1.81,1.81,0,0,1,1.3-.7,7.42,7.42,0,0,1,1.54.23c.65.16,1.3.35,2,.56a10.78,10.78,0,0,1,1.67.7c.47.25.7.46.7.65a12.69,12.69,0,0,1-.14,1.91,10.43,10.43,0,0,0-.14,1.53,54.6,54.6,0,0,0,.65,7.4c.44,3,1,6.2,1.63,9.57s1.36,6.81,2.14,10.28,1.49,6.65,2.14,9.53,1.19,5.29,1.63,7.21a26.78,26.78,0,0,1,.65,3.44q0,.56-.75,1a7.18,7.18,0,0,1-1.72.79c-.65.22-1.25.41-1.81.56a5,5,0,0,1-1.12.23,1.48,1.48,0,0,1-1.16-.37,3.52,3.52,0,0,1-.51-1.67c-.5-4.22-1.09-8.35-1.77-12.42s-1.38-8-2.09-11.81-1.41-7.47-2.09-11-1.24-6.8-1.68-9.91q-6.14,9.4-9.76,15.16t-5.58,9.16a37,37,0,0,0-2.56,5.07,11.39,11.39,0,0,0-.7,2.89,2.82,2.82,0,0,1-.74,2.09,3.15,3.15,0,0,1-1.95.51,2.57,2.57,0,0,1-1.86-.56,7.71,7.71,0,0,1-1.31-2.42c-.24-.55-.77-1.53-1.58-2.93s-1.78-3-2.93-4.79-2.4-3.72-3.76-5.76-2.7-4-4-6-2.5-3.71-3.58-5.35L204,78.4c-.19.74-.5,2.2-.93,4.37s-.93,4.67-1.49,7.49-1.13,5.79-1.72,8.93-1.13,6-1.63,8.74-.9,5-1.21,6.93a34.48,34.48,0,0,0-.46,3.44,5.91,5.91,0,0,0,.19,1.49,6.24,6.24,0,0,1,.18,1.48.91.91,0,0,1-.42.7,2.2,2.2,0,0,1-1.35.32,16.31,16.31,0,0,1-4-.46,2,2,0,0,1-1.81-2,7,7,0,0,1,.46-2.1c.31-.9.74-2.18,1.3-3.86.31-1,.75-2.55,1.31-4.69s1.14-4.59,1.76-7.35,1.26-5.66,1.91-8.7,1.24-5.92,1.77-8.65,1-5.16,1.3-7.3a33.53,33.53,0,0,0,.51-4.6,3.72,3.72,0,0,0-.47-2.18,2.8,2.8,0,0,1-.46-1.73c0-.68.46-1.13,1.39-1.34a15.24,15.24,0,0,1,3.44-.33,4.38,4.38,0,0,1,2.1.33,1.88,1.88,0,0,1,.69,1.34A16.51,16.51,0,0,0,208,72.54c.86,1.67,1.92,3.55,3.16,5.63s2.59,4.24,4,6.51,2.87,4.4,4.23,6.41,2.61,3.83,3.72,5.45l2.52,3.62,5.3-8.46Q236.21,83.15,239.19,78.17Z"/><path d="M306.15,93a1.74,1.74,0,0,1-.51.88,11.35,11.35,0,0,1-1.25,1.26,14.59,14.59,0,0,1-1.45,1.12,2.22,2.22,0,0,1-1.16.46q-4.18.38-7.76.42t-6.37.14q0,11.16,4.37,16.78t14,5.63a6.8,6.8,0,0,1,2.74.37,1.62,1.62,0,0,1,.7,1.58c0,.5-.47,1-1.4,1.49a11.36,11.36,0,0,1-4.93.75,30.34,30.34,0,0,1-9-1.17,19.54,19.54,0,0,1-6.23-3.11,15.16,15.16,0,0,1-3.95-4.51,22.84,22.84,0,0,1-2.19-5.4,31,31,0,0,1-.93-5.72c-.12-1.92-.18-3.75-.18-5.48a59.84,59.84,0,0,1,1.72-15.58,31.55,31.55,0,0,1,4.51-10.14,16,16,0,0,1,6.46-5.48,18.47,18.47,0,0,1,7.58-1.63,15.45,15.45,0,0,1,5.3.6,2.2,2.2,0,0,1,1.4,2.19q0,2-1.77,2h-5.49a10.69,10.69,0,0,0-4.32.93,9.28,9.28,0,0,0-3.81,3.49,23.77,23.77,0,0,0-2.93,7,55.62,55.62,0,0,0-1.58,11.44,6.27,6.27,0,0,1,1.76-1.07,6.35,6.35,0,0,1,2.42-.42h12.56C305.56,91.88,306.15,92.26,306.15,93Z"/></svg>
