<svg id="Layer_1" data-name="Layer 1" xmlns="http://www.w3.org/2000/svg" width="119" height="114" viewBox="0 0 119 114"><defs><style>.cls-1{fill:#8c623a;}.cls-2{stroke:#000;stroke-width:0.25px;}.cls-2,.cls-3{stroke-miterlimit:10;}.cls-3{fill:none;stroke:#1d1d1b;stroke-linecap:round;stroke-width:0.1px;}.cls-4{fill:#231905;}.cls-5{fill:#fff;opacity:0.78;}</style></defs><title>kokosnod</title><ellipse class="cls-1" cx="57.66" cy="53.54" rx="38.34" ry="44.72"/><ellipse class="cls-2" cx="76.19" cy="19.9" rx="1.25" ry="1.23"/><path class="cls-2" d="M79.49,35.14a2.79,2.79,0,0,1,0,1.87c-.23.59-.51.54-1.41,1.5s-.87,1.26-1.41,1.5a3.29,3.29,0,0,1-1.75,0c-1.35-.17-2-.25-2.47-.75s-.16-.76-.7-1.5-1.18-.78-1.41-1.5c-.06-.21,0-.2,0-1.12a15.26,15.26,0,0,1,0-1.88,2.51,2.51,0,0,1,.71-1.5c.71-.61,1.41-.07,2.11-.75.32-.31.32-.58.7-.75a1.49,1.49,0,0,1,1.06,0A2.44,2.44,0,0,1,76,31c.36.4.39.63.7.75s.37,0,.71,0a1.64,1.64,0,0,1,1.4.75c.25.5-.19.79,0,1.5S79.24,34.55,79.49,35.14Z"/><path class="cls-3" d="M74.94,59.7C79.7,52.25,79.3,44,78.68,35.36c-.21-3,.83-6-.27-9s-3.91-5.82-8.54-7.26"/><path class="cls-2" d="M76.14,18c3.3,2.35,4.26,7.66,3.72,8.09-.1.07-.18,0-.5,0-.76.11-.9.79-1.41.82s-.9-1-1.41-.82c-.32.1-.27.54-.7.82a1.56,1.56,0,0,1-1.41,0c-.76-.29-.83-.78-1.4-.82s-.67.41-1,.29c-.55-.18-.35-1.2-1.07-1.93-.54-.54-.85-.19-1.41-.82a2.65,2.65,0,0,1-.7-1.64c0-.4.1-.54,0-.82s-.55-.39-.71-.82a2,2,0,0,1,0-.82c.06-.55.15-1.11.18-1.24C68.56,17.22,72.83,15.59,76.14,18Z"/><path class="cls-2" d="M68.23,28.51c-.11.38-.54.34-.7.83s.06.5,0,.82c-.13.7-1.12.48-1.84,1.38,0,.07-.35.68-1,1.9a1.57,1.57,0,0,1-.71.82,1.05,1.05,0,0,1-.7,0,3,3,0,0,1-1.41-.82c-.42-.4-.33-.48-.7-.82s-.69-.38-1.06-.57a3.5,3.5,0,0,1-.35-.25h0c-.35-1.49-.7-1.64-.7-1.64-.26-.12-.37.1-.7,0s-.64-.66-.71-.82a2,2,0,0,1,0-1.65c.38-.6,1.07-.25,1.41-.82s-.06-.83,0-1.64a2.92,2.92,0,0,1,1.41-2.46c.55-.19.77.25,1.4,0S62.46,22.1,63,22a1.78,1.78,0,0,1,1.76.82c.48.66.22,1.09.7,1.64s.88.25,1.41.82c.36.4.2.59.7,1.64S68.35,28.14,68.23,28.51Z"/><path class="cls-4" d="M81.13,34.31a3.31,3.31,0,0,1,0,2.19c-.26.68-.57.63-1.58,1.75S78.57,39.72,78,40a3.87,3.87,0,0,1-2,0c-1.51-.21-2.27-.31-2.77-.88s-.19-.89-.8-1.75-1.33-.91-1.58-1.74c-.08-.25,0-.24,0-1.32a14.41,14.41,0,0,1,0-2.18,3,3,0,0,1,.79-1.75c.8-.71,1.59-.07,2.38-.87.36-.37.37-.68.79-.88a1.62,1.62,0,0,1,1.19,0,3,3,0,0,1,1.2.88c.4.46.44.73.79.87s.41,0,.79,0a1.89,1.89,0,0,1,1.59.88c.27.57-.22.91,0,1.74C80.51,33.65,80.86,33.63,81.13,34.31Z"/><path class="cls-4" d="M76.14,17.13c3.3,2.34,4.26,7.65,3.72,8.09-.1.07-.18,0-.5,0-.76.11-.9.79-1.41.82s-.9-1-1.41-.82c-.32.09-.27.54-.7.82a1.56,1.56,0,0,1-1.41,0c-.76-.29-.83-.79-1.4-.82s-.67.41-1,.29c-.55-.19-.35-1.2-1.07-1.93-.54-.54-.85-.19-1.41-.82a2.65,2.65,0,0,1-.7-1.64c0-.4.1-.54,0-.82s-.55-.39-.71-.82a2,2,0,0,1,0-.82c.06-.55.15-1.11.18-1.25C68.56,16.4,72.83,14.77,76.14,17.13Z"/><path class="cls-4" d="M69.07,27.69c-.12.38-.54.33-.71.82s.06.51,0,.83c-.13.7-1.11.47-1.83,1.38,0,.07-.36.68-1,1.9a1.55,1.55,0,0,1-.7.82,1.15,1.15,0,0,1-.71,0,3,3,0,0,1-1.4-.82c-.43-.4-.34-.48-.71-.82s-.69-.38-1.05-.57a2.56,2.56,0,0,1-.35-.25h0c-.36-1.49-.71-1.64-.71-1.64-.26-.12-.36.1-.7,0a1.36,1.36,0,0,1-.7-.83,2,2,0,0,1,0-1.64c.38-.6,1.07-.25,1.4-.82s-.06-.83,0-1.64A2.94,2.94,0,0,1,61.33,22c.55-.19.78.25,1.41,0s.55-.67,1-.82a1.78,1.78,0,0,1,1.76.82c.48.66.22,1.09.7,1.64s.89.25,1.41.82c.36.4.2.58.7,1.64S69.18,27.32,69.07,27.69Z"/><path class="cls-3" d="M40.15,14.91a1.5,1.5,0,0,0-.07-1.29,2.94,2.94,0,0,0-.91-1,3.5,3.5,0,0,0-2.57-.75"/><path class="cls-3" d="M41.36,13.75a6.36,6.36,0,0,1-.24-5.21"/><path class="cls-3" d="M43.45,12.59a6.68,6.68,0,0,1-.27-1.88c0-.29.13-.67.42-.64"/><path class="cls-3" d="M85.72,21.76a2.48,2.48,0,0,1-.29,1.39c.36.05.9.58,1.26.48"/><path class="cls-3" d="M84.35,21.9a.68.68,0,0,0,.57-.4,2,2,0,0,0,.14-.7"/><path class="cls-3" d="M87.57,79.1a29.48,29.48,0,0,0,3.74.4"/><path class="cls-3" d="M87.18,80.68a1.73,1.73,0,0,0,1.59,1.2"/><path class="cls-3" d="M86,82.58l.14,1.78"/><path class="cls-3" d="M26.88,82.36A1.77,1.77,0,0,0,28.53,81"/><path class="cls-3" d="M27.35,84.23a1.62,1.62,0,0,1,1.07-1.1A4.7,4.7,0,0,1,30,82.92"/><path class="cls-3" d="M47.47,45.47a1.82,1.82,0,0,1,.19-1.8"/><path class="cls-3" d="M80.75,52.69c.2-.14.38.2.37.44v1.43a1.85,1.85,0,0,1,.25-.75.57.57,0,0,1,.6-.31"/><path class="cls-3" d="M83.34,68c-.89.29-1,1.15-1,1.92,0-.75,0-1.62,0-2.37,0-.3,0-.64.31-.79"/><path class="cls-3" d="M27.58,48.73a2.09,2.09,0,0,0-.72-2.06c-.56-.53-1.26-.89-1.86-1.38"/><path class="cls-3" d="M27.41,43.53l1,3.46c-.17-.92.62-1.58.92-2.47"/><path class="cls-3" d="M48.5,80a3.27,3.27,0,0,1,2.29,3.18c0-.48,0-1.37,0-1.85a.79.79,0,0,1,.07-.4.25.25,0,0,1,.36-.07"/><path class="cls-3" d="M62.71,99.48V96.42a12.51,12.51,0,0,1,1.37,2.14"/><path class="cls-3" d="M45.87,15.52,38.7,22.6c-2.48,2.45-5.06,5.06-6,8.4-.43,1.6-.45,3.28-.73,4.91-.31,1.8-.93,3.53-1.4,5.29a32.4,32.4,0,0,0,1.49,20.92c1.18,2.74,2.73,5.34,3.62,8.18.55,1.78.83,3.64,1.38,5.42,2,6.65,7.53,11.64,12.78,16.29"/><path class="cls-3" d="M50.12,16.63c-4.76,7.63-7,16.6-7.61,25.53s.15,17.89,1,26.8"/><path class="cls-3" d="M66.28,89a34.25,34.25,0,0,0,8-5.54,30.18,30.18,0,0,0,5-7.56,41.71,41.71,0,0,0,4-10.25,49.07,49.07,0,0,0,.76-8.9l.43-17"/><path class="cls-3" d="M83,24.63c3,2,4.29,5.61,5.37,9,2.6,8.14,5.21,16.75,3.36,25.08"/><path class="cls-5" d="M26.56,34.26l1.78-2.53c3.65-5.12,5-8.79,10-12.77,1.11-.9,2.44-1.62,3.19-2.8a1.38,1.38,0,0,0,.07-.71,1.7,1.7,0,0,0-.73,0c-3.76,1.33-6.45,5-8.93,7.87C30.74,24.61,26.56,34.26,26.56,34.26Z"/><path class="cls-4" d="M61.6,98c0,.3-1.31,1.1-2.92,1.1s-2.92-.8-2.92-1.1,1.3-.55,2.92-.55S61.6,97.69,61.6,98Z"/><path class="cls-4" d="M54.93,9.11c0-.3,1.29-1.1,2.91-1.11s2.92.77,2.92,1.07-1.3.56-2.91.57S54.93,9.42,54.93,9.11Z"/></svg>
