<svg id="Layer_1" data-name="Layer 1" xmlns="http://www.w3.org/2000/svg" xmlns:xlink="http://www.w3.org/1999/xlink" width="197" height="298" viewBox="0 0 197 298"><defs><style>.cls-1{fill:#544436;}.cls-2,.cls-4{fill:#a67c52;}.cls-11,.cls-2,.cls-7{stroke:#000;stroke-miterlimit:10;}.cls-2{stroke-width:0.25px;}.cls-3{fill:#f2e7ef;}.cls-5{fill:#c4a686;}.cls-6{fill:url(#linear-gradient);}.cls-8{fill:#fff;}.cls-9{fill:#8c6239;}.cls-10{fill:url(#linear-gradient-2);}.cls-11{fill:none;stroke-width:4px;}.cls-12{fill:#c69c6d;}</style><linearGradient id="linear-gradient" x1="-197.75" y1="786.9" x2="-225.71" y2="758.94" gradientTransform="translate(-47.25 -712.85) rotate(-20.11)" gradientUnits="userSpaceOnUse"><stop offset="0" stop-color="#fff"/><stop offset="0.1" stop-color="#fff4f9"/><stop offset="0.27" stop-color="#ffd8e8"/><stop offset="0.5" stop-color="#ffaace"/><stop offset="0.55" stop-color="#ff9fc7"/></linearGradient><linearGradient id="linear-gradient-2" x1="-960.26" y1="786.9" x2="-988.22" y2="758.94" gradientTransform="matrix(-0.94, 0.34, 0.34, 0.94, -1029.93, -352.98)" xlink:href="#linear-gradient"/></defs><title>kravlende_abe</title><path class="cls-1" d="M62.07,13.5C62.53,6.85,64.71,2.08,66.85.27c.55-.46,1.51,2.32.68,4.45a48.64,48.64,0,0,0-1.78,4.84c-1,3.09-1.54,10.84.8,13.05,2,1.94-.13,4.93-1.44,3.88C63.36,25.08,61.57,20.74,62.07,13.5Z"/><path class="cls-1" d="M65.08,21.24c-.89,6.4.7,11,2.89,12.8.56.45,2.33-2.2,1.79-4.26a36,36,0,0,1-1.1-4.68c-.48-3,.51-10.45,3.82-12.53,2.89-1.82.91-4.74-.9-3.75C69.16,10.14,66.06,14.27,65.08,21.24Z"/><path class="cls-1" d="M57.87,26.06c-6.43-1.24-11.7.2-14.16,2.41-.63.57,1.65,2.54,3.95,2.07a37.58,37.58,0,0,1,5.19-.92c3.26-.36,10.76,1,12,4.58,1.1,3.11,4.69,1.18,4.16-.76C68.33,30.85,64.87,27.41,57.87,26.06Z"/><ellipse class="cls-1" cx="58.9" cy="19.84" rx="2.3" ry="15.03" transform="translate(1.93 44.68) rotate(-42.17)"/><path class="cls-1" d="M56.47,23.43c6.46,2.86,10.17,6.45,10.93,8.9.19.63-3.08.38-4.81-1.1a46.34,46.34,0,0,0-4-3.28C56,26,48.48,22.63,45.09,23.74c-3,1-4.88-1.95-3.18-2.64C44.19,20.17,49.44,20.31,56.47,23.43Z"/><rect class="cls-2" x="92.54" y="120.8" width="13.1" height="24.7"/><ellipse class="cls-3" cx="91" cy="72" rx="47" ry="51"/><path class="cls-4" d="M151.86,240.93a52.42,52.42,0,0,1-15.21,19c9-18.16,4.69-34-1.69-42.26-6.67-8.72-15.38-10-21.8-8.56a15.62,15.62,0,0,0-2.67-5.33c5.73-3.54,13.9-5.78,23.17-.59C142.51,208.13,152.46,220.53,151.86,240.93Z"/><path class="cls-2" d="M131.84,253.75a15.87,15.87,0,0,1,3.51-8.52,15.5,15.5,0,0,1,2.57,8.77c-.27,4.78-1.84,8.6-3.52,8.53S131.58,258.53,131.84,253.75Z"/><path class="cls-4" d="M146.73,244.71a16,16,0,0,1-6-7.49,20.57,20.57,0,0,1,10,2.78c4.43,2.83,7.13,6.18,6,7.48S151.17,247.54,146.73,244.71Z"/><path class="cls-4" d="M144.48,250.09A14.08,14.08,0,0,1,143.3,241s4.95,2.26,7.29,6.59,2.88,8.4,1.19,9.09S146.82,254.41,144.48,250.09Z"/><ellipse class="cls-5" cx="89.83" cy="73.35" rx="47" ry="51" transform="translate(-19.75 35.36) rotate(-20.11)"/><path class="cls-4" d="M114.6,160.51a11.43,11.43,0,0,0,1.79-4.26c13.15,3.71,34.33-10.47,30.1-41.61A53.07,53.07,0,0,1,158,136.39C149.11,166.17,125.92,168.27,114.6,160.51Z"/><path class="cls-4" d="M126.67,28A25.45,25.45,0,0,0,120,31.58c-13.4-11.15-31.45-15.22-48.1-9.12s-27.8,20.86-30.83,38A25.22,25.22,0,0,0,33.67,62C19.55,67.18,12.61,83.69,18.18,98.9s21.53,23.33,35.65,18.15a25.16,25.16,0,0,0,6.65-3.63c13.4,11.15,31.45,15.22,48.1,9.13s27.8-20.87,30.83-38A25.55,25.55,0,0,0,146.83,83c14.12-5.17,21.06-21.69,15.49-36.89S140.79,22.78,126.67,28Zm7.53,50.57c5.42,14.8-6.41,32.73-26.42,40.06s-40.62,1.27-46-13.53a23.13,23.13,0,0,1,.07-15.55,23.27,23.27,0,0,1-15-14.45c-4.32-11.8,1.07-24.63,12-28.64,9.19-3.36,19.37.51,25,8.8-1.07-10,4.2-19.49,13.38-22.85,11-4,23.36,2.3,27.69,14.1a23.39,23.39,0,0,1-1.55,19.78A23.29,23.29,0,0,1,134.2,78.52Z"/><path class="cls-6" d="M49.72,88.59c-5.11-1.75-9.5-6.65-7.23.32,1,3.24,6.61,9.6,8.91,6.56,2.09-2.75,4,5.1,1.53,11.15-1.68,4.13-7,6.75-9.37,7.23-7.87,1.64-16.91-4.1-21-15.31S21.2,76,28.7,73.27c5.51-2,12.05,1.15,16.76,7.41C47.17,82.94,52,89.36,49.72,88.59Z"/><ellipse class="cls-7" cx="88.47" cy="80.12" rx="0.93" ry="1.33" transform="translate(-22.16 35.31) rotate(-20.11)"/><ellipse cx="70.92" cy="72.12" rx="9.7" ry="10.44" transform="matrix(0.94, -0.34, 0.34, 0.94, -20.48, 28.79)"/><ellipse cx="102.68" cy="59.78" rx="9.7" ry="10.44" transform="translate(-14.3 38.95) rotate(-20.11)"/><ellipse class="cls-8" cx="66.21" cy="70.06" rx="2.68" ry="2.89" transform="translate(-20.06 27.04) rotate(-20.11)"/><ellipse class="cls-8" cx="99.16" cy="57.99" rx="2.68" ry="2.89" transform="translate(-13.9 37.64) rotate(-20.11)"/><path class="cls-9" d="M51.08,68.15c1.16,2.32,1-4,3.18-6.94,2.74-3.75.33-.45.75-1,2.82-3.86,10.44-4.71,6.27-6A8.58,8.58,0,0,0,52,57.67,10.2,10.2,0,0,0,51.08,68.15Z"/><path class="cls-9" d="M114.2,44.49c.85,2.46-3.53-2-7.16-2.49l-1.24-.16c-4.71-.62-10.6,4.35-8.63.41a8.57,8.57,0,0,1,8.91-4.34A10,10,0,0,1,114.2,44.49Z"/><path class="cls-10" d="M129.62,59.33c2.78-4.64,3-11.22,5.74-4.43,1.28,3.15,1.15,11.59-2.58,10.76-3.37-.75.24,6.48,6,9.51,4,2.06,9.73.61,11.82-.53,7.07-3.84,10.26-14.06,6.16-25.27s-13.52-18.06-21-15.31c-5.51,2-8.46,8.66-8,16.48C127.93,53.37,128.39,61.39,129.62,59.33Z"/><ellipse class="cls-7" cx="93.6" cy="78.24" rx="0.83" ry="1.33" transform="translate(-21.2 36.96) rotate(-20.11)"/><path class="cls-11" d="M74.61,102.93c6.35,2.59,29.92,15.24,44.09-15.48"/><ellipse class="cls-4" cx="100.5" cy="170.5" rx="29" ry="44"/><ellipse class="cls-12" cx="116.5" cy="175" rx="11.5" ry="23"/><path class="cls-4" d="M139.15,121.49a29.83,29.83,0,0,0,2.51,3.51,2.12,2.12,0,0,0-.11.21c-1.86,3.93.84,9.1,6,11.56s10.91,1.27,12.77-2.66a2.72,2.72,0,0,0,.11-.25c1.29-.54,2.65-1.17,4-1.88,5.83-3,9.81-6.31,8.89-7.37s-6.4.52-12.23,3.54l-.8.42-.08-.17c.61-.42,1.22-.87,1.84-1.34,5-3.85,8.18-7.75,7.1-8.71s-6,1.38-11,5.23l-1,.8-.17-.14c.3-.48.59-1,.88-1.5,2.95-5.25,4.22-10.11,2.84-10.83s-4.91,3-7.87,8.2c-.27.48-.52,1-.77,1.43,0-.4,0-.81,0-1.22.07-6.26-1.18-11.59-2.81-11.89s-3,4.52-3.09,10.78c0,.81,0,1.6,0,2.37l-.16,0c-.3-.59-.64-1.2-1-1.81-2.73-4.47-6.27-7.71-7.91-7.25S136.42,117,139.15,121.49Z"/><path class="cls-4" d="M162.76,176.63a32.87,32.87,0,0,0,.39,6.24c-23.43,2.44-48.15-2.44-70.74-14.61A102.29,102.29,0,0,1,96,149.13C115.91,165.37,139.29,174.7,162.76,176.63Z"/><path class="cls-4" d="M164.4,166.77a24.19,24.19,0,0,0-2.2,3.12,1.46,1.46,0,0,0-.22,0c-4.15-.42-7.75,3.33-8,8.39s2.84,9.49,7,9.91l.26,0c.95.92,2,1.88,3.13,2.83,4.79,4,9.15,6.38,9.76,5.3s-2.79-5.2-7.58-9.21l-.66-.54.12-.11c.59.38,1.21.76,1.85,1.14,5.23,3.08,9.83,4.61,10.29,3.43s-3.41-4.63-8.63-7.7c-.36-.22-.72-.42-1.07-.62l.06-.18c.54.11,1.08.21,1.64.3,5.73,1,10.48.61,10.62-.76s-4.39-3.25-10.12-4.2c-.52-.09-1-.17-1.54-.23.36-.11.73-.21,1.09-.33,5.57-1.75,9.83-4.34,9.51-5.79s-5.1-1.21-10.67.54c-.72.22-1.41.46-2.08.71l-.09-.12q.62-.63,1.23-1.38c3-3.57,4.55-7.47,3.54-8.71S167.36,163.2,164.4,166.77Z"/><path class="cls-4" d="M135.21,270.65a44.14,44.14,0,0,1-13,5.68c10.67-16.46,9.7-34,4.45-45.23-5.3-11.6-14.86-16.86-22.57-17.64a24.37,24.37,0,0,0-1.4-8.39c8.44-.66,19.83,3,28,14.64C138.7,230.91,143.5,250,135.21,270.65Z"/><path class="cls-4" d="M123.14,272.47a12.78,12.78,0,0,1,6.52-4.64,12.72,12.72,0,0,1-1.62,7.84c-2.25,3.45-5.17,5.52-6.52,4.64S120.89,275.92,123.14,272.47Z"/><path class="cls-4" d="M126.69,276a13.23,13.23,0,0,1,2.48-7.53,13.21,13.21,0,0,1,3,7.36c.14,4.11-1,7.48-2.48,7.53S126.82,280.08,126.69,276Z"/><path class="cls-4" d="M132.92,275.9a12.9,12.9,0,0,1-3.36-7.22,12.88,12.88,0,0,1,7.3,3.18c2.95,2.87,4.45,6.11,3.36,7.23S135.86,278.78,132.92,275.9Z"/><path class="cls-4" d="M82.45,201.17c-5.09-.65-9.52,1.6-13.19,5-5.21,4.83-9,10.39-15.23,14.19a42.66,42.66,0,0,1-42.67.78c-1.7-.92-3.22,1.67-1.52,2.59A45.81,45.81,0,0,0,48,226.64a45.85,45.85,0,0,0,15.4-9.76c5.53-5.35,10.13-13.84,19-12.71,1.91.24,1.89-2.76,0-3Z"/></svg>
