<svg id="Layer_1" data-name="Layer 1" xmlns="http://www.w3.org/2000/svg" width="153" height="2009" viewBox="0 0 153 2009"><title>kravletingen</title><path d="M51.71,52.38c-22.69,53.24-11.5,109.92,0,164.44,6.12,29,12.51,58.06,13.78,87.72,1.35,31.72-3.08,63.26-6.24,94.74-3.18,31.72-3.9,63,.38,94.62,4.23,31.25,11.68,61.9,17.54,92.85C89.11,649.69,86.64,712.51,80.88,776c-5.73,63-13.46,126.51-7.43,189.83,3,31.24,9.91,61.83,15.24,92.7,5.68,33,7.57,65.44,3.24,98.69-4.16,31.88-11.44,63.24-14.35,95.3s-2.47,64.5-.69,96.7c3.61,65.27,12.06,130.14,11,195.63C85.75,1673.71,57.82,1801.4,65,1930.56q1.34,23.94,4.41,47.72c1.21,9.45,16.23,9.57,15,0-16.42-128.06,8.77-255.82,16.45-383.52,3.87-64.2.19-127.49-5.09-191.48-5.4-65.34-8.25-129.81,2.85-194.74,5.3-31,11.47-62.1,11-93.66-.46-31.37-6.75-62.29-12.56-93-6-31.75-10.27-63.34-10.77-95.7-.47-31.4,1.62-62.77,4.34-94,5.45-62.5,13.63-125.26,9.25-188.1-4.34-62.3-26-122.14-28.41-184.58-1.2-31.74,3.26-63.27,6.39-94.77,3-30.27,3.89-60.19-.24-90.4C69.89,217.41,48.41,160.57,54,102.53A144.05,144.05,0,0,1,64.66,60c3.75-8.78-9.17-16.43-12.95-7.57Z"/></svg>
