<svg id="Layer_1" data-name="Layer 1" xmlns="http://www.w3.org/2000/svg" xmlns:xlink="http://www.w3.org/1999/xlink" width="606" height="473" viewBox="0 0 606 473"><defs><style>.cls-1{fill:#e5af7f;}.cls-2{fill:#544436;}.cls-3{fill:#a67c52;}.cls-4{fill:url(#linear-gradient);}.cls-5{fill:#fff;}.cls-6{fill:#8c6239;}.cls-7{fill:url(#linear-gradient-2);}.cls-8,.cls-9{fill:none;}.cls-9{stroke:#000;stroke-miterlimit:10;stroke-width:2px;}</style><linearGradient id="linear-gradient" x1="99" y1="252.16" x2="6.29" y2="159.44" gradientUnits="userSpaceOnUse"><stop offset="0" stop-color="#fff"/><stop offset="0.1" stop-color="#fff4f9"/><stop offset="0.27" stop-color="#ffd8e8"/><stop offset="0.5" stop-color="#ffaace"/><stop offset="0.55" stop-color="#ff9fc7"/></linearGradient><linearGradient id="linear-gradient-2" x1="-13034.25" y1="252.16" x2="-13126.97" y2="159.44" gradientTransform="matrix(-1, 0, 0, 1, -12530.5, 0)" xlink:href="#linear-gradient"/></defs><title>levelcomplete_abe</title><ellipse class="cls-1" cx="304" cy="243.5" rx="164" ry="165.5"/><path class="cls-2" d="M323,45.82c10.17-10.38,20.36-15.18,26.3-15.14,1.53,0-.92,6-5.24,8.34-9.19,5-9.68,5.49-9.68,5.49-5.89,3.78-17.81,15.8-17.27,22.8.46,6.12-7.21,8-7.77,4.38C308.59,66.87,311.94,57.12,323,45.82Z"/><path class="cls-2" d="M316.76,62.94c-10.49,9.34-14.56,19.27-13.65,25.33.24,1.56,6.78-.34,8.86-4.52,4.42-8.88,4.93-9.33,4.93-9.33,3.5-5.63,15.63-16.59,23.78-15.35,7.13,1.09,8.16-6.55,3.92-7.49C338.93,50.33,328.18,52.77,316.76,62.94Z"/><path class="cls-2" d="M300,59c-8.34-11.2-18.66-16.29-25.66-16.14-1.8,0-1,6.55,3.25,9,9.08,5.31,9.48,5.85,9.48,5.85,5.61,4,15.43,17,12.36,24.69-2.69,6.72,5.69,8.62,7.61,4.66C309.62,81.83,309.08,71.21,300,59Z"/><ellipse class="cls-2" cx="309.05" cy="51.82" rx="4.87" ry="32.82"/><path class="cls-2" d="M301.55,52.66c6.07,13.93,6.8,25.16,4.51,30.3-.59,1.32-5.38-3.74-6-8.65-1.29-10.44-1.59-11.11-1.59-11.11-1.38-7-8.35-23.23-15.25-26.2-6-2.59-4.9-10.17-1.24-8.9C286.89,29.81,294.94,37.5,301.55,52.66Z"/><path class="cls-3" d="M481.27,151.7a105.37,105.37,0,0,0-27.16,3.53c-31.71-47.41-88.08-79-152.36-79s-120.65,31.55-152.36,79a105.37,105.37,0,0,0-27.16-3.53C67.7,151.7,23.5,193,23.5,243.88s44.2,92.19,98.73,92.19a105.37,105.37,0,0,0,27.16-3.53c31.71,47.41,88.08,79,152.36,79s120.65-31.55,152.36-79a105.37,105.37,0,0,0,27.16,3.53c54.53,0,98.73-41.27,98.73-92.19S535.8,151.7,481.27,151.7Zm-37.4,157.48c0,49.57-62.63,89.75-139.88,89.75s-139.87-40.18-139.87-89.75c0-16.75,7.17-32.43,19.63-45.86-20-12.92-33.09-34.48-33.09-58.9,0-39.53,34.32-71.58,76.67-71.58,35.45,0,65.28,22.47,74,53,8.77-30.52,38.59-53,74.05-53,42.34,0,76.67,32,76.67,71.58,0,23.11-11.73,43.65-29.93,56.74C435.91,275.05,443.87,291.52,443.87,309.18Z"/><path class="cls-4" d="M147.13,248.64c-15.23-10.69-24.07-29.93-25-6.86-.44,10.68,10.54,35.47,22.18,29,10.53-5.86,7.26,19.4-8.7,34.6-10.88,10.36-32.35,12.32-40.91,11.23-28.83-3.7-52.46-30.43-52.46-68s23.49-68,52.46-68c21.28,0,39.59,16.41,47.82,40C145.47,229.2,153.89,253.39,147.13,248.64Z"/><ellipse cx="289.59" cy="265.53" rx="3.37" ry="4.19"/><ellipse cx="239.81" cy="222.93" rx="35.18" ry="32.82"/><ellipse cx="363.31" cy="220.84" rx="35.18" ry="32.82"/><ellipse class="cls-5" cx="226.34" cy="211.76" rx="9.73" ry="9.08"/><ellipse class="cls-5" cx="353.58" cy="211.76" rx="9.73" ry="9.08"/><path class="cls-6" d="M177.23,189.74c1.07,8.12,8.38-10.61,19.49-17.05l3.82-2.21c14.4-8.34,41.42-2.62,28.83-10.95-7.08-4.68-21.54-8.07-35.94.27S176.17,181.7,177.23,189.74Z"/><path class="cls-6" d="M421.62,188.14c-.17,8.18-9.52-9.75-21.28-15.08-14.81-6.72-1.77-.81-4-1.83-15.24-6.91-41.49,1.38-29.89-8.12,6.53-5.34,20.54-10.1,35.78-3.19S421.78,180,421.62,188.14Z"/><path class="cls-7" d="M455.62,248.64c15.23-10.69,24.07-29.93,25-6.86.45,10.68-10.54,35.47-22.18,29-10.53-5.86-7.25,19.4,8.7,34.6,10.88,10.36,32.35,12.32,40.91,11.23,28.83-3.7,52.46-30.43,52.46-68s-23.49-68-52.46-68c-21.27,0-39.59,16.41-47.82,40C457.28,229.2,448.86,253.39,455.62,248.64Z"/><ellipse cx="314.42" cy="265.53" rx="2.99" ry="4.19"/><path class="cls-8" d="M214,317.91c18.39,14.52,82.86,77.37,169.4,2"/><path class="cls-9" d="M236.15,314.43c14.77,13.69,66.46,72.84,137,2.94"/></svg>
