<svg id="Layer_1" data-name="Layer 1" xmlns="http://www.w3.org/2000/svg" width="1008" height="466" viewBox="0 0 1008 466"><defs><style>.cls-1{fill:#8c623a;}</style></defs><title>levelcomplete_tekst</title><path class="cls-1" d="M117.67,163.28a3.7,3.7,0,0,1,1.87-1.94,2.34,2.34,0,0,1,2.93.64,14.4,14.4,0,0,1,1,1.61,27.84,27.84,0,0,1,1.37,2.79,21.22,21.22,0,0,1,1,2.81c.24.89.16,1.41-.25,1.57a5.82,5.82,0,0,1-1.92.43l-3,.17a3.1,3.1,0,0,0-.86.14c-.37.11-1,.31-1.83.62s-2,.73-3.44,1.28-3.24,1.29-5.43,2.22-4.17,1.81-5.54,2.45-2.44,1.15-3.23,1.54a7.21,7.21,0,0,0-1.59,1,3.55,3.55,0,0,0-.64.78,4.9,4.9,0,0,1-2.49,2.11,3,3,0,0,1-1.94-.14c-.89-.27-1.81-.61-2.77-1a21.13,21.13,0,0,1-2.61-1.27,8.39,8.39,0,0,1-1.47-1,3.12,3.12,0,0,1-.75-2.32,5.27,5.27,0,0,0-1.81-3.43c-1-1.1-2.15-2.43-3.59-4s-3.15-3.38-5.14-5.46Q68.78,157.81,62,150.71q-7-7.35-11.77-11.47t-7.74-6.3A31.23,31.23,0,0,0,38,130.07a7.08,7.08,0,0,1-2.08-1.29,2.63,2.63,0,0,1-.35-2,13.1,13.1,0,0,1,.68-3.11,15.07,15.07,0,0,1,1.34-3A4,4,0,0,1,39,119.09a8.36,8.36,0,0,1,3.2-.47,4.05,4.05,0,0,1,3.17,1.11A10.23,10.23,0,0,1,47,122.16,12.47,12.47,0,0,0,49,125.1q4.26,4.56,8.06,9.17t7.79,8.86c1.76,1.9,3.45,3.65,5.07,5.27s3.46,3.55,5.54,5.78,3.88,4.28,5.79,6.53,3.67,4.36,5.3,6.32,3,3.66,4.22,5.14,2.06,2.52,2.63,3.13a1.61,1.61,0,0,0,2,.26,2.41,2.41,0,0,0,.89-.67,3,3,0,0,1,1.11-.77q9-4.43,18.15-8.66A4.55,4.55,0,0,0,117.67,163.28Z"/><path class="cls-1" d="M148.14,120.08a1.9,1.9,0,0,1,.12,1.24,11.25,11.25,0,0,1-.46,2,12.48,12.48,0,0,1-.8,1.9,1.94,1.94,0,0,1-1,1q-4.68,2.19-8.89,3.79T129.67,133c6.57,8.51,13.21,14.27,19.79,17.36a26.23,26.23,0,0,0,20.57.88,8,8,0,0,1,3.4-.63,3.33,3.33,0,0,1,2.08,1.57c.41.58.29,1.34-.34,2.27s-2.26,1.86-4.88,2.78a37.38,37.38,0,0,1-11,2.24,33.82,33.82,0,0,1-9.68-1,33.35,33.35,0,0,1-8.46-3.48,51.58,51.58,0,0,1-7.33-5.2,60.94,60.94,0,0,1-6.23-6.09c-1.87-2.13-3.6-4.18-5.17-6.15-5.6-7-9.61-13.2-12-18.49s-3.51-9.85-3.44-13.67A13.55,13.55,0,0,1,110.38,96a20.24,20.24,0,0,1,8.31-5.36C122,89.48,124.48,88.93,126,89a4.37,4.37,0,0,1,3.59,1.93c1.13,1.59.93,2.64-.56,3.16l-7,2.44a11.43,11.43,0,0,0-4.69,3,8,8,0,0,0-1.79,5.75,26,26,0,0,0,2.49,9.39,81.55,81.55,0,0,0,8.15,13.81,5.08,5.08,0,0,1,1.18-2,6.26,6.26,0,0,1,2.54-1.55q7.56-2.77,15.14-5.41C146.51,119,147.52,119.22,148.14,120.08Z"/><path class="cls-1" d="M141.08,85c.92-1.24,3.31-2.5,7.15-3.74a12.08,12.08,0,0,1,3.53-.73A3.55,3.55,0,0,1,154,81.63c2.9,2.71,6.09,5.5,9.54,8.39s7,5.79,10.53,8.69,7.09,5.74,10.55,8.51,6.73,5.38,9.8,7.83,5.82,4.71,8.24,6.74,4.38,3.76,5.89,5.15q0-7.47-.11-16c-.07-5.71-.16-11.13-.3-16.25s-.34-9.59-.67-13.43-.8-6.41-1.49-7.69c-.93-1.74-1.37-3-1.28-3.67s.68-1.21,1.81-1.51a16,16,0,0,1,2.66-.44c1-.1,2.19-.19,3.43-.25a9.33,9.33,0,0,1,2.59.1,1.7,1.7,0,0,1,1.07.89,9.53,9.53,0,0,1,.23,2.84c0,1.58,0,3.62-.16,6.09s-.23,5.24-.38,8.3-.3,6.22-.41,9.48-.23,6.5-.33,9.69-.19,6.14-.29,8.85a64.37,64.37,0,0,0,.55,11.9,62.72,62.72,0,0,0,1.65,7.82q.88,3,1.38,4.38c.32.9.28,1.42-.14,1.54a11.54,11.54,0,0,1-4.41.5,4.82,4.82,0,0,1-2.83-1A375.16,375.16,0,0,0,180,112.54q-16.29-12.41-31.3-21.62a5.93,5.93,0,0,0-2.21-.81l-2.34-.36a12.79,12.79,0,0,1-2.06-.46,2.74,2.74,0,0,1-1.45-1.05C140,87.29,140.16,86.2,141.08,85Z"/><path class="cls-1" d="M274.56,85.16a2,2,0,0,1-.18,1.24,11.29,11.29,0,0,1-.89,1.89,13.28,13.28,0,0,1-1.19,1.77,2.19,2.19,0,0,1-1.18.88c-3.29,1-6.38,1.91-9.28,2.61s-5.47,1.35-7.71,2c4.28,9.2,9.24,15.71,14.75,19.58s11.89,5,19.28,3.46a7.66,7.66,0,0,1,3.36-.19,2.76,2.76,0,0,1,1.61,1.81c.26.62,0,1.35-.84,2.19s-2.57,1.54-5.26,2.11a35.74,35.74,0,0,1-11,.81,29.56,29.56,0,0,1-8.92-2.22,27.62,27.62,0,0,1-7.19-4.5,41.92,41.92,0,0,1-5.74-6,52.75,52.75,0,0,1-4.5-6.78q-2-3.49-3.49-6.71c-3.69-7.63-6.08-14.2-7.1-19.7s-1.07-10.14-.14-13.88a15.48,15.48,0,0,1,5.32-8.73,21.81,21.81,0,0,1,9.09-4.22c3.45-.74,5.88-1,7.32-.73a3.67,3.67,0,0,1,3,2.35q1.05,2.55-1.26,3c-2.39.5-4.77,1-7.16,1.52a12.36,12.36,0,0,0-5.14,2.39,9.12,9.12,0,0,0-3,5.44,25.92,25.92,0,0,0,.21,9.55,73.81,73.81,0,0,0,4.56,14.61,6,6,0,0,1,1.57-1.83,6.84,6.84,0,0,1,2.76-1.2q7.77-1.77,15.57-3.41C273.25,83.92,274.17,84.23,274.56,85.16Z"/><path class="cls-1" d="M345.09,101.55a4.53,4.53,0,0,1,2.47-1.4c1.25-.18,2,.25,2.3,1.28a11.9,11.9,0,0,1,.2,1.76,23.6,23.6,0,0,1-.3,5.84c-.16.89-.46,1.36-.89,1.43a5.56,5.56,0,0,1-1.87,0l-2.69-.53a2.44,2.44,0,0,0-.81-.07c-.37,0-1,.07-1.87.16s-2.07.23-3.56.42-3.39.47-5.69.84c-2.46.39-4.42.74-5.88,1s-2.62.53-3.47.72a7.37,7.37,0,0,0-1.81.56,3.85,3.85,0,0,0-.88.59,5.78,5.78,0,0,1-3,1.41,2.39,2.39,0,0,1-1.64-.58,24.52,24.52,0,0,1-2-1.58,14.08,14.08,0,0,1-1.75-1.81,6.1,6.1,0,0,1-.87-1.28,3.2,3.2,0,0,1,.32-2.37,4.88,4.88,0,0,0-.14-3.66c-.38-1.26-.86-2.8-1.46-4.6s-1.34-3.93-2.2-6.35l-5.88-16.56a142.07,142.07,0,0,0-5.46-13.57q-2.42-5-4.11-7.75a21.79,21.79,0,0,0-2.72-3.75A5.07,5.07,0,0,1,288.13,50c-.15-.39,0-1,.53-2a17.24,17.24,0,0,1,1.88-2.78A21.16,21.16,0,0,1,293,42.73a4.82,4.82,0,0,1,1.89-1.2,7.3,7.3,0,0,1,3,.29,3,3,0,0,1,2.31,1.78,9.37,9.37,0,0,1,.38,2.68,10.53,10.53,0,0,0,.58,3.26q1.78,5.3,3.19,10.54t3.08,10.18q1.11,3.3,2.21,6.16T312,83.17c.83,2.43,1.59,4.94,2.31,7.51s1.37,5,2,7.2,1.11,4.17,1.53,5.84.75,2.86,1,3.57.75.86,1.63.71a2.77,2.77,0,0,0,1.07-.43,3.45,3.45,0,0,1,1.28-.47q9.75-2.09,19.56-4A5.77,5.77,0,0,0,345.09,101.55Z"/><path class="cls-1" d="M391.16,60.5a34.75,34.75,0,0,1,3.29-11.58,26.71,26.71,0,0,1,6.27-8.19,35.43,35.43,0,0,1,8.12-5.35,39.56,39.56,0,0,1,8.67-3,51.12,51.12,0,0,1,7.82-1.13c3.48-.19,6.24.33,8.26,1.52s3.08,2.41,3.18,3.62a3.07,3.07,0,0,1-.58,1.79,13.08,13.08,0,0,1-1.6,2.07,11.13,11.13,0,0,1-2,1.74,3.84,3.84,0,0,1-1.82.76,2,2,0,0,1-1.49-.77c-.5-.54-1.09-1.14-1.78-1.79A11.19,11.19,0,0,0,425,38.43a6.33,6.33,0,0,0-3.41-.65,23.08,23.08,0,0,0-10,2.64A22.52,22.52,0,0,0,404.84,46a23.21,23.21,0,0,0-3.95,7.32,40.72,40.72,0,0,0-1.77,7.82,45.94,45.94,0,0,0-.34,7,42.16,42.16,0,0,0,.42,5A27.52,27.52,0,0,0,401.93,81a37.33,37.33,0,0,0,5.31,7.92,28.59,28.59,0,0,0,7.12,6,14.18,14.18,0,0,0,8.23,2,16.8,16.8,0,0,0,7-2,31.17,31.17,0,0,0,5.4-3.7q2.31-2,4-3.59A4.8,4.8,0,0,1,441.66,86a2.24,2.24,0,0,1,1.8.65,2.81,2.81,0,0,1,.77,1.79,4,4,0,0,1-.59,1.66,22.42,22.42,0,0,1-1.78,2.69q-1.16,1.5-2.61,3.09a18.24,18.24,0,0,1-3.2,2.77,13.92,13.92,0,0,1-2.81,1.54,34.21,34.21,0,0,1-3.91,1.38c-1.42.4-2.91.76-4.48,1.06a37.72,37.72,0,0,1-4.52.6,22.63,22.63,0,0,1-7.27-.94,24.81,24.81,0,0,1-8.41-4.27A32.87,32.87,0,0,1,397,89.58a36.88,36.88,0,0,1-5-13.65A52.19,52.19,0,0,1,391.16,60.5Z"/><path class="cls-1" d="M459.19,55.85a31.79,31.79,0,0,1,4.92-11.38A27.35,27.35,0,0,1,473.57,36a29.29,29.29,0,0,1,14.49-3.27,23.06,23.06,0,0,1,9.37,1.94A19.55,19.55,0,0,1,505,40.62a27.81,27.81,0,0,1,4.8,10.16A47.56,47.56,0,0,1,511,65.29a41.08,41.08,0,0,1-3,14.11,34.08,34.08,0,0,1-6.52,10.23,27.53,27.53,0,0,1-8.73,6.25A24.3,24.3,0,0,1,482.82,98a20,20,0,0,1-8.25-1.88,23.59,23.59,0,0,1-7.68-5.64,32.41,32.41,0,0,1-5.9-9.39A38.24,38.24,0,0,1,458.16,68,45.59,45.59,0,0,1,459.19,55.85Zm8.29,16.3a31.47,31.47,0,0,0,3.17,8.13,24.09,24.09,0,0,0,5.85,7,13.88,13.88,0,0,0,9.17,3,17.14,17.14,0,0,0,5.23-1,14.48,14.48,0,0,0,5.59-3.59,21.24,21.24,0,0,0,4.6-7.26,34.65,34.65,0,0,0,2.17-11.9A43.18,43.18,0,0,0,502.14,54a22.58,22.58,0,0,0-3.86-8.23,14.94,14.94,0,0,0-5.75-4.54,17.12,17.12,0,0,0-6.83-1.41,16.79,16.79,0,0,0-8.53,2.15A18.74,18.74,0,0,0,471,47.62a25.09,25.09,0,0,0-3.58,8.3,36.15,36.15,0,0,0-.95,10A36.09,36.09,0,0,0,467.48,72.15Z"/><path class="cls-1" d="M598.51,50.08c3.47-4,6.15-7,8-9a36.25,36.25,0,0,1,3.83-3.86,2.77,2.77,0,0,1,1.94-.69,9.54,9.54,0,0,1,2,.54c.81.3,1.63.64,2.43,1a13.74,13.74,0,0,1,2,1.17c.54.39.78.71.72.95a16.77,16.77,0,0,1-.77,2.42,12.46,12.46,0,0,0-.66,2,69.61,69.61,0,0,0-1.45,9.59q-.57,5.9-.93,12.55T615,80.18q-.26,6.87-.51,12.56c-.17,3.79-.33,7-.46,9.48a36.33,36.33,0,0,1-.39,4.51,2,2,0,0,1-1.21,1.19,10.8,10.8,0,0,1-2.27.75c-.83.17-1.59.32-2.29.44a6.3,6.3,0,0,1-1.37.13,1.45,1.45,0,0,1-1.23-.65,4.66,4.66,0,0,1-.07-2.22q1.13-8.22,1.78-16.19T608,74.71c.28-5,.49-9.81.66-14.42s.42-8.92.76-13c-7.18,7.43-12.69,13.5-16.75,18.13s-7.12,8.35-9.28,11.12A51.38,51.38,0,0,0,579,82.8a16.54,16.54,0,0,0-1.53,3.64,4.18,4.18,0,0,1-1.38,2.62,3.83,3.83,0,0,1-2.47.45,2.71,2.71,0,0,1-2.11-.92,9.7,9.7,0,0,1-1-3.26c-.18-.75-.61-2.06-1.3-4s-1.55-4-2.6-6.49-2.24-5.06-3.56-7.84-2.64-5.47-3.95-8.08l-3.67-7.24c-1.12-2.23-2-4-2.68-5.22-.36,1-1,2.81-1.9,5.59s-1.91,6-3.05,9.6-2.31,7.44-3.49,11.46S542,80.93,541,84.4s-1.79,6.44-2.42,8.91-1,4-1,4.44a9,9,0,0,0,0,1.94,8.48,8.48,0,0,1,0,2,1.3,1.3,0,0,1-.58.88,2.58,2.58,0,0,1-1.62.34,17.58,17.58,0,0,1-4.67-.84,2.46,2.46,0,0,1-1.88-2.76,9.94,9.94,0,0,1,.79-2.7c.46-1.15,1.12-2.8,2-4.94.49-1.27,1.19-3.28,2.13-6s2-5.89,3.09-9.43L540.39,65q1.85-5.86,3.44-11.11t2.72-9.39a45.43,45.43,0,0,0,1.35-5.93,4.65,4.65,0,0,0-.3-2.88,3.35,3.35,0,0,1-.37-2.26c.1-.89.78-1.44,2.06-1.65a20.71,20.71,0,0,1,4.65-.14,5.9,5.9,0,0,1,2.74.6,2.3,2.3,0,0,1,.71,1.81,21,21,0,0,0,1.43,5.2c.86,2.25,1.92,4.78,3.15,7.59s2.58,5.74,4,8.82,2.79,6,4.09,8.73,2.47,5.23,3.51,7.43,1.8,3.86,2.3,5q4.23-5.17,8.59-10.31C590.3,59.53,595,54.08,598.51,50.08Z"/><path class="cls-1" d="M652.34,67.13a127.45,127.45,0,0,0,3.08-12.73,5.63,5.63,0,0,0,0-1.35,1.52,1.52,0,0,0-.67-1.1c-1-.83-1.4-1.63-1.16-2.42.34-1.1,1.37-2,3.11-2.8a32.87,32.87,0,0,1,5.82-1.85A41.94,41.94,0,0,1,669,44a22.67,22.67,0,0,1,4.87.09A37.29,37.29,0,0,1,681,46.14a34.19,34.19,0,0,1,7,3.59,8.93,8.93,0,0,1,2.34,2.83,18.08,18.08,0,0,1,1.59,3.88,16.39,16.39,0,0,1,.61,4.14,9.64,9.64,0,0,1-.6,3.71c-2.13,5.45-4.26,9-6.36,10.81A46.9,46.9,0,0,1,681,78.55c-1.79,1.2-3.59,2.32-5.42,3.36a51.73,51.73,0,0,1-5,2.51,6.64,6.64,0,0,1-3.16.8,6.1,6.1,0,0,1-2.06-.87,21.76,21.76,0,0,1-2.16-1.51,8.14,8.14,0,0,1-1.62-1.66c-.41-.57-.58-1-.5-1.21a1.5,1.5,0,0,1,.92-.89,7.37,7.37,0,0,1,2.46-.38,19.61,19.61,0,0,0,10.6-3.34,16.09,16.09,0,0,0,6.37-7.69,30.55,30.55,0,0,0,1.17-4.35,18.29,18.29,0,0,0,.3-5.15,9.91,9.91,0,0,0-1.51-4.53,5.84,5.84,0,0,0-4.11-2.49,17.13,17.13,0,0,0-5.18-.17,26.93,26.93,0,0,0-5.41,1.31c-.61,1.31-1.31,2.87-2.08,4.69s-1.56,3.72-2.35,5.7-1.54,3.95-2.27,5.9-1.36,3.71-1.88,5.28Q653,89.42,647.79,105q-2.16,6.48-4.52,9.32a5.78,5.78,0,0,1-5.66,2.3c-1.21-.2-1.64-.88-1.26-2.06a4.57,4.57,0,0,1,.49-1c.24-.38.54-.89.94-1.53a20,20,0,0,0,1.29-2.65c.48-1.12,1-2.63,1.61-4.52l5.59-17.59Q649.92,75.74,652.34,67.13Z"/><path class="cls-1" d="M731,122.84a6.38,6.38,0,0,1,3.22-.26c1.23.33,1.58,1,1,2a15.4,15.4,0,0,1-1.14,1.57c-.65.82-1.37,1.66-2.19,2.52s-1.64,1.64-2.45,2.33-1.43,1-1.85.87a4.74,4.74,0,0,1-1.6-.74l-2-1.47a1.89,1.89,0,0,0-.65-.36c-.33-.13-.92-.32-1.76-.58s-2-.58-3.41-1-3.29-.89-5.58-1.44-4.37-1-5.85-1.34-2.66-.54-3.53-.7a9,9,0,0,0-2-.21,6.79,6.79,0,0,0-1.2.17,7.38,7.38,0,0,1-3.68,0c-.42-.09-.75-.46-1-1.1A13.85,13.85,0,0,1,695,121a9.7,9.7,0,0,1-.15-2.2,4.58,4.58,0,0,1,.21-1.41,4.75,4.75,0,0,1,2-1.89,6.76,6.76,0,0,0,2.6-3.17q.93-1.82,2.17-4.46c.82-1.76,1.77-3.84,2.83-6.22q3.63-8.14,7.25-16.28a136.24,136.24,0,0,0,5.4-13.58,79.71,79.71,0,0,0,2.23-8.13,16.32,16.32,0,0,0,.46-4.21,3.9,3.9,0,0,1,.18-1.93,4.48,4.48,0,0,1,1.92-1.47,30.23,30.23,0,0,1,3.69-1.66,34.88,34.88,0,0,1,3.92-1.21,6.9,6.9,0,0,1,2.52-.31,5.45,5.45,0,0,1,2.37,1.37,1.91,1.91,0,0,1,.66,2.38,11.78,11.78,0,0,1-1.67,2.42,12.68,12.68,0,0,0-1.92,3c-1.6,3.45-3.31,6.83-5.1,10.15s-3.44,6.59-4.93,9.81c-1,2.15-1.88,4.17-2.67,6.07s-1.78,4.11-2.94,6.64-2.3,4.79-3.6,7.25-2.53,4.75-3.66,6.86-2.15,4-3,5.54-1.49,2.71-1.81,3.4,0,1,.88,1.22a3.59,3.59,0,0,0,1.24,0,4,4,0,0,1,1.46.08q10,1.91,20,4A8.12,8.12,0,0,0,731,122.84Z"/><path class="cls-1" d="M796.76,111.54a3.52,3.52,0,0,1-1.29.85,22.3,22.3,0,0,1-2.48,1,25.86,25.86,0,0,1-2.58.78,3.59,3.59,0,0,1-1.75.12q-5.32-1.12-9.67-2.36c-2.9-.83-5.5-1.53-7.79-2.12-5.27,8.94-7.51,16.16-6.85,21.66s4.55,9.31,11.79,11.6a6.08,6.08,0,0,1,2.82,1.43c.34.47.19,1.17-.43,2.12a4.05,4.05,0,0,1-2.72,1.26,13.87,13.87,0,0,1-6.1-.87,28.78,28.78,0,0,1-9.3-4.5,16.29,16.29,0,0,1-4.83-5.83,14.4,14.4,0,0,1-1.36-6.74,28.54,28.54,0,0,1,1.2-7.22,44.45,44.45,0,0,1,2.85-7.21q1.76-3.54,3.56-6.69A96.79,96.79,0,0,1,774.7,90.64a56.08,56.08,0,0,1,12.81-10.56A30.1,30.1,0,0,1,799.77,76a28.88,28.88,0,0,1,11,1.05c3.37,1,5.51,2,6.41,2.87s.93,1.91.12,3.16q-1.58,2.42-3.84,1.7l-7-2.2a16.33,16.33,0,0,0-6.24-.59,17.92,17.92,0,0,0-7.41,2.71A43.24,43.24,0,0,0,784.07,92,91.79,91.79,0,0,0,774,105.14a10.72,10.72,0,0,1,2.92-.66,8.73,8.73,0,0,1,3.26.38q7.67,2.28,15.31,4.68C796.9,110,797.33,110.66,796.76,111.54Z"/><path class="cls-1" d="M829.05,96.49a21.76,21.76,0,0,1-2.36-.66,1.67,1.67,0,0,1-1.19-2.07,7.06,7.06,0,0,1,1.18-3,5.66,5.66,0,0,1,2.66-1.66,5,5,0,0,1,3.14-.43c.87.3,1.88.68,3,1.16s2.52,1.05,4.15,1.75,3.59,1.5,5.88,2.44,5.09,2,8.4,3.18q6.5,2.34,13.31,4.33T880.52,106q1.77.69.57,2.16a4.08,4.08,0,0,1-1.43.9c-.72.32-1.54.62-2.43.92a14.86,14.86,0,0,1-2.71.61,6.59,6.59,0,0,1-2.25,0c-1.28-.31-2.7-.71-4.27-1.22l-4.76-1.52q-2.41-.77-4.63-1.58c-1.39-.52-2.63-1-3.73-1.37q-2.93,2.88-6.1,6.42t-7,8.15c-2.56,3.07-5.36,6.57-8.44,10.48s-6.52,8.42-10.32,13.48a18.66,18.66,0,0,0-2.1,3.53,8.45,8.45,0,0,0-.82,3.51,5.14,5.14,0,0,0,1.13,3.21,8.34,8.34,0,0,0,3.86,2.53,14.17,14.17,0,0,0,2,.53,13.86,13.86,0,0,1,1.75.45c.48.19.57.57.26,1.13a9.85,9.85,0,0,1-1,1.49,5.87,5.87,0,0,1-2.86,2.08,19.24,19.24,0,0,1-4.4.4,12.53,12.53,0,0,1-4.14-.58,10,10,0,0,1-4.65-3.2,10.14,10.14,0,0,1-1.94-4.58,12.39,12.39,0,0,1,.26-5.06,13.17,13.17,0,0,1,2.07-4.48,29.73,29.73,0,0,1,2.31-2.7q1.51-1.63,3.83-4.33c1.54-1.8,3.41-4,5.58-6.7s4.66-5.89,7.45-9.69q3.54-4.83,6.81-9.5t6.23-9.71q-6.66-2.37-13.35-4.63A22,22,0,0,0,829.05,96.49Z"/><path class="cls-1" d="M905.82,153a4.15,4.15,0,0,1-1.51.69,27.64,27.64,0,0,1-2.76.7c-1,.22-2,.37-2.83.47a4,4,0,0,1-1.83-.09c-3.51-1.17-6.67-2.32-9.49-3.48s-5.35-2.17-7.59-3c-7.28,8.23-11.07,15.11-11.53,20.63s2.78,9.76,9.78,12.88a5.77,5.77,0,0,1,2.63,1.76c.24.49-.05,1.18-.89,2a4.62,4.62,0,0,1-3.06.92,14.14,14.14,0,0,1-6.13-1.58,27.43,27.43,0,0,1-8.67-5.55,14.55,14.55,0,0,1-3.78-6.34,13.85,13.85,0,0,1,0-6.83,29.75,29.75,0,0,1,2.74-7,48.51,48.51,0,0,1,4.42-6.81c1.7-2.2,3.38-4.26,5.05-6.2a110.84,110.84,0,0,1,17-16.49,65.93,65.93,0,0,1,15.37-8.95,34.55,34.55,0,0,1,13.49-2.63,29.86,29.86,0,0,1,11.16,2.34c3.27,1.44,5.28,2.65,6,3.6s.58,2-.52,3.15c-1.42,1.47-2.85,1.88-4.31,1.23-2.27-1-4.54-2-6.81-3a16.7,16.7,0,0,0-6.32-1.32,20.55,20.55,0,0,0-8.2,1.8,51,51,0,0,0-10.52,6.21A106.3,106.3,0,0,0,883.63,144a12.54,12.54,0,0,1,3.14-.3,8.92,8.92,0,0,1,3.28.75q7.44,3.17,14.84,6.45C906.28,151.51,906.59,152.23,905.82,153Z"/></svg>
