<svg id="Layer_1" data-name="Layer 1" xmlns="http://www.w3.org/2000/svg" xmlns:xlink="http://www.w3.org/1999/xlink" width="463" height="301" viewBox="0 0 463 301"><defs><style>.cls-1,.cls-2,.cls-3,.cls-4,.cls-5,.cls-6,.cls-7{stroke:#000;}.cls-1,.cls-2,.cls-3,.cls-4,.cls-5,.cls-6,.cls-7,.cls-8,.cls-9{stroke-miterlimit:10;}.cls-1{fill:url(#radial-gradient);}.cls-2{fill:url(#radial-gradient-2);}.cls-3,.cls-4,.cls-5,.cls-8,.cls-9{fill:none;}.cls-3{stroke-width:5px;}.cls-5,.cls-8{stroke-width:4px;}.cls-6{fill:url(#radial-gradient-3);}.cls-7{fill:url(#radial-gradient-4);}.cls-8,.cls-9{stroke:#02030a;}</style><radialGradient id="radial-gradient" cx="-3203.96" cy="9582.51" fy="9643.791867770444" r="77.26" gradientTransform="matrix(0.13, 0.49, -0.39, 0.03, 4199.28, 1494.96)" gradientUnits="userSpaceOnUse"><stop offset="0.53"/><stop offset="1"/></radialGradient><radialGradient id="radial-gradient-2" cx="-3119.96" cy="9582.51" fy="9643.791867770322" r="77.26" gradientTransform="matrix(0.13, 0.49, -0.39, 0.03, 4231.77, 1454.12)" xlink:href="#radial-gradient"/><radialGradient id="radial-gradient-3" cx="-2610.29" cy="9390.48" fy="9451.759070755801" r="77.26" gradientTransform="matrix(0.13, 0.49, -0.39, 0.03, 4369.31, 1212.68)" xlink:href="#radial-gradient"/><radialGradient id="radial-gradient-4" cx="-2526.29" cy="9390.48" fy="9451.759070755685" r="77.26" gradientTransform="matrix(0.13, 0.49, -0.39, 0.03, 4401.79, 1171.84)" xlink:href="#radial-gradient"/></defs><title>music_settings</title><path d="M92.62,78.29a114.26,114.26,0,0,0-3.3,11.43,9.32,9.32,0,0,1-.38,1.21,1.31,1.31,0,0,1-.65.7A4,4,0,0,1,87,92a19.5,19.5,0,0,1-2.1.09,3.21,3.21,0,0,1-1.39-.37,8.5,8.5,0,0,1-1.4-.89,5.7,5.7,0,0,1-1.07-1.07,1.73,1.73,0,0,1-.41-.93,3,3,0,0,1,.37-1.3,12.63,12.63,0,0,1,1.67-2.23,23.19,23.19,0,0,0,3.16-5.07A71,71,0,0,0,88.94,73a68.21,68.21,0,0,0,2.28-7.48,26.85,26.85,0,0,0,.89-6,20.73,20.73,0,0,0-1.54-8.28,30.66,30.66,0,0,0-3.44-6.09q-1.91-2.55-3.44-4.37a5.27,5.27,0,0,1-1.54-3c0-.31.2-.56.61-.75a7.19,7.19,0,0,1,1.44-.46,13.71,13.71,0,0,1,1.72-.28c.59-.06,1.1-.09,1.54-.09a2.75,2.75,0,0,1,1.48.55A13.17,13.17,0,0,1,91.22,39q1.44,1.73,3.82,5t6,8.55c1.06,1.49,2.34,3.18,3.86,5.07s3.16,3.82,4.93,5.77,3.61,3.84,5.54,5.67A71.14,71.14,0,0,0,121.08,74a34.55,34.55,0,0,0,5.39,3.49,10.29,10.29,0,0,0,4.6,1.3,21.7,21.7,0,0,0,9-2.42,46.54,46.54,0,0,0,10.18-6.65,53.13,53.13,0,0,0,9.16-10.09,36.9,36.9,0,0,0,5.81-12.74,14.89,14.89,0,0,1,1.07-3.25c.34-.62.7-.93,1.07-.93a5.28,5.28,0,0,1,1.07.14,5.88,5.88,0,0,1,1.4.46A6.71,6.71,0,0,1,171,44a1.25,1.25,0,0,1,.51,1,19,19,0,0,1-.37,2.74c-.25,1.34-.55,3-.89,5.07s-.63,4.47-.88,7.26S169,66,169,69.36a21.86,21.86,0,0,0,.79,6.09,34.28,34.28,0,0,0,1.76,4.88q1,2.15,1.77,3.72a6.15,6.15,0,0,1,.79,2.61c0,.24-.22.54-.65.88a10.36,10.36,0,0,1-1.53,1,13.9,13.9,0,0,1-1.82.79,4.93,4.93,0,0,1-1.49.32c-.74,0-1.31-.49-1.72-1.49a15.89,15.89,0,0,1-.88-4.09c-.19-1.49-.42-3.19-.7-5.11s-.55-3.82-.83-5.68-.53-3.55-.75-5.07-.39-2.61-.51-3.3l-5.77,5.21a60,60,0,0,1-13.67,9.39A30.86,30.86,0,0,1,130.14,83a22.05,22.05,0,0,1-4.93-.56,19.07,19.07,0,0,1-5.07-2,38.92,38.92,0,0,1-5.71-4,75.48,75.48,0,0,1-6.79-6.56l-9.4-9.95Q95.18,70.47,92.62,78.29Z"/><path d="M194.27,36.06a1.76,1.76,0,0,1,1.81-.93,5.36,5.36,0,0,1,1.91.56A19.9,19.9,0,0,1,200.5,37a16.61,16.61,0,0,1,2.23,1.67,2.42,2.42,0,0,1,1,1.63,2.87,2.87,0,0,1-.52,1.54,11.59,11.59,0,0,0-1.07,2.55,36.77,36.77,0,0,0-1.07,5,60.68,60.68,0,0,0-.51,8.92q0,6,.33,10.37a22.58,22.58,0,0,0,1.9,7.86,8.53,8.53,0,0,0,2.24,3,19.77,19.77,0,0,0,3.48,2.56,18.9,18.9,0,0,0,4,1.77,12.46,12.46,0,0,0,3.72.65,10.68,10.68,0,0,0,6-1.67,14,14,0,0,0,4.19-4.42,25,25,0,0,0,2.65-6.19,48.54,48.54,0,0,0,1.44-7q.47-3.57.6-6.93c.1-2.23.14-4.18.14-5.86q0-3.35-.18-5.58c-.13-1.48-.25-2.69-.38-3.62a18.14,18.14,0,0,0-.37-2.14,5.43,5.43,0,0,1-.18-1.21,1.7,1.7,0,0,1,1-1.68,6.22,6.22,0,0,1,2.51-.46,6.53,6.53,0,0,1,3.21.79A2.55,2.55,0,0,1,238.3,41c0,.75-.09,2-.28,3.77s-.42,3.78-.7,6-.6,4.67-1,7.21-.76,5-1.16,7.3-.83,4.44-1.26,6.33A35.52,35.52,0,0,1,232.72,76a20.84,20.84,0,0,1-6.28,8.7,32.4,32.4,0,0,1-8,4.79,8.42,8.42,0,0,1-2,.46q-.93.09-1.86.09a19.3,19.3,0,0,1-4.28-.55,26.29,26.29,0,0,1-4.79-1.63,22,22,0,0,1-4.42-2.65A10.91,10.91,0,0,1,198,81.63a24,24,0,0,1-1.91-6.37c-.52-2.82-1-6.12-1.3-9.9s-.59-7.92-.74-12.42-.23-9.1-.23-13.81A8.1,8.1,0,0,1,194.27,36.06Z"/><path d="M255.64,85.49a1.26,1.26,0,0,1,.89-.42,7.1,7.1,0,0,1,3.07.89,9.66,9.66,0,0,0,4.37.88,5.14,5.14,0,0,0,4-1.72,5.52,5.52,0,0,0,1.54-3.77,13.78,13.78,0,0,0-.88-4.37q-.89-2.51-2.19-5.34c-.87-1.89-1.81-3.85-2.84-5.86s-2-4-2.83-5.86-1.6-3.68-2.19-5.35a13.23,13.23,0,0,1-.88-4.28A12.76,12.76,0,0,1,259,45.78a33.16,33.16,0,0,1,3.35-5.9,24.85,24.85,0,0,1,4.84-5.17,9.07,9.07,0,0,1,5.72-2.18c.43,0,1.07,0,1.9.14a17.07,17.07,0,0,1,2.47.46,9.94,9.94,0,0,1,2.14.84,1.47,1.47,0,0,1,.93,1.26,3.07,3.07,0,0,1-.7,2.41,6.42,6.42,0,0,1-3.3.65q-6.13.2-8.84,2.84a8.82,8.82,0,0,0-2.69,6.56,16.08,16.08,0,0,0,1.58,6.09q1.58,3.67,3.48,7.9t3.49,8.75a25.79,25.79,0,0,1,1.58,8.6,19.85,19.85,0,0,1-.46,3.07,18.87,18.87,0,0,1-1.72,4.79,16,16,0,0,1-3.35,4.41,7.63,7.63,0,0,1-5.44,2,10.37,10.37,0,0,1-2.14-.28A20.36,20.36,0,0,1,257,91.26a2.37,2.37,0,0,1-1.16-1c-.19-.56-.34-1.1-.47-1.63a7.7,7.7,0,0,1-.18-1.72A2,2,0,0,1,255.64,85.49Z"/><path d="M296.19,54.29c-.09-1.86-.14-3.59-.14-5.21,0-.87,0-1.59-.09-2.18a2.77,2.77,0,0,0-.65-1.54,6.63,6.63,0,0,1-1.26-1.81,4.16,4.16,0,0,1-.32-1.53,3,3,0,0,1,.84-1.59,13.81,13.81,0,0,1,1.95-2,18,18,0,0,1,2.28-1.63,4,4,0,0,1,1.81-.69,4.61,4.61,0,0,1,2.33.79c.86.52,1.3,1,1.3,1.34a6.64,6.64,0,0,1-.42,2.28,9.76,9.76,0,0,0-.51,2.75q-.37,4.09-.61,13.72t-.23,26.36q0,5.58-.7,7.39a2.39,2.39,0,0,1-2.28,1.82,2.86,2.86,0,0,1-1.16-.23,2.07,2.07,0,0,1-.88-1.17,12.15,12.15,0,0,1-.61-2.83c-.15-1.27-.26-3-.32-5.31s-.11-5.11-.14-8.55-.05-7.61-.05-12.51C296.33,58.72,296.29,56.15,296.19,54.29Z"/><path d="M326,56.62a30.67,30.67,0,0,1,4-8.61,24,24,0,0,1,5.72-5.86,31.83,31.83,0,0,1,13.39-5.48,39.11,39.11,0,0,1,5.91-.51,10.49,10.49,0,0,1,6,1.48c1.43,1,2.14,2,2.14,2.89a2.46,2.46,0,0,1-.56,1.35,11,11,0,0,1-1.34,1.53,9,9,0,0,1-1.68,1.26,3.12,3.12,0,0,1-1.44.51,1.42,1.42,0,0,1-1.07-.65c-.34-.44-.74-.92-1.21-1.45a8.31,8.31,0,0,0-1.72-1.44,4.62,4.62,0,0,0-2.51-.65A18.17,18.17,0,0,0,344,42.53a19.57,19.57,0,0,0-5.67,3.9,20.49,20.49,0,0,0-3.86,5.35,35.44,35.44,0,0,0-2.32,5.86A36.4,36.4,0,0,0,331,63a32.58,32.58,0,0,0-.32,3.86,19.19,19.19,0,0,0,1.16,6.09,24.9,24.9,0,0,0,3.3,6.37,19.82,19.82,0,0,0,5.16,5,11.78,11.78,0,0,0,6.65,2,15.39,15.39,0,0,0,6.1-1.16,27.05,27.05,0,0,0,4.83-2.6q2.1-1.44,3.58-2.61a4.44,4.44,0,0,1,2.33-1.16,1.86,1.86,0,0,1,1.44.56,2,2,0,0,1,.51,1.39,2.87,2.87,0,0,1-.6,1.26,17.81,17.81,0,0,1-1.68,2c-.71.74-1.52,1.5-2.42,2.28a16,16,0,0,1-2.93,2,12.88,12.88,0,0,1-2.51,1.07,31.29,31.29,0,0,1-3.44.88q-1.86.38-3.9.6a33.72,33.72,0,0,1-3.91.24,20.15,20.15,0,0,1-6.05-1.12,18.82,18.82,0,0,1-6.51-3.77,21.41,21.41,0,0,1-5.16-7,24.62,24.62,0,0,1-2.09-10.74A40.64,40.64,0,0,1,326,56.62Z"/><ellipse class="cls-1" cx="39.83" cy="205.98" rx="21.13" ry="11.04" transform="translate(-160.48 143.63) rotate(-61.77)"/><ellipse class="cls-2" cx="83.05" cy="205.98" rx="21.13" ry="11.04" transform="translate(-137.71 181.7) rotate(-61.77)"/><line class="cls-3" x1="48.32" y1="186.95" x2="48.84" y2="147"/><line class="cls-4" x1="91.54" y1="186.95" x2="92.05" y2="147"/><line class="cls-3" x1="91.54" y1="186.95" x2="92.05" y2="147"/><line class="cls-5" x1="48.58" y1="148.94" x2="91.79" y2="148.94"/><ellipse class="cls-6" cx="360.83" cy="206.98" rx="21.13" ry="11.04" transform="translate(7.78 426.96) rotate(-61.77)"/><ellipse class="cls-7" cx="404.05" cy="206.98" rx="21.13" ry="11.04" transform="translate(30.55 465.04) rotate(-61.77)"/><line class="cls-3" x1="369.32" y1="187.95" x2="369.84" y2="148"/><line class="cls-4" x1="412.54" y1="187.95" x2="413.05" y2="148"/><line class="cls-3" x1="412.54" y1="187.95" x2="413.05" y2="148"/><line class="cls-5" x1="369.58" y1="149.94" x2="412.79" y2="149.94"/><line class="cls-8" x1="107.5" y1="166.5" x2="348.5" y2="166.5"/><line class="cls-4" x1="360.5" y1="134.5" x2="425.5" y2="228.5"/><line class="cls-4" x1="420.5" y1="137.5" x2="344.5" y2="229.5"/><ellipse class="cls-9" cx="152.5" cy="168.25" rx="16" ry="20.25"/><ellipse class="cls-9" cx="152.52" cy="168" rx="13.98" ry="18.49"/></svg>
