<svg id="Layer_1" data-name="Layer 1" xmlns="http://www.w3.org/2000/svg" width="137" height="119" viewBox="0 0 137 119"><defs><style>.cls-1{fill:#3d2612;}.cls-2{fill:#603813;}.cls-3{fill:#68543a;}.cls-4{fill:#020201;}</style></defs><title>pause</title><ellipse class="cls-1" cx="62.5" cy="58.5" rx="51.5" ry="53.5"/><ellipse class="cls-2" cx="63.19" cy="57.16" rx="46.26" ry="46.55"/><ellipse class="cls-3" cx="62.63" cy="58.86" rx="44.57" ry="44.85"/><path class="cls-4" d="M38.06,57.43c0-.93-.08-1.62-.14-2.06a.65.65,0,0,0-.06-.21.31.31,0,0,0-.15-.15c-.19-.11-.29-.22-.29-.35a.65.65,0,0,1,.34-.51,4.32,4.32,0,0,1,.77-.44,6.1,6.1,0,0,1,.91-.31,3.82,3.82,0,0,1,.72-.11,6.33,6.33,0,0,1,1.15.12,6.87,6.87,0,0,1,1.21.36,1.79,1.79,0,0,1,.5.37,3,3,0,0,1,.45.55,3.3,3.3,0,0,1,.33.61,1.72,1.72,0,0,1,.12.59,3.83,3.83,0,0,1-.32,1.86,7.2,7.2,0,0,1-.5.66c-.21.24-.42.47-.64.68a6.6,6.6,0,0,1-.64.53.94.94,0,0,1-.45.21,1,1,0,0,1-.37-.08,3.2,3.2,0,0,1-.43-.17,1.63,1.63,0,0,1-.34-.21c-.1-.08-.14-.14-.14-.18a.21.21,0,0,1,.09-.16,1.13,1.13,0,0,1,.37-.12A2.5,2.5,0,0,0,42,58.09a2,2,0,0,0,.54-1.37,4,4,0,0,0-.07-.7,2.84,2.84,0,0,0-.24-.8,1.85,1.85,0,0,0-.47-.66,1,1,0,0,0-.73-.27,2.41,2.41,0,0,0-.78.12,3.44,3.44,0,0,0-.74.34c0,.22,0,.48-.08.79s0,.61-.06.94,0,.66,0,1,0,.61,0,.87v5.09A3.87,3.87,0,0,1,39.06,65a.86.86,0,0,1-.84.5c-.21,0-.32-.1-.32-.29a.67.67,0,0,1,0-.18c0-.06,0-.15.07-.26a1.94,1.94,0,0,0,.08-.44,7.39,7.39,0,0,0,0-.74V60.7C38.11,59.45,38.09,58.36,38.06,57.43Z"/><path class="cls-4" d="M48.91,62a1.64,1.64,0,0,0-.63.67l-1,1.68a.81.81,0,0,0-.12.36c0,.13-.11.2-.29.2a2.58,2.58,0,0,1-.86-.12c-.22-.08-.33-.18-.33-.33a.55.55,0,0,1,.2-.36c.12-.13.27-.31.44-.52s.48-.65.76-1.07.57-.84.85-1.29.56-.9.82-1.36.51-.88.71-1.26.37-.73.5-1a1.76,1.76,0,0,0,.19-.61,1.79,1.79,0,0,0-.65-1L48,54.33a2.55,2.55,0,0,0-.46-.41.3.3,0,0,1-.19-.27s0-.11.14-.18a3.37,3.37,0,0,1,.34-.21,2.32,2.32,0,0,1,.39-.18.82.82,0,0,1,.34-.08A2.56,2.56,0,0,1,49,53a.66.66,0,0,1,.26.08.6.6,0,0,1,.17.21c0,.09.1.21.16.36a2,2,0,0,0,.24.39l.41.54c1,1.26,1.93,2.32,2.69,3.19s1.44,1.61,2.06,2.26,1.22,1.24,1.78,1.77,1.2,1.09,1.88,1.7a1,1,0,0,0,.36.23l.3.1a.54.54,0,0,1,.2.1.33.33,0,0,1,.08.24.46.46,0,0,1-.11.23,3.22,3.22,0,0,1-.26.29,2.34,2.34,0,0,1-.31.24.54.54,0,0,1-.26.09H58a.21.21,0,0,1-.21-.13,1,1,0,0,0-.15-.25,30.54,30.54,0,0,0-2.58-2.84H50A2.56,2.56,0,0,0,48.91,62Zm.94-2.11-.33.58a.49.49,0,0,0-.07.23.2.2,0,0,0,0,.13.51.51,0,0,0,.24.06,4.1,4.1,0,0,0,.58,0h2.32q.49,0,.81,0a3.56,3.56,0,0,0,.46,0,.94.94,0,0,0,.23-.06l-3-3.09Z"/><path class="cls-4" d="M62.13,53.56a.37.37,0,0,1,.38-.19,1,1,0,0,1,.39.11,4.41,4.41,0,0,1,.52.28,3.46,3.46,0,0,1,.46.35.5.5,0,0,1,.2.34.56.56,0,0,1-.11.31,2.64,2.64,0,0,0-.22.53,9.19,9.19,0,0,0-.22,1.05,12.84,12.84,0,0,0-.1,1.85c0,.82,0,1.54.07,2.15A4.54,4.54,0,0,0,63.89,62a1.75,1.75,0,0,0,.46.63,4.18,4.18,0,0,0,.72.53,3.69,3.69,0,0,0,.81.37,2.53,2.53,0,0,0,.77.13,2.21,2.21,0,0,0,1.25-.34,3,3,0,0,0,.86-.92,5.49,5.49,0,0,0,.55-1.28,12.19,12.19,0,0,0,.3-1.46q.09-.75.12-1.44c0-.46,0-.87,0-1.22s0-.85,0-1.15,0-.56-.08-.76,0-.34-.07-.44a.91.91,0,0,1,0-.25.36.36,0,0,1,.21-.35,1.3,1.3,0,0,1,.52-.1,1.35,1.35,0,0,1,.66.17.53.53,0,0,1,.3.49q0,.24-.06.78T71,56.62c-.05.47-.12,1-.2,1.49s-.15,1-.24,1.52-.17.92-.26,1.31a7.4,7.4,0,0,1-.25.9,4.18,4.18,0,0,1-1.29,1.8,6.55,6.55,0,0,1-1.66,1,1.53,1.53,0,0,1-.4.09,2.55,2.55,0,0,1-.39,0,4.48,4.48,0,0,1-.88-.11,5.18,5.18,0,0,1-1-.34,4.48,4.48,0,0,1-.92-.55,2.26,2.26,0,0,1-.63-.73,5.25,5.25,0,0,1-.39-1.33c-.11-.58-.2-1.27-.27-2s-.12-1.64-.15-2.58-.05-1.89-.05-2.86A1.91,1.91,0,0,1,62.13,53.56Z"/><path class="cls-4" d="M74.79,63.82a.26.26,0,0,1,.19-.09,1.49,1.49,0,0,1,.63.18,1.87,1.87,0,0,0,.9.19,1,1,0,0,0,.83-.36,1.17,1.17,0,0,0,.32-.78,2.86,2.86,0,0,0-.18-.91A11.78,11.78,0,0,0,77,60.94c-.18-.39-.38-.8-.59-1.21s-.4-.83-.58-1.22a11.78,11.78,0,0,1-.45-1.11,2.85,2.85,0,0,1-.19-.89,2.64,2.64,0,0,1,.26-.93,7.61,7.61,0,0,1,.69-1.23,5.1,5.1,0,0,1,1-1.07,1.89,1.89,0,0,1,1.18-.46l.39,0a3.84,3.84,0,0,1,.51.1,2,2,0,0,1,.44.17.31.31,0,0,1,.2.26.65.65,0,0,1-.15.51,1.37,1.37,0,0,1-.68.13,2.65,2.65,0,0,0-1.82.59A1.85,1.85,0,0,0,76.68,56,3.35,3.35,0,0,0,77,57.24l.72,1.64c.26.58.5,1.19.72,1.81a5.6,5.6,0,0,1,.32,1.79,4.44,4.44,0,0,1-.09.63,3.9,3.9,0,0,1-.36,1,3.18,3.18,0,0,1-.69.91,1.58,1.58,0,0,1-1.12.41,2.07,2.07,0,0,1-.44-.06,4.61,4.61,0,0,1-.53-.15c-.17-.07-.33-.14-.46-.21a.5.5,0,0,1-.24-.2,2.14,2.14,0,0,1-.09-.34,1.29,1.29,0,0,1,0-.35A.47.47,0,0,1,74.79,63.82Z"/><path class="cls-4" d="M88,59a.38.38,0,0,1-.1.19,3.18,3.18,0,0,1-.26.26l-.3.23a.55.55,0,0,1-.24.1c-.58,0-1.11.08-1.6.08l-1.32,0a5.61,5.61,0,0,0,.9,3.48,3.43,3.43,0,0,0,2.88,1.17,1.42,1.42,0,0,1,.57.08.35.35,0,0,1,.14.33c0,.1-.09.2-.29.31a2.39,2.39,0,0,1-1,.15,6.27,6.27,0,0,1-1.86-.24,4.11,4.11,0,0,1-1.29-.65,3.09,3.09,0,0,1-.81-.93,4.69,4.69,0,0,1-.45-1.12,6,6,0,0,1-.2-1.19q0-.6,0-1.14A12.4,12.4,0,0,1,83,56.87,6.79,6.79,0,0,1,84,54.76a3.29,3.29,0,0,1,1.33-1.13,3.76,3.76,0,0,1,1.57-.34,3.28,3.28,0,0,1,1.09.12.47.47,0,0,1,.29.46c0,.28-.12.42-.37.42H86.75a2.33,2.33,0,0,0-.89.19,1.93,1.93,0,0,0-.79.73,5.22,5.22,0,0,0-.6,1.46A11.33,11.33,0,0,0,84.14,59a1.51,1.51,0,0,1,.37-.22,1.24,1.24,0,0,1,.5-.09H87.6C87.84,58.73,88,58.81,88,59Z"/></svg>
