<svg id="Layer_1" data-name="Layer 1" xmlns="http://www.w3.org/2000/svg" width="378" height="204" viewBox="0 0 378 204"><title>play_settings</title><path d="M87.37,86.71q-.24-6.75-.7-9.91a4.48,4.48,0,0,0-.28-1,1.4,1.4,0,0,0-.74-.74c-.93-.5-1.4-1.06-1.4-1.68a3.2,3.2,0,0,1,1.63-2.46,20.35,20.35,0,0,1,3.77-2.09,27,27,0,0,1,4.42-1.49,16,16,0,0,1,3.48-.56A33.23,33.23,0,0,1,109,69.09a8.61,8.61,0,0,1,2.42,1.76,18,18,0,0,1,2.19,2.65,15.83,15.83,0,0,1,1.58,3,7.83,7.83,0,0,1,.6,2.84q0,6.51-1.58,8.92a25.45,25.45,0,0,1-2.42,3.21c-1,1.15-2,2.23-3.11,3.26a31.22,31.22,0,0,1-3.07,2.56,4.47,4.47,0,0,1-2.19,1,5.92,5.92,0,0,1-1.81-.37,20.91,20.91,0,0,1-2-.84,8.5,8.5,0,0,1-1.67-1c-.47-.38-.7-.65-.7-.84a.93.93,0,0,1,.47-.79,5.27,5.27,0,0,1,1.76-.61,12.37,12.37,0,0,0,7.07-3.9,9.79,9.79,0,0,0,2.6-6.61,21.15,21.15,0,0,0-.32-3.39,15.47,15.47,0,0,0-1.16-3.86,9.46,9.46,0,0,0-2.28-3.16,5.14,5.14,0,0,0-3.58-1.3,11.93,11.93,0,0,0-3.77.56,17,17,0,0,0-3.58,1.67c-.12,1-.25,2.31-.37,3.77s-.23,3-.33,4.55-.17,3.15-.23,4.7-.09,2.94-.09,4.18v24.56q0,5.11-1.16,7.53a4.14,4.14,0,0,1-4,2.42c-1,0-1.58-.47-1.58-1.4a3.13,3.13,0,0,1,.14-.84c.09-.31.22-.72.37-1.25a11.76,11.76,0,0,0,.37-2.14,34.29,34.29,0,0,0,.14-3.58V102.47Q87.6,93.45,87.37,86.71Z"/><path d="M164.42,115.63a4.68,4.68,0,0,1,2.33-.79c1.05,0,1.58.41,1.58,1.21a8.62,8.62,0,0,1-.24,1.35,16.65,16.65,0,0,1-.65,2.23,17,17,0,0,1-.93,2.14c-.34.65-.7,1-1.07,1a4.63,4.63,0,0,1-1.53-.24l-2.09-.69a2.2,2.2,0,0,0-.65-.14l-1.59-.1-3-.09c-1.27,0-2.9,0-4.88,0s-3.8,0-5.07,0l-3,.09a9,9,0,0,0-1.63.19,4.05,4.05,0,0,0-.88.33,6.07,6.07,0,0,1-2.89.65,1.68,1.68,0,0,1-1.16-.65,14.44,14.44,0,0,1-1.16-1.45,7.56,7.56,0,0,1-.88-1.58,3.48,3.48,0,0,1-.33-1.07,2.73,2.73,0,0,1,.93-1.72,3.81,3.81,0,0,0,.93-2.74c.06-1,.11-2.2.14-3.63s.05-3.1.05-5V91.78a99.37,99.37,0,0,0-.47-10.84q-.47-4-1-6.32a14.34,14.34,0,0,0-1-3.16,3.34,3.34,0,0,1-.47-1.44c0-.31.3-.78.89-1.4a16.7,16.7,0,0,1,2-1.81,20.79,20.79,0,0,1,2.33-1.54,4.19,4.19,0,0,1,1.63-.65,4.73,4.73,0,0,1,2,.61A1.81,1.81,0,0,1,144,66.85a7.43,7.43,0,0,1-.37,2.05,8.43,8.43,0,0,0-.37,2.51c0,2.79-.1,5.55-.28,8.28s-.28,5.39-.28,8c0,1.73,0,3.36.09,4.88s.09,3.3.09,5.35-.06,3.89-.18,5.9-.25,3.89-.37,5.63-.25,3.25-.38,4.55-.18,2.24-.18,2.79.37.75,1.11.75a2.74,2.74,0,0,0,1-.19,3.49,3.49,0,0,1,1.16-.18l16.84-.65A5.77,5.77,0,0,0,164.42,115.63Z"/><path d="M188.23,108.75a7.53,7.53,0,0,0-3.07,3.21l-4.65,8.09a4.53,4.53,0,0,0-.56,1.77c-.06.62-.53.93-1.39.93a12.92,12.92,0,0,1-4.19-.56c-1.05-.37-1.58-.9-1.58-1.58a2.62,2.62,0,0,1,.93-1.77,26.73,26.73,0,0,0,2.14-2.51c1.11-1.43,2.35-3.13,3.72-5.12s2.73-4,4.09-6.23,2.7-4.35,4-6.55,2.45-4.23,3.44-6.09,1.8-3.49,2.42-4.89a8.81,8.81,0,0,0,.93-2.93c0-1.23-1.06-2.91-3.16-5l-7.63-7.72a11.21,11.21,0,0,0-2.23-2,1.56,1.56,0,0,1-.93-1.3c0-.25.23-.54.7-.89a14.31,14.31,0,0,1,1.62-1,15.65,15.65,0,0,1,1.91-.88,4.69,4.69,0,0,1,1.63-.37,17.79,17.79,0,0,1,2,.09,2.93,2.93,0,0,1,1.26.42,2.44,2.44,0,0,1,.84,1c.21.44.48,1,.79,1.77a8.19,8.19,0,0,0,1.16,1.86c.65.87,1.32,1.74,2,2.6q7.53,9.12,13,15.35t10,10.93c3,3.13,5.89,6,8.64,8.51s5.79,5.27,9.07,8.18a5.22,5.22,0,0,0,1.77,1.12l1.44.46a2.92,2.92,0,0,1,1,.51,1.54,1.54,0,0,1,.37,1.17,2.18,2.18,0,0,1-.51,1.07,9.9,9.9,0,0,1-1.26,1.39,9,9,0,0,1-1.49,1.16,2.55,2.55,0,0,1-1.3.47H232.4a1,1,0,0,1-1-.65,4.85,4.85,0,0,0-.74-1.21q-3.07-4.19-12.47-13.67H193.53A12.26,12.26,0,0,0,188.23,108.75Zm4.55-10.18-1.58,2.79a2.41,2.41,0,0,0-.37,1.11.85.85,0,0,0,.23.61,2.24,2.24,0,0,0,1.17.32c.62.06,1.55.11,2.79.14s3,0,5.2,0q3.63,0,6.05,0c1.61,0,2.91-.08,3.91-.14a20.38,20.38,0,0,0,2.23-.23,4.45,4.45,0,0,0,1.11-.32L198.92,88Z"/><path d="M254.4,129.91a13.12,13.12,0,0,1-2.23-1.35,16.94,16.94,0,0,1-1.82-1.53,2.09,2.09,0,0,1-.74-1.21,1.58,1.58,0,0,1,.32-1,3.14,3.14,0,0,1,1.72-.7,5.65,5.65,0,0,0,2.75-1.76,17.39,17.39,0,0,0,2.65-3.72,27.19,27.19,0,0,0,2-4.93,18.09,18.09,0,0,0,.84-5.4,7.44,7.44,0,0,0-.37-2.28A19,19,0,0,0,258,102.8q-1.22-2.1-3.58-5.53t-6.37-9c-1.8-2.47-3.4-4.57-4.79-6.27l-3.49-4.28a35.74,35.74,0,0,1-2.14-2.88,3.9,3.9,0,0,1-.74-2,2.81,2.81,0,0,1,.83-1.63,14,14,0,0,1,2-1.86A16.37,16.37,0,0,1,242,67.78a4.5,4.5,0,0,1,1.86-.65,1,1,0,0,1,.93.51,4.2,4.2,0,0,1,.42,1.31c.09.52.19,1.11.28,1.76a9.48,9.48,0,0,0,.51,2,37.22,37.22,0,0,0,3.58,6.65q2.56,4,5.44,8.14t5.49,8.14a40.24,40.24,0,0,1,3.72,6.74q2.24-4.47,4.74-9.07c1.68-3.07,3.22-6,4.65-8.69s2.61-5.19,3.54-7.4a14.42,14.42,0,0,0,1.39-5.16,4.25,4.25,0,0,1,.42-2.37,1.77,1.77,0,0,1,1.44-.51,7.48,7.48,0,0,1,1.81.32,21.9,21.9,0,0,1,2.28.79,9,9,0,0,1,2,1.12,1.83,1.83,0,0,1,.83,1.4,1.22,1.22,0,0,1-.28.74c-.18.25-.45.57-.79,1s-.76.91-1.25,1.53a21.59,21.59,0,0,0-1.68,2.51l-16,28.37a20.55,20.55,0,0,0-1.35,3q-.8,2.08-1.77,4.7l-2,5.44c-.72,1.89-1.41,3.59-2.1,5.11a31.36,31.36,0,0,1-1.95,3.77c-.62,1-1.21,1.49-1.77,1.49A4.7,4.7,0,0,1,254.4,129.91Z"/></svg>
