<svg id="Layer_1" data-name="Layer 1" xmlns="http://www.w3.org/2000/svg" width="213" height="142" viewBox="0 0 213 142"><defs><style>.cls-1{fill:#42210b;}.cls-2{fill:#603813;}.cls-3{fill:#68543a;}</style></defs><title>play_again</title><rect class="cls-1" x="11" y="20" width="191" height="103"/><rect class="cls-2" x="17.19" y="26.32" width="177.74" height="90.35"/><rect class="cls-3" x="19.84" y="29.94" width="172.43" height="84.03"/><path d="M78.92,55.23a29.35,29.35,0,0,0-.2-3,2.33,2.33,0,0,0-.08-.31.43.43,0,0,0-.22-.22c-.28-.15-.41-.32-.41-.51a1,1,0,0,1,.48-.74,6.46,6.46,0,0,1,1.11-.63,7.4,7.4,0,0,1,1.3-.45,4.77,4.77,0,0,1,1-.17,10.09,10.09,0,0,1,3.37.7,2.57,2.57,0,0,1,.71.54,4.91,4.91,0,0,1,.64.79,4.3,4.3,0,0,1,.47.9,2.36,2.36,0,0,1,.18.85,5.39,5.39,0,0,1-.47,2.69,8.11,8.11,0,0,1-.71,1,12.24,12.24,0,0,1-.92,1,8.1,8.1,0,0,1-.9.77,1.3,1.3,0,0,1-.65.31,1.78,1.78,0,0,1-.53-.11,5.42,5.42,0,0,1-.6-.26,2.36,2.36,0,0,1-.5-.3c-.14-.12-.2-.2-.2-.26a.27.27,0,0,1,.13-.23,1.54,1.54,0,0,1,.52-.19,3.59,3.59,0,0,0,2.09-1.17,3,3,0,0,0,.77-2,7.24,7.24,0,0,0-.1-1A4.89,4.89,0,0,0,84.89,52a2.85,2.85,0,0,0-.68-1,1.48,1.48,0,0,0-1-.39,3.59,3.59,0,0,0-1.11.17,5.29,5.29,0,0,0-1.06.5c0,.32-.07.7-.11,1.14s-.06.89-.09,1.37-.05,1-.07,1.41,0,.89,0,1.26v7.4a5.62,5.62,0,0,1-.34,2.27,1.22,1.22,0,0,1-1.19.72c-.31,0-.47-.13-.47-.42a1.41,1.41,0,0,1,0-.25c0-.09.07-.22.11-.37a3.76,3.76,0,0,0,.11-.65,10.47,10.47,0,0,0,0-1.08V60C79,58.17,79,56.59,78.92,55.23Z"/><path d="M101.63,63.94a1.36,1.36,0,0,1,.69-.24c.31,0,.47.13.47.37,0,.05,0,.19-.07.4s-.11.44-.19.68-.18.44-.28.64-.2.29-.31.29a1.35,1.35,0,0,1-.46-.07l-.61-.21-.19,0-.47,0-.89,0-1.44,0-1.49,0-.89,0a2.18,2.18,0,0,0-.48.06,1.39,1.39,0,0,0-.27.1,1.71,1.71,0,0,1-.84.19.48.48,0,0,1-.35-.19,5,5,0,0,1-.34-.43A2.27,2.27,0,0,1,93,65a1,1,0,0,1-.1-.32.84.84,0,0,1,.28-.52,1.18,1.18,0,0,0,.27-.83c0-.3,0-.66,0-1.09s0-.93,0-1.51v-4a30.66,30.66,0,0,0-.14-3.26A19.1,19.1,0,0,0,93,51.59a3.87,3.87,0,0,0-.29-1,1,1,0,0,1-.13-.44c0-.09.08-.23.26-.42a5.41,5.41,0,0,1,.6-.54,5.51,5.51,0,0,1,.69-.46,1.06,1.06,0,0,1,.47-.2,1.41,1.41,0,0,1,.61.18.54.54,0,0,1,.35.49,2.32,2.32,0,0,1-.1.62,2.36,2.36,0,0,0-.12.75c0,.84,0,1.67-.08,2.5s-.08,1.62-.08,2.41q0,.78,0,1.47c0,.45,0,1,0,1.61s0,1.17-.06,1.77-.07,1.18-.11,1.7-.07,1-.11,1.37,0,.67,0,.84.11.23.33.23a.74.74,0,0,0,.28-.06,1,1,0,0,1,.35-.06l5-.19A1.67,1.67,0,0,0,101.63,63.94Z"/><path d="M108.65,61.87a2.19,2.19,0,0,0-.9,1l-1.37,2.43a1.49,1.49,0,0,0-.17.53c0,.19-.15.28-.41.28a3.78,3.78,0,0,1-1.23-.16c-.31-.12-.47-.27-.47-.48a.77.77,0,0,1,.28-.53,8.74,8.74,0,0,0,.63-.76c.33-.43.69-.94,1.09-1.54s.81-1.22,1.21-1.87.79-1.32,1.18-2,.72-1.27,1-1.83.53-1,.71-1.47a2.6,2.6,0,0,0,.28-.89,2.64,2.64,0,0,0-.93-1.51l-2.25-2.32a3.5,3.5,0,0,0-.66-.59.47.47,0,0,1-.27-.39c0-.08.07-.17.2-.27l.48-.31a4.67,4.67,0,0,1,.56-.26,1.38,1.38,0,0,1,.48-.12,4.82,4.82,0,0,1,.61,0,.86.86,0,0,1,.37.13.64.64,0,0,1,.24.29c.07.13.14.31.24.53a2.12,2.12,0,0,0,.34.56c.19.27.39.53.59.79q2.22,2.74,3.84,4.62c1.07,1.25,2.06,2.35,2.94,3.29s1.74,1.8,2.55,2.56,1.71,1.59,2.68,2.47a1.33,1.33,0,0,0,.52.33,4.11,4.11,0,0,0,.42.14.73.73,0,0,1,.29.16.46.46,0,0,1,.11.35.66.66,0,0,1-.15.32,3.48,3.48,0,0,1-.37.42,2.7,2.7,0,0,1-.44.35.78.78,0,0,1-.38.14h-.83a.3.3,0,0,1-.3-.2,1.34,1.34,0,0,0-.22-.36,45.11,45.11,0,0,0-3.67-4.12h-7.27A3.52,3.52,0,0,0,108.65,61.87ZM110,58.8l-.47.84a.78.78,0,0,0-.11.34.24.24,0,0,0,.07.18.58.58,0,0,0,.34.1c.18,0,.46,0,.82,0l1.54,0,1.78,0,1.15,0a5.8,5.8,0,0,0,.66-.07,1.18,1.18,0,0,0,.33-.1l-4.31-4.48Z"/><path d="M128.16,68.24a4.46,4.46,0,0,1-.66-.4,5.35,5.35,0,0,1-.54-.47.66.66,0,0,1-.22-.36.54.54,0,0,1,.1-.3.94.94,0,0,1,.51-.21,1.67,1.67,0,0,0,.81-.53,5.24,5.24,0,0,0,.78-1.12,8.63,8.63,0,0,0,.6-1.48,5.38,5.38,0,0,0,.25-1.63,2.35,2.35,0,0,0-.11-.68,5.79,5.79,0,0,0-.47-1c-.24-.42-.59-1-1.05-1.67l-1.88-2.72q-.8-1.11-1.41-1.89c-.41-.51-.76-.94-1-1.29a7.8,7.8,0,0,1-.63-.86A1.2,1.2,0,0,1,123,51a.84.84,0,0,1,.25-.49,4.33,4.33,0,0,1,.57-.56,5.17,5.17,0,0,1,.69-.46,1.24,1.24,0,0,1,.54-.19.3.3,0,0,1,.28.15,1.5,1.5,0,0,1,.12.39c0,.16.06.34.08.53a2.9,2.9,0,0,0,.16.61,11.25,11.25,0,0,0,1,2c.5.79,1,1.61,1.6,2.45s1.11,1.66,1.62,2.45a12.1,12.1,0,0,1,1.1,2c.44-.9.9-1.81,1.4-2.73s1-1.8,1.37-2.62.76-1.56,1-2.22a4.6,4.6,0,0,0,.41-1.56,1.33,1.33,0,0,1,.12-.71.5.5,0,0,1,.43-.16,1.89,1.89,0,0,1,.53.1c.23.07.45.15.67.24a2.31,2.31,0,0,1,.58.33.56.56,0,0,1,.25.42.37.37,0,0,1-.09.23l-.23.29-.37.46a6,6,0,0,0-.49.76L132,61.32a6.84,6.84,0,0,0-.4.91c-.15.42-.32.9-.52,1.42l-.6,1.64c-.21.57-.41,1.08-.62,1.54a10.68,10.68,0,0,1-.57,1.13c-.18.3-.36.45-.52.45A1.34,1.34,0,0,1,128.16,68.24Z"/><path d="M68.67,95.48a2.25,2.25,0,0,0-.9,1L66.4,98.88a1.48,1.48,0,0,0-.17.54c0,.18-.15.28-.41.28a3.75,3.75,0,0,1-1.23-.17c-.31-.11-.47-.27-.47-.48a.77.77,0,0,1,.28-.53,8.74,8.74,0,0,0,.63-.76c.33-.43.69-.94,1.09-1.54s.81-1.22,1.21-1.87.79-1.32,1.18-2,.72-1.27,1-1.83.53-1.05.71-1.47a2.6,2.6,0,0,0,.28-.89,2.64,2.64,0,0,0-.93-1.51l-2.25-2.32a3.5,3.5,0,0,0-.66-.59.47.47,0,0,1-.27-.39c0-.08.07-.17.2-.27a5,5,0,0,1,.48-.31,4.67,4.67,0,0,1,.56-.26,1.38,1.38,0,0,1,.48-.12,4.82,4.82,0,0,1,.61,0,.86.86,0,0,1,.37.13.64.64,0,0,1,.24.29c.07.13.15.31.24.53a2.12,2.12,0,0,0,.34.56c.19.27.39.53.59.79q2.22,2.74,3.84,4.62c1.07,1.25,2.06,2.35,2.94,3.29s1.74,1.8,2.55,2.56,1.71,1.59,2.68,2.47A1.33,1.33,0,0,0,83,98l.42.15a.62.62,0,0,1,.29.15.47.47,0,0,1,.11.35.66.66,0,0,1-.15.32,3.48,3.48,0,0,1-.37.42,3.2,3.2,0,0,1-.44.35.81.81,0,0,1-.38.14h-.83a.3.3,0,0,1-.3-.19,1.25,1.25,0,0,0-.22-.37,45.11,45.11,0,0,0-3.67-4.12H70.23A3.52,3.52,0,0,0,68.67,95.48ZM70,92.41l-.47.84a.78.78,0,0,0-.11.34.24.24,0,0,0,.07.18.58.58,0,0,0,.34.1c.18,0,.46,0,.82,0l1.54,0,1.78,0,1.15,0a5.8,5.8,0,0,0,.66-.07,1.31,1.31,0,0,0,.33-.1l-4.31-4.48Z"/><path d="M95.34,93.93a1.75,1.75,0,0,1,.8-.12.54.54,0,0,1,.27.06.41.41,0,0,1,.18.29,3.08,3.08,0,0,1,.08.73c0,.33,0,.79,0,1.39,0,1.25,0,2.26.12,3a19.57,19.57,0,0,1,.12,2,.83.83,0,0,1-.15.56.88.88,0,0,1-.64.17.46.46,0,0,1-.27-.08.82.82,0,0,1-.22-.33,2.62,2.62,0,0,1-.21-.68c-.06-.3-.13-.69-.21-1.18a.75.75,0,0,0-.82-.73,2.31,2.31,0,0,0-.39.06l-.68.11-.82.11a5.86,5.86,0,0,1-5.87-2.45,7.13,7.13,0,0,1-1-2.2,8.39,8.39,0,0,1-.28-2,11.4,11.4,0,0,1,.52-3.42,8.42,8.42,0,0,1,1.63-3,8.56,8.56,0,0,1,2.81-2.14,9.17,9.17,0,0,1,4-.83,6.41,6.41,0,0,1,2.39.35,1.17,1.17,0,0,1,.82,1.11.67.67,0,0,1-.16.41,1.67,1.67,0,0,1-.39.36,2.39,2.39,0,0,1-.43.25.89.89,0,0,1-.36.1.61.61,0,0,1-.4-.17c-.14-.11-.4-.35-.81-.73a1.41,1.41,0,0,0-.52-.32,2.47,2.47,0,0,0-.6-.07,4.4,4.4,0,0,0-2.54.83,8.64,8.64,0,0,0-2.09,2.09,10.74,10.74,0,0,0-1.43,2.75,8.62,8.62,0,0,0-.52,2.85,7.93,7.93,0,0,0,.32,2.46A3.38,3.38,0,0,0,88.53,97a3,3,0,0,0,1.3.72,6.3,6.3,0,0,0,1.59.19,4.81,4.81,0,0,0,1.36-.18,4.21,4.21,0,0,0,1.07-.46,2.57,2.57,0,0,0,.71-.62,1.47,1.47,0,0,0,.32-.67l.22-1.68A.5.5,0,0,1,95.34,93.93Z"/><path d="M104.75,95.48a2.27,2.27,0,0,0-.91,1l-1.37,2.43a1.3,1.3,0,0,0-.16.54c0,.18-.16.28-.41.28a3.77,3.77,0,0,1-1.24-.17c-.31-.11-.46-.27-.46-.48a.8.8,0,0,1,.27-.53,8.74,8.74,0,0,0,.63-.76c.33-.43.69-.94,1.1-1.54s.8-1.22,1.2-1.87.8-1.32,1.18-2,.72-1.27,1-1.83.53-1.05.71-1.47a2.75,2.75,0,0,0,.27-.89,2.64,2.64,0,0,0-.93-1.51l-2.25-2.32a3.21,3.21,0,0,0-.65-.59.46.46,0,0,1-.28-.39q0-.12.21-.27a3.33,3.33,0,0,1,.48-.31,4,4,0,0,1,.56-.26,1.29,1.29,0,0,1,.48-.12,4.75,4.75,0,0,1,.6,0,.81.81,0,0,1,.37.13.72.72,0,0,1,.25.29c.06.13.14.31.23.53A2.45,2.45,0,0,0,106,84l.59.79q2.22,2.74,3.84,4.62t3,3.29c.88.94,1.73,1.8,2.55,2.56s1.7,1.59,2.67,2.47a1.4,1.4,0,0,0,.52.33l.43.15a.63.63,0,0,1,.28.15.43.43,0,0,1,.11.35.66.66,0,0,1-.15.32,2.79,2.79,0,0,1-.37.42,2.33,2.33,0,0,1-.44.35.74.74,0,0,1-.38.14h-.82a.31.31,0,0,1-.31-.19,1.23,1.23,0,0,0-.21-.37,45.69,45.69,0,0,0-3.68-4.12h-7.26A3.46,3.46,0,0,0,104.75,95.48Zm1.34-3.07c-.24.43-.39.71-.47.84a.78.78,0,0,0-.11.34.29.29,0,0,0,.07.18.61.61,0,0,0,.34.1c.19,0,.46,0,.83,0l1.53,0,1.78,0,1.15,0a5.31,5.31,0,0,0,.66-.07,1.18,1.18,0,0,0,.33-.1l-4.3-4.48Z"/><path d="M123.73,88.72c0-.56,0-1.09,0-1.57a6.12,6.12,0,0,0,0-.66.83.83,0,0,0-.19-.46,2,2,0,0,1-.37-.55A1.13,1.13,0,0,1,123,85a.91.91,0,0,1,.25-.48,5.23,5.23,0,0,1,.57-.59,6.12,6.12,0,0,1,.68-.49,1.1,1.1,0,0,1,.53-.21,1.36,1.36,0,0,1,.69.24c.25.16.38.3.38.41a2.08,2.08,0,0,1-.12.68,2.56,2.56,0,0,0-.15.83c-.08.82-.14,2.2-.18,4.13s-.07,4.58-.07,7.94a7.54,7.54,0,0,1-.21,2.23.71.71,0,0,1-.67.55.89.89,0,0,1-.34-.07.62.62,0,0,1-.26-.36,4,4,0,0,1-.18-.85c0-.38-.08-.91-.1-1.6s0-1.54,0-2.57,0-2.29,0-3.77C123.77,90.05,123.76,89.28,123.73,88.72Z"/><path d="M133.46,88.34c0-.35,0-.7,0-1a2,2,0,0,0-.37-1.37,2.05,2.05,0,0,0-.82-.61l-.82-.32a.5.5,0,0,1-.37-.5q0-.19.3-.42l1-.82a1.26,1.26,0,0,1,.37-.25.74.74,0,0,1,.29,0,.61.61,0,0,1,.31.09,2.24,2.24,0,0,1,.37.38q1.59,1.93,3.26,3.87c1.12,1.29,2.15,2.46,3.11,3.53s1.79,2,2.5,2.71S143.77,94.77,144,95c.14-.95.25-1.86.31-2.73s.1-1.76.1-2.68c0-.72,0-1.36-.08-1.9s-.11-1-.17-1.37-.11-.68-.16-.9a2.06,2.06,0,0,1-.08-.53.54.54,0,0,1,.23-.41,1.51,1.51,0,0,1,.51-.24,4.14,4.14,0,0,1,.63-.11l.6,0a.55.55,0,0,1,.52.24,1.1,1.1,0,0,1,.14.55,5.25,5.25,0,0,1-.14.92q-.13.65-.3,1.74t-.3,2.73c-.1,1.09-.14,2.4-.14,3.94,0,.46,0,1,0,1.49s0,1.1,0,1.7a1,1,0,0,1-.24.6,3.91,3.91,0,0,1-.56.59,4.58,4.58,0,0,1-.62.45,1.08,1.08,0,0,1-.41.18c-.09,0-.17-.1-.24-.31l-.23-.78a7.7,7.7,0,0,0-.4-1.07,4.79,4.79,0,0,0-.75-1.17c-.71-.86-1.45-1.71-2.21-2.54L138,91c-.67-.72-1.27-1.36-1.81-1.92s-1-1-1.22-1.32c-.06.79-.1,1.59-.14,2.42s-.06,1.64-.07,2.43,0,1.51,0,2.2,0,1.25,0,1.72,0,.82,0,1.24,0,.75,0,1a1.25,1.25,0,0,1-.09.46.59.59,0,0,1-.4.33l-1,.25a3,3,0,0,1-.64.08c-.35,0-.52-.13-.52-.39a.77.77,0,0,1,.13-.43c.09-.15.2-.32.32-.54a4.52,4.52,0,0,0,.34-.85,6.32,6.32,0,0,0,.22-1.37l.33-6.92C133.44,89,133.45,88.68,133.46,88.34Z"/></svg>
