<svg id="Layer_1" data-name="Layer 1" xmlns="http://www.w3.org/2000/svg" width="123" height="43" viewBox="0 0 123 43"><defs><style>.cls-1{fill:none;}</style></defs><title>points</title><rect class="cls-1" x="-0.45" width="123.38" height="42.8"/><path d="M7.59,17.14a19.64,19.64,0,0,0-.29-2.7,3.61,3.61,0,0,0-.49-1.36,1.6,1.6,0,0,0-.69-.54q-.9-.36-.9-.84c0-.19.11-.33.35-.41q1.21-.42,1.92-.72c.47-.2.84-.37,1.1-.5A5.88,5.88,0,0,1,9.2,9.8a1.38,1.38,0,0,1,.45-.08,2.8,2.8,0,0,1,.77.14c.3.1.45.21.45.34a1.89,1.89,0,0,1-.1.56,8.33,8.33,0,0,0-.19,1.15c-.07.55-.14,1.32-.2,2.32s-.1,2.37-.1,4.1c0,1.88,0,3.46.06,4.75s.08,2.38.14,3.28a1.24,1.24,0,0,0,.15.66,1.83,1.83,0,0,0,.34.38l.33.26a.31.31,0,0,1,.16.27c0,.21-.24.38-.71.49a7.65,7.65,0,0,1-1.84.18,7.29,7.29,0,0,1-1.81-.13c-.26-.08-.39-.21-.39-.38a.51.51,0,0,1,.12-.27,3,3,0,0,1,.47-.53A.73.73,0,0,0,7.47,27a4.4,4.4,0,0,0,.12-.74c0-.37.07-.92.08-1.63s0-1.68,0-2.9C7.69,19.83,7.66,18.3,7.59,17.14Z"/><path d="M18,25.82a1.66,1.66,0,0,1,.41-.45c.22-.19.55-.46,1-.79s1-.77,1.79-1.32a42.11,42.11,0,0,0,3.69-2.93A17,17,0,0,0,27,18a6.85,6.85,0,0,0,1-1.89,5.3,5.3,0,0,0,.25-1.54,2.75,2.75,0,0,0-.94-2.05,4.25,4.25,0,0,0-3-.89,7.93,7.93,0,0,0-2.61.35,2.39,2.39,0,0,0-1.4,1.22.69.69,0,0,1-.35.27,3.49,3.49,0,0,1-1.06.11.65.65,0,0,1-.53-.27,2.19,2.19,0,0,1-.35-.64,3.55,3.55,0,0,1-.2-.72,3.6,3.6,0,0,1-.06-.51q0-.33.78-.6a13.14,13.14,0,0,1,1.85-.46c.71-.13,1.42-.23,2.14-.3a16.28,16.28,0,0,1,1.67-.12c.42,0,.8,0,1.16,0a5.67,5.67,0,0,1,1.06.16,7.24,7.24,0,0,1,1.14.38,15.09,15.09,0,0,1,1.39.7,5.11,5.11,0,0,1,1.79,1.51,3.81,3.81,0,0,1,.49,2,4.7,4.7,0,0,1-.16,1.13,5.85,5.85,0,0,1-.51,1.36,8.59,8.59,0,0,1-.92,1.43,7.55,7.55,0,0,1-1.44,1.36l-7.69,5.85c-.16.13-.24.21-.24.26s.09.09.28.09c1.57,0,3.11,0,4.63,0s3.06-.06,4.63-.08A9.14,9.14,0,0,0,31.52,26a8.89,8.89,0,0,0,1-.22,2.83,2.83,0,0,0,.57-.22.77.77,0,0,1,.4-.12.58.58,0,0,1,.37.16A.54.54,0,0,1,34,26a4.84,4.84,0,0,1-.06.58,6.2,6.2,0,0,1-.2.86,3.52,3.52,0,0,1-.33.78.57.57,0,0,1-.51.34,4.83,4.83,0,0,1-1.1-.26,3.65,3.65,0,0,0-.49-.11c-.2,0-.49-.06-.87-.08s-.88,0-1.51,0H26.62c-1.39,0-2.5,0-3.32,0l-1.95,0a7.3,7.3,0,0,0-1,.08,3.62,3.62,0,0,0-.61.16,4.38,4.38,0,0,0-.43.13,1.44,1.44,0,0,1-.43.06,1.27,1.27,0,0,1-.59-.22c-.23-.15-.35-.31-.35-.48V26.17A.67.67,0,0,1,18,25.82Z"/><path d="M41,17.14a19.64,19.64,0,0,0-.29-2.7,3.45,3.45,0,0,0-.49-1.36,1.6,1.6,0,0,0-.69-.54q-.9-.36-.9-.84a.44.44,0,0,1,.35-.41c.81-.28,1.46-.52,1.93-.72s.83-.37,1.1-.5a5.07,5.07,0,0,1,.61-.27,1.33,1.33,0,0,1,.45-.08,2.74,2.74,0,0,1,.76.14c.3.1.45.21.45.34a2.21,2.21,0,0,1-.09.56,6.75,6.75,0,0,0-.2,1.15c-.07.55-.13,1.32-.2,2.32s-.09,2.37-.09,4.1c0,1.88,0,3.46,0,4.75s.09,2.38.14,3.28a1.15,1.15,0,0,0,.16.66,1.56,1.56,0,0,0,.33.38l.34.26a.32.32,0,0,1,.15.27c0,.21-.23.38-.7.49a7.74,7.74,0,0,1-1.85.18,7.4,7.4,0,0,1-1.81-.13c-.26-.08-.39-.21-.39-.38a.51.51,0,0,1,.12-.27,4.11,4.11,0,0,1,.47-.53.64.64,0,0,0,.18-.27,3.77,3.77,0,0,0,.11-.74c0-.37.07-.92.08-1.63s0-1.68,0-2.9C41.14,19.83,41.11,18.3,41,17.14Z"/><path d="M53.18,15.45A9.85,9.85,0,0,1,55.3,12.2a6.75,6.75,0,0,1,2.63-1.65,8,8,0,0,1,2.37-.45,7.68,7.68,0,0,1,3.4.74,8,8,0,0,1,2.59,2,8.77,8.77,0,0,1,1.65,2.93,11.13,11.13,0,0,1,.57,3.6,8.05,8.05,0,0,1-.19,1.59,12.3,12.3,0,0,1-.63,2A11.33,11.33,0,0,1,66.55,25a8.54,8.54,0,0,1-1.73,1.83,9.1,9.1,0,0,1-2.36,1.31,8.54,8.54,0,0,1-3.06.51,5.34,5.34,0,0,1-2.75-.77,8.92,8.92,0,0,1-2.27-1.93,9.34,9.34,0,0,1-1.54-2.56,7.28,7.28,0,0,1-.55-2.61A13.38,13.38,0,0,1,53.18,15.45Zm2,4.7a9.18,9.18,0,0,0,.22,1.39,13,13,0,0,0,.51,1.67,6.27,6.27,0,0,0,.92,1.63,4.8,4.8,0,0,0,1.45,1.23,4.32,4.32,0,0,0,2.12.48,4.51,4.51,0,0,0,2.56-.69,5.1,5.1,0,0,0,1.63-1.76,7.92,7.92,0,0,0,.86-2.41A14.25,14.25,0,0,0,65.68,19a8.48,8.48,0,0,0-.29-2,9.11,9.11,0,0,0-.94-2.33,6.16,6.16,0,0,0-1.73-1.94,4.28,4.28,0,0,0-2.61-.8,3.66,3.66,0,0,0-2,.58A5.13,5.13,0,0,0,56.5,14.1a7.46,7.46,0,0,0-1,2.36,11.34,11.34,0,0,0-.36,2.92C55.12,19.49,55.13,19.75,55.16,20.15Z"/><path d="M83.5,24.05a11.82,11.82,0,0,0-.1-1.26.61.61,0,0,0-.05-.12.27.27,0,0,0-.11-.1c-.15-.06-.22-.13-.22-.21s.08-.21.25-.31a3.6,3.6,0,0,1,.59-.27,5.23,5.23,0,0,1,.68-.18,2.81,2.81,0,0,1,.54-.07,5.83,5.83,0,0,1,.87.07,6.06,6.06,0,0,1,.91.22,1.44,1.44,0,0,1,.37.22,2.73,2.73,0,0,1,.34.34,1.67,1.67,0,0,1,.24.37.76.76,0,0,1,.1.36,1.82,1.82,0,0,1-.25,1.13,3.25,3.25,0,0,1-.37.41l-.48.41a5,5,0,0,1-.48.32.73.73,0,0,1-.34.13,1.11,1.11,0,0,1-.28-.05l-.32-.1-.26-.13c-.07-.05-.11-.08-.11-.11s0-.07.08-.1a.77.77,0,0,1,.27-.07,2.12,2.12,0,0,0,1.1-.5,1.11,1.11,0,0,0,.4-.83,2.58,2.58,0,0,0-.05-.43,1.53,1.53,0,0,0-.18-.49,1.22,1.22,0,0,0-.35-.4.93.93,0,0,0-.56-.16,2.15,2.15,0,0,0-.58.07,2.76,2.76,0,0,0-.56.21q0,.2-.06.48c0,.18,0,.37,0,.57l0,.59c0,.2,0,.38,0,.53v3.1a2,2,0,0,1-.18,1,.67.67,0,0,1-.62.3c-.17,0-.25-.06-.25-.17a.43.43,0,0,1,0-.11.91.91,0,0,0,.06-.16q0-.11.06-.27c0-.11,0-.26,0-.45V26C83.54,25.28,83.53,24.61,83.5,24.05Z"/><path d="M90.52,24.22a3,3,0,0,1,.65-1.1,3.33,3.33,0,0,1,1.14-.8A4.13,4.13,0,0,1,94,22a3.28,3.28,0,0,1,1.09.18,2.44,2.44,0,0,1,.91.56,2.7,2.7,0,0,1,.62,1,3.91,3.91,0,0,1,.23,1.4,3.18,3.18,0,0,1-.29,1.38,3,3,0,0,1-.79,1,3.5,3.5,0,0,1-1.12.62,4.07,4.07,0,0,1-1.3.21,3.15,3.15,0,0,1-1.08-.19,2.82,2.82,0,0,1-2-2.76A3.51,3.51,0,0,1,90.52,24.22Zm.94,1.59a2.28,2.28,0,0,0,.36.8,2.55,2.55,0,0,0,.73.69,2.22,2.22,0,0,0,1.18.29,3,3,0,0,0,.68-.09,2.07,2.07,0,0,0,.71-.36,2,2,0,0,0,.57-.71,2.76,2.76,0,0,0,.22-1.16,3.36,3.36,0,0,0-.19-1.22,2.13,2.13,0,0,0-.49-.79,1.81,1.81,0,0,0-.69-.44,2.45,2.45,0,0,0-.81-.13,2.37,2.37,0,0,0-1,.21,2.25,2.25,0,0,0-.75.54,2.53,2.53,0,0,0-.46.8,3.12,3.12,0,0,0-.16,1A2.63,2.63,0,0,0,91.46,25.81Z"/><path d="M100,24c0-.23,0-.45,0-.65a2,2,0,0,0,0-.28.3.3,0,0,0-.1-.19,1.07,1.07,0,0,1-.19-.23.37.37,0,0,1,0-.2s0-.11.13-.2a1.86,1.86,0,0,1,.3-.24,3.24,3.24,0,0,1,.35-.21.72.72,0,0,1,.28-.09,1,1,0,0,1,.37.1c.13.07.2.13.2.17a.62.62,0,0,1-.07.29,1.13,1.13,0,0,0-.08.35c0,.34-.07.92-.09,1.73s0,1.92,0,3.33a2.76,2.76,0,0,1-.1.94.37.37,0,0,1-.36.22l-.18,0a.25.25,0,0,1-.13-.15,1.47,1.47,0,0,1-.1-.36c0-.16,0-.38,0-.67s0-.65,0-1.08,0-1,0-1.58C100.06,24.55,100.05,24.23,100,24Z"/><path d="M105.16,23.83c0-.14,0-.29,0-.44a.74.74,0,0,0-.2-.57,1.1,1.1,0,0,0-.43-.25l-.43-.14c-.13,0-.2-.11-.2-.21s0-.11.16-.18l.52-.34a.7.7,0,0,1,.19-.1l.15,0a.47.47,0,0,1,.17,0,.8.8,0,0,1,.19.16c.56.54,1.13,1.08,1.72,1.62s1.13,1,1.64,1.49L110,26c.37.32.62.52.76.62.07-.4.13-.79.16-1.15a10.26,10.26,0,0,0,.05-1.12,6.27,6.27,0,0,0,0-.8c0-.23-.06-.42-.09-.58a3.72,3.72,0,0,0-.08-.37.87.87,0,0,1,0-.23.24.24,0,0,1,.13-.17,1.28,1.28,0,0,1,.26-.1,1.86,1.86,0,0,1,.33,0l.32,0a.35.35,0,0,1,.28.1.48.48,0,0,1,.07.23,2.32,2.32,0,0,1-.07.39,6.59,6.59,0,0,0-.16.73c-.06.31-.11.69-.16,1.15a15.44,15.44,0,0,0-.07,1.65c0,.19,0,.4,0,.63s0,.46,0,.71a.41.41,0,0,1-.12.25,2.48,2.48,0,0,1-.3.25,2.68,2.68,0,0,1-.33.18.63.63,0,0,1-.21.08s-.09,0-.12-.13-.08-.2-.13-.33a1.92,1.92,0,0,0-.21-.44,2.13,2.13,0,0,0-.39-.5c-.38-.36-.76-.71-1.16-1.06l-1.13-1-1-.8-.64-.55c0,.33-.05.66-.07,1s0,.69,0,1,0,.63,0,.92,0,.53,0,.72,0,.35,0,.53,0,.31,0,.4a.53.53,0,0,1,0,.2.32.32,0,0,1-.21.13l-.53.11-.34,0c-.18,0-.27-.05-.27-.16a.24.24,0,0,1,.07-.18l.17-.23a2,2,0,0,0,.18-.36,2.06,2.06,0,0,0,.11-.57l.18-2.9C105.15,24.13,105.15,24,105.16,23.83Z"/><path d="M114.49,22.72l-.28,0a.27.27,0,0,1-.26-.15.58.58,0,0,1-.09-.3.33.33,0,0,1,.15-.22.44.44,0,0,1,.28-.13h.38l.52,0,.75,0c.28,0,.63,0,1,0s1.06,0,1.59-.05,1.06,0,1.59,0c.14,0,.21,0,.21.16a.28.28,0,0,1-.06.13l-.16.15a.6.6,0,0,1-.21.14.74.74,0,0,1-.22.08l-.49,0-.57,0-.57,0h-.46a6.74,6.74,0,0,0-.12.74c0,.27-.06.58-.09.92s0,.74,0,1.17,0,.93,0,1.49a1.15,1.15,0,0,0,.06.37.94.94,0,0,0,.2.33.89.89,0,0,0,.38.24,1.81,1.81,0,0,0,.62.09h.25a1.08,1.08,0,0,1,.22,0,.12.12,0,0,1,.13.09,1,1,0,0,1,0,.16.32.32,0,0,1-.13.27,1.93,1.93,0,0,1-.44.17,1.62,1.62,0,0,1-.5.08,2.07,2.07,0,0,1-.77-.13,1.72,1.72,0,0,1-.58-.33,1.57,1.57,0,0,1-.38-.45,1,1,0,0,1-.13-.45,1.24,1.24,0,0,1,0-.3c0-.13.05-.29.07-.5s0-.45.07-.75,0-.65,0-1.07,0-.7,0-1a9.46,9.46,0,0,0-.08-1h-1.91Z"/></svg>
