<svg id="Layer_1" data-name="Layer 1" xmlns="http://www.w3.org/2000/svg" width="785" height="431" viewBox="0 0 785 431"><title>settings_overskrift</title><path d="M142.42,241.05a1.45,1.45,0,0,1,.83-1.09,11.69,11.69,0,0,1,5-.72,16.11,16.11,0,0,0,6.8-1.44,6.29,6.29,0,0,0,4.1-4.63,7.69,7.69,0,0,0-1.07-5.91,24.3,24.3,0,0,0-5-5.31q-3.41-2.82-7.75-5.8c-2.91-2-6-4-9.28-6s-6.44-4-9.44-5.9-5.71-3.76-8.13-5.56a23.31,23.31,0,0,1-5.24-5,16.37,16.37,0,0,1-2.13-6.78,36.68,36.68,0,0,1,0-10.09,29.35,29.35,0,0,1,3.33-10.16,14.64,14.64,0,0,1,7.57-6.78c.72-.28,1.81-.64,3.27-1.07a36,36,0,0,1,4.47-1,21.42,21.42,0,0,1,4.22-.23,2.88,2.88,0,0,1,2.54,1.11c1,1.68,1.25,2.92.79,3.71s-2.09,1.78-4.87,3c-6.58,2.79-10.56,6-11.92,9.58a11,11,0,0,0,1.4,10.5c1.41,2.14,4,4.47,7.77,7l12.1,8.31q6.47,4.49,12.54,9.6a44.67,44.67,0,0,1,9.42,10.65,30.91,30.91,0,0,1,1.87,4.38,27.62,27.62,0,0,1,1.58,7.39,20.33,20.33,0,0,1-.87,7.77c-.79,2.52-2.67,4.4-5.67,5.68a15.55,15.55,0,0,1-3.12.86,31.88,31.88,0,0,1-4.1.53c-1.4.08-2.7.1-3.89,0a4.72,4.72,0,0,1-2.46-.58c-.77-.61-1.47-1.22-2.13-1.84a14.3,14.3,0,0,1-1.84-2.12A2.92,2.92,0,0,1,142.42,241.05Z"/><path d="M218.11,175.4a2.29,2.29,0,0,1-.26,1.48,15.42,15.42,0,0,1-1.18,2.32,19.32,19.32,0,0,1-1.53,2.21,3.17,3.17,0,0,1-1.49,1.17c-4.12,1.58-8,3-11.58,4.13s-6.8,2.26-9.58,3.26c5.17,10.35,11.21,17.43,17.9,21.36s14.41,4.57,23.44,2.06a10,10,0,0,1,4.1-.54,2.9,2.9,0,0,1,1.91,2c.29.71-.08,1.59-1.08,2.65s-3.16,2-6.43,3a47.85,47.85,0,0,1-13.3,2.09,35.54,35.54,0,0,1-10.8-1.6,30.39,30.39,0,0,1-8.75-4.42,45,45,0,0,1-7-6.41,53,53,0,0,1-5.5-7.43c-1.59-2.59-3-5.08-4.28-7.48-4.52-8.55-7.44-16-8.63-22.43s-1.18-11.9.07-16.48a21.3,21.3,0,0,1,7-11.07,32.34,32.34,0,0,1,11.68-6.12c4.4-1.28,7.51-1.82,9.33-1.69a3.94,3.94,0,0,1,3.65,2.46q1.2,2.91-1.74,3.72-4.58,1.28-9.14,2.61a18.23,18.23,0,0,0-6.57,3.45,12.32,12.32,0,0,0-4,6.82,28.69,28.69,0,0,0,0,11.31,74.44,74.44,0,0,0,5.41,16.74,8.18,8.18,0,0,1,2-2.37,9.8,9.8,0,0,1,3.45-1.77q9.71-3,19.47-5.8C216.53,174.07,217.67,174.35,218.11,175.4Z"/><path d="M231.74,143.75c-1,.33-1.93.61-3,.86a3.54,3.54,0,0,1-3.4-1,8.23,8.23,0,0,1-2.21-3.18c-.27-.71-.05-1.69.68-2.94a4.22,4.22,0,0,1,2.5-2.22c1.15-.28,2.53-.56,4.13-.84s3.55-.62,5.85-1,5-.85,8.23-1.4,7-1.27,11.39-2.16q8.67-1.72,17.22-3.8t17.32-3.38c1.59-.24,2.53.29,2.81,1.57a2.53,2.53,0,0,1-.39,1.55,17.38,17.38,0,0,1-1.32,2.11,10.22,10.22,0,0,1-1.9,2,6.15,6.15,0,0,1-2.16,1.19c-1.52.43-3.28.85-5.28,1.28s-4,.86-6.09,1.31-4.07.86-6,1.22l-5,.93q.34,4.09,1.17,8.88t2.19,10.84q1.37,6.06,3.35,13.64t4.82,17.23a18.26,18.26,0,0,0,1.8,4.17,12.48,12.48,0,0,0,2.94,3.45,11.2,11.2,0,0,0,4.38,2.12,14.81,14.81,0,0,0,6.11.05,19.23,19.23,0,0,0,2.32-.62,17.91,17.91,0,0,1,2-.56,1.25,1.25,0,0,1,1.41.84,11.3,11.3,0,0,1,.66,1.81,4,4,0,0,1-.42,3.35,15.05,15.05,0,0,1-3.54,2.74,13,13,0,0,1-4.31,1.77,17.47,17.47,0,0,1-7.5-.17A22.4,22.4,0,0,1,271,198.18a15.18,15.18,0,0,1-2.87-5,24.17,24.17,0,0,1-.78-3.59q-.33-2.23-1.1-5.83t-2-8.8q-1.26-5.22-3.5-12.39-1.9-6.09-3.88-11.88T252.14,139q-8.82,1.84-17.6,3.91C233.61,143.16,232.68,143.43,231.74,143.75Z"/><path d="M309.36,129.59c-1,.22-2,.39-3,.53a3.3,3.3,0,0,1-3.16-1.35,7.92,7.92,0,0,1-1.66-3.38c-.15-.74.23-1.68,1.14-2.85a4.42,4.42,0,0,1,2.8-1.92q1.76-.23,4.17-.39c1.61-.1,3.57-.22,5.87-.34l8.28-.49c3.21-.19,7-.5,11.51-.89q8.76-.77,17.5-1.89t17.56-1.46c1.61-.06,2.44.56,2.51,1.86a2.62,2.62,0,0,1-.63,1.49,18.07,18.07,0,0,1-1.64,1.95,11,11,0,0,1-2.19,1.77,6.82,6.82,0,0,1-2.32,1q-2.34.38-5.4.68l-6.19.64q-3.14.34-6.12.55l-5,.37c-.21,2.74-.3,5.71-.28,8.94s.15,6.89.4,11,.6,8.72,1.09,13.88,1.14,11,1.95,17.6a17.64,17.64,0,0,0,1.09,4.33,11.54,11.54,0,0,0,2.33,3.75,10.39,10.39,0,0,0,4,2.57,14.14,14.14,0,0,0,6,.72,17.22,17.22,0,0,0,2.37-.36,17.49,17.49,0,0,1,2.1-.33,1.14,1.14,0,0,1,1.24,1,10.87,10.87,0,0,1,.36,1.87,4,4,0,0,1-1,3.27,16.41,16.41,0,0,1-3.91,2.34,13.82,13.82,0,0,1-4.52,1.28,17.08,17.08,0,0,1-7.33-1,20.5,20.5,0,0,1-6-3.49,19.82,19.82,0,0,1-4.27-4.94,14.48,14.48,0,0,1-2-5.22,24.58,24.58,0,0,1-.18-3.64q0-2.25-.14-5.89t-.57-8.95q-.39-5.31-1.43-12.66-.9-6.24-1.89-12.2a124,124,0,0,0-2.69-12.12q-8.93.87-17.85,2C311.29,129.21,310.33,129.38,309.36,129.59Z"/><path d="M399.13,139c-.15-2.79-.23-5.39-.23-7.82a29.76,29.76,0,0,0-.16-3.28,3.92,3.92,0,0,0-1.1-2.3,10.29,10.29,0,0,1-2.14-2.72,5.56,5.56,0,0,1-.57-2.3,4.22,4.22,0,0,1,1.41-2.38,22.15,22.15,0,0,1,3.35-2.94,29.68,29.68,0,0,1,3.94-2.43,7.45,7.45,0,0,1,3.15-1,8.66,8.66,0,0,1,4,1.24c1.48.81,2.21,1.5,2.19,2.06a9,9,0,0,1-.81,3.41,13,13,0,0,0-1,4.1q-.78,6.13-1.49,20.59t-1.25,39.58q-.18,8.38-1.25,11.09c-.71,1.81-1.81,2.7-3.32,2.69a3.87,3.87,0,0,1-1.67-.36,3,3,0,0,1-1.26-1.75,19.14,19.14,0,0,1-.86-4.26c-.23-1.91-.38-4.56-.47-8s-.16-7.69-.2-12.85-.07-11.43-.07-18.79C399.36,145.7,399.28,141.83,399.13,139Z"/><path d="M453.38,139.25c.25-1.71.48-3.44.68-5.2.37-3.15-.06-5.48-1.32-7a11.83,11.83,0,0,0-4.39-3.33c-1.67-.72-3.2-1.35-4.58-1.91s-2-1.43-1.91-2.63c.05-.65.7-1.32,1.94-2q3.06-1.84,6.16-3.66a8,8,0,0,1,2.31-1.1,5.76,5.76,0,0,1,1.72-.15,3.57,3.57,0,0,1,1.8.62,9.05,9.05,0,0,1,1.95,2q8.17,10.34,16.06,20.89c5.24,7,9.89,13.53,14,19.45s7.57,11,10.41,15.23,4.72,7,5.77,8.3c1.89-4.53,3.55-8.89,4.95-13.07s2.66-8.52,3.78-13a83.78,83.78,0,0,0,1.88-9.38q.54-4,.75-6.86a43.35,43.35,0,0,0,.15-4.53,10.21,10.21,0,0,1,.17-2.68,3.08,3.08,0,0,1,1.83-1.77,10.29,10.29,0,0,1,3.21-.67,22.75,22.75,0,0,1,3.77.07c1.29.13,2.46.3,3.51.48,1.47.27,2.37.84,2.68,1.7a4.55,4.55,0,0,1,0,2.81,24.27,24.27,0,0,1-2,4.35q-1.65,3-4,8.14t-5.25,13q-2.9,7.86-5.86,19-.92,3.42-1.81,7.33t-2.07,8.28a5.66,5.66,0,0,1-2,2.72,22.46,22.46,0,0,1-3.52,2.39,27.63,27.63,0,0,1-3.58,1.68,5.81,5.81,0,0,1-2.22.55c-.45-.07-.71-.63-.78-1.69s-.14-2.39-.22-4a38.34,38.34,0,0,0-.75-5.52,21.81,21.81,0,0,0-2.49-6.35q-4-7.12-8.78-14.06c-3.17-4.61-6.28-8.9-9.26-12.86s-5.8-7.47-8.35-10.54-4.53-5.45-5.86-7.16q-1.23,5.79-2.35,11.94t-2,12Q456.75,167,456,172c-.5,3.38-.89,6.22-1.19,8.54-.27,2-.49,4.1-.68,6.19s-.34,3.69-.49,4.8a6.48,6.48,0,0,1-.77,2.25,2.89,2.89,0,0,1-2.16,1.43l-5,.86a13.2,13.2,0,0,1-3.2.19c-1.69-.12-2.47-.83-2.34-2.12a4,4,0,0,1,.89-2.12c.52-.66,1.13-1.51,1.83-2.53a25.11,25.11,0,0,0,2.16-4.12,31.26,31.26,0,0,0,1.86-6.74q2.76-17.11,5.66-34.22Q453,141.82,453.38,139.25Z"/><path d="M599.4,196.28a10.58,10.58,0,0,1,4.27.78,3,3,0,0,1,1.26.71,2,2,0,0,1,.21,1.66,15.75,15.75,0,0,1-1.29,3.49q-1.1,2.28-3.19,6.41-4.39,8.65-6.54,14.2a101.11,101.11,0,0,1-4.08,9.28,5.09,5.09,0,0,1-2,2.35,4.68,4.68,0,0,1-3.35-.2,1.78,1.78,0,0,1-1.06-.8,3.61,3.61,0,0,1-.27-1.82,16.73,16.73,0,0,1,.61-3.48q.57-2.22,1.7-5.76t-2.27-4.61a12.61,12.61,0,0,0-2-.33c-1-.11-2.15-.26-3.45-.46l-4.16-.64a33.52,33.52,0,0,1-4-.89c-6-1.73-10.5-4.21-13.53-7.54A27.14,27.14,0,0,1,550,197.77a32.42,32.42,0,0,1-1.21-11.72,40.57,40.57,0,0,1,1.94-10,55.78,55.78,0,0,1,8.61-15.71,45.36,45.36,0,0,1,14.26-12.11,52.53,52.53,0,0,1,19.86-6c7.52-.83,15.83.11,24.76,2.89,5.91,1.85,10.15,3.87,12.68,6s3.19,4.32,2,6.63a3.77,3.77,0,0,1-1.89,1.56,13.48,13.48,0,0,1-3,1,19.47,19.47,0,0,1-3,.35,6.67,6.67,0,0,1-2.2-.19,3.51,3.51,0,0,1-1.8-1.5c-.5-.76-1.44-2.37-2.83-4.81a6.74,6.74,0,0,0-2.19-2.41,13.82,13.82,0,0,0-3.23-1.38,30,30,0,0,0-15.94-.34A52.36,52.36,0,0,0,581,156.6a57.13,57.13,0,0,0-12.9,11.08,43.6,43.6,0,0,0-7.91,12.85,38.87,38.87,0,0,0-2.87,12.14,15.34,15.34,0,0,0,1.65,8.11,13.65,13.65,0,0,0,5,5.09,31.73,31.73,0,0,0,7.36,3.08,26.44,26.44,0,0,0,7,1.07,27.4,27.4,0,0,0,6.2-.58,17.38,17.38,0,0,0,4.84-1.79,9.28,9.28,0,0,0,3.06-2.63q2.43-3.74,4.87-7.45A3.26,3.26,0,0,1,599.4,196.28Z"/><path d="M622.34,227.06a2.23,2.23,0,0,1,1.57-.1,8.86,8.86,0,0,1,3.57,2.86,12.84,12.84,0,0,0,5.33,3.61,9.28,9.28,0,0,0,7.08,0,11,11,0,0,0,5.4-4.11,19.76,19.76,0,0,0,2.53-6.33,74.57,74.57,0,0,0,1.45-8.42c.34-3,.61-6.22.78-9.53s.36-6.51.61-9.57.57-5.91,1-8.52a18.22,18.22,0,0,1,2.1-6.31q1.28-2.15,5.65-5.32a58.78,58.78,0,0,1,10.25-5.81,49.65,49.65,0,0,1,12.25-3.69,20.08,20.08,0,0,1,11.29,1.07c.71.31,1.72.82,3,1.54a28.52,28.52,0,0,1,3.61,2.38,15.73,15.73,0,0,1,2.73,2.65c.69.9.81,1.67.35,2.32-1.14,1.62-2.26,2.5-3.35,2.65s-3.06-.37-5.91-1.52c-6.7-2.73-12.31-3.48-16.71-2.32a15.92,15.92,0,0,0-9.88,7c-1.37,2.16-2.25,5.21-2.71,9.15s-1,8.18-1.49,12.72a117.45,117.45,0,0,1-2.53,13.76,29.16,29.16,0,0,1-8.8,16.07,38.34,38.34,0,0,1-6.64,5.28,34,34,0,0,1-8.45,3.9,13,13,0,0,1-9-.44,13.6,13.6,0,0,1-2.67-1.53,23.29,23.29,0,0,1-2.86-2.38,24.6,24.6,0,0,1-2.25-2.5,2.79,2.79,0,0,1-.81-1.93c.19-.86.41-1.67.66-2.45a12.32,12.32,0,0,1,1.11-2.43A3.76,3.76,0,0,1,622.34,227.06Z"/></svg>
