<svg id="Layer_1" data-name="Layer 1" xmlns="http://www.w3.org/2000/svg" width="137" height="122" viewBox="0 0 137 122"><defs><style>.cls-1{fill:#3d2612;}.cls-2{fill:#603813;}.cls-3{fill:#68543a;}.cls-4{fill:#020201;}</style></defs><title>settings</title><ellipse class="cls-1" cx="63" cy="61.5" rx="56" ry="56.5"/><ellipse class="cls-2" cx="62.75" cy="61.08" rx="50.3" ry="49.16"/><ellipse class="cls-3" cx="63.14" cy="61.88" rx="48.46" ry="47.37"/><path class="cls-4" d="M23.63,67.12a.26.26,0,0,1,.2-.1,1.67,1.67,0,0,1,.69.2,2.2,2.2,0,0,0,1,.19,1.16,1.16,0,0,0,.91-.38,1.22,1.22,0,0,0,.34-.82,3,3,0,0,0-.2-1,10.91,10.91,0,0,0-.49-1.17c-.19-.42-.41-.84-.63-1.29s-.45-.87-.64-1.28a11.84,11.84,0,0,1-.49-1.17,2.94,2.94,0,0,1-.2-.94,2.9,2.9,0,0,1,.28-1,7.17,7.17,0,0,1,.75-1.29A5.33,5.33,0,0,1,26.22,56a2.06,2.06,0,0,1,1.28-.48l.43,0a3.33,3.33,0,0,1,.55.1,2.67,2.67,0,0,1,.48.18c.14.08.21.17.21.28,0,.27-.05.45-.16.53a1.45,1.45,0,0,1-.74.14,2.94,2.94,0,0,0-2,.62,1.93,1.93,0,0,0-.6,1.44A3.36,3.36,0,0,0,26,60.16l.78,1.74c.29.62.55,1.25.79,1.91A5.75,5.75,0,0,1,28,65.7a5.62,5.62,0,0,1-.1.67,4,4,0,0,1-.39,1,3.66,3.66,0,0,1-.75,1,1.76,1.76,0,0,1-1.22.43,2.4,2.4,0,0,1-.48-.06A5.28,5.28,0,0,1,24,68.38a.65.65,0,0,1-.27-.21c0-.13-.07-.25-.1-.36a1.53,1.53,0,0,1,0-.38A.43.43,0,0,1,23.63,67.12Z"/><path class="cls-4" d="M38,62s0,.1-.11.19a2.62,2.62,0,0,1-.29.28l-.32.24a.48.48,0,0,1-.26.1c-.63.06-1.21.09-1.74.1s-1,0-1.43,0a5.87,5.87,0,0,0,1,3.68,3.76,3.76,0,0,0,3.13,1.23,1.59,1.59,0,0,1,.61.08.35.35,0,0,1,.16.35c0,.11-.1.21-.31.32a2.6,2.6,0,0,1-1.11.17,6.93,6.93,0,0,1-2-.26,4.57,4.57,0,0,1-1.4-.68,3.42,3.42,0,0,1-.88-1,5.1,5.1,0,0,1-.5-1.18,6,6,0,0,1-.2-1.26c0-.42,0-.82,0-1.2a12.64,12.64,0,0,1,.39-3.41,7.12,7.12,0,0,1,1-2.23,3.64,3.64,0,0,1,1.45-1.2,4.21,4.21,0,0,1,1.7-.35,3.49,3.49,0,0,1,1.19.13.48.48,0,0,1,.31.48q0,.45-.39.45H36.64a2.31,2.31,0,0,0-1,.2,2.1,2.1,0,0,0-.86.76,5.19,5.19,0,0,0-.66,1.54,12.49,12.49,0,0,0-.35,2.51,1.4,1.4,0,0,1,.4-.23,1.27,1.27,0,0,1,.54-.1h2.81C37.82,61.74,38,61.83,38,62Z"/><path class="cls-4" d="M41.26,58.08l-.41,0a.42.42,0,0,1-.38-.26,1.2,1.2,0,0,1-.12-.52.6.6,0,0,1,.22-.39.58.58,0,0,1,.4-.22l.55,0,.76.05,1.07.06q.63,0,1.5,0c.77,0,1.53,0,2.3-.08s1.53-.08,2.29-.08c.21,0,.31.09.31.28a.42.42,0,0,1-.09.22,1.84,1.84,0,0,1-.23.27,1.42,1.42,0,0,1-.3.25.76.76,0,0,1-.31.12,7,7,0,0,1-.72.06l-.83,0c-.28,0-.55,0-.81,0h-.67c-.07.4-.13.83-.17,1.3s-.1,1-.13,1.6-.06,1.27-.08,2,0,1.61,0,2.57a2.36,2.36,0,0,0,.08.65,1.52,1.52,0,0,0,.28.57,1.49,1.49,0,0,0,.55.42,2.34,2.34,0,0,0,.9.16l.36,0,.33,0a.16.16,0,0,1,.17.15,1,1,0,0,1,0,.28.58.58,0,0,1-.19.46,2.38,2.38,0,0,1-.64.31,2.33,2.33,0,0,1-.72.14,2.59,2.59,0,0,1-1.11-.22,2.84,2.84,0,0,1-.85-.58A2.88,2.88,0,0,1,44,67a1.85,1.85,0,0,1-.19-.78,4.17,4.17,0,0,1,0-.53c0-.22.07-.5.11-.86s.07-.79.1-1.3.06-1.14.06-1.86,0-1.21,0-1.79,0-1.18-.12-1.8H41.64Z"/><path class="cls-4" d="M51.68,58.08l-.4,0a.41.41,0,0,1-.38-.26,1.2,1.2,0,0,1-.12-.52.6.6,0,0,1,.22-.39.58.58,0,0,1,.4-.22l.54,0,.77.05,1.07.06q.63,0,1.5,0c.77,0,1.53,0,2.3-.08s1.53-.08,2.29-.08c.21,0,.31.09.31.28a.42.42,0,0,1-.09.22,1.84,1.84,0,0,1-.23.27,1.42,1.42,0,0,1-.3.25.75.75,0,0,1-.32.12,6.52,6.52,0,0,1-.71.06l-.83,0c-.28,0-.55,0-.81,0h-.67c-.07.4-.13.83-.18,1.3s-.09,1-.12,1.6-.06,1.27-.09,2,0,1.61,0,2.57a2.37,2.37,0,0,0,.09.65,1.52,1.52,0,0,0,.28.57,1.41,1.41,0,0,0,.55.42,2.34,2.34,0,0,0,.9.16l.36,0,.33,0a.16.16,0,0,1,.17.15,1.41,1.41,0,0,1,0,.28.57.57,0,0,1-.18.46,2.55,2.55,0,0,1-.64.31,2.33,2.33,0,0,1-.72.14,2.59,2.59,0,0,1-1.11-.22,2.84,2.84,0,0,1-.85-.58,2.49,2.49,0,0,1-.54-.78,1.85,1.85,0,0,1-.19-.78,4.17,4.17,0,0,1,0-.53c0-.22.07-.5.11-.86s.07-.79.1-1.3.05-1.14.05-1.86,0-1.21,0-1.79,0-1.18-.12-1.8H52.07Z"/><path class="cls-4" d="M63.61,60.28c0-.41,0-.79,0-1.15a3.25,3.25,0,0,0,0-.47.61.61,0,0,0-.14-.34,1.46,1.46,0,0,1-.29-.4.82.82,0,0,1-.07-.33.61.61,0,0,1,.19-.35,3,3,0,0,1,.44-.43,3.61,3.61,0,0,1,.51-.36.91.91,0,0,1,.4-.15,1.12,1.12,0,0,1,.53.17c.19.12.29.22.29.3a1.31,1.31,0,0,1-.1.5,2.07,2.07,0,0,0-.11.6c-.06.6-.1,1.6-.14,3s0,3.33,0,5.78a5.59,5.59,0,0,1-.15,1.62.54.54,0,0,1-.52.39.58.58,0,0,1-.26,0,.49.49,0,0,1-.2-.25,2.71,2.71,0,0,1-.13-.62,10.39,10.39,0,0,1-.07-1.16c0-.5,0-1.13,0-1.88s0-1.67,0-2.74C63.64,61.25,63.63,60.68,63.61,60.28Z"/><path class="cls-4" d="M71,60c0-.25,0-.5,0-.76a1.49,1.49,0,0,0-.28-1,1.64,1.64,0,0,0-.63-.44l-.62-.23a.38.38,0,0,1-.29-.37c0-.1.08-.2.23-.31l.75-.59a1.09,1.09,0,0,1,.29-.18.52.52,0,0,1,.21,0,.4.4,0,0,1,.24.07,1.64,1.64,0,0,1,.29.27c.8.94,1.63,1.88,2.48,2.82s1.63,1.79,2.36,2.57,1.37,1.43,1.9,2,.9.9,1.1,1.06q.16-1,.24-2c0-.64.07-1.29.07-2s0-1-.06-1.39-.09-.73-.13-1-.08-.49-.12-.65a1.69,1.69,0,0,1-.06-.39.39.39,0,0,1,.17-.29,1.4,1.4,0,0,1,.39-.18,3.43,3.43,0,0,1,.48-.08l.46,0a.41.41,0,0,1,.39.18.71.71,0,0,1,.11.39,3.76,3.76,0,0,1-.11.68c-.07.31-.14.73-.23,1.26s-.16,1.19-.23,2-.1,1.75-.1,2.86c0,.34,0,.71,0,1.09s0,.8,0,1.24a.68.68,0,0,1-.19.43,2.44,2.44,0,0,1-.42.43,4.07,4.07,0,0,1-.47.33.81.81,0,0,1-.32.13c-.07,0-.12-.07-.17-.22l-.18-.57a6.73,6.73,0,0,0-.3-.78,3.57,3.57,0,0,0-.58-.85c-.54-.63-1.1-1.25-1.68-1.85S75,62.48,74.44,62l-1.38-1.4q-.61-.62-.93-1c0,.57-.07,1.16-.1,1.77s0,1.19,0,1.76,0,1.1,0,1.6,0,.91,0,1.25,0,.61,0,.91,0,.54,0,.7a.84.84,0,0,1-.08.34.4.4,0,0,1-.3.24l-.76.18a2.18,2.18,0,0,1-.49.06c-.26,0-.4-.09-.4-.29a.56.56,0,0,1,.11-.31q.11-.15.24-.39a2.89,2.89,0,0,0,.26-.62,4.57,4.57,0,0,0,.17-1l.25-5Z"/><path class="cls-4" d="M93,64.07a1.39,1.39,0,0,1,.61-.08.4.4,0,0,1,.2,0c.06,0,.11.1.14.21a1.75,1.75,0,0,1,.06.53c0,.24,0,.58,0,1a18.78,18.78,0,0,0,.1,2.21,14.14,14.14,0,0,1,.09,1.44.63.63,0,0,1-.11.41.71.71,0,0,1-.49.12.33.33,0,0,1-.21-.06.62.62,0,0,1-.17-.24,2.69,2.69,0,0,1-.16-.5c0-.21-.1-.5-.15-.85a.58.58,0,0,0-.63-.53l-.3,0-.51.08-.63.08a4.59,4.59,0,0,1-.62,0,4.67,4.67,0,0,1-2.37-.53A4.42,4.42,0,0,1,86.4,66.2a5,5,0,0,1-.76-1.6,5.76,5.76,0,0,1-.22-1.47,7.91,7.91,0,0,1,.4-2.49,6,6,0,0,1,1.24-2.18A6.27,6.27,0,0,1,89.2,56.9a7.26,7.26,0,0,1,3.08-.6,5.05,5.05,0,0,1,1.82.26.85.85,0,0,1,.62.8.5.5,0,0,1-.12.3,1.25,1.25,0,0,1-.3.26,1.86,1.86,0,0,1-.33.19.89.89,0,0,1-.27.07.44.44,0,0,1-.3-.13c-.11-.08-.31-.25-.62-.53a1,1,0,0,0-.39-.23,2,2,0,0,0-.46,0,3.43,3.43,0,0,0-1.93.6,6.4,6.4,0,0,0-1.6,1.52,7.49,7.49,0,0,0-1.08,2,5.88,5.88,0,0,0-.4,2.07,5.57,5.57,0,0,0,.24,1.79,2.43,2.43,0,0,0,.67,1.07,2.25,2.25,0,0,0,1,.52A4.72,4.72,0,0,0,90,67a3.72,3.72,0,0,0,1-.13,3.43,3.43,0,0,0,.82-.34,2,2,0,0,0,.54-.44,1.17,1.17,0,0,0,.24-.49l.16-1.23A.37.37,0,0,1,93,64.07Z"/><path class="cls-4" d="M98.17,67.12a.28.28,0,0,1,.2-.1,1.63,1.63,0,0,1,.69.2,2.2,2.2,0,0,0,1,.19A1.14,1.14,0,0,0,101,67a1.18,1.18,0,0,0,.34-.82,3,3,0,0,0-.2-1,10.91,10.91,0,0,0-.49-1.17c-.19-.42-.4-.84-.63-1.29s-.44-.87-.64-1.28-.36-.81-.49-1.17a2.94,2.94,0,0,1-.2-.94,2.9,2.9,0,0,1,.28-1,6.69,6.69,0,0,1,.76-1.29A5.05,5.05,0,0,1,100.76,56a2.06,2.06,0,0,1,1.28-.48l.43,0a3.33,3.33,0,0,1,.55.1,2.67,2.67,0,0,1,.48.18c.14.08.21.17.21.28,0,.27,0,.45-.16.53a1.45,1.45,0,0,1-.74.14,3,3,0,0,0-2,.62,1.93,1.93,0,0,0-.6,1.44,3.55,3.55,0,0,0,.35,1.33l.78,1.74c.29.62.55,1.25.79,1.91a5.75,5.75,0,0,1,.35,1.89,4,4,0,0,1-.1.67,4,4,0,0,1-.39,1,3.66,3.66,0,0,1-.75,1,1.76,1.76,0,0,1-1.22.43,2.49,2.49,0,0,1-.48-.06,3.74,3.74,0,0,1-.57-.17,3.42,3.42,0,0,1-.5-.21c-.15-.08-.24-.15-.26-.21a3.55,3.55,0,0,1-.11-.36,1.53,1.53,0,0,1,0-.38A.43.43,0,0,1,98.17,67.12Z"/></svg>
