<svg id="Layer_1" data-name="Layer 1" xmlns="http://www.w3.org/2000/svg" xmlns:xlink="http://www.w3.org/1999/xlink" width="1077" height="1928" viewBox="0 0 1077 1928"><defs><style>.cls-1{fill:url(#radial-gradient);}.cls-2{fill:#006238;}.cls-3{fill:#378417;}</style><radialGradient id="radial-gradient" cx="-1727.6" cy="555.41" fx="-1740.6636959633795" fy="1718.429885892359" r="1466.28" gradientTransform="translate(1539.97 -23.41) scale(0.57 1.78)" gradientUnits="userSpaceOnUse"><stop offset="0.53" stop-color="#66caff"/><stop offset="1"/></radialGradient></defs><title>settings_baggrund</title><rect class="cls-1" x="4.86" y="4.06" width="1096.67" height="1924.2"/><path class="cls-2" d="M1097.69,1436c-1.38-7.23-6.89-6-16.19,0h-1v.65c-29.5,19.53-95,83.36-186.61,84-82.28.58-85.7-50.51-178-58.83-106.21-9.58-122.12,56.2-225.53,54.52C385.49,1514.63,367.89,1446.46,286,1436c-36.41-4.66-81.45,2.62-134.37,40.88a309.06,309.06,0,0,0-44.7-17.4,274.72,274.72,0,0,0-36.73-8.33v-.8H64.71a258.71,258.71,0,0,0-65.79-.39l.66.39h-.94V1931H1097.11V1744.47h.58V1444.7A30.4,30.4,0,0,0,1097.69,1436Zm-17.18,63.14H1080l.48-1.13Z"/><path class="cls-3" d="M441.13,1636.85c-5-7.8-16.12-9.7-24.29-12.52-1.83-.63-2.62,2.27-.8,2.9,7.27,2.5,18,4.22,22.5,11.13,1,1.62,3.64.11,2.59-1.51Z"/><path class="cls-3" d="M441.44,1638.22c.34-9.73-8.77-21.53-18.62-22.91-1.89-.27-2.7,2.62-.8,2.89,8.53,1.2,16.72,11.57,16.42,20-.06,1.93,2.94,1.93,3,0Z"/><path class="cls-3" d="M441.93,1639.36c.15-9.55-.16-19.11-6.4-26.87-1.21-1.5-3.32.63-2.12,2.13,5.68,7.05,5.66,16.13,5.52,24.74a1.5,1.5,0,0,0,3,0Z"/><path class="cls-3" d="M443,1638.77c.53-5.15,1.78-11.78,5.45-15.72,2.75-3,6.66-4.56,9.5-7.45,1.36-1.38-.76-3.5-2.12-2.12-3.54,3.59-8.58,5.41-11.31,9.83s-4,10.2-4.52,15.46c-.2,1.92,2.81,1.9,3,0Z"/><path class="cls-3" d="M441.84,1639.12c3.64-6.66,10.22-12.92,18.16-12.86a1.5,1.5,0,0,0,0-3c-9.07-.07-16.56,6.69-20.75,14.35-.92,1.69,1.67,3.21,2.59,1.51Z"/><path class="cls-3" d="M134.13,1634.85c-5-7.8-16.12-9.7-24.29-12.52-1.83-.63-2.62,2.27-.8,2.9,7.27,2.5,18,4.22,22.5,11.13,1,1.62,3.64.11,2.59-1.51Z"/><path class="cls-3" d="M134.44,1636.22c.34-9.73-8.77-21.53-18.62-22.91-1.89-.27-2.7,2.62-.8,2.89,8.53,1.2,16.72,11.57,16.42,20-.06,1.93,2.94,1.93,3,0Z"/><path class="cls-3" d="M134.93,1637.36c.15-9.55-.16-19.11-6.4-26.87-1.21-1.5-3.32.63-2.12,2.13,5.68,7.05,5.66,16.13,5.52,24.74a1.5,1.5,0,0,0,3,0Z"/><path class="cls-3" d="M136,1636.77c.53-5.15,1.78-11.78,5.45-15.72,2.75-3,6.66-4.56,9.5-7.45,1.36-1.38-.76-3.5-2.12-2.12-3.54,3.59-8.58,5.41-11.31,9.83s-4,10.2-4.52,15.46c-.2,1.92,2.81,1.9,3,0Z"/><path class="cls-3" d="M134.84,1637.12c3.64-6.66,10.22-12.92,18.16-12.86a1.5,1.5,0,0,0,0-3c-9.07-.07-16.56,6.69-20.75,14.35-.92,1.69,1.67,3.21,2.59,1.51Z"/><path class="cls-3" d="M270.13,1534.85c-5-7.8-16.12-9.7-24.29-12.52-1.83-.63-2.62,2.27-.8,2.9,7.27,2.5,18,4.22,22.5,11.13,1,1.62,3.64.11,2.59-1.51Z"/><path class="cls-3" d="M270.44,1536.22c.34-9.73-8.77-21.53-18.62-22.91-1.89-.27-2.7,2.62-.8,2.89,8.53,1.2,16.72,11.57,16.42,20-.06,1.93,2.94,1.93,3,0Z"/><path class="cls-3" d="M270.93,1537.36c.15-9.55-.16-19.11-6.4-26.87-1.21-1.5-3.32.63-2.12,2.13,5.68,7.05,5.66,16.13,5.52,24.74a1.5,1.5,0,0,0,3,0Z"/><path class="cls-3" d="M272,1536.77c.53-5.15,1.78-11.78,5.45-15.72,2.75-3,6.66-4.56,9.5-7.45,1.36-1.38-.76-3.5-2.12-2.12-3.54,3.59-8.58,5.41-11.31,9.83s-4,10.2-4.52,15.46c-.2,1.92,2.81,1.9,3,0Z"/><path class="cls-3" d="M270.84,1537.12c3.64-6.66,10.22-12.92,18.16-12.86a1.5,1.5,0,0,0,0-3c-9.07-.07-16.56,6.69-20.75,14.35-.92,1.69,1.67,3.21,2.59,1.51Z"/><path class="cls-3" d="M217.13,1881.85c-5-7.8-16.12-9.7-24.29-12.52-1.83-.63-2.62,2.27-.8,2.9,7.27,2.5,18,4.22,22.5,11.13,1,1.62,3.64.11,2.59-1.51Z"/><path class="cls-3" d="M217.44,1883.22c.34-9.73-8.77-21.53-18.62-22.91-1.89-.27-2.7,2.62-.8,2.89,8.53,1.2,16.72,11.57,16.42,20-.06,1.93,2.94,1.93,3,0Z"/><path class="cls-3" d="M217.93,1884.36c.15-9.55-.16-19.11-6.4-26.87-1.21-1.5-3.32.63-2.12,2.13,5.68,7.05,5.66,16.13,5.52,24.74a1.5,1.5,0,0,0,3,0Z"/><path class="cls-3" d="M219,1883.77c.53-5.15,1.78-11.78,5.45-15.72,2.75-3,6.66-4.56,9.5-7.45,1.36-1.38-.76-3.5-2.12-2.12-3.54,3.59-8.58,5.41-11.31,9.83s-4,10.2-4.52,15.46c-.2,1.92,2.81,1.9,3,0Z"/><path class="cls-3" d="M217.84,1884.12c3.64-6.66,10.22-12.92,18.16-12.86a1.5,1.5,0,0,0,0-3c-9.07-.07-16.56,6.69-20.75,14.35-.92,1.69,1.67,3.21,2.59,1.51Z"/><path class="cls-3" d="M74.13,1805.85c-5-7.8-16.12-9.7-24.29-12.52-1.83-.63-2.62,2.27-.8,2.9,7.27,2.5,18,4.22,22.5,11.13,1,1.62,3.64.11,2.59-1.51Z"/><path class="cls-3" d="M74.44,1807.22c.34-9.73-8.77-21.53-18.62-22.91-1.89-.27-2.7,2.62-.8,2.89,8.53,1.2,16.72,11.57,16.42,20-.06,1.93,2.94,1.93,3,0Z"/><path class="cls-3" d="M74.93,1808.36c.15-9.55-.16-19.11-6.4-26.87-1.21-1.5-3.32.63-2.12,2.13,5.68,7.05,5.66,16.13,5.52,24.74a1.5,1.5,0,0,0,3,0Z"/><path class="cls-3" d="M76,1807.77c.53-5.15,1.78-11.78,5.45-15.72,2.75-3,6.66-4.56,9.5-7.45,1.36-1.38-.76-3.5-2.12-2.12-3.54,3.59-8.58,5.41-11.31,9.83s-4,10.2-4.52,15.46c-.2,1.92,2.81,1.9,3,0Z"/><path class="cls-3" d="M74.84,1808.12c3.64-6.66,10.22-12.92,18.16-12.86a1.5,1.5,0,0,0,0-3c-9.07-.07-16.56,6.69-20.75,14.35-.92,1.69,1.67,3.21,2.59,1.51Z"/><path class="cls-3" d="M549.13,1810.85c-5-7.8-16.12-9.7-24.29-12.52-1.83-.63-2.62,2.27-.8,2.9,7.27,2.5,18,4.22,22.5,11.13,1,1.62,3.64.11,2.59-1.51Z"/><path class="cls-3" d="M549.44,1812.22c.34-9.73-8.77-21.53-18.62-22.91-1.89-.27-2.7,2.62-.8,2.89,8.53,1.2,16.72,11.57,16.42,20-.06,1.93,2.94,1.93,3,0Z"/><path class="cls-3" d="M549.93,1813.36c.15-9.55-.16-19.11-6.4-26.87-1.21-1.5-3.32.63-2.12,2.13,5.68,7.05,5.66,16.13,5.52,24.74a1.5,1.5,0,0,0,3,0Z"/><path class="cls-3" d="M551,1812.77c.53-5.15,1.78-11.78,5.45-15.72,2.75-3,6.66-4.56,9.5-7.45,1.36-1.38-.76-3.5-2.12-2.12-3.54,3.59-8.58,5.41-11.31,9.83s-4,10.2-4.52,15.46c-.2,1.92,2.81,1.9,3,0Z"/><path class="cls-3" d="M549.84,1813.12c3.64-6.66,10.22-12.92,18.16-12.86a1.5,1.5,0,0,0,0-3c-9.07-.07-16.56,6.69-20.75,14.35-.92,1.69,1.67,3.21,2.59,1.51Z"/><path class="cls-3" d="M869.13,1662.85c-5-7.8-16.12-9.7-24.29-12.52-1.83-.63-2.62,2.27-.8,2.9,7.27,2.5,18,4.22,22.5,11.13,1,1.62,3.64.11,2.59-1.51Z"/><path class="cls-3" d="M869.44,1664.22c.34-9.73-8.77-21.53-18.62-22.91-1.89-.27-2.7,2.62-.8,2.89,8.53,1.2,16.72,11.57,16.42,20-.06,1.93,2.94,1.93,3,0Z"/><path class="cls-3" d="M869.93,1665.36c.15-9.55-.16-19.11-6.4-26.87-1.21-1.5-3.32.63-2.12,2.13,5.68,7.05,5.66,16.13,5.52,24.74a1.5,1.5,0,0,0,3,0Z"/><path class="cls-3" d="M871,1664.77c.53-5.15,1.78-11.78,5.45-15.72,2.75-3,6.66-4.56,9.5-7.45,1.36-1.38-.76-3.5-2.12-2.12-3.54,3.59-8.58,5.41-11.31,9.83s-4,10.2-4.52,15.46c-.2,1.92,2.81,1.9,3,0Z"/><path class="cls-3" d="M869.84,1665.12c3.64-6.66,10.22-12.92,18.16-12.86a1.5,1.5,0,0,0,0-3c-9.07-.07-16.56,6.69-20.75,14.35-.92,1.69,1.67,3.21,2.59,1.51Z"/><path class="cls-3" d="M671.13,1539.85c-5-7.8-16.12-9.7-24.29-12.52-1.83-.63-2.62,2.27-.8,2.9,7.27,2.5,18,4.22,22.5,11.13,1,1.62,3.64.11,2.59-1.51Z"/><path class="cls-3" d="M671.44,1541.22c.34-9.73-8.77-21.53-18.62-22.91-1.89-.27-2.7,2.62-.8,2.89,8.53,1.2,16.72,11.57,16.42,20-.06,1.93,2.94,1.93,3,0Z"/><path class="cls-3" d="M671.93,1542.36c.15-9.55-.16-19.11-6.4-26.87-1.21-1.5-3.32.63-2.12,2.13,5.68,7.05,5.66,16.13,5.52,24.74a1.5,1.5,0,0,0,3,0Z"/><path class="cls-3" d="M673,1541.77c.53-5.15,1.78-11.78,5.45-15.72,2.75-3,6.66-4.56,9.5-7.45,1.36-1.38-.76-3.5-2.12-2.12-3.54,3.59-8.58,5.41-11.31,9.83s-4,10.2-4.52,15.46c-.2,1.92,2.81,1.9,3,0Z"/><path class="cls-3" d="M671.84,1542.12c3.64-6.66,10.22-12.92,18.16-12.86a1.5,1.5,0,0,0,0-3c-9.07-.07-16.56,6.69-20.75,14.35-.92,1.69,1.67,3.21,2.59,1.51Z"/><path class="cls-3" d="M842.13,1894.85c-5-7.8-16.12-9.7-24.29-12.52-1.83-.63-2.62,2.27-.8,2.9,7.27,2.5,18,4.22,22.5,11.13,1,1.62,3.64.11,2.59-1.51Z"/><path class="cls-3" d="M842.44,1896.22c.34-9.73-8.77-21.53-18.62-22.91-1.89-.27-2.7,2.62-.8,2.89,8.53,1.2,16.72,11.57,16.42,20-.06,1.93,2.94,1.93,3,0Z"/><path class="cls-3" d="M842.93,1897.36c.15-9.55-.16-19.11-6.4-26.87-1.21-1.5-3.32.63-2.12,2.13,5.68,7.05,5.66,16.13,5.52,24.74a1.5,1.5,0,0,0,3,0Z"/><path class="cls-3" d="M844,1896.77c.53-5.15,1.78-11.78,5.45-15.72,2.75-3,6.66-4.56,9.5-7.45,1.36-1.38-.76-3.5-2.12-2.12-3.54,3.59-8.58,5.41-11.31,9.83s-4,10.2-4.52,15.46c-.2,1.92,2.81,1.9,3,0Z"/><path class="cls-3" d="M842.84,1897.12c3.64-6.66,10.22-12.92,18.16-12.86a1.5,1.5,0,0,0,0-3c-9.07-.07-16.56,6.69-20.75,14.35-.92,1.69,1.67,3.21,2.59,1.51Z"/><path class="cls-3" d="M990.13,1809.85c-5-7.8-16.12-9.7-24.29-12.52-1.83-.63-2.62,2.27-.8,2.9,7.27,2.5,18,4.22,22.5,11.13,1,1.62,3.64.11,2.59-1.51Z"/><path class="cls-3" d="M990.44,1811.22c.34-9.73-8.77-21.53-18.62-22.91-1.89-.27-2.7,2.62-.8,2.89,8.53,1.2,16.72,11.57,16.42,20-.06,1.93,2.94,1.93,3,0Z"/><path class="cls-3" d="M990.93,1812.36c.15-9.55-.16-19.11-6.4-26.87-1.21-1.5-3.32.63-2.12,2.13,5.68,7.05,5.66,16.13,5.52,24.74a1.5,1.5,0,0,0,3,0Z"/><path class="cls-3" d="M992,1811.77c.53-5.15,1.78-11.78,5.45-15.72,2.75-3,6.66-4.56,9.5-7.45,1.36-1.38-.76-3.5-2.12-2.12-3.54,3.59-8.58,5.41-11.31,9.83s-4,10.2-4.52,15.46c-.2,1.92,2.81,1.9,3,0Z"/><path class="cls-3" d="M990.84,1812.12c3.64-6.66,10.22-12.92,18.16-12.86a1.5,1.5,0,0,0,0-3c-9.07-.07-16.56,6.69-20.75,14.35-.92,1.69,1.67,3.21,2.59,1.51Z"/><path class="cls-3" d="M1034.13,1560.85c-5-7.8-16.12-9.7-24.29-12.52-1.83-.63-2.62,2.27-.8,2.9,7.27,2.5,18,4.22,22.5,11.13,1,1.62,3.64.11,2.59-1.51Z"/><path class="cls-3" d="M1034.44,1562.22c.34-9.73-8.77-21.53-18.62-22.91-1.89-.27-2.7,2.62-.8,2.89,8.53,1.2,16.72,11.57,16.42,20-.06,1.93,2.94,1.93,3,0Z"/><path class="cls-3" d="M1034.93,1563.36c.15-9.55-.16-19.11-6.4-26.87-1.21-1.5-3.32.63-2.12,2.13,5.68,7.05,5.66,16.13,5.52,24.74a1.5,1.5,0,0,0,3,0Z"/><path class="cls-3" d="M1036,1562.77c.53-5.15,1.78-11.78,5.45-15.72,2.75-3,6.66-4.56,9.5-7.45,1.36-1.38-.76-3.5-2.12-2.12-3.54,3.59-8.58,5.41-11.31,9.83s-4,10.2-4.52,15.46c-.2,1.92,2.81,1.9,3,0Z"/><path class="cls-3" d="M1034.84,1563.12c3.64-6.66,10.22-12.92,18.16-12.86a1.5,1.5,0,0,0,0-3c-9.07-.07-16.56,6.69-20.75,14.35-.92,1.69,1.67,3.21,2.59,1.51Z"/><path class="cls-3" d="M248.13,1673.85c-5-7.8-16.12-9.7-24.29-12.52-1.83-.63-2.62,2.27-.8,2.9,7.27,2.5,18,4.22,22.5,11.13,1,1.62,3.64.11,2.59-1.51Z"/><path class="cls-3" d="M248.44,1675.22c.34-9.73-8.77-21.53-18.62-22.91-1.89-.27-2.7,2.62-.8,2.89,8.53,1.2,16.72,11.57,16.42,20-.06,1.93,2.94,1.93,3,0Z"/><path class="cls-3" d="M248.93,1676.36c.15-9.55-.16-19.11-6.4-26.87-1.21-1.5-3.32.63-2.12,2.13,5.68,7.05,5.66,16.13,5.52,24.74a1.5,1.5,0,0,0,3,0Z"/><path class="cls-3" d="M250,1675.77c.53-5.15,1.78-11.78,5.45-15.72,2.75-3,6.66-4.56,9.5-7.45,1.36-1.38-.76-3.5-2.12-2.12-3.54,3.59-8.58,5.41-11.31,9.83s-4,10.2-4.52,15.46c-.2,1.92,2.81,1.9,3,0Z"/><path class="cls-3" d="M248.84,1676.12c3.64-6.66,10.22-12.92,18.16-12.86a1.5,1.5,0,0,0,0-3c-9.07-.07-16.56,6.69-20.75,14.35-.92,1.69,1.67,3.21,2.59,1.51Z"/><path class="cls-3" d="M626.13,1682.85c-5-7.8-16.12-9.7-24.29-12.52-1.83-.63-2.62,2.27-.8,2.9,7.27,2.5,18,4.22,22.5,11.13,1,1.62,3.64.11,2.59-1.51Z"/><path class="cls-3" d="M626.44,1684.22c.34-9.73-8.77-21.53-18.62-22.91-1.89-.27-2.7,2.62-.8,2.89,8.53,1.2,16.72,11.57,16.42,20-.06,1.93,2.94,1.93,3,0Z"/><path class="cls-3" d="M626.93,1685.36c.15-9.55-.16-19.11-6.4-26.87-1.21-1.5-3.32.63-2.12,2.13,5.68,7.05,5.66,16.13,5.52,24.74a1.5,1.5,0,0,0,3,0Z"/><path class="cls-3" d="M628,1684.77c.53-5.15,1.78-11.78,5.45-15.72,2.75-3,6.66-4.56,9.5-7.45,1.36-1.38-.76-3.5-2.12-2.12-3.54,3.59-8.58,5.41-11.31,9.83s-4,10.2-4.52,15.46c-.2,1.92,2.81,1.9,3,0Z"/><path class="cls-3" d="M626.84,1685.12c3.64-6.66,10.22-12.92,18.16-12.86a1.5,1.5,0,0,0,0-3c-9.07-.07-16.56,6.69-20.75,14.35-.92,1.69,1.67,3.21,2.59,1.51Z"/><path class="cls-3" d="M52.13,1501.85c-5-7.8-16.12-9.7-24.29-12.52-1.83-.63-2.62,2.27-.8,2.9,7.27,2.5,18,4.22,22.5,11.13,1,1.62,3.64.11,2.59-1.51Z"/><path class="cls-3" d="M52.44,1503.22c.34-9.73-8.77-21.53-18.62-22.91-1.89-.27-2.7,2.62-.8,2.89,8.53,1.2,16.72,11.57,16.42,20-.06,1.93,2.94,1.93,3,0Z"/><path class="cls-3" d="M52.93,1504.36c.15-9.55-.16-19.11-6.4-26.87-1.21-1.5-3.32.63-2.12,2.13,5.68,7.05,5.66,16.13,5.52,24.74a1.5,1.5,0,0,0,3,0Z"/><path class="cls-3" d="M54,1503.77c.53-5.15,1.78-11.78,5.45-15.72,2.75-3,6.66-4.56,9.5-7.45,1.36-1.38-.76-3.5-2.12-2.12-3.54,3.59-8.58,5.41-11.31,9.83s-4,10.2-4.52,15.46c-.2,1.92,2.81,1.9,3,0Z"/><path class="cls-3" d="M52.84,1504.12c3.64-6.66,10.22-12.92,18.16-12.86a1.5,1.5,0,0,0,0-3c-9.07-.07-16.56,6.69-20.75,14.35-.92,1.69,1.67,3.21,2.59,1.51Z"/><path class="cls-3" d="M338.13,1784.85c-5-7.8-16.12-9.7-24.29-12.52-1.83-.63-2.62,2.27-.8,2.9,7.27,2.5,18,4.22,22.5,11.13,1,1.62,3.64.11,2.59-1.51Z"/><path class="cls-3" d="M338.44,1786.22c.34-9.73-8.77-21.53-18.62-22.91-1.89-.27-2.7,2.62-.8,2.89,8.53,1.2,16.72,11.57,16.42,20-.06,1.93,2.94,1.93,3,0Z"/><path class="cls-3" d="M338.93,1787.36c.15-9.55-.16-19.11-6.4-26.87-1.21-1.5-3.32.63-2.12,2.13,5.68,7.05,5.66,16.13,5.52,24.74a1.5,1.5,0,0,0,3,0Z"/><path class="cls-3" d="M340,1786.77c.53-5.15,1.78-11.78,5.45-15.72,2.75-3,6.66-4.56,9.5-7.45,1.36-1.38-.76-3.5-2.12-2.12-3.54,3.59-8.58,5.41-11.31,9.83s-4,10.2-4.52,15.46c-.2,1.92,2.81,1.9,3,0Z"/><path class="cls-3" d="M338.84,1787.12c3.64-6.66,10.22-12.92,18.16-12.86a1.5,1.5,0,0,0,0-3c-9.07-.07-16.56,6.69-20.75,14.35-.92,1.69,1.67,3.21,2.59,1.51Z"/><path class="cls-3" d="M757.13,1763.85c-5-7.8-16.12-9.7-24.29-12.52-1.83-.63-2.62,2.27-.8,2.9,7.27,2.5,18,4.22,22.5,11.13,1,1.62,3.64.11,2.59-1.51Z"/><path class="cls-3" d="M757.44,1765.22c.34-9.73-8.77-21.53-18.62-22.91-1.89-.27-2.7,2.62-.8,2.89,8.53,1.2,16.72,11.57,16.42,20-.06,1.93,2.94,1.93,3,0Z"/><path class="cls-3" d="M757.93,1766.36c.15-9.55-.16-19.11-6.4-26.87-1.21-1.5-3.32.63-2.12,2.13,5.68,7.05,5.66,16.13,5.52,24.74a1.5,1.5,0,0,0,3,0Z"/><path class="cls-3" d="M759,1765.77c.53-5.15,1.78-11.78,5.45-15.72,2.75-3,6.66-4.56,9.5-7.45,1.36-1.38-.76-3.5-2.12-2.12-3.54,3.59-8.58,5.41-11.31,9.83s-4,10.2-4.52,15.46c-.2,1.92,2.81,1.9,3,0Z"/><path class="cls-3" d="M757.84,1766.12c3.64-6.66,10.22-12.92,18.16-12.86a1.5,1.5,0,0,0,0-3c-9.07-.07-16.56,6.69-20.75,14.35-.92,1.69,1.67,3.21,2.59,1.51Z"/></svg>
