<svg id="Layer_1" data-name="Layer 1" xmlns="http://www.w3.org/2000/svg" xmlns:xlink="http://www.w3.org/1999/xlink" width="1080" height="1920" viewBox="0 0 1080 1920"><defs><style>.cls-1{fill:url(#linear-gradient);}.cls-2{fill:#1a5b17;}.cls-3{fill:#15932c;}.cls-4{fill:#085e2d;}.cls-5{fill:#0c5b12;}.cls-6{fill:#93185b;}.cls-7{fill:#1aba1a;}.cls-8{fill:#15b73b;}.cls-9{fill:#1e8716;}.cls-10{fill:#26a319;}</style><linearGradient id="linear-gradient" x1="540.5" y1="-4" x2="540.5" y2="1924" gradientUnits="userSpaceOnUse"><stop offset="0" stop-color="#76c7f2"/><stop offset="0.24" stop-color="#75c4f0"/><stop offset="0.4" stop-color="#70bbea"/><stop offset="0.54" stop-color="#69ace1"/><stop offset="0.67" stop-color="#5f96d3"/><stop offset="0.79" stop-color="#517ac1"/><stop offset="0.9" stop-color="#4158ab"/><stop offset="1" stop-color="#2e3192"/></linearGradient></defs><title>spilside_baggrund</title><rect class="cls-1" x="2" y="-4" width="1077" height="1928"/><path class="cls-2" d="M1089,937.39c2.54-61,6.58-140,11.19-140,6.24,0,9.6,145.35,12.79,145.2,3-.13,2.34-141,2.39-155.57-6.67.4-16.63,1.06-28.77,2.07-11.69,1-19.09,1.77-22.38,2.08-24,2.23-45.26-.91-55.15-2.08-30.85-3.63-71.39-2.18-88.72,2.08-73.48,18.05-111.7,180.53-138.28,293.51-24.38,103.64-32.65,190.44-31.17,190.84,2.19.6,30.81-187.41,39.16-185.65,8.09,1.7-7.8,180.28-6.39,180.46s16.41-191.2,20-190.83c3.37.35-5.53,170.7-1.6,171.13s17-181,22.38-180.47-.44,176.21,1.6,176.32,8.32-179.55,12-179.43c3.5.12,2.5,163.83,4.8,163.87,2.48,0,4.9-191.84,9.59-191.87,4.52,0,7.82,178.46,11.19,178.39,3.53-.07,2.65-195.93,6.39-196s8.79,180.54,10.39,180.46-3.07-194.86-.8-195,9.18,181.61,11.19,181.5-2.87-188.7-1.6-188.76,7,180.54,8.8,180.46-3.19-200.95.8-201.21,13.85,186.82,15.18,186.69-8.63-197.87-6.39-198.1c1.74-.17,8.93,119.54,12.79,119.28s1.95-123.4,3.19-123.42,3.4,111,5.6,111c.82,0,1-15.22,3.2-52.89,1.6-28,3.73-65.39,5.59-65.34.82,0,1.32,7.26,1.6,11.4,2,30,4.81,97.25,1.6,97.5-3.47.27-21.27-76.93,4.79-116.16,7.06-10.63,15.6-15.86,22.37-20,28.77-17.63,55.69-7.77,62.44-3.93a48.84,48.84,0,0,1,4.52,3,33.72,33.72,0,0,1,8.24,7.67,57.35,57.35,0,0,1,3.86,5.61s.47.74.88,1.44c6.85,11.67,5.15,36.29,5.6,36.3,2.26.06,4.29-47.76,6.39-47.71,1.86.05,2.24,37.3,4,37.34,2,0,3.59-46.71,5.59-46.67,1.82,0,2.62,38.39,4,38.37,1.56,0,.49-48.91,5.6-49.78C1081.93,910,1085.39,921.45,1089,937.39Z"/><path class="cls-3" d="M1061,696.55c-10.76-6.56-27.83-6.24-32.47-.42-1.22,1.55-1.61,3.52,2.15,17.79,3.25,12.35,5.72,19.12,5,19.42-1.36.6-6-29.73-27.85-40.24-29.72-14.29-78.56,14.15-104.47,29.24-35.6,20.72-62.71,46.77-58,55.45,2.16,4,10,2.5,16.58,10,4.92,5.61,7.08,13.88,4.43,15.76-4.54,3.22-17.48-16.35-32.55-16.37-38.11-.06-89.59,125.1-72.91,132.56,12.27,5.49,57.35-54.5,139.82-99.46,3-1.63,8.16-4.44,15.28-7.95,17.79-8.76,56.94-28.06,106-35.66,35-5.42,50.4-1.1,57.62-11.25,3.75-5.27,1.48-15-3.2-34.29C1069.44,702.27,1063.36,698,1061,696.55Z"/><path class="cls-4" d="M1074.65,1042.5c-5.53-59.52-15.3-106.24-16.63-106-2.1.37,14.62,116.39,7.88,118s-33.61-111.47-35-111,26.45,104,17.51,108c-1.21.53-2.78-1.13-5.51-4-7.34-7.71-8.27-16.56-12.88-30-2-5.83-4.67-11.33-7-17-11.51-27.94-29.33-56.88-30.64-56-1.13.75,10.95,22.58,24.51,61,8.48,24,17,53,14.88,54-1.83.91-9.92-20.33-28-53-17.65-31.86-34.27-55.59-35-55s14.48,24.22,31.52,62c11.88,26.35,23,55.81,21,57-1.77,1.08-12.48-22.2-35-57-21.57-33.29-39.88-55.37-40.27-55s19.29,25,40.27,64c12.85,23.87,29.28,58.88,25.39,62-1,.76-3.21-.28-11.26-8.36a234,234,0,0,1-32.52-40.64c-21.81-36.69-47.82-59.34-48.15-59s22.24,26.48,46.4,67c12.2,20.46,25.77,46.2,23.64,48-1.77,1.5-12.64-15-33.27-37-28.07-29.94-51.25-45.6-51.65-45s28.09,22.16,53.4,62c2.88,4.53,18.8,29.58,14.89,34-.33.37-1.87,1.8-9.88-2.5a77.17,77.17,0,0,1-25.14-22.5c-19.22-27.56-53.32-37.18-53.41-37a143.87,143.87,0,0,1,55.16,49c8.92,13.55,16.64,30.47,14,33s-13.82-11.1-35-28c-27.93-22.26-51.3-32.73-51.66-32s24.77,14.2,51.66,43c8.94,9.58,23,26.13,21,29-1.51,2.18-11.41-4.78-23.64-12-38.84-22.94-67.52-28.64-67.41-29s35.08,7.82,64.78,37c2.16,2.11,14.93,14.8,13.13,18-1.58,2.83-13.28-3.89-28.89-10-32.73-12.83-57.74-13.27-57.78-13a133.1,133.1,0,0,1,57.78,21c12.21,8.08,25.11,19.67,23.64,23-1.34,3.06-14-2.9-37.64-9-29.2-7.51-50.64-8.91-50.78-8s22.28,3.46,49,18c9.88,5.37,25.68,15.28,24.52,19-.68,2.16-6.84,1.19-13.54.6-31.39-2.74-56.32-11.25-56.5-10.6-.28,1,60,19.93,58.66,29-.34,2.35-4.74,3.6-13.91,4.82a237.22,237.22,0,0,1-64.89-.82c0-.08,70.54,6.24,71.79,21,1.38,16.27-81.68,39-81.42,40s79.9-28.78,83.17-20c1.42,3.81-11.86,14-31.51,29-22.95,17.55-42.92,30-42.9,30s24.06-14.14,43.77-27a100.94,100.94,0,0,1,18.39-10c5.06-2,6.31-2,10.5-4,11-5.22,15.81-11.87,16.64-11,1.47,1.54-13.42,23-25.39,40-19.13,27.19-26.81,37.42-26.27,38,.71.75,15.15-14.69,29.77-33,28.4-35.57,40-60.12,43.77-58,4.94,2.8-10.67,48.58-9.63,49,.7.27,9.08-19.08,16.64-46,4.48-16,6.58-27.14,9.63-27,3.29.15,5.17,13.4,5.25,14,2.67,19.53-5.54,35.87-5.25,36s7.91-14.34,13.13-39c4.65-22,4.2-37,6.13-37s4,12.74,4.38,25c.58,20.16-4,34.85-3.51,35s5.82-14.18,8.76-35c3.92-27.78,1.78-46.81,3.5-47,1.52-.17,4.86,14.47,6.13,31,2.36,30.61-3.52,52.79-2.63,53s8-22.92,11.38-55c2.81-26.28,1.6-43.83,3.51-44s5.06,15.37,6.13,31c1.9,28-3.63,49.77-2.63,50,.42.1,1-5.68,4.08-14.76,2.63-7.78,4.95-11.66,7.3-20.24a77.51,77.51,0,0,0,1.75-8c0-.29.64-4,.88-8,.74-12.7-1.09-45.57.87-46,1.52-.33,8.53,18.1,9.63,42,1.43,30.93-7.83,53.71-7,54s10.14-22.06,14.88-54c4-27.11,2.34-44.82,4.38-45s7.09,20.17,7,43c-.1,28.5-7.92,48.67-7,49s8.91-19.14,14-46c4.94-26,4.11-42.92,6.13-43,2.25-.08,5.39,20.83,6.12,41,.81,22.23-1.5,37.9-.87,38,1.45.24,11-83.33,14.88-83,3.56.31-.47,89,0,89S1084.51,1148.51,1074.65,1042.5Z"/><path class="cls-5" d="M1059.15,1562.74c9.19-9.83,15.27-27.76,17.31-104.67,1.34-50.61,2.76-195.43-10.54-196.94-17.37-2-42.5,242.53-44.42,242-1.48-.44,18.31-143.79,32.38-312.86,14.15-170.14,15.69-284.14,12-284.73-7.18-1.16-32.09,438-78.3,440-26,1.16-25.58-137.52-106.91-239.71-61.92-77.81-140.39-95.69-145.3-81-4.64,13.86,58.21,51.4,133.26,171.06,7.65,12.2,35,69.52,89.75,184.15,2,4.08,14.52,30.59,11.89,34.18-4.46,6.07-39.62-70.57-97.12-101.28-62.79-33.53-130.89-.92-131,12.38-.1,10.86,45.07,19.06,44.42,25.88-.49,5-25.09-1.17-56.47,10.13-17.45,6.28-46.71,21.48-45.93,32.64,1.39,19.64,92.67-20.92,179.19,46.14,39.35,30.5,46.25,58.88,105.4,99C1003,1562.34,1038,1585.33,1059.15,1562.74Z"/><path class="cls-6" d="M1039.4,1418.65c5.73-12.94-2.38-24.67.92-49.86.23-1.75,1-7.49.15-8-1.49-.9-5.8,14.35-8.33,13.19-1.92-.88-2.16-11-2.35-18.51,0-1.44,0-2.48,0-3.94,0-9.65.41-15,.45-17.77.16-12.29-7-25.6-9-25-2.25.68.52,20.33.16,20.34-.17,0-.66-4.3-2.6-19.64l-.07-.59c-2.11-16.63-2.48-18.69-2.78-20.18a91.16,91.16,0,0,0-2.72-10.11c-1.22-3.87-5.46-17.33-7.56-16.92-2.45.49-.4,19.6-1.71,19.69s-4.29-17.92-5.64-26c-1.75-10.43-1.41-10-2.24-13.73-3.51-15.65-10.79-28.44-12.16-27.69-1.74,1,5.24,24.7,3.85,25.28-.15.06-.32-.15-.43-.28-3.08-3.84-10.6-27.7-10.91-27.64s.51,21.32,4.54,31.36c.22.54.94,2.29.48,3.17-1.2,2.29-8.6-4.21-9.94-1.94-1,1.68,1.82,7.19,3,9.41,2.5,4.92,4.6,6.81,4.28,7.7-.65,1.81-9.14-5.69-11.81-2.6s3.26,13.92,7.46,33.84c3.52,16.7,1.08,17.4,5.26,35.66a183.35,183.35,0,0,0,7.35,25.47c3.45,9.2,4.71,10,6.16,16.22,2.35,10.12,1.63,19.29,1.16,24.85-1,11.75-3.18,12.94-2,18.56,2.14,9.91,10.82,15.18,13.16,16.6a22,22,0,0,0,21,1.16C1029.71,1429.32,1035.9,1426.54,1039.4,1418.65Z"/><path class="cls-2" d="M1091.8,416.28c-8,121-10.42,143.4-11.25,143.35-2.16-.12,4.58-152.28,2.5-152.39-1.91-.1-9.15,128-11.25,127.85s3.47-140.65,1.25-140.76-9.13,125.37-11.25,125.26,3-132.92,1.25-133c-2.1-.1-11.38,183.49-13.74,183.38s4.27-191.06,2.5-191.13-10.07,196.39-12.5,196.3,2.78-196.25,1.25-196.3-8,200.23-10,200.17,2.44-202.68,0-202.75-9.59,200.23-11.25,200.17,4-202.7,2.5-202.76-7.88,183.45-10,183.39,1.88-183.33,0-183.39-7,164.06-8.75,164,1.47-165.26,0-165.3-5.59,155-7.5,155-.18-156.24-1.25-156.26-3,145.94-5,145.93-2.73-148.52-3.75-148.51-.71,131.7-2.5,131.72-4.14-134.32-6.25-134.3-1.89,124-3.75,124-4-117.53-5-117.52.36,99.4-1.25,99.44-4.88-96.9-6.24-96.85.64,83.87-1.25,83.94-5.73-80.14-7.5-80.07,0,68.4-1.25,68.45-3.94-62-5-62,.79,54.11-1.25,54.24-6.28-50.47-7.5-50.37,2.12,43.67,0,43.91-7.23-38.94-8.75-38.74c-1.11.14,3.38,29.24,1.25,29.7s-16.39-25.57-10-50.37c10.9-42.25,73.58-48.72,77.48-49.07,31.53-2.83,56.2,9.89,67.48,16.79"/><path class="cls-2" d="M1069.52,395.12c2.08-30.5,5.4-70,9.18-69.94,5.13,0,7.89,72.6,10.5,72.53s1.92-70.41,2-77.71c-5.47.2-13.66.53-23.62,1-9.6.49-15.67.88-18.38,1-19.68,1.12-37.16-.45-45.28-1-25.33-1.82-58.62-1.09-72.85,1-60.32,9-91.71,90.18-113.53,146.61-20,51.77-26.81,95.12-25.59,95.32,1.79.3,25.3-93.61,32.15-92.73,6.64.85-6.4,90.05-5.25,90.14s13.47-95.51,16.41-95.32c2.77.17-4.54,85.26-1.31,85.48s14-90.39,18.37-90.14-.36,88,1.31,88.06,6.84-89.68,9.85-89.62,2,81.83,3.94,81.85,4-95.82,7.87-95.83,6.42,89.13,9.19,89.1,2.17-97.86,5.25-97.91,7.21,90.18,8.53,90.14-2.52-97.33-.66-97.39,7.54,90.71,9.19,90.65-2.36-94.25-1.31-94.28,5.75,90.18,7.22,90.14-2.62-100.37.65-100.5,11.38,93.31,12.47,93.25-7.09-98.84-5.25-98.95c1.44-.09,7.34,59.71,10.5,59.58s1.61-61.64,2.63-61.65,2.78,55.44,4.59,55.43c.67,0,.86-7.61,2.63-26.42,1.31-14,3.06-32.66,4.59-32.64.67,0,1.08,3.63,1.31,5.7,1.67,15,4,48.57,1.32,48.7-2.85.13-17.47-38.43,3.93-58,5.8-5.31,12.81-7.92,18.37-10,23.62-8.81,45.73-3.88,51.26-2,1.94.67,3.71,1.48,3.71,1.48a27,27,0,0,1,6.77,3.83,33.43,33.43,0,0,1,3.17,2.81s.39.37.73.72c5.62,5.82,4.22,18.12,4.59,18.13,1.86,0,3.52-23.86,5.25-23.83,1.52,0,1.83,18.63,3.28,18.65,1.62,0,2.95-23.33,4.6-23.31,1.48,0,2.15,19.17,3.28,19.16s.4-24.43,4.59-24.86C1063.72,381.43,1066.56,387.16,1069.52,395.12Z"/><path class="cls-7" d="M-9.53,1340.6c.56-4.33,3.92-28.92,11.41-30,3.21-.47,5.33,3.63,17.12,15,7.52,7.25,11.27,10.88,12.23,10,2.71-2.46-19.86-30.29-23.64-58-7.75-56.91,61.62-127.29,127.19-156.13,47.75-21,109.05-26.84,115.78-6,6.3,19.49-42,41.19-98.65,126.11-40.29,60.33-30.56,71.29-75,133.11-32.4,45-79.86,98-79.9,98.08,46.89-45.73,72.37-70.36,72.57-70.06,2,3.11-55.59,82.24-72.61,69.87-4.67-3.38-6.51-13.82-4-16.83,5.07-6.18,32.43,13.8,31,19-.91,3.25-13.92,4.11-17.13-2-7.23-13.77,34.1-65.13,70.12-98.08,43.49-39.78,115.92-86.24,138.61-60.05,13.17,15.19,6.88,53,10.6,53,2,0,2.91-10.42,9-29,4.82-14.78,7.33-22.23,12.23-25,7.66-4.37,17.07,3.59,26.91,11,35.36,26.64,39.85,18.69,87.24,57.05,15.41,12.47,17.81,15.64,17.94,20,.35,12.21-17.46,17.79-80.72,51-26.54,14-36,19.61-46.48,14-18.94-10.16-23.6-48.09-26.09-47-1.16.49.3,8.67,2.45,27,1.94,16.61,2.92,24.91,2.44,27-3.28,14.79-19.5,14.79-56.25,34-22.46,11.76-26.21,16.89-33.43,14-20-8-21.56-61.69-24.46-61-1.41.3-1.12,12.8,0,25,2.5,27.48,7.21,32.41,4.89,40-4.39,14.36-26.19,12.13-56.26,19-46.55,10.67-56.48,25-67.1,23.92a9.77,9.77,0,0,1-5.47-1.9c-10.17-7.82-1.61-41,1.63-68C1.92,1437.14-18.69,1410.75-9.53,1340.6Z"/><path class="cls-8" d="M-7.09,1550.77c9-11.77,24.93-16.32,30.17-10,1.39,1.67,2.06,4.15.82,24-1.08,17.2-2.3,26.83-1.63,27,1.35.4.86-40.85,19.56-61,25.42-27.45,75.4-4.28,101.92,8,36.44,16.89,65.81,43.25,62.78,56-1.38,5.86-8.91,6.21-13.86,18-3.69,8.81-4.39,20.31-1.63,22,4.74,2.92,13.7-26.61,27.72-31,35.5-11.18,103.23,138.45,88.88,153.13-10.56,10.79-62-55-145.95-90.08-3.06-1.27-8.3-3.46-15.49-6-17.95-6.35-57.47-20.31-104.37-16-33.42,3.06-47.11,13.24-55.44,2-4.33-5.84-3.76-19.32-2.45-46C-14.09,1560.77-9.1,1553.41-7.09,1550.77Z"/><path class="cls-4" d="M142.91,1772c-2.11-2.75-13.65-17.21-31.13-16.84-10.35.22-18.18,6.08-20.43,7.76A55.06,55.06,0,0,0,79.8,1775.5c-11.74,17.91-11.28,50.64-13,67-6.51,63.46-20.74,87.63-10.52,98.22,4,4.11,7,.21,31.63-2.86,27.19-3.4,27.93.57,43.74-3.52,22.47-5.83,25.91-15.14,35.07-11.07,5.65,2.51,7.78,8.52,23.11,45.71,11.23,27.26,13.21,39.35,19.45,40s10-10.84,23.11-36.44c22.57-44.08,28-42.56,33.57-63.28a143.27,143.27,0,0,0,4-48.52h0s-.91-7.23-1.92-14.12c-1.23-8.45-21-29.16-22.57-30.85-20.71-21.85-25.25-50.16-26.17-49.59-.28.18,3.39,16.35,15.93,32,6.58,8.23,8.31,6.9,19.52,19.41a154.68,154.68,0,0,1,16.92,21.79c8.33,13.16,7,15.84,12.23,20.9,7.3,7,18.33,10,27.86,6.59,13.39-4.71,19.47-20.33,23.46-30.11,10-24.46,1.17-33.12,10-60.11,7.62-23.38,18.94-31.37,15.37-41.2-2.39-6.6-8.43-5.62-20.81-12.28-21.6-11.63-19.69-23.5-35.75-30.75-20.69-9.34-35.65,5.07-42.42-5.78-3.68-5.89-.54-12.16,0-29.18.35-11.16-.65-19.79-5.24-44.93-12.13-66.33-18.2-99.5-26.15-102.56-18-6.91-53.47,31.86-63.94,75.24-5,20.81-3.63,39.94-12.63,44.15-7.2,3.37-12.12-8-28.86-18-22.58-13.41-44.4-11.29-60.47-9.72-20.17,2-31,3-36.27,12.75-7.67,14.09,1.54,36.56,14.14,66.42a402.89,402.89,0,0,0,38.39,70.49"/><path class="cls-2" d="M158.3,733.1c-5.2,93.8-6.8,111.13-7.34,111.09-1.41-.09,3-118,1.63-118.09s-6,99.16-7.34,99.08,2.26-109,.82-109.09-6,97.16-7.34,97.08,2-103,.81-103.09c-1.37-.08-7.43,142.2-9,142.12s2.79-148.06,1.63-148.12-6.57,152.19-8.16,152.12,1.81-152.08.82-152.12-5.22,155.17-6.53,155.13,1.6-157.08,0-157.13S112.09,857.25,111,857.2s2.63-157.08,1.63-157.12-5.15,142.16-6.53,142.11,1.23-142.07,0-142.11-4.54,127.14-5.7,127.1,1-128.08,0-128.11-3.65,120.13-4.89,120.1-.12-121.09-.82-121.1-2,113.1-3.26,113.1S89.66,696.07,89,696.07s-.46,102.07-1.63,102.09-2.7-104.11-4.08-104.09-1.23,96.07-2.44,96.08-2.59-91.09-3.26-91.08.23,77-.82,77.07-3.19-75.1-4.07-75.06.42,65-.82,65S68.14,704,67,704.08s0,53-.82,53-2.57-48.07-3.26-48,.52,41.94-.81,42-4.1-39.12-4.9-39,1.38,33.84,0,34-4.72-30.17-5.7-30c-.73.11,2.2,22.66.81,23s-10.69-19.82-6.52-39c7.11-32.75,48-37.76,50.55-38,20.57-2.19,36.67,7.67,44,13"/><path class="cls-2" d="M91.44,739.11c-5.2,93.79-6.8,111.12-7.34,111.09-1.41-.1,3-118,1.63-118.1s-6,99.17-7.34,99.08,2.26-109,.82-109.09-6,97.17-7.34,97.08,2-103,.82-103.08c-1.38-.08-7.43,142.2-9,142.11s2.79-148.06,1.63-148.12-6.57,152.2-8.16,152.13S59,710.12,58,710.08s-5.22,155.17-6.52,155.13,1.59-157.07,0-157.13-6.26,155.17-7.34,155.13,2.63-157.09,1.63-157.13S40.63,848.25,39.26,848.2s1.23-142.08,0-142.12-4.55,127.14-5.71,127.1,1-128.07,0-128.1-3.65,120.13-4.89,120.1-.12-121.09-.82-121.1-2,113.1-3.26,113.09-1.78-115.1-2.45-115.09-.46,102.06-1.63,102.08-2.7-104.1-4.07-104.08S15.19,796.14,14,796.15s-2.59-91.08-3.26-91.07.23,77-.82,77.06-3.19-75.09-4.07-75.06.42,65-.82,65-3.73-62.1-4.89-62,0,53-.82,53-2.57-48.07-3.26-48,.52,41.94-.81,42-4.1-39.11-4.89-39,1.37,33.84,0,34-4.72-30.18-5.71-30c-.73.11,2.2,22.67.81,23s-10.69-19.81-6.52-39c7.11-32.75,48-37.76,50.55-38,20.57-2.19,36.67,7.66,44,13"/><path class="cls-2" d="M4.61,599.88C2.49,538.78-.88,459.72-4.72,459.75c-5.21.05-8,145.47-10.67,145.32s-1.95-141.08-2-155.7c5.57.4,13.88,1.06,24,2.08,9.75,1,15.92,1.77,18.67,2.07,20,2.24,37.74-.91,46-2.07,25.73-3.64,59.54-2.19,74,2.07,61.28,18.07,93.15,180.68,115.32,293.76,20.33,103.72,27.23,190.59,26,191-1.83.6-25.7-187.56-32.67-185.8-6.74,1.7,6.51,180.43,5.34,180.61s-13.69-191.36-16.67-191c-2.81.35,4.62,170.84,1.34,171.27s-14.17-181.11-18.67-180.61.37,176.35-1.33,176.46-6.94-179.7-10-179.58-2.09,164-4,164c-2.07,0-4.09-192-8-192s-6.52,178.6-9.33,178.53S190.38,684.05,187.26,684s-7.33,180.69-8.67,180.61,2.56-195,.67-195.14-7.66,181.76-9.34,181.65,2.4-188.86,1.34-188.92-5.85,180.69-7.33,180.61,2.65-201.11-.67-201.37-11.56,187-12.67,186.84,7.2-198,5.34-198.26c-1.46-.17-7.45,119.64-10.67,119.37s-1.63-123.49-2.67-123.52-2.82,111.09-4.66,111.07c-.68,0-.87-15.24-2.67-52.94-1.33-28.06-3.11-65.44-4.66-65.39-.69,0-1.1,7.27-1.34,11.41-1.69,30-4,97.32-1.33,97.58,2.89.27,17.74-77-4-116.26-5.89-10.63-13-15.87-18.65-20-24-17.64-46.45-7.77-52.07-3.92a40.85,40.85,0,0,0-3.77,3A30.9,30.9,0,0,0,42.56,598a61.92,61.92,0,0,0-3.22,5.62s-.39.74-.73,1.44c-5.71,11.68-4.29,36.32-4.67,36.33-1.89.06-3.58-47.8-5.33-47.75-1.55.05-1.86,37.33-3.33,37.37-1.65.05-3-46.75-4.67-46.71-1.51,0-2.19,38.42-3.33,38.41-1.3,0-.41-49-4.67-49.83C10.5,572.46,7.61,583.93,4.61,599.88Z"/><path class="cls-5" d="M43.33,160.64c2.26,5.34,7.33,4.83,13.86,8,17.08,8.3,23.55,31.74,24.46,31s-3-17.75-13-31a29.88,29.88,0,0,1-6.52-14c-.54-3.39-.8-9.24.81-10,3.14-1.49,12.72,16.81,18.75,34a191.13,191.13,0,0,1,9,38c.09,0-13.84-72.54-9.78-74.06,2.24-.84,9.66,20,13.86,34,6.33,21.19,8.65,38.11,9,38,.66-.16-12.62-72.81-9-74.06,1.89-.65,8.27,17.79,12.23,35a239.64,239.64,0,0,1,5.71,40s-7.41-75.72-5.71-76.06c1.44-.29,13.64,83.28,14.68,83.07s-10.83-82.15-7.34-83.07c1.51-.4,5.41,14.59,12.23,41,9.31,36.11,14.09,59.22,14.67,59,1.25-.36-18.82-104.28-16.3-105.09,1.49-.47,10.53,35.4,15.49,55,8.15,32.31,12.55,53.19,13,53,1.1-.33-20.87-106.08-17.94-107.08,1.69-.59,11.32,34.08,17.12,57,8.15,32.25,12.74,57.14,13,57.05.64-.19-21.74-109.76-17.94-111.09,2.2-.78,13.21,35,20.38,63,5.36,20.92,8.49,37.17,9,37,1.16-.34-18.05-97.63-13.86-99.08,1-.35,3.12,5.1,7.34,16,8.33,21.56,12.57,38.22,13,38s-2.2-8.54-4.07-21a261.25,261.25,0,0,1-2.45-38c-.11-15.11.8-14.41,0-17-5.41-17.71-37.7-18-65.23-18-19.21,0-63.27,0-67.67,19-.7,3,.23,3.81,0,20C43.93,154.06,41.51,156.31,43.33,160.64Z"/><path class="cls-2" d="M10,144.51C7.64,83.41,3.87,4.35-.42,4.38c-5.81,0-8.94,145.47-11.91,145.32C-15.15,149.56-14.51,8.62-14.56-6c6.21.4,15.5,1.06,26.8,2.08C23.12-2.94,30-2.16,33.08-1.85,55.4.39,75.23-2.76,84.44-3.92c28.73-3.64,66.49-2.19,82.63,2.07,68.43,18.07,104,180.68,128.78,293.76,22.71,103.72,30.41,190.59,29,191-2,.59-28.7-187.56-36.47-185.8-7.53,1.7,7.26,180.43,5.95,180.61s-15.28-191.37-18.61-191c-3.13.35,5.16,170.84,1.49,171.27S261.42,276.88,256.4,277.37s.41,176.35-1.49,176.46-7.75-179.69-11.17-179.57c-3.25.12-2.33,164-4.46,164-2.32.05-4.57-192-8.94-192-4.2,0-7.28,178.61-10.42,178.54S217.46,228.68,214,228.59s-8.18,180.69-9.68,180.61,2.86-195,.75-195.14-8.55,181.76-10.43,181.65,2.68-188.86,1.49-188.92-6.52,180.69-8.19,180.61,3-201.11-.74-201.37S174.27,373,173,372.87s8-198,5.95-198.26c-1.62-.17-8.32,119.64-11.91,119.37s-1.82-123.49-3-123.52-3.15,111.09-5.21,111.07c-.76,0-1-15.24-3-52.94-1.5-28.06-3.48-65.44-5.21-65.4-.77,0-1.23,7.28-1.49,11.42-1.9,30-4.48,97.32-1.49,97.57,3.22.28,19.81-77-4.47-116.25-6.57-10.63-14.52-15.87-20.83-20-26.79-17.64-51.87-7.77-58.15-3.92a46.76,46.76,0,0,0-4.21,3,32.5,32.5,0,0,0-7.68,7.67,59.88,59.88,0,0,0-3.59,5.62s-.44.74-.82,1.44C41.59,161.37,43.18,186,42.76,186c-2.11.06-4-47.8-6-47.75-1.72.05-2.08,37.33-3.72,37.37-1.84,0-3.35-46.75-5.21-46.71-1.69,0-2.44,38.42-3.72,38.41-1.45,0-.46-49-5.21-49.83C16.58,117.09,13.35,128.56,10,144.51Z"/><path class="cls-9" d="M61.27,127.61c9.28-1.86,16.44,2.32,24.46,7a73.93,73.93,0,0,1,21.2,19c.2-.68,4.75-15.76,15.49-18,13.13-2.76,25.16,15.82,23.65,27-.6,4.43-3.39,8-9,15-5.78,7.3-10.33,10.67-9.79,12,.88,2.15,12.43-7.1,17.94-2,5.14,4.75,4.27,21.23-1.63,26-3.82,3.1-8.69.43-10.6,4-1.45,2.72-1.07,7.38.82,9,2.79,2.42,7.2-3.24,9.78-1,.9.78,1.13,2.13.82,14-.2,7.44-.35,9.43,0,13a65.66,65.66,0,0,0,1.63,9c3.54,13.54,14.08,19.12,17.93,31,1.69,5.23.59,12.49-1.63,27-2.8,18.44-7.26,30.19-12.23,43-6.53,16.89-9.25,18.74-11.41,19-3.42.44-6.95-4-13.86-13-7.6-9.88-11.4-14.81-13.05-21-.79-3-.53-10.7,0-26,.46-13.07.77-17.64,0-25-.68-6.65-2.4-17.08-4.07-17-1.83.07-3.49,12.5-5.71,29-1.42,10.57-1.72,14.94-4.08,16-1.65.75-3.82-.34-12.23-10-9.53-11-14.29-16.43-14.68-20-.83-7.77,3.65-16.27,11.16-30.54l.26-.49c6-11.25,9.64-12.59,9.78-17,0-1.45-.34-1.11-2.44-7-3.29-9.23-2.88-11.62-4.08-12-2.78-.9-7.31,11.11-17.12,31-7.63,15.48-9.76,18.11-12.23,18-1.35-.06-3.78-1-12.23-21-5.44-12.9-8.15-19.34-8.16-23,0-15.83,13.62-29.47,19.57-34,1.71-1.3,5.49-4.54,13-11,3.36-2.88,4.1-3.54,4.89-5,4.38-8.07-.08-21,0-21s.34,1.87.58,3.19c.75,4.14,1.32,5.63,1,5.81-.5.36-2.27-5.21-4.89-7-9.18-6.29-31.63,31.83-38.32,27-4.3-3.08.23-22.15,1.63-28,1.79-7.56,3.38-14.24,8.15-21C43.45,139.14,50.2,129.82,61.27,127.61Z"/><path class="cls-2" d="M67,65.56c-5.2,93.79-6.8,111.13-7.34,111.09-1.41-.1,3-118,1.63-118.1s-6,99.17-7.34,99.08,2.26-109,.82-109.09-6,97.17-7.34,97.08,2-103,.81-103.08c-1.37-.08-7.42,142.2-9,142.12S42.05,36.59,40.89,36.53s-6.57,152.2-8.16,152.13,1.82-152.09.82-152.13S28.33,191.7,27,191.66,28.62,34.59,27,34.53,20.77,189.7,19.69,189.66,22.32,32.57,21.32,32.53,16.17,174.7,14.8,174.65,16,32.57,14.8,32.53s-4.55,127.14-5.71,127.1,1-128.07,0-128.1S5.44,151.66,4.2,151.63,4.08,30.54,3.38,30.53,1.4,143.63.12,143.62-1.66,28.52-2.33,28.53-2.79,130.59-4,130.61-6.66,26.51-8,26.53s-1.24,96.06-2.45,96.07-2.59-91.08-3.26-91.07.23,77-.82,77.06-3.19-75.09-4.07-75.06.42,65-.82,65.06-3.73-62.11-4.89-62.06,0,53-.82,53.05-2.57-48.07-3.26-48,.52,41.94-.81,42-4.1-39.11-4.9-39,1.38,33.84,0,34-4.71-30.18-5.7-30c-.73.11,2.2,22.67.81,23s-10.69-19.81-6.52-39C-38.43-.22,2.47-5.23,5-5.5c20.57-2.19,36.67,7.66,44,13"/><path class="cls-9" d="M-14.07,207.42c2.74-45.88,5-73.08,6.35-72.94,2.71.28.57,102.24,3.68,102.58S5.16,128.62,7.11,128.88s-4,121.68.06,122.43c3.62.66,14.34-114.3,15.64-114s-9.42,107-5.26,108.16S39,138.68,40.71,139.26,26,242.3,29.11,243.47,53.53,142.59,54.39,143,32.71,245,36.9,247.18s34.57-101.43,36.35-100.4-30.54,113-27.31,115,40.81-109,42.89-107.59-31.9,105.42-28.1,108.07c3.47,2.42,36.13-81.48,38.74-79.56,2.41,1.78-23.61,75.17-20.57,77.43,2.33,1.73,19.6-40.09,22.12-38.23,3.18,2.33-21.12,70.68-18.14,73,4,3,53.15-111.57,54.33-110.59S89.15,295.51,96.3,302.67c6.25,6.26,52.75-68.89,55-66.18s-40.75,71.16-36.92,76.21c4.2,5.53,61.86-68.63,63.91-65.7s-57.92,80.5-53.23,88.14c4.55,7.39,68-53.82,68.27-53.3s-58.93,53.09-56.64,58.37c.92,2.1,10.94-4.86,35.81-15.31,1.32-.55,30.55-12.78,31.21-10.45.41,1.46-10.89,7.46-30.68,21.49-13.2,9.37-27.65,19.62-26.95,21.87,1.43,4.64,66.75-26.18,67.13-24.77s-56.58,24.74-54.93,34.8c1.72,10.5,66.6,2.11,66.71,3.64s-63.28,5-63.33,13c0,8.86,77.77,20.17,77.65,22s-69.5-11.38-70.43-4c-1,7.78,74.32,36.12,74.19,36.75s-58.11-26.78-61-17.78c-3.24,10.21,65.73,64.23,65.59,64.54s-55.26-50.53-59.48-43.34c-4.48,7.65,49.72,79.33,49.64,79.45s-48-72.66-54.05-66.54c-4.67,4.68,16.67,54.38,15.88,54.93s-24.56-61.73-27.51-60,14,61.23,13.68,61.39-19.15-74.26-23.1-72.91c-3.31,1.13,4.94,54.76,4.1,54.94s-10.63-69-13-68.57c-2.2.36,2.87,58.24,1.55,58.42-1.49.19-9-72.25-10.49-72.06-1.21.16,3.08,52.14,1.6,52.35s-8.09-58.26-9.62-58,4,64.11,2.24,64.37S129,400.25,127.42,400.5s4.37,61,2.62,61.27c-1.92.33-11.28-71.93-12.65-71.68s5.5,59.72,3.94,60S110,382.22,108.42,382.54s6.57,69.65,5.08,69.95-13-80.76-14.39-80.48,7.9,73.43,6.26,73.79-13.69-76.62-14.66-76.39,9,63.92,6.68,64.62c-2.71.82-20-83.79-21.35-83.33S90.24,432,89.1,432.43,69.41,344.54,68,345s13.87,78,11.28,79-19.61-71-22-70.06,11.53,69.47,9.53,70.19-18-67-19.41-66.46,12,61.23,10.06,62-19.5-65.77-20.74-65.22S50,412.22,47.86,413.25,26.72,351.49,24.68,352.5c-1.85.93,12.17,54.12,10.72,54.81s-17.61-55-18.77-54.43,20.94,81,19.68,81.6-23.54-74.22-24.66-73.65,20.06,74.82,18.27,75.76S5,366.73,4.27,367.16c-.21.13,1.45,6.27,4.21,16.41l1.07,3.93c9,32.52,11.39,42.32,10.79,42.66-.17.09-.62-.58-1.46-1.85a21.33,21.33,0,0,1-1.28-2.25c-1.56-3.22-8.51-22.42-9.11-22.18s5.46,30.46,5.69,30.38C15,434,9.27,381.75,3.7,381.43-2.79,381.06-9,451.16-14.37,538.36"/><path class="cls-10" d="M22.13,267.72c10.35-4.07,28.66-11.27,31-6,.89,2-1.19,4.51-8.16,19-7.09,14.75-6.88,16.2-6.52,17,3.19,7.24,28.93-11.69,41.58,1,6.42,6.43,8,19.55,4.9,23-3.43,3.79-10.76-6-21.2-3-7.81,2.21-14.9,10.82-13.86,16s9.54,3.68,25.27,11c9.9,4.61,17.51,8.15,22,17,6,11.91,4.33,29.14,0,31-3.59,1.56-6.87-8.33-19.57-19-9.35-7.86-20.07-13-21.2-11-2.12,3.78,34.36,23.62,38.32,59.05.49,4.38-2.93,19.66-9.78,50-7.6,33.68-10.38,44.86-14.68,45s-5-11-15.49-24c-9.44-11.69-15.45-10.72-20.39-17-17.53-22.36,18.56-88.25,12.23-93.07-2.87-2.19-13.47,8.64-20.38,23-12.36,25.71-6.16,48.75-12.23,51-6.28,2.36-23.37-18.33-22.83-41,.83-35,43.13-53.66,38.32-68-2.39-7.14-15.24-9.83-23.64-5-12,6.87-12.43,27.56-16.31,27-4.5-.64-5.2-28.74-5.71-49-.6-24.11.67-27.78,1.63-30C-9.7,280.44,1,276.05,22.13,267.72Z"/><path class="cls-5" d="M-.93,1960.62c-8.35-9.55-13.87-26.95-15.73-101.61-1.22-49.13-2.5-189.72,9.58-191.19,15.78-1.92,38.61,235.44,40.35,234.89,1.35-.42-16.63-139.59-29.41-303.72C-9,1433.82-10.39,1323.16-7.08,1322.58c6.52-1.12,29.15,425.19,71.13,427.18,23.62,1.12,23.24-133.5,97.13-232.71,56.26-75.53,127.55-92.9,132-78.66,4.21,13.46-52.89,49.89-121.07,166.06-7,11.85-31.81,67.49-81.54,178.77-1.77,4-13.19,29.7-10.8,33.18,4,5.9,36-68.51,88.24-98.32,57-32.55,118.91-.9,119,12,.09,10.55-40.95,18.52-40.35,25.13.44,4.9,22.79-1.14,51.3,9.84,15.85,6.1,42.43,20.85,41.72,31.68-1.26,19.07-84.19-20.31-162.79,44.79-35.75,29.61-42,57.16-95.76,96.14C50.05,1960.24,18.28,1982.55-.93,1960.62Z"/><path class="cls-6" d="M35.21,1814.92c-5.37-16.77,3.6-32.83,1.32-66-.16-2.3-.73-9.86.21-10.61,1.59-1.29,5.37,18.64,8,16.94,2-1.29,2.75-14.66,3.29-24.68.1-1.91.15-3.28.22-5.22.48-12.8.26-19.87.35-23.52.39-16.28,8.45-34.37,10.46-33.71,2.31.76-1.47,27-1.09,27,.17,0,.88-5.75,3.59-26.2l.11-.79c2.94-22.17,3.42-24.92,3.8-26.91,1-5.44,2.1-9.29,3.29-13.58,1.44-5.21,6.46-23.31,8.63-22.9,2.52.49-.48,26,.88,26s5.27-24,7.05-34.79c2.29-13.93,1.92-13.37,2.95-18.33,4.36-21,12.51-38.38,13.9-37.47,1.77,1.16-6.57,33.07-5.15,33.74.14.07.34-.21.46-.39,3.37-5.29,12.28-37.39,12.6-37.33s-1.51,28.29-6.15,41.85c-.25.73-1.09,3.09-.64,4.24,1.13,2.94,9.12-6.15,10.41-3.21.94,2.15-2.22,9.64-3.5,12.66-2.82,6.67-5.09,9.31-4.79,10.48.59,2.34,9.75-8.14,12.39-4.21s-4,18.66-9.3,45.32c-4.42,22.36-1.92,23.13-7.1,47.6a316.39,316.39,0,0,1-8.79,34.23c-4,12.4-5.36,13.52-7.15,21.88-2.9,13.57-2.58,25.67-2.33,33,.5,15.51,2.7,16.94,1.19,24.46-2.68,13.27-12,20.81-14.44,22.85-10.47,8.52-19.42,4.15-21.88,2.88C44.8,1828.44,38.49,1825.17,35.21,1814.92Z"/><path class="cls-7" d="M1078.88,1559.5c-.61-4.32-4.22-28.9-12.26-30-3.44-.47-5.73,3.63-18.38,15-8.07,7.25-12.11,10.88-13.14,10-2.9-2.47,21.33-30.27,25.39-58,8.32-56.86-66.16-127.18-136.57-156-51.27-21-117.09-26.81-124.32-6-6.76,19.47,45,41.15,105.93,126,43.25,60.28,32.81,71.24,80.55,133,34.79,45,85.75,98,85.79,98-50.35-45.69-77.71-70.29-77.91-70-2.19,3.11,59.68,82.17,78,69.82,5-3.38,7-13.81,4.33-16.82-5.44-6.17-34.82,13.78-33.27,19,1,3.25,14.94,4.11,18.39-2,7.76-13.75-36.61-65.07-75.29-98-46.69-39.74-124.47-86.16-148.84-60-14.14,15.18-7.38,52.93-11.38,53-2.1,0-3.12-10.42-9.63-29-5.17-14.77-7.87-22.21-13.13-25-8.22-4.36-18.32,3.6-28.89,11-38,26.61-42.79,18.67-93.68,57-16.54,12.46-19.12,15.63-19.26,20-.38,12.2,18.75,17.78,86.67,51,28.5,13.94,38.7,19.59,49.91,14,20.34-10.15,25.34-48,28-47,1.26.49-.32,8.67-2.62,27-2.09,16.59-3.14,24.88-2.63,27,3.53,14.78,20.94,14.78,60.41,34,24.11,11.74,28.13,16.87,35.89,14,21.48-7.94,23.15-61.64,26.27-61,1.51.31,1.19,12.79,0,25-2.69,27.46-7.75,32.39-5.26,40,4.72,14.35,28.13,12.12,60.41,19,50,10.65,60.64,25,72.05,23.89a11,11,0,0,0,5.87-1.89c10.92-7.82,1.73-41-1.75-68C1066.58,1656,1088.71,1629.6,1078.88,1559.5Z"/><path class="cls-8" d="M1045.17,1723.5c-9.64-11.76-26.77-16.31-32.4-10-1.49,1.67-2.21,4.15-.87,24,1.15,17.18,2.47,26.8,1.75,27-1.46.4-.93-40.81-21-61-27.29-27.43-81-4.28-109.44,8-39.12,16.88-70.66,43.22-67.41,56,1.48,5.85,9.57,6.2,14.88,18,4,8.81,4.72,20.3,1.75,22-5.08,2.92-14.7-26.59-29.76-31-38.11-11.17-110.84,138.33-95.43,153,11.34,10.79,66.61-54.92,156.71-90,3.28-1.28,8.92-3.46,16.64-6,19.27-6.34,61.7-20.29,112.06-16,35.88,3.06,50.59,13.24,59.53,2,4.64-5.84,4-19.3,2.63-46C1052.69,1733.49,1047.33,1726.14,1045.17,1723.5Z"/><path class="cls-8" d="M-5.79,535.94c9-11.77,24.93-16.32,30.17-10,1.39,1.67,2.06,4.15.82,24-1.08,17.2-2.31,26.83-1.64,27,1.36.39.87-40.85,19.57-61.05,25.42-27.46,75.4-4.29,101.92,8,36.44,16.89,65.81,43.26,62.78,56.05-1.38,5.85-8.91,6.2-13.86,18-3.69,8.82-4.39,20.32-1.63,22,4.74,2.92,13.7-26.61,27.72-31,35.5-11.17,103.23,138.45,88.88,153.13-10.56,10.79-62-55-145.95-90.07-3.06-1.28-8.3-3.47-15.49-6C129.55,639.69,90,625.72,43.13,630,9.71,633.08-4,643.27-12.31,632c-4.33-5.84-3.76-19.32-2.45-46C-12.79,545.94-7.8,538.58-5.79,535.94Z"/><path class="cls-3" d="M11.52,592c12.21-5.94,28.22-1.69,30.76,6.76.67,2.24.42,4.83-7.62,22.15-6.95,15-11.41,23.05-10.87,23.58,1.09,1.07,15-36.48,38.93-45,32.53-11.51,69.67,35.64,89.37,60.65,27.08,34.37,44.46,73.6,37.28,83.59-3.28,4.56-10.22.93-18.8,9-6.4,6-11,16.07-9.13,19.06C164.7,777,183.08,755,197.3,758.34c36,8.49,45.19,179.3,27.1,185-13.3,4.23-37-82.21-100.65-157.94-2.31-2.75-6.3-7.48-11.91-13.54-14-15.15-44.9-48.49-88.81-69.18C-8.25,688-24.18,690-27.8,675.47c-1.88-7.55,3.32-19.44,13.8-42.91C1.71,597.38,8.78,593.34,11.52,592Z"/><path class="cls-4" d="M1097.18,1684.75c-18.64-69.72-24.29-85.83-25.46-84.92s2,19.28,4.6,34.28c8.29,47.78,16.08,74.41,14.88,75.66-2.39,2.5-36.31-101.24-38.67-98.87-2.63,2.65,36.41,135.66,33.29,138.89-2.94,3-40.6-111.46-43.09-108.86-2.91,3,44.88,162.18,43.22,163.86s-53.08-163-55.29-160.82,47.44,170.69,44.35,173.86c-3.43,3.51-69.2-199.56-71.85-196.77-2.43,2.55,49.26,176.13,46.55,178.85-.82.82-7.37-13.19-10.3-19.88,0,0-.92-2.09-1.73-4-7-16.86-55.73-150.64-56.46-149.85s53.89,163.46,48.72,169.84c-1.23,1.53-5.54-6.35-9.31-13.48-32.37-61.29-58.8-132-58.57-132.3s50.22,137.71,46.47,142.85c-3.87,5.31-65.39-130-66.19-128.78S1003.06,1793,997,1804.08c-1.4,2.58-6.1-1.83-12.9-9.26-38.65-42.21-65.24-94.45-65.85-93.48-.86,1.38,51.66,110.32,49.14,114.84-2.45,4.37-56.15-89.88-58.4-85.81s48.24,98,44.72,104.85c-3.92,7.66-72.18-99.31-74.88-93.75-2.41,5,50.57,92.72,46.91,100.84-3.85,8.52-67.31-76.45-68.8-72.77s66.48,95.32,63.39,103.79-75.25-69.48-76.46-65.75c-1.14,3.49,62.77,70.09,59.48,82.81-3.49,13.55-81.77-40.11-82.42-36.73-.63,3.23,72,48.34,69.87,63.77-.46,3.29-4.17,4.21-6.81,4.75-31,6.31-72.13-7.9-71.7-11.5.55-4.63,69.77,11.7,70.34,33.77a10.36,10.36,0,0,1-1.52,6.06c-11.19,16.5-78.21-21.56-76.89-26,1.37-4.62,78.38,19.89,78.79,20,30.42,6.2,53.42,3.69,69.17,0,20.75-3.14,26.63-7.71,52.52-10,16.61-1.47,23.68-.43,26.27,0,17.06,2.83,22.22,9.47,35,10,7.07.3,17.22-1.24,29.76-10"/><path class="cls-4" d="M-8,820.17C-2.88,760.6,6.21,713.85,7.46,714.09c2,.37-13.62,116.48-7.34,118.09S31.41,720.62,32.73,721.09,8.09,825.23,16.43,829.18c1.12.53,2.58-1.13,5.12-4,6.84-7.72,7.71-16.57,12-30,1.86-5.83,4.35-11.34,6.52-17,10.72-28,27.31-56.92,28.54-56,1,.75-10.2,22.6-22.83,61-7.9,24.05-15.82,53-13.86,54.05,1.71.91,9.24-20.35,26.09-53.05,16.43-31.89,31.91-55.63,32.61-55s-13.48,24.24-29.35,62C50.2,817.52,39.89,847,41.7,848.2c1.65,1.07,11.62-22.22,32.62-57.05,20.08-33.31,37.13-55.42,37.5-55s-18,25.07-37.5,64.06c-12,23.89-27.28,58.92-23.65,62.05.88.76,3-.28,10.48-8.36a232.85,232.85,0,0,0,30.29-40.68c20.31-36.73,44.53-59.39,44.84-59s-20.71,26.5-43.21,67c-11.37,20.48-24,46.24-22,48,1.65,1.5,11.77-15,31-37,26.14-30,47.73-45.63,48.1-45S124,809.32,100.41,849.2c-2.69,4.53-17.51,29.6-13.86,34,.3.38,1.73,1.81,9.19-2.5,14.19-8.21,22.59-21.24,23.42-22.52,17.89-27.58,49.65-37.21,49.74-37s-29.83,13.92-51.37,49c-8.31,13.56-15.5,30.5-13,33s12.88-11.11,32.62-28c26-22.28,47.77-32.76,48.1-32s-23.06,14.21-48.1,43c-8.33,9.59-21.42,26.14-19.57,29,1.4,2.19,10.62-4.78,22-12,36.17-23,62.88-28.67,62.79-29s-32.68,7.82-60.34,37c-2,2.11-13.9,14.81-12.23,18,1.47,2.83,12.38-3.89,26.91-10,30.49-12.83,53.77-13.28,53.81-13a118.11,118.11,0,0,0-53.81,21c-11.37,8.09-23.38,19.69-22,23,1.26,3.06,13-2.9,35.06-9,27.19-7.52,47.16-8.92,47.29-8s-20.75,3.45-45.66,18c-9.19,5.37-23.91,15.29-22.83,19,.63,2.16,6.37,1.19,12.61.6,29.24-2.75,52.45-11.27,52.62-10.61.26,1-55.83,20-54.63,29,.31,2.35,4.42,3.61,13,4.82a205.44,205.44,0,0,0,60.42-.82c0-.08-65.69,6.25-66.85,21-1.29,16.28,76.07,39,75.82,40s-74.41-28.8-77.46-20c-1.32,3.81,11.06,14,29.36,29,21.36,17.56,40,30,39.95,30s-22.41-14.16-40.77-27a92.47,92.47,0,0,0-17.12-10c-4.72-2.06-5.88-2-9.78-4-10.25-5.22-14.73-11.87-15.5-11-1.37,1.55,12.5,23,23.65,40,17.81,27.21,25,37.45,24.46,38-.66.74-14.11-14.7-27.72-33-26.45-35.6-37.29-60.17-40.77-58.05-4.6,2.81,9.94,48.63,9,49-.65.28-8.45-19.09-15.49-46-4.18-16-6.13-27.17-9-27-3.07.16-4.82,13.41-4.89,14-2.49,19.55,5.16,35.9,4.89,36s-7.37-14.34-12.23-39c-4.33-22-3.91-37-5.71-37s-3.74,12.75-4.08,25c-.54,20.17,3.74,34.88,3.27,35s-5.42-14.19-8.16-35c-3.65-27.8-1.65-46.84-3.26-47-1.42-.17-4.52,14.49-5.71,31-2.19,30.64,3.28,52.83,2.45,53s-7.42-22.94-10.6-55c-2.61-26.3-1.48-43.87-3.26-44s-4.72,15.39-5.71,31c-1.78,28,3.38,49.81,2.45,50-.4.1-.94-5.69-3.8-14.77-2.46-7.79-4.62-11.67-6.8-20.26a80.2,80.2,0,0,1-1.63-8c-.05-.29-.6-4-.82-8-.69-12.71,1-45.62-.81-46-1.42-.33-8,18.11-9,42-1.33,31,7.3,53.76,6.52,54.05S38,999.26,33.55,967.29c-3.75-27.13-2.18-44.86-4.08-45s-6.6,20.18-6.52,43c.1,28.53,7.38,48.71,6.52,49s-8.29-19.16-13-46c-4.61-26-3.83-42.95-5.71-43-2.1-.09-5,20.85-5.71,41-.75,22.25,1.4,37.93.82,38-1.36.24-10.29-83.4-13.86-83.06-3.32.31.44,89,0,89.07S-17.21,926.27-8,820.17Z"/><path class="cls-10" d="M24.58,1023.34c10.34-4.07,28.66-11.27,31-6,.9,2-1.18,4.52-8.15,19-7.09,14.75-6.88,16.2-6.52,17,3.18,7.24,28.92-11.69,41.58,1,6.42,6.44,8,19.56,4.89,23-3.43,3.8-10.75-6-21.2-3-7.8,2.21-14.9,10.81-13.86,16s9.55,3.69,25.28,11c9.9,4.61,17.51,8.15,22,17,6.06,11.91,4.33,29.14,0,31-3.59,1.56-6.86-8.32-19.57-19-9.34-7.87-20.06-13-21.2-11-2.12,3.77,34.37,23.62,38.33,59,.49,4.37-2.93,19.65-9.79,50-7.6,33.67-10.37,44.86-14.67,45s-5-11-15.5-24c-9.44-11.69-15.44-10.71-20.38-17-17.53-22.37,18.56-88.26,12.23-93.08-2.87-2.18-13.47,8.65-20.38,23-12.36,25.72-6.16,48.76-12.23,51-6.28,2.37-23.37-18.33-22.83-41,.83-35,43.13-53.67,38.32-68.06-2.39-7.14-15.25-9.82-23.65-5-12,6.87-12.43,27.57-16.3,27-4.5-.63-5.21-28.73-5.71-49-.6-24.11.66-27.77,1.63-30C-7.25,1036.05,3.42,1031.66,24.58,1023.34Z"/><path class="cls-10" d="M-26.88,1000.51c1.48-13.21,4.09-36.6,9-36.9,1.88-.12,2.81,3.26,10.46,17.24,7.77,14.21,8.93,14.61,9.68,14.56,6.7-.4,3.9-37.07,18.69-45.61,7.5-4.32,17.83-.44,19,4.52,1.31,5.44-9,9.34-11.36,22.18-1.75,9.59,1.52,21.16,5.78,22.26s6.84-9,19-23.23c7.66-9,13.54-15.87,22-17,11.37-1.57,23.29,7.78,22.8,13.39-.4,4.64-9.08,4-22.42,13.46-9.81,6.95-18.23,16.59-17.24,18.72,1.86,4,32.19-27.85,59.93-16.94,3.43,1.34,13.19,11.72,32.55,32.43,21.47,23,28.49,30.85,26.76,35.69s-10.27.78-24.33,6.79c-12.67,5.4-14.55,12.47-21.31,15.22-24,9.76-56.84-58.65-63.12-53.72-2.84,2.24.54,18.65,8.12,32.51,13.56,24.78,33.17,27.86,32.23,35.57-1,8-23.56,18-40,7.56-25.38-16-20.82-70.92-33.47-71.8-6.28-.44-13.8,12.64-13.88,24-.12,16.21,14.89,25.66,12.82,29.72-2.41,4.71-23.36-6.65-38.51-14.85-18-9.75-20.12-12.73-21.36-14.77C-31.28,1041.24-29.9,1027.52-26.88,1000.51Z"/><path class="cls-10" d="M1072.43,234.32c-6.26-11.23-17.36-31.13-22.22-28.9-1.87.85-1.55,4.4-3.9,21-2.39,16.89-3.38,17.85-4.13,18.19-6.68,3.07-17.35-31.66-34.9-31.83-8.9-.09-17.55,8.73-16.91,13.85.71,5.61,12.21,3.85,19.19,14.31,5.2,7.82,6.25,20,2.49,23.17s-9.95-4.65-27-11.35c-10.75-4.22-19-7.47-27.69-4.19-11.66,4.41-19.87,19-17.35,23.84,2.09,4,10.32-1,26.79.73,12.11,1.29,23.85,5.72,23.66,8.16-.36,4.57-41.58-8.78-64.66,15.33-2.85,3-8.57,17.4-19.9,46.12-12.56,31.84-16.52,42.61-13.07,46.11s10.31-4.55,26.23-6.31c14.33-1.58,18.74,3.88,26.34,2.91,27-3.44,34-82.37,42-81.11,3.59.58,6.29,17.21,4,33.67-4.18,29.45-22.18,42.29-18.44,48.81,3.86,6.74,29.54,4.23,41.79-13.63,18.91-27.57-5.6-75.05,6.41-82.34,6-3.62,18.09,4.4,22.33,14.69,6,14.66-5.15,30.93-1.65,33.55,4.07,3,20.36-18,32.14-33.21,14-18.05,15-21.86,15.44-24.34C1091.61,269.05,1085.25,257.31,1072.43,234.32Z"/><path class="cls-10" d="M1061.76,309.7c-8.2-5.08-22.72-14.07-25.4-10.66-1,1.31.4,3.56,4.34,15.64,4,12.28,3.64,13.31,3.23,13.84-3.67,4.69-22.89-14.44-35.3-7.64-6.29,3.44-9.41,12.77-7.23,16,2.39,3.48,9.89-2.22,18.33,2.06,6.3,3.2,11.15,11,9.57,14.58s-8.57.79-22.86,3c-9,1.4-15.9,2.47-20.9,8.09-6.72,7.55-7.58,20.58-4.17,22.84,2.82,1.87,6.92-4.74,19.1-10.05,9-3.91,18.72-5.55,19.41-3.84,1.29,3.21-32.23,10.47-40.35,35.75-1,3.13-.16,15.07,1.55,38.82,1.9,26.32,2.74,35.11,6.36,36.11s5.71-7.11,16.33-14.56c9.55-6.71,14.5-4.78,19.52-8.42,17.84-12.93-3.83-68.72,2.17-71,2.73-1,10.24,9.08,14.15,21.05,7,21.43-1.35,37.14,3.48,40,5,3,22.22-8.79,24.82-25.61,4-26-29.26-48.2-23.26-57.83,3-4.78,14.22-4.16,20.67,1.08,9.2,7.47,6.81,22.8,10.16,23.18,3.89.44,8.26-20.1,11.42-35,3.75-17.63,3.17-20.58,2.66-22.43C1087,325.47,1078.53,320.09,1061.76,309.7Z"/><path class="cls-7" d="M1094,616.64c-.54-3.57-3.76-23.87-10.92-24.78-3.07-.39-5.11,3-16.39,12.39-7.19,6-10.78,9-11.7,8.26-2.58-2,19-25,22.62-47.92,7.42-47-59-105.09-121.7-128.9-45.68-17.34-104.33-22.16-110.77-5-6,16.08,40.14,34,94.39,104.11,38.54,49.81,29.23,58.86,71.77,109.9,31,37.2,76.42,80.93,76.46,81-44.87-37.76-69.25-58.09-69.44-57.85-1.94,2.58,53.19,67.9,69.47,57.7,4.47-2.8,6.23-11.42,3.87-13.9-4.85-5.1-31,11.39-29.65,15.7.87,2.68,13.31,3.39,16.38-1.65,6.92-11.37-32.62-53.77-67.09-81-41.6-32.84-110.91-71.2-132.62-49.58-12.6,12.55-6.58,43.73-10.14,43.79-1.88,0-2.78-8.6-8.58-24-4.61-12.2-7-18.35-11.7-20.66-7.33-3.6-16.33,3-25.75,9.09-33.84,22-38.13,15.43-83.47,47.1-14.75,10.3-17,12.92-17.16,16.53-.34,10.08,16.7,14.69,77.23,42.14,25.39,11.52,34.48,16.19,44.47,11.57,18.12-8.39,22.58-39.7,25-38.84,1.12.41-.28,7.16-2.34,22.31-1.86,13.71-2.79,20.56-2.34,22.31,3.15,12.21,18.66,12.21,53.83,28.1,21.49,9.7,25.07,13.93,32,11.56,19.14-6.56,20.63-50.93,23.41-50.4,1.34.26,1.06,10.57,0,20.66-2.4,22.69-6.91,26.76-4.68,33,4.2,11.86,25.06,10,53.83,15.7,44.53,8.8,54,20.66,64.19,19.74a10.35,10.35,0,0,0,5.24-1.56c9.73-6.46,1.54-33.85-1.56-56.19C1083,696.35,1102.76,674.57,1094,616.64Z"/><path class="cls-10" d="M1078.29,962.17c2.14,13.09,5.92,36.28,1,38.45-1.88.83-3.76-2-15.41-12.31-11.84-10.47-13.13-10.4-13.88-10.07-6.72,3,6.24,36.67-6.48,50.47-6.45,7-18,7.31-20.63,3.07-2.84-4.65,6.62-12.34,5.46-25.42-.86-9.77-7.38-19.49-12-18.88s-4.48,11.16-13,29.38c-5.34,11.46-9.43,20.28-17.73,24.65-11.16,5.87-25.88,1.61-26.93-3.9-.87-4.56,8.15-7.3,19.14-21.42,8.09-10.38,14-22.78,12.41-24.41-3-3.06-25.13,38.84-56.41,39.21-3.86,0-16.66-6-42.11-18.18-28.2-13.47-37.53-18.25-37.1-23.51s10.25-4.71,22.93-15.84C889,963.45,889,956,895.12,950.8c21.77-18.53,74.09,33.66,79.12,26.56,2.29-3.22-5.68-17.48-17.22-27.69-20.65-18.26-41.48-13.61-42.65-21.29-1.21-7.93,19.06-26.13,38.69-22.63,30.29,5.41,40.76,59.22,53.89,55.17,6.52-2,10.59-17.32,7.53-28.14-4.35-15.42-22.25-18.59-21.25-23.23,1.16-5.4,25.64-2.72,43.33-.79,21,2.29,24,4.29,25.84,5.75C1071.55,921.84,1073.92,935.38,1078.29,962.17Z"/><path class="cls-10" d="M1095,1031.59c5.84,11.53,16.18,32,12.2,35.86-1.52,1.5-4.13-.46-18.11-5.73-14.23-5.37-15.42-4.81-16-4.21-5.46,5.36,16.59,32.19,8.63,50-4,9.06-14.88,13.77-18.55,10.75-4-3.3,2.63-14.15-2.28-26-3.67-8.88-12.64-15.56-16.85-13.21s-1,12.22-3.64,32.63c-1.68,12.84-3,22.71-9.52,30-8.8,9.78-23.92,11.38-26.52,6.59-2.15-4,5.55-10,11.79-27.49,4.59-12.87,6.56-26.82,4.57-27.75-3.71-1.74-12.35,46.2-41.72,58.47-3.63,1.52-17.48.67-45-1.1-30.52-2-40.71-2.9-41.85-8s8.29-8.34,17-23.67c7.84-13.79,5.63-20.78,9.89-28,15.11-25.76,79.67,3.5,82.35-5.11,1.21-3.91-10.46-14.32-24.33-19.54-24.8-9.35-43.08,3-46.42-3.82-3.46-7,10.33-31.9,29.86-36.07,30.14-6.45,55.72,40.29,66.92,31.47,5.56-4.38,4.92-20.36-1.12-29.4-8.6-12.88-26.4-9.05-26.82-13.81-.48-5.52,23.37-12.33,40.62-17.25,20.47-5.85,23.89-5.11,26-4.43C1076.86,996.14,1083.06,1008,1095,1031.59Z"/><path class="cls-10" d="M179.45-7.46c7.12-2,19.72-5.46,20.76-1.52.4,1.51-1.18,3.09-7.05,12.73-6,9.81-5.95,10.86-5.79,11.47,1.42,5.4,19.92-5.73,27,4.36,3.6,5.12,3.46,14.54,1.1,16.72-2.58,2.38-6.47-5.16-13.55-4-5.29.88-10.7,6.34-10.5,10.11s5.9,3.45,15.49,10c6,4.13,10.69,7.31,12.82,14,2.87,9,.19,21-2.81,22-2.48.79-3.72-6.5-11-15.18-5.38-6.38-11.91-11-12.83-9.65-1.73,2.48,20.27,19.73,19.64,45.15-.08,3.14-3.69,13.65-10.92,34.54-8,23.16-10.83,30.83-13.65,30.58s-2.27-8.25-7.93-18.36c-5.1-9.1-9.1-8.93-11.75-13.83-9.41-17.36,20.1-60.81,16.41-64.78-1.67-1.8-9.57,4.93-15.38,14.5-10.39,17.11-8.44,34-12.61,35s-13.58-15-11.17-31c3.72-24.71,33-34.18,31.17-44.79-.91-5.26-9.06-8.29-15-5.61-8.43,3.81-10.61,18.41-13.09,17.68-2.88-.84-.79-20.78.72-35.2,1.8-17.11,3-19.59,3.79-21.1C157.53-1.26,164.9-3.43,179.45-7.46Z"/><path class="cls-10" d="M167.77-8.48C171.47-15,178-26.59,181.46-24.55c1.32.78,1.28,3.05,3.75,14.13,2.5,11.27,3.23,12,3.76,12.32,4.72,2.81,10.21-18.45,22.18-16.42,6.08,1,12.45,7.82,12.27,11.07-.19,3.56-8.14,1-12.36,7-3.16,4.44-3.24,12.23-.51,14.75s6.56-1.8,17.88-4.07c7.12-1.43,12.6-2.53,18.69.66,8.19,4.29,14.56,14.78,13.08,17.61-1.22,2.36-7.1-1.92-18.26-2.79-8.2-.65-16,.8-15.74,2.41.48,3,28-.63,45,17.86,2.1,2.29,6.75,12.36,16,32.41,10.22,22.23,13.48,29.71,11.3,31.57s-7.27-4.22-18.23-7.3c-9.87-2.78-12.61.22-17.85-1.33-18.6-5.54-27.49-57.7-32.84-57.85-2.42-.07-3.41,10.41-1,21.4,4.37,19.65,17.33,30.2,15.12,34s-20-.86-29.25-14c-14.34-20.23-.06-48.09-8.64-54.3-4.26-3.08-12.12.65-14.49,6.82-3.36,8.79,5.12,20.74,2.86,22-2.62,1.48-14.84-14.19-23.66-25.51-10.48-13.45-11.37-16-11.81-17.72C156.47,11.75,160.21,4.89,167.77-8.48Z"/></svg>
