<svg id="Layer_1" data-name="Layer 1" xmlns="http://www.w3.org/2000/svg" xmlns:xlink="http://www.w3.org/1999/xlink" width="1080" height="1920" viewBox="0 0 1080 1920"><defs><style>.cls-1{fill:#544436;}.cls-2,.cls-4{fill:#a67c52;}.cls-11,.cls-14,.cls-2,.cls-21,.cls-7{stroke:#000;}.cls-11,.cls-14,.cls-15,.cls-19,.cls-2,.cls-21,.cls-7{stroke-miterlimit:10;}.cls-14,.cls-19,.cls-2{stroke-width:0.25px;}.cls-3{fill:#f2e7ef;}.cls-5{fill:#c4a686;}.cls-6{fill:url(#linear-gradient);}.cls-17,.cls-8{fill:#fff;}.cls-9{fill:#8c6239;}.cls-10{fill:url(#linear-gradient-2);}.cls-11,.cls-15,.cls-19,.cls-21{fill:none;}.cls-11{stroke-width:4px;}.cls-12{fill:#c69c6d;}.cls-13{fill:#8c623a;}.cls-15{stroke:#1d1d1b;stroke-linecap:round;}.cls-15,.cls-21{stroke-width:0.1px;}.cls-16{fill:#231905;}.cls-17{opacity:0.78;}.cls-18{fill:#e2c413;}.cls-19{stroke:#f3d879;}.cls-20{fill:#513414;}.cls-22{fill:#4f3419;}</style><linearGradient id="linear-gradient" x1="-318.37" y1="1039.98" x2="-346.33" y2="1012.02" gradientTransform="translate(371.98 -312.97) rotate(-20.11)" gradientUnits="userSpaceOnUse"><stop offset="0" stop-color="#fff"/><stop offset="0.1" stop-color="#fff4f9"/><stop offset="0.27" stop-color="#ffd8e8"/><stop offset="0.5" stop-color="#ffaace"/><stop offset="0.55" stop-color="#ff9fc7"/></linearGradient><linearGradient id="linear-gradient-2" x1="1834.35" y1="1039.98" x2="1806.39" y2="1012.02" gradientTransform="matrix(-0.94, 0.34, 0.34, 0.94, 1900.22, -872.64)" xlink:href="#linear-gradient"/></defs><title>spilside_forgrund</title><path class="cls-1" d="M455.07,692.5c.46-6.65,2.64-11.42,4.78-13.23.55-.46,1.51,2.32.68,4.45a48.64,48.64,0,0,0-1.78,4.84c-1,3.09-1.54,10.84.8,13.05,2.05,1.94-.13,4.93-1.44,3.88C456.36,704.08,454.57,699.74,455.07,692.5Z"/><path class="cls-1" d="M458.08,700.24c-.89,6.4.7,11,2.89,12.8.56.45,2.33-2.2,1.79-4.26a36,36,0,0,1-1.1-4.68c-.48-3,.51-10.45,3.82-12.53,2.89-1.82.91-4.74-.9-3.75C462.16,689.14,459.06,693.27,458.08,700.24Z"/><path class="cls-1" d="M450.87,705.06c-6.43-1.24-11.7.2-14.16,2.41-.63.57,1.65,2.54,4,2.07a37.58,37.58,0,0,1,5.19-.92c3.26-.36,10.76,1,12,4.58,1.1,3.11,4.69,1.18,4.16-.76C461.33,709.85,457.87,706.41,450.87,705.06Z"/><ellipse class="cls-1" cx="451.9" cy="698.84" rx="2.3" ry="15.03" transform="translate(-352.18 484.27) rotate(-42.17)"/><path class="cls-1" d="M449.47,702.43c6.46,2.86,10.17,6.45,10.93,8.9.19.63-3.08.38-4.81-1.1a46.34,46.34,0,0,0-4-3.28c-2.64-2-10.13-5.32-13.52-4.21-2.95,1-4.88-2-3.18-2.64C437.19,699.17,442.44,699.31,449.47,702.43Z"/><path d="M519.76,13.85c9.65,0,9.66-15,0-15s-9.67,15,0,15Z"/><rect class="cls-2" x="485.54" y="799.8" width="13.1" height="24.7"/><ellipse class="cls-3" cx="484" cy="751" rx="47" ry="51"/><path class="cls-4" d="M544.86,919.93a52.42,52.42,0,0,1-15.21,19c9-18.16,4.69-33.95-1.69-42.26-6.67-8.72-15.39-10-21.8-8.56a15.62,15.62,0,0,0-2.67-5.33c5.73-3.54,13.9-5.78,23.17-.59C535.51,887.13,545.46,899.53,544.86,919.93Z"/><path class="cls-2" d="M524.84,932.75a15.87,15.87,0,0,1,3.51-8.52,15.5,15.5,0,0,1,2.57,8.77c-.27,4.78-1.84,8.6-3.52,8.53S524.58,937.53,524.84,932.75Z"/><path class="cls-4" d="M539.73,923.71a16,16,0,0,1-6-7.49,20.57,20.57,0,0,1,10,2.78c4.43,2.83,7.13,6.18,6,7.48S544.17,926.54,539.73,923.71Z"/><path class="cls-4" d="M537.48,929.09A14.08,14.08,0,0,1,536.3,920s5,2.26,7.29,6.59,2.88,8.4,1.19,9.09S539.82,933.41,537.48,929.09Z"/><ellipse class="cls-5" cx="482.83" cy="752.35" rx="47" ry="51" transform="translate(-229.27 211.92) rotate(-20.11)"/><path class="cls-4" d="M507.6,839.51a11.43,11.43,0,0,0,1.79-4.26c13.15,3.71,34.33-10.47,30.1-41.61A53.07,53.07,0,0,1,551,815.39C542.11,845.17,518.91,847.27,507.6,839.51Z"/><path class="cls-4" d="M519.67,707a25.45,25.45,0,0,0-6.65,3.63c-13.4-11.15-31.45-15.22-48.1-9.12s-27.8,20.86-30.83,38a25.22,25.22,0,0,0-7.42,1.52c-14.12,5.17-21.06,21.68-15.49,36.89s21.53,23.33,35.65,18.15a25.16,25.16,0,0,0,6.65-3.63c13.4,11.15,31.45,15.22,48.1,9.13s27.8-20.87,30.83-38a25.55,25.55,0,0,0,7.42-1.52c14.12-5.17,21.06-21.69,15.49-36.89S533.79,701.78,519.67,707Zm7.53,50.57c5.42,14.8-6.41,32.73-26.42,40.06s-40.62,1.27-46-13.53a23.13,23.13,0,0,1,.07-15.55,23.27,23.27,0,0,1-15-14.45c-4.32-11.8,1.07-24.63,12-28.64,9.19-3.36,19.37.51,25,8.8-1.07-10,4.2-19.49,13.38-22.85,11-4,23.36,2.3,27.69,14.1a23.39,23.39,0,0,1-1.55,19.78A23.29,23.29,0,0,1,527.2,757.52Z"/><path class="cls-6" d="M442.72,767.59c-5.11-1.75-9.5-6.65-7.23.32,1.05,3.24,6.61,9.6,8.91,6.56,2.09-2.75,4,5.1,1.53,11.15-1.68,4.13-7,6.75-9.37,7.23-7.87,1.64-16.91-4.1-21-15.31S414.2,755,421.7,752.27c5.51-2,12.05,1.15,16.76,7.41C440.17,761.94,445,768.36,442.72,767.59Z"/><ellipse class="cls-7" cx="481.47" cy="759.12" rx="0.93" ry="1.33" transform="translate(-231.68 211.86) rotate(-20.11)"/><ellipse cx="463.92" cy="751.12" rx="9.7" ry="10.44" transform="matrix(0.94, -0.34, 0.34, 0.94, -230, 205.34)"/><ellipse cx="495.68" cy="738.78" rx="9.7" ry="10.44" transform="translate(-223.82 215.51) rotate(-20.11)"/><ellipse class="cls-8" cx="459.21" cy="749.06" rx="2.68" ry="2.89" transform="translate(-229.58 203.6) rotate(-20.11)"/><ellipse class="cls-8" cx="492.16" cy="736.99" rx="2.68" ry="2.89" transform="translate(-223.42 214.19) rotate(-20.11)"/><path class="cls-9" d="M444.08,747.15c1.16,2.32,1-4,3.18-6.94,2.74-3.75.33-.45.75-1,2.82-3.86,10.44-4.71,6.27-6a8.58,8.58,0,0,0-9.28,3.49A10.2,10.2,0,0,0,444.08,747.15Z"/><path class="cls-9" d="M507.2,723.49c.85,2.46-3.53-2-7.16-2.49l-1.24-.16c-4.71-.62-10.6,4.35-8.63.41a8.57,8.57,0,0,1,8.91-4.34A10,10,0,0,1,507.2,723.49Z"/><path class="cls-10" d="M522.62,738.33c2.78-4.64,3-11.22,5.74-4.43,1.28,3.15,1.15,11.59-2.58,10.76-3.37-.75.24,6.48,6,9.51,3.95,2.06,9.73.61,11.82-.53,7.07-3.84,10.26-14.06,6.16-25.27s-13.52-18.06-21-15.31c-5.51,2-8.46,8.66-8,16.48C520.93,732.37,521.39,740.39,522.62,738.33Z"/><ellipse class="cls-7" cx="486.6" cy="757.24" rx="0.83" ry="1.33" transform="translate(-230.72 213.52) rotate(-20.11)"/><path class="cls-11" d="M467.61,781.93c6.35,2.59,29.92,15.24,44.09-15.48"/><ellipse class="cls-4" cx="493.5" cy="849.5" rx="29" ry="44"/><ellipse class="cls-12" cx="509.5" cy="854" rx="11.5" ry="23"/><path class="cls-4" d="M532.15,800.49a29.83,29.83,0,0,0,2.51,3.51,2.12,2.12,0,0,0-.11.21c-1.86,3.93.84,9.1,6,11.56s10.91,1.27,12.77-2.66a2.72,2.72,0,0,0,.11-.25c1.29-.54,2.65-1.17,4-1.88,5.83-3,9.81-6.31,8.89-7.37s-6.4.52-12.23,3.54l-.8.42-.08-.17c.61-.42,1.22-.87,1.84-1.34,5-3.85,8.18-7.75,7.1-8.71s-6,1.38-11,5.23l-1,.8-.17-.14c.3-.48.59-1,.88-1.5,3-5.25,4.22-10.11,2.84-10.83s-4.91,3-7.87,8.2c-.27.48-.52,1-.77,1.43,0-.4,0-.81,0-1.22.07-6.26-1.18-11.59-2.81-11.89s-3,4.52-3.09,10.78c0,.81,0,1.6,0,2.37l-.16,0c-.3-.59-.64-1.2-1-1.81-2.73-4.47-6.27-7.71-7.91-7.25S529.42,796,532.15,800.49Z"/><path d="M506.71,3.38c-22.69,53.24-11.5,109.92,0,164.44,6.12,29,12.51,58.06,13.78,87.72,1.35,31.72-3.08,63.26-6.24,94.74-3.18,31.72-3.9,63,.38,94.62,4.23,31.25,11.68,61.9,17.54,92.85,11.92,62.94,9.45,125.76,3.69,189.23-5.73,63-13.46,126.51-7.43,189.83,3,31.24,9.91,61.83,15.24,92.7,5.68,33,7.57,65.44,3.24,98.69-4.16,31.88-11.44,63.24-14.35,95.3s-2.47,64.5-.69,96.7c3.61,65.27,12.06,130.14,11,195.63-2.13,128.88-30.06,256.57-22.85,385.73q1.34,23.94,4.41,47.72c1.21,9.45,16.23,9.57,15,0-16.42-128.06,8.77-255.82,16.45-383.52,3.87-64.2.19-127.49-5.09-191.48-5.4-65.34-8.25-129.81,2.85-194.74,5.3-31,11.47-62.1,11-93.66-.46-31.37-6.75-62.29-12.56-93-6-31.75-10.27-63.34-10.77-95.7-.47-31.4,1.62-62.77,4.34-94,5.45-62.5,13.63-125.26,9.25-188.1-4.34-62.3-26-122.14-28.41-184.58-1.2-31.74,3.26-63.27,6.39-94.77,3-30.27,3.89-60.19-.24-90.4C524.89,168.41,503.41,111.57,509,53.53A144.05,144.05,0,0,1,519.66,11c3.75-8.78-9.17-16.43-12.95-7.57Z"/><path class="cls-4" d="M555.76,855.63a32.87,32.87,0,0,0,.39,6.24c-23.43,2.44-48.15-2.44-70.74-14.61A102.29,102.29,0,0,1,489,828.13C508.91,844.37,532.29,853.7,555.76,855.63Z"/><path class="cls-4" d="M557.4,845.77a24.19,24.19,0,0,0-2.2,3.12,1.46,1.46,0,0,0-.22,0c-4.15-.42-7.75,3.33-8,8.39s2.84,9.49,7,9.91l.26,0c.95.92,2,1.88,3.13,2.83,4.79,4,9.15,6.38,9.76,5.3s-2.79-5.2-7.58-9.21l-.66-.54.12-.11c.59.38,1.21.76,1.85,1.14,5.23,3.08,9.83,4.61,10.29,3.43s-3.41-4.63-8.63-7.7c-.36-.22-.72-.42-1.07-.62l.06-.18c.54.11,1.08.21,1.64.3,5.73.95,10.48.61,10.62-.76s-4.39-3.25-10.12-4.2c-.52-.09-1-.17-1.54-.23.36-.11.73-.21,1.09-.33,5.57-1.75,9.83-4.34,9.51-5.79s-5.1-1.21-10.67.54c-.72.22-1.41.46-2.08.71l-.09-.12q.61-.63,1.23-1.38c3-3.57,4.55-7.47,3.54-8.71S560.36,842.2,557.4,845.77Z"/><path class="cls-4" d="M528.21,949.65a44.14,44.14,0,0,1-13,5.68c10.67-16.46,9.69-34,4.45-45.23-5.3-11.6-14.86-16.86-22.57-17.64a24.37,24.37,0,0,0-1.4-8.39c8.44-.66,19.83,3,28,14.64C531.7,909.91,536.5,929,528.21,949.65Z"/><path class="cls-4" d="M516.14,951.47a12.78,12.78,0,0,1,6.52-4.64,12.72,12.72,0,0,1-1.62,7.84c-2.25,3.45-5.17,5.52-6.52,4.64S513.89,954.92,516.14,951.47Z"/><path class="cls-4" d="M519.69,955a13.23,13.23,0,0,1,2.48-7.53,13.21,13.21,0,0,1,3,7.36c.14,4.11-1,7.48-2.48,7.53S519.82,959.08,519.69,955Z"/><path class="cls-4" d="M525.92,954.9a12.9,12.9,0,0,1-3.36-7.22,12.88,12.88,0,0,1,7.3,3.18c2.95,2.87,4.45,6.11,3.36,7.23S528.86,957.78,525.92,954.9Z"/><ellipse class="cls-13" cx="463.66" cy="262.54" rx="38.34" ry="44.72"/><ellipse class="cls-14" cx="482.19" cy="228.9" rx="1.25" ry="1.23"/><path class="cls-14" d="M485.49,244.14a2.79,2.79,0,0,1,0,1.87c-.23.59-.51.54-1.41,1.5s-.87,1.26-1.41,1.5a3.29,3.29,0,0,1-1.75,0c-1.35-.17-2-.25-2.47-.75s-.16-.76-.7-1.5-1.18-.78-1.41-1.5c-.06-.21,0-.2,0-1.12a15.26,15.26,0,0,1,0-1.88,2.51,2.51,0,0,1,.71-1.5c.71-.61,1.41-.07,2.11-.75.32-.31.32-.58.7-.75a1.49,1.49,0,0,1,1.06,0A2.44,2.44,0,0,1,482,240c.36.4.39.63.7.75s.37,0,.71,0a1.64,1.64,0,0,1,1.4.75c.25.5-.19.79,0,1.5S485.24,243.55,485.49,244.14Z"/><path class="cls-15" d="M480.94,268.7c4.76-7.45,4.36-15.72,3.74-24.34-.21-3,.83-6-.27-9s-3.91-5.82-8.54-7.26"/><path class="cls-14" d="M482.14,227c3.3,2.35,4.26,7.66,3.72,8.09-.1.07-.18,0-.5,0-.76.11-.9.79-1.41.82s-.9-1-1.41-.82c-.32.1-.27.54-.7.82a1.56,1.56,0,0,1-1.41,0c-.76-.29-.83-.78-1.4-.82s-.67.41-1,.29c-.55-.18-.35-1.2-1.07-1.93-.54-.54-.85-.19-1.41-.82a2.65,2.65,0,0,1-.7-1.64c0-.4.1-.54,0-.82-.17-.43-.55-.39-.71-.82a2,2,0,0,1,0-.82c.06-.55.15-1.11.18-1.24C474.56,226.22,478.83,224.59,482.14,227Z"/><path class="cls-14" d="M474.23,237.51c-.11.38-.54.34-.7.83s.06.5,0,.82c-.13.7-1.12.48-1.84,1.38-.05.07-.35.68-1,1.9a1.57,1.57,0,0,1-.71.82,1.05,1.05,0,0,1-.7,0,3,3,0,0,1-1.41-.82c-.42-.4-.33-.48-.7-.82s-.69-.38-1.06-.57a3.5,3.5,0,0,1-.35-.25h0c-.35-1.49-.7-1.64-.7-1.64-.26-.12-.37.1-.7,0s-.64-.66-.71-.82a2,2,0,0,1,0-1.65c.38-.6,1.07-.25,1.41-.82s-.06-.83,0-1.64a2.92,2.92,0,0,1,1.41-2.46c.55-.19.77.25,1.4,0s.56-.67,1.06-.82a1.78,1.78,0,0,1,1.76.82c.48.66.22,1.09.7,1.64s.88.25,1.41.82c.36.4.2.59.7,1.64S474.35,237.14,474.23,237.51Z"/><path class="cls-16" d="M487.13,243.31a3.31,3.31,0,0,1,0,2.19c-.26.68-.57.63-1.58,1.75s-1,1.47-1.59,1.75a3.87,3.87,0,0,1-2,0c-1.51-.21-2.27-.31-2.77-.88s-.19-.89-.8-1.75-1.33-.91-1.58-1.74c-.08-.25,0-.24,0-1.32a14.41,14.41,0,0,1,0-2.18,3,3,0,0,1,.79-1.75c.8-.71,1.59-.07,2.38-.87.36-.37.37-.68.79-.88a1.62,1.62,0,0,1,1.19,0,3,3,0,0,1,1.2.88c.4.46.44.73.79.87s.41,0,.79,0a1.89,1.89,0,0,1,1.59.88c.27.57-.22.91,0,1.74C486.51,242.65,486.86,242.63,487.13,243.31Z"/><path class="cls-16" d="M482.14,226.13c3.3,2.34,4.26,7.65,3.72,8.09-.1.07-.18,0-.5,0-.76.11-.9.79-1.41.82s-.9-1-1.41-.82c-.32.09-.27.54-.7.82a1.56,1.56,0,0,1-1.41,0c-.76-.29-.83-.79-1.4-.82s-.67.41-1,.29c-.55-.19-.35-1.2-1.07-1.93-.54-.54-.85-.19-1.41-.82a2.65,2.65,0,0,1-.7-1.64c0-.4.1-.54,0-.82-.17-.43-.55-.39-.71-.82a2,2,0,0,1,0-.82c.06-.55.15-1.11.18-1.25C474.56,225.4,478.83,223.77,482.14,226.13Z"/><path class="cls-16" d="M475.07,236.69c-.12.38-.54.33-.71.82s.06.51,0,.83c-.13.7-1.11.47-1.83,1.38,0,.07-.36.68-1,1.9a1.55,1.55,0,0,1-.7.82,1.15,1.15,0,0,1-.71,0,3,3,0,0,1-1.4-.82c-.43-.4-.34-.48-.71-.82s-.69-.38-1-.57a2.56,2.56,0,0,1-.35-.25h0c-.36-1.49-.71-1.64-.71-1.64-.26-.12-.36.1-.7,0a1.36,1.36,0,0,1-.7-.83,2,2,0,0,1,0-1.64c.38-.6,1.07-.25,1.4-.82s-.06-.83,0-1.64a2.94,2.94,0,0,1,1.41-2.46c.55-.19.78.25,1.41,0s.55-.67,1.05-.82a1.78,1.78,0,0,1,1.76.82c.48.66.22,1.09.7,1.64s.89.25,1.41.82c.36.4.2.58.7,1.64S475.18,236.32,475.07,236.69Z"/><path class="cls-15" d="M446.15,223.91a1.5,1.5,0,0,0-.07-1.29,2.94,2.94,0,0,0-.91-1,3.5,3.5,0,0,0-2.57-.75"/><path class="cls-15" d="M447.36,222.75a6.36,6.36,0,0,1-.24-5.21"/><path class="cls-15" d="M449.45,221.59a6.68,6.68,0,0,1-.27-1.88c0-.29.13-.67.42-.64"/><path class="cls-15" d="M491.72,230.76a2.48,2.48,0,0,1-.29,1.39c.36,0,.9.58,1.26.48"/><path class="cls-15" d="M490.35,230.9a.68.68,0,0,0,.57-.4,2,2,0,0,0,.14-.7"/><path class="cls-15" d="M493.57,288.1a29.48,29.48,0,0,0,3.74.4"/><path class="cls-15" d="M493.18,289.68a1.73,1.73,0,0,0,1.59,1.2"/><path class="cls-15" d="M492,291.58l.14,1.78"/><path class="cls-15" d="M432.88,291.36a1.77,1.77,0,0,0,1.65-1.34"/><path class="cls-15" d="M433.35,293.23a1.62,1.62,0,0,1,1.07-1.1,4.7,4.7,0,0,1,1.59-.21"/><path class="cls-15" d="M453.47,254.47a1.82,1.82,0,0,1,.19-1.8"/><path class="cls-15" d="M486.75,261.69c.2-.14.38.2.37.44v1.43a1.85,1.85,0,0,1,.25-.75.57.57,0,0,1,.6-.31"/><path class="cls-15" d="M489.34,277c-.89.29-1,1.15-1,1.92,0-.75,0-1.62,0-2.37,0-.3.05-.64.31-.79"/><path class="cls-15" d="M433.58,257.73a2.09,2.09,0,0,0-.72-2.06c-.56-.53-1.26-.89-1.86-1.38"/><path class="cls-15" d="M433.41,252.53l1,3.46c-.17-.92.62-1.58.92-2.47"/><path class="cls-15" d="M454.5,289a3.27,3.27,0,0,1,2.29,3.18c0-.48,0-1.37,0-1.85a.79.79,0,0,1,.07-.4.25.25,0,0,1,.36-.07"/><path class="cls-15" d="M468.71,308.48v-3.06a12.51,12.51,0,0,1,1.37,2.14"/><path class="cls-15" d="M451.87,224.52l-7.17,7.08c-2.48,2.45-5.06,5.06-5.95,8.4-.43,1.6-.45,3.28-.73,4.91-.31,1.8-.93,3.53-1.4,5.29a32.4,32.4,0,0,0,1.49,20.92c1.18,2.74,2.73,5.34,3.62,8.18.55,1.78.83,3.64,1.38,5.42,2,6.65,7.53,11.64,12.78,16.29"/><path class="cls-15" d="M456.12,225.63c-4.76,7.63-7,16.6-7.61,25.53s.15,17.89,1,26.8"/><path class="cls-15" d="M472.28,298a34.25,34.25,0,0,0,8-5.54,30.18,30.18,0,0,0,5-7.56,41.71,41.71,0,0,0,4-10.25,49.07,49.07,0,0,0,.76-8.9l.43-17"/><path class="cls-15" d="M489,233.63c3,2,4.29,5.61,5.37,9,2.6,8.14,5.21,16.75,3.36,25.08"/><path class="cls-17" d="M432.56,243.26l1.78-2.53c3.65-5.12,5-8.79,10-12.77,1.11-.9,2.44-1.62,3.19-2.8a1.38,1.38,0,0,0,.07-.71,1.7,1.7,0,0,0-.73,0c-3.76,1.33-6.45,5-8.93,7.87C436.74,233.61,432.56,243.26,432.56,243.26Z"/><path class="cls-16" d="M467.6,307c0,.3-1.31,1.1-2.92,1.1s-2.92-.8-2.92-1.1,1.3-.55,2.92-.55S467.6,306.69,467.6,307Z"/><path class="cls-16" d="M460.93,218.11c0-.3,1.29-1.1,2.91-1.11s2.92.77,2.92,1.07-1.3.56-2.91.57S460.93,218.42,460.93,218.11Z"/><path class="cls-18" d="M635.09,512.09c-.2,6.73-39.52,18.47-67.59,1-27.44-16.87-26.58-37.87-22.18-38.55,5.14-2,13.76,13.25,38.16,24.18C607.55,510.17,636.87,506,635.09,512.09Z"/><path class="cls-19" d="M635.09,512.09c-.2,6.73-39.52,18.47-67.59,1-27.44-16.87-26.58-37.87-22.18-38.55,5.14-2,13.76,13.25,38.16,24.18C607.55,510.17,636.87,506,635.09,512.09Z"/><path class="cls-20" d="M635.11,511.05l-.06,1.84a1,1,0,0,1-.73.91l-.65.13a.56.56,0,0,1-.68-.63l.06-1.83a1,1,0,0,1,.73-.91l.65-.14A.57.57,0,0,1,635.11,511.05Z"/><path class="cls-21" d="M554.64,484.91c3.26,6.5,10.56,18.6,24.65,26,16.47,8.63,32.94,5.94,40.08,4.27"/><path class="cls-21" d="M561.09,489.73a58,58,0,0,0,49.46,22.14"/><path class="cls-21" d="M560.77,501.31a47.06,47.06,0,0,0,4.92,5.51,48,48,0,0,0,9.61,6.92,57.92,57.92,0,0,0,20.27,6.39"/><path class="cls-22" d="M544.31,468.12l2.08-.23a.42.42,0,0,1,.46.51,5.85,5.85,0,0,0-1,2.43,4.05,4.05,0,0,0,.44,2.68.79.79,0,0,1-.2.42.68.68,0,0,1-.39.21l-2.08.22a.42.42,0,0,1-.46-.51,5.28,5.28,0,0,1-.29-2.44,7.11,7.11,0,0,1,.86-2.67S543.76,468.5,544.31,468.12Z"/><path class="cls-4" d="M475.45,880.17c-5.09-.65-9.52,1.6-13.19,5-5.21,4.83-9,10.39-15.23,14.19a42.66,42.66,0,0,1-42.67.78c-1.7-.92-3.22,1.67-1.52,2.59a45.18,45.18,0,0,0,53.58-6.86c5.53-5.35,10.13-13.84,19-12.71,1.91.24,1.89-2.76,0-3Z"/></svg>
