<svg id="Layer_1" data-name="Layer 1" xmlns="http://www.w3.org/2000/svg" width="123" height="43" viewBox="0 0 123 43"><defs><style>.cls-1{fill:none;}</style></defs><title>tid</title><rect class="cls-1" x="-0.44" y="0.2" width="123.78" height="42.8"/><path d="M15.66,22.06a20,20,0,0,0-.29-2.71A3.61,3.61,0,0,0,14.88,18a1.76,1.76,0,0,0-.69-.54c-.6-.23-.9-.51-.9-.83s.11-.33.35-.42q1.21-.4,1.92-.72l1.1-.49c.26-.13.47-.22.61-.28a1.42,1.42,0,0,1,.45-.08,2.52,2.52,0,0,1,.77.15c.3.09.45.21.45.33a1.89,1.89,0,0,1-.1.56,8.55,8.55,0,0,0-.19,1.16c-.07.54-.14,1.31-.2,2.32s-.1,2.36-.1,4.09c0,1.88,0,3.46.06,4.75s.09,2.39.14,3.28a1.24,1.24,0,0,0,.15.66,1.6,1.6,0,0,0,.34.38l.33.26a.33.33,0,0,1,.16.27c0,.22-.24.38-.71.5a7.72,7.72,0,0,1-1.84.17,8.07,8.07,0,0,1-1.81-.12q-.39-.14-.39-.39a.58.58,0,0,1,.12-.27,3.36,3.36,0,0,1,.47-.53.53.53,0,0,0,.17-.27,4.21,4.21,0,0,0,.12-.74c0-.37.07-.91.08-1.63s0-1.68,0-2.89C15.76,24.75,15.73,23.21,15.66,22.06Z"/><path d="M26.56,31.35a6.34,6.34,0,0,1,.82-.65,9.28,9.28,0,0,1,.92-.55,2.15,2.15,0,0,1,.61-.22.66.66,0,0,1,.36.11,4,4,0,0,1,.47.47q.66.73.84,1a.65.65,0,0,1,.18.38,1,1,0,0,1-.2.51,2.77,2.77,0,0,1-.49.55,2.85,2.85,0,0,1-.67.43,1.52,1.52,0,0,1-.68.17,2,2,0,0,1-.77-.19,10.44,10.44,0,0,1-1.43-.83.55.55,0,0,1-.24-.26A.67.67,0,0,1,26.2,32,.94.94,0,0,1,26.56,31.35Zm.66-8.62,1.5-.7a2.35,2.35,0,0,1,.74-.16,1.51,1.51,0,0,1,.59.14,3.36,3.36,0,0,1,.67.37,3.55,3.55,0,0,1,.53.45.64.64,0,0,1,.22.41,1.15,1.15,0,0,1-.34.61,5.23,5.23,0,0,1-.8.74,8.3,8.3,0,0,1-.95.6,1.62,1.62,0,0,1-.78.26,1.07,1.07,0,0,1-.45-.24,3.87,3.87,0,0,1-.65-.58c-.21-.22-.4-.44-.57-.65a1,1,0,0,1-.26-.45A.85.85,0,0,1,27.22,22.73Z"/><path d="M39.65,22.06a20,20,0,0,0-.29-2.71A3.61,3.61,0,0,0,38.87,18a1.76,1.76,0,0,0-.69-.54c-.6-.23-.9-.51-.9-.83s.11-.33.35-.42q1.21-.4,1.92-.72c.48-.2.84-.37,1.1-.49l.61-.28a1.42,1.42,0,0,1,.45-.08,2.52,2.52,0,0,1,.77.15c.3.09.45.21.45.33a1.89,1.89,0,0,1-.1.56,8.55,8.55,0,0,0-.19,1.16c-.07.54-.13,1.31-.2,2.32s-.1,2.36-.1,4.09c0,1.88,0,3.46.06,4.75s.09,2.39.14,3.28a1.15,1.15,0,0,0,.16.66,1.39,1.39,0,0,0,.33.38l.33.26a.33.33,0,0,1,.16.27c0,.22-.23.38-.71.5a7.72,7.72,0,0,1-1.84.17,8.13,8.13,0,0,1-1.81-.12q-.39-.14-.39-.39a.58.58,0,0,1,.12-.27,4,4,0,0,1,.47-.53.54.54,0,0,0,.18-.27,6.15,6.15,0,0,0,.11-.74c0-.37.07-.91.08-1.63s0-1.68,0-2.89C39.75,24.75,39.72,23.21,39.65,22.06Z"/><path d="M51.79,20.36a10,10,0,0,1,2.12-3.25,6.72,6.72,0,0,1,2.63-1.64A8,8,0,0,1,58.91,15a7.68,7.68,0,0,1,3.4.73,8.19,8.19,0,0,1,2.59,2,8.67,8.67,0,0,1,1.65,2.93,11.13,11.13,0,0,1,.57,3.6,8.17,8.17,0,0,1-.2,1.58,10.41,10.41,0,0,1-.63,2,11.32,11.32,0,0,1-1.13,2.05,8.51,8.51,0,0,1-1.73,1.82A9.1,9.1,0,0,1,61.07,33a8.54,8.54,0,0,1-3.06.51,5.31,5.31,0,0,1-2.75-.76A9.18,9.18,0,0,1,53,30.81a9.4,9.4,0,0,1-1.53-2.56,7.07,7.07,0,0,1-.55-2.61A13.45,13.45,0,0,1,51.79,20.36Zm2,4.71A9.24,9.24,0,0,0,54,26.46a11.59,11.59,0,0,0,.52,1.66,6.11,6.11,0,0,0,.92,1.63A4.58,4.58,0,0,0,56.87,31a4.32,4.32,0,0,0,2.12.48,4.45,4.45,0,0,0,2.55-.69A5.18,5.18,0,0,0,63.17,29,7.74,7.74,0,0,0,64,26.6,14.14,14.14,0,0,0,64.29,24a9.43,9.43,0,0,0-1.24-4.34,6.24,6.24,0,0,0-1.72-1.94,4.28,4.28,0,0,0-2.61-.8,3.8,3.8,0,0,0-2,.58A5.39,5.39,0,0,0,55.1,19a7.77,7.77,0,0,0-1,2.35,11.88,11.88,0,0,0-.35,2.93C53.73,24.41,53.74,24.66,53.77,25.07Z"/><path d="M73.83,31.35a6.48,6.48,0,0,1,.83-.65,8.26,8.26,0,0,1,.92-.55,2,2,0,0,1,.61-.22.61.61,0,0,1,.35.11,3.33,3.33,0,0,1,.47.47c.45.49.73.81.85,1a.62.62,0,0,1,.17.38.92.92,0,0,1-.19.51,3.12,3.12,0,0,1-.49.55,3.07,3.07,0,0,1-.67.43,1.59,1.59,0,0,1-.69.17,2,2,0,0,1-.76-.19,11,11,0,0,1-1.44-.83.58.58,0,0,1-.23-.26.55.55,0,0,1-.08-.28A1,1,0,0,1,73.83,31.35Zm.67-8.62L76,22a2.4,2.4,0,0,1,.75-.16,1.55,1.55,0,0,1,.59.14,3.66,3.66,0,0,1,.67.37,5,5,0,0,1,.53.45.62.62,0,0,1,.21.41,1.11,1.11,0,0,1-.33.61,5.32,5.32,0,0,1-.81.74,8.2,8.2,0,0,1-.94.6,1.65,1.65,0,0,1-.78.26,1.14,1.14,0,0,1-.46-.24,3.82,3.82,0,0,1-.64-.58c-.21-.22-.4-.44-.57-.65a1,1,0,0,1-.26-.45A.84.84,0,0,1,74.5,22.73Z"/><path d="M86,20.36a10,10,0,0,1,2.12-3.25,6.72,6.72,0,0,1,2.63-1.64A8,8,0,0,1,93.11,15a7.68,7.68,0,0,1,3.4.73,8.19,8.19,0,0,1,2.59,2,8.67,8.67,0,0,1,1.65,2.93,11.13,11.13,0,0,1,.57,3.6,8.17,8.17,0,0,1-.2,1.58,10.41,10.41,0,0,1-.63,2,11.32,11.32,0,0,1-1.13,2.05,8.51,8.51,0,0,1-1.73,1.82A9.1,9.1,0,0,1,95.27,33a8.54,8.54,0,0,1-3.06.51,5.31,5.31,0,0,1-2.75-.76,9.18,9.18,0,0,1-2.28-1.94,9.4,9.4,0,0,1-1.53-2.56,7.28,7.28,0,0,1-.55-2.61A13.45,13.45,0,0,1,86,20.36Zm2,4.71a9.24,9.24,0,0,0,.21,1.39,11.59,11.59,0,0,0,.52,1.66,6.11,6.11,0,0,0,.92,1.63A4.58,4.58,0,0,0,91.07,31a4.32,4.32,0,0,0,2.12.48,4.45,4.45,0,0,0,2.55-.69A5.18,5.18,0,0,0,97.37,29a7.74,7.74,0,0,0,.87-2.42A14.14,14.14,0,0,0,98.49,24a9.43,9.43,0,0,0-1.24-4.34,6.24,6.24,0,0,0-1.72-1.94,4.28,4.28,0,0,0-2.61-.8,3.8,3.8,0,0,0-2,.58A5.39,5.39,0,0,0,89.3,19a7.77,7.77,0,0,0-1,2.35,11.88,11.88,0,0,0-.35,2.93C87.93,24.41,87.94,24.66,88,25.07Z"/><path d="M110.21,22.06a20,20,0,0,0-.29-2.71,3.61,3.61,0,0,0-.49-1.36,1.76,1.76,0,0,0-.69-.54c-.6-.23-.9-.51-.9-.83s.11-.33.35-.42q1.22-.4,1.92-.72l1.1-.49c.26-.13.47-.22.61-.28a1.42,1.42,0,0,1,.45-.08,2.52,2.52,0,0,1,.77.15c.3.09.45.21.45.33a1.89,1.89,0,0,1-.1.56,8.55,8.55,0,0,0-.19,1.16c-.07.54-.13,1.31-.2,2.32s-.1,2.36-.1,4.09c0,1.88,0,3.46.06,4.75s.09,2.39.14,3.28a1.24,1.24,0,0,0,.15.66,1.6,1.6,0,0,0,.34.38l.33.26a.33.33,0,0,1,.16.27c0,.22-.24.38-.71.5a7.72,7.72,0,0,1-1.84.17,8.07,8.07,0,0,1-1.81-.12q-.39-.14-.39-.39a.58.58,0,0,1,.12-.27,4,4,0,0,1,.47-.53.47.47,0,0,0,.17-.27,4.21,4.21,0,0,0,.12-.74c0-.37.07-.91.08-1.63s0-1.68,0-2.89C110.31,24.75,110.28,23.21,110.21,22.06Z"/></svg>
