<svg id="Layer_1" data-name="Layer 1" xmlns="http://www.w3.org/2000/svg" width="213" height="140" viewBox="0 0 213 140"><defs><style>.cls-1{fill:#42210b;}.cls-2{fill:#603813;}.cls-3{fill:#68543a;}</style></defs><title>try_again</title><rect class="cls-1" x="11" y="19" width="191" height="103"/><rect class="cls-2" x="17.19" y="25.32" width="177.74" height="90.35"/><rect class="cls-3" x="19.84" y="28.94" width="172.43" height="84.03"/><path d="M84.67,51.08a4.89,4.89,0,0,1-.54,0,.53.53,0,0,1-.49-.35,1.65,1.65,0,0,1-.17-.72.88.88,0,0,1,.29-.53.83.83,0,0,1,.54-.31l.71,0,1,.07,1.41.09c.55,0,1.21,0,2,0,1,0,2,0,3-.11s2-.12,3-.12a.36.36,0,0,1,.41.4.54.54,0,0,1-.13.29,3.1,3.1,0,0,1-.3.38,2,2,0,0,1-.39.33,1,1,0,0,1-.42.17c-.27,0-.59.07-.94.09l-1.08,0-1.07,0h-.88c-.09.54-.17,1.13-.23,1.78s-.12,1.38-.17,2.2-.08,1.75-.11,2.79,0,2.21,0,3.54a3.72,3.72,0,0,0,.11.88,2.16,2.16,0,0,0,.37.78,1.87,1.87,0,0,0,.73.58,2.7,2.7,0,0,0,1.18.22,3.28,3.28,0,0,0,.48,0,2.82,2.82,0,0,1,.42,0,.22.22,0,0,1,.23.21,1.76,1.76,0,0,1,0,.38.83.83,0,0,1-.24.64,3.27,3.27,0,0,1-.84.42,2.79,2.79,0,0,1-.94.2,3.45,3.45,0,0,1-1.47-.31,3.76,3.76,0,0,1-1.11-.8,3.59,3.59,0,0,1-.71-1.06,2.71,2.71,0,0,1-.25-1.08,4.51,4.51,0,0,1,.07-.73c0-.3.09-.69.14-1.18s.09-1.08.13-1.79.07-1.56.07-2.55q0-1.26,0-2.46c0-.81-.07-1.63-.16-2.47H85.17Z"/><path d="M103.21,47.85a4,4,0,0,1,.69-.05,6,6,0,0,1,1.93.31,5.83,5.83,0,0,1,1.55.81,4.28,4.28,0,0,1,1,1.14,2.37,2.37,0,0,1,.38,1.27,4.06,4.06,0,0,1-.33,1.72,3.62,3.62,0,0,1-.83,1.2,5.22,5.22,0,0,1-1.08.77,9.06,9.06,0,0,1-1.07.46l-.8.29c-.09,0-.14.1-.14.16s.08.12.22.19.47.27,1,.59l1.76,1.15,2.19,1.48c.59.4,1.18.78,1.77,1.17l1.7,1.1c.54.36,1,.67,1.49,1l1.13.7a4.46,4.46,0,0,0,2.24.65.28.28,0,0,1,.21.11.5.5,0,0,1,.1.31.83.83,0,0,1-.24.42,4.8,4.8,0,0,1-.55.56,5.38,5.38,0,0,1-.63.49,1,1,0,0,1-.48.21,3.28,3.28,0,0,1-1.23-.62c-.62-.41-1.36-.92-2.21-1.54s-1.77-1.3-2.77-2-2-1.45-2.94-2.1-1.88-1.23-2.73-1.71a7.43,7.43,0,0,0-2.1-.9c0,.38-.06.79-.08,1.25s0,.91,0,1.36v.75c0,.77,0,1.39,0,1.88s.05.88.08,1.19.05.56.08.74a3.25,3.25,0,0,1,0,.51.47.47,0,0,1-.15.39,1,1,0,0,1-.53.11,2.33,2.33,0,0,1-.52-.07c-.22,0-.44-.1-.65-.17a1.74,1.74,0,0,1-.53-.25.41.41,0,0,1-.22-.32.71.71,0,0,1,.06-.28,2.93,2.93,0,0,0,.17-.38,5.43,5.43,0,0,0,.19-.6,4.11,4.11,0,0,0,.13-.9c0-.15,0-.51,0-1.08s0-1.23.07-2,0-1.57.07-2.42,0-1.63,0-2.34c0-.32,0-.72,0-1.2s0-1,0-1.45-.07-.89-.11-1.26a1.28,1.28,0,0,0-.18-.63,1,1,0,0,1-.57-.84c0-.24.18-.41.54-.5l2.39-.65Zm-.7,7.4a.39.39,0,0,0,.21.06,1.3,1.3,0,0,0,.44-.14l1-.48.54-.25a4.06,4.06,0,0,0,.58-.35,2.62,2.62,0,0,0,.55-.5,2.51,2.51,0,0,0,.41-.72,5.73,5.73,0,0,0,.31-1.87,1.53,1.53,0,0,0-.13-.65,2.83,2.83,0,0,0-.29-.47.57.57,0,0,0-.24-.2l-.43-.21a2.08,2.08,0,0,0-.44-.15,1.17,1.17,0,0,0-.31-.06,3.1,3.1,0,0,0-.41,0,4.9,4.9,0,0,0-.62.13,3.33,3.33,0,0,0-.56.19c-.17.08-.26.16-.27.26a11.07,11.07,0,0,0-.22,1.38c-.06.5-.1,1-.14,1.46s-.06.91-.07,1.32,0,.71,0,.93S102.45,55.22,102.51,55.25Z"/><path d="M120.38,67.24a5,5,0,0,1-.65-.4,5.35,5.35,0,0,1-.54-.47A.66.66,0,0,1,119,66a.47.47,0,0,1,.1-.3.94.94,0,0,1,.51-.21,1.61,1.61,0,0,0,.8-.53,4.93,4.93,0,0,0,.79-1.12,8.63,8.63,0,0,0,.6-1.48,5.71,5.71,0,0,0,.25-1.63,2.35,2.35,0,0,0-.11-.68,5.79,5.79,0,0,0-.47-1c-.24-.42-.59-1-1.06-1.67s-1.09-1.6-1.87-2.72q-.8-1.11-1.41-1.89c-.42-.51-.76-.94-1-1.29a7.8,7.8,0,0,1-.63-.86,1.2,1.2,0,0,1-.22-.61.87.87,0,0,1,.24-.49,4.55,4.55,0,0,1,1.27-1,1.24,1.24,0,0,1,.54-.19.3.3,0,0,1,.28.15,1.5,1.5,0,0,1,.12.39c0,.16.06.34.08.53a3.61,3.61,0,0,0,.15.61A12.13,12.13,0,0,0,119,52c.5.79,1,1.61,1.6,2.45s1.11,1.66,1.62,2.45a12.1,12.1,0,0,1,1.1,2c.43-.9.9-1.81,1.39-2.73s1-1.8,1.37-2.62.77-1.56,1-2.22a4.6,4.6,0,0,0,.41-1.56,1.33,1.33,0,0,1,.12-.71.5.5,0,0,1,.43-.16,2,2,0,0,1,.53.1c.23.07.45.15.67.24a2.5,2.5,0,0,1,.58.33.56.56,0,0,1,.25.42.37.37,0,0,1-.09.23l-.23.29-.37.46a6,6,0,0,0-.49.76l-4.72,8.54a6.84,6.84,0,0,0-.4.91c-.15.42-.32.9-.52,1.42l-.6,1.64c-.21.57-.42,1.08-.62,1.54a10.68,10.68,0,0,1-.57,1.13c-.18.3-.36.45-.52.45A1.42,1.42,0,0,1,120.38,67.24Z"/><path d="M68.67,94.48a2.25,2.25,0,0,0-.9,1L66.4,97.88a1.48,1.48,0,0,0-.17.54c0,.18-.15.28-.41.28a3.75,3.75,0,0,1-1.23-.17c-.31-.11-.47-.27-.47-.48a.77.77,0,0,1,.28-.53,8.74,8.74,0,0,0,.63-.76c.33-.43.69-.94,1.09-1.54s.81-1.22,1.21-1.87.79-1.32,1.18-2,.72-1.27,1-1.83.53-1.05.71-1.47a2.6,2.6,0,0,0,.28-.89,2.64,2.64,0,0,0-.93-1.51l-2.25-2.32a3.5,3.5,0,0,0-.66-.59.47.47,0,0,1-.27-.39c0-.08.07-.17.2-.27a5,5,0,0,1,.48-.31,4.67,4.67,0,0,1,.56-.26,1.38,1.38,0,0,1,.48-.12,4.82,4.82,0,0,1,.61,0,.86.86,0,0,1,.37.13.64.64,0,0,1,.24.29c.07.13.15.31.24.53a2.12,2.12,0,0,0,.34.56c.19.27.39.53.59.79q2.22,2.74,3.84,4.62c1.07,1.25,2.06,2.35,2.94,3.29s1.74,1.8,2.55,2.56,1.71,1.59,2.68,2.47A1.33,1.33,0,0,0,83,97l.42.15a.62.62,0,0,1,.29.15.47.47,0,0,1,.11.35.66.66,0,0,1-.15.32,3.48,3.48,0,0,1-.37.42,3.2,3.2,0,0,1-.44.35.81.81,0,0,1-.38.14h-.83a.3.3,0,0,1-.3-.19,1.25,1.25,0,0,0-.22-.37,45.11,45.11,0,0,0-3.67-4.12H70.23A3.52,3.52,0,0,0,68.67,94.48ZM70,91.41l-.47.84a.78.78,0,0,0-.11.34.24.24,0,0,0,.07.18.58.58,0,0,0,.34.1c.18,0,.46,0,.82,0l1.54,0,1.78,0,1.15,0a5.8,5.8,0,0,0,.66-.07,1.31,1.31,0,0,0,.33-.1l-4.31-4.48Z"/><path d="M95.34,92.93a1.75,1.75,0,0,1,.8-.12.54.54,0,0,1,.27.06.41.41,0,0,1,.18.29,3.08,3.08,0,0,1,.08.73c0,.33,0,.79,0,1.39,0,1.25,0,2.26.12,3a19.57,19.57,0,0,1,.12,2,.83.83,0,0,1-.15.56.88.88,0,0,1-.64.17.46.46,0,0,1-.27-.08.82.82,0,0,1-.22-.33,2.62,2.62,0,0,1-.21-.68c-.06-.3-.13-.69-.21-1.18a.75.75,0,0,0-.82-.73,2.31,2.31,0,0,0-.39.06l-.68.11-.82.11a5.86,5.86,0,0,1-5.87-2.45,7.13,7.13,0,0,1-1-2.2,8.39,8.39,0,0,1-.28-2,11.4,11.4,0,0,1,.52-3.42,8.42,8.42,0,0,1,1.63-3,8.56,8.56,0,0,1,2.81-2.14,9.17,9.17,0,0,1,4-.83,6.41,6.41,0,0,1,2.39.35,1.17,1.17,0,0,1,.82,1.11.67.67,0,0,1-.16.41,1.67,1.67,0,0,1-.39.36,2.39,2.39,0,0,1-.43.25.89.89,0,0,1-.36.1.61.61,0,0,1-.4-.17c-.14-.11-.4-.35-.81-.73a1.41,1.41,0,0,0-.52-.32,2.47,2.47,0,0,0-.6-.07,4.4,4.4,0,0,0-2.54.83,8.64,8.64,0,0,0-2.09,2.09,10.74,10.74,0,0,0-1.43,2.75,8.62,8.62,0,0,0-.52,2.85,7.93,7.93,0,0,0,.32,2.46A3.38,3.38,0,0,0,88.53,96a3,3,0,0,0,1.3.72,6.3,6.3,0,0,0,1.59.19,4.81,4.81,0,0,0,1.36-.18,4.21,4.21,0,0,0,1.07-.46,2.57,2.57,0,0,0,.71-.62,1.47,1.47,0,0,0,.32-.67l.22-1.68A.5.5,0,0,1,95.34,92.93Z"/><path d="M104.75,94.48a2.27,2.27,0,0,0-.91,1l-1.37,2.43a1.3,1.3,0,0,0-.16.54c0,.18-.16.28-.41.28a3.77,3.77,0,0,1-1.24-.17c-.31-.11-.46-.27-.46-.48a.8.8,0,0,1,.27-.53,8.74,8.74,0,0,0,.63-.76c.33-.43.69-.94,1.1-1.54s.8-1.22,1.2-1.87.8-1.32,1.18-2,.72-1.27,1-1.83.53-1.05.71-1.47a2.75,2.75,0,0,0,.27-.89,2.64,2.64,0,0,0-.93-1.51l-2.25-2.32a3.21,3.21,0,0,0-.65-.59.46.46,0,0,1-.28-.39q0-.12.21-.27a3.33,3.33,0,0,1,.48-.31,4,4,0,0,1,.56-.26,1.29,1.29,0,0,1,.48-.12,4.75,4.75,0,0,1,.6,0,.81.81,0,0,1,.37.13.72.72,0,0,1,.25.29c.06.13.14.31.23.53A2.45,2.45,0,0,0,106,83l.59.79q2.22,2.74,3.84,4.62t3,3.29c.88.94,1.73,1.8,2.55,2.56s1.7,1.59,2.67,2.47a1.4,1.4,0,0,0,.52.33l.43.15a.63.63,0,0,1,.28.15.43.43,0,0,1,.11.35.66.66,0,0,1-.15.32,2.79,2.79,0,0,1-.37.42,2.33,2.33,0,0,1-.44.35.74.74,0,0,1-.38.14h-.82a.31.31,0,0,1-.31-.19,1.23,1.23,0,0,0-.21-.37,45.69,45.69,0,0,0-3.68-4.12h-7.26A3.46,3.46,0,0,0,104.75,94.48Zm1.34-3.07c-.24.43-.39.71-.47.84a.78.78,0,0,0-.11.34.29.29,0,0,0,.07.18.61.61,0,0,0,.34.1c.19,0,.46,0,.83,0l1.53,0,1.78,0,1.15,0a5.31,5.31,0,0,0,.66-.07,1.18,1.18,0,0,0,.33-.1l-4.3-4.48Z"/><path d="M123.73,87.72c0-.56,0-1.09,0-1.57a6.12,6.12,0,0,0,0-.66.83.83,0,0,0-.19-.46,2,2,0,0,1-.37-.55A1.13,1.13,0,0,1,123,84a.91.91,0,0,1,.25-.48,5.23,5.23,0,0,1,.57-.59,6.12,6.12,0,0,1,.68-.49,1.1,1.1,0,0,1,.53-.21,1.36,1.36,0,0,1,.69.24c.25.16.38.3.38.41a2.08,2.08,0,0,1-.12.68,2.56,2.56,0,0,0-.15.83c-.08.82-.14,2.2-.18,4.13s-.07,4.58-.07,7.94a7.54,7.54,0,0,1-.21,2.23.71.71,0,0,1-.67.55.89.89,0,0,1-.34-.07.62.62,0,0,1-.26-.36,4,4,0,0,1-.18-.85c0-.38-.08-.91-.1-1.6s0-1.54,0-2.57,0-2.29,0-3.77C123.77,89.05,123.76,88.28,123.73,87.72Z"/><path d="M133.46,87.34c0-.35,0-.7,0-1a2,2,0,0,0-.37-1.37,2.05,2.05,0,0,0-.82-.61l-.82-.32a.5.5,0,0,1-.37-.5q0-.19.3-.42l1-.82a1.26,1.26,0,0,1,.37-.25.74.74,0,0,1,.29,0,.61.61,0,0,1,.31.09,2.24,2.24,0,0,1,.37.38q1.59,1.93,3.26,3.87c1.12,1.29,2.15,2.46,3.11,3.53s1.79,2,2.5,2.71S143.77,93.77,144,94c.14-.95.25-1.86.31-2.73s.1-1.76.1-2.68c0-.72,0-1.36-.08-1.9s-.11-1-.17-1.37-.11-.68-.16-.9a2.06,2.06,0,0,1-.08-.53.54.54,0,0,1,.23-.41,1.51,1.51,0,0,1,.51-.24,4.14,4.14,0,0,1,.63-.11l.6,0a.55.55,0,0,1,.52.24,1.1,1.1,0,0,1,.14.55,5.25,5.25,0,0,1-.14.92q-.13.65-.3,1.74t-.3,2.73c-.1,1.09-.14,2.4-.14,3.94,0,.46,0,1,0,1.49s0,1.1,0,1.7a1,1,0,0,1-.24.6,3.91,3.91,0,0,1-.56.59,4.58,4.58,0,0,1-.62.45,1.08,1.08,0,0,1-.41.18c-.09,0-.17-.1-.24-.31l-.23-.78a7.7,7.7,0,0,0-.4-1.07,4.79,4.79,0,0,0-.75-1.17c-.71-.86-1.45-1.71-2.21-2.54L138,90c-.67-.72-1.27-1.36-1.81-1.92s-1-1-1.22-1.32c-.06.79-.1,1.59-.14,2.42s-.06,1.64-.07,2.43,0,1.51,0,2.2,0,1.25,0,1.72,0,.82,0,1.24,0,.75,0,1a1.25,1.25,0,0,1-.09.46.59.59,0,0,1-.4.33l-1,.25a3,3,0,0,1-.64.08c-.35,0-.52-.13-.52-.39a.77.77,0,0,1,.13-.43c.09-.15.2-.32.32-.54a4.52,4.52,0,0,0,.34-.85,6.32,6.32,0,0,0,.22-1.37l.33-6.92C133.44,88,133.45,87.68,133.46,87.34Z"/></svg>
